%TF.GenerationSoftware,KiCad,Pcbnew,9.0.2-rc1*%
%TF.CreationDate,2025-04-26T18:26:20-04:00*%
%TF.ProjectId,moonclock,6d6f6f6e-636c-46f6-936b-2e6b69636164,rev?*%
%TF.SameCoordinates,PX7088980PY3920060*%
%TF.FileFunction,Copper,L1,Top*%
%TF.FilePolarity,Positive*%
%FSLAX46Y46*%
G04 Gerber Fmt 4.6, Leading zero omitted, Abs format (unit mm)*
G04 Created by KiCad (PCBNEW 9.0.2-rc1) date 2025-04-26 18:26:20*
%MOMM*%
%LPD*%
G01*
G04 APERTURE LIST*
G04 Aperture macros list*
%AMRoundRect*
0 Rectangle with rounded corners*
0 $1 Rounding radius*
0 $2 $3 $4 $5 $6 $7 $8 $9 X,Y pos of 4 corners*
0 Add a 4 corners polygon primitive as box body*
4,1,4,$2,$3,$4,$5,$6,$7,$8,$9,$2,$3,0*
0 Add four circle primitives for the rounded corners*
1,1,$1+$1,$2,$3*
1,1,$1+$1,$4,$5*
1,1,$1+$1,$6,$7*
1,1,$1+$1,$8,$9*
0 Add four rect primitives between the rounded corners*
20,1,$1+$1,$2,$3,$4,$5,0*
20,1,$1+$1,$4,$5,$6,$7,0*
20,1,$1+$1,$6,$7,$8,$9,0*
20,1,$1+$1,$8,$9,$2,$3,0*%
%AMFreePoly0*
4,1,23,0.500000,-0.750000,0.000000,-0.750000,0.000000,-0.745722,-0.065263,-0.745722,-0.191342,-0.711940,-0.304381,-0.646677,-0.396677,-0.554381,-0.461940,-0.441342,-0.495722,-0.315263,-0.495722,-0.250000,-0.500000,-0.250000,-0.500000,0.250000,-0.495722,0.250000,-0.495722,0.315263,-0.461940,0.441342,-0.396677,0.554381,-0.304381,0.646677,-0.191342,0.711940,-0.065263,0.745722,0.000000,0.745722,
0.000000,0.750000,0.500000,0.750000,0.500000,-0.750000,0.500000,-0.750000,$1*%
%AMFreePoly1*
4,1,23,0.000000,0.745722,0.065263,0.745722,0.191342,0.711940,0.304381,0.646677,0.396677,0.554381,0.461940,0.441342,0.495722,0.315263,0.495722,0.250000,0.500000,0.250000,0.500000,-0.250000,0.495722,-0.250000,0.495722,-0.315263,0.461940,-0.441342,0.396677,-0.554381,0.304381,-0.646677,0.191342,-0.711940,0.065263,-0.745722,0.000000,-0.745722,0.000000,-0.750000,-0.500000,-0.750000,
-0.500000,0.750000,0.000000,0.750000,0.000000,0.745722,0.000000,0.745722,$1*%
G04 Aperture macros list end*
%TA.AperFunction,ComponentPad*%
%ADD10RoundRect,0.250001X0.799999X-0.799999X0.799999X0.799999X-0.799999X0.799999X-0.799999X-0.799999X0*%
%TD*%
%TA.AperFunction,ComponentPad*%
%ADD11C,2.100000*%
%TD*%
%TA.AperFunction,SMDPad,CuDef*%
%ADD12RoundRect,0.250000X-0.350000X-0.450000X0.350000X-0.450000X0.350000X0.450000X-0.350000X0.450000X0*%
%TD*%
%TA.AperFunction,ComponentPad*%
%ADD13R,1.700000X1.700000*%
%TD*%
%TA.AperFunction,ComponentPad*%
%ADD14C,1.700000*%
%TD*%
%TA.AperFunction,SMDPad,CuDef*%
%ADD15RoundRect,0.150000X0.512500X0.150000X-0.512500X0.150000X-0.512500X-0.150000X0.512500X-0.150000X0*%
%TD*%
%TA.AperFunction,ComponentPad*%
%ADD16C,1.440000*%
%TD*%
%TA.AperFunction,SMDPad,CuDef*%
%ADD17RoundRect,0.250000X0.350000X0.450000X-0.350000X0.450000X-0.350000X-0.450000X0.350000X-0.450000X0*%
%TD*%
%TA.AperFunction,SMDPad,CuDef*%
%ADD18RoundRect,0.250000X-0.475000X0.337500X-0.475000X-0.337500X0.475000X-0.337500X0.475000X0.337500X0*%
%TD*%
%TA.AperFunction,SMDPad,CuDef*%
%ADD19FreePoly0,0.000000*%
%TD*%
%TA.AperFunction,SMDPad,CuDef*%
%ADD20FreePoly1,0.000000*%
%TD*%
%TA.AperFunction,SMDPad,CuDef*%
%ADD21RoundRect,0.250000X-0.450000X0.350000X-0.450000X-0.350000X0.450000X-0.350000X0.450000X0.350000X0*%
%TD*%
%TA.AperFunction,ComponentPad*%
%ADD22RoundRect,0.250001X-0.799999X0.799999X-0.799999X-0.799999X0.799999X-0.799999X0.799999X0.799999X0*%
%TD*%
%TA.AperFunction,SMDPad,CuDef*%
%ADD23RoundRect,0.150000X0.150000X-0.825000X0.150000X0.825000X-0.150000X0.825000X-0.150000X-0.825000X0*%
%TD*%
%TA.AperFunction,SMDPad,CuDef*%
%ADD24RoundRect,0.150000X0.825000X0.150000X-0.825000X0.150000X-0.825000X-0.150000X0.825000X-0.150000X0*%
%TD*%
%TA.AperFunction,ComponentPad*%
%ADD25RoundRect,0.400000X-1.000000X-0.400000X1.000000X-0.400000X1.000000X0.400000X-1.000000X0.400000X0*%
%TD*%
%TA.AperFunction,ComponentPad*%
%ADD26RoundRect,0.400050X-0.999950X-0.400050X0.999950X-0.400050X0.999950X0.400050X-0.999950X0.400050X0*%
%TD*%
%TA.AperFunction,ComponentPad*%
%ADD27RoundRect,0.400000X-0.400000X-1.000000X0.400000X-1.000000X0.400000X1.000000X-0.400000X1.000000X0*%
%TD*%
%TA.AperFunction,ComponentPad*%
%ADD28RoundRect,0.393700X-0.393700X-1.006300X0.393700X-1.006300X0.393700X1.006300X-0.393700X1.006300X0*%
%TD*%
%TA.AperFunction,SMDPad,CuDef*%
%ADD29RoundRect,0.250000X-0.337500X-0.475000X0.337500X-0.475000X0.337500X0.475000X-0.337500X0.475000X0*%
%TD*%
%TA.AperFunction,SMDPad,CuDef*%
%ADD30RoundRect,0.250000X0.337500X0.475000X-0.337500X0.475000X-0.337500X-0.475000X0.337500X-0.475000X0*%
%TD*%
%TA.AperFunction,SMDPad,CuDef*%
%ADD31RoundRect,0.250000X0.450000X-0.350000X0.450000X0.350000X-0.450000X0.350000X-0.450000X-0.350000X0*%
%TD*%
%TA.AperFunction,SMDPad,CuDef*%
%ADD32FreePoly0,90.000000*%
%TD*%
%TA.AperFunction,SMDPad,CuDef*%
%ADD33FreePoly1,90.000000*%
%TD*%
%TA.AperFunction,ViaPad*%
%ADD34C,6.000000*%
%TD*%
%TA.AperFunction,ViaPad*%
%ADD35C,0.800000*%
%TD*%
%TA.AperFunction,Conductor*%
%ADD36C,0.400000*%
%TD*%
%TA.AperFunction,Conductor*%
%ADD37C,1.000000*%
%TD*%
G04 APERTURE END LIST*
D10*
%TO.P,J2,1,Pin_1*%
%TO.N,/M1+*%
X5292500Y-48870000D03*
D11*
%TO.P,J2,2,Pin_2*%
%TO.N,/M1-*%
X5292500Y-43790000D03*
%TO.P,J2,3,Pin_3*%
%TO.N,/M2+*%
X5292500Y-38710000D03*
%TO.P,J2,4,Pin_4*%
%TO.N,/M2-*%
X5292500Y-33630000D03*
%TD*%
D12*
%TO.P,R6,1*%
%TO.N,/M2_DAC*%
X17750000Y-25250000D03*
%TO.P,R6,2*%
%TO.N,Net-(U4B-+)*%
X19750000Y-25250000D03*
%TD*%
D13*
%TO.P,J4,1,Pin_1*%
%TO.N,GND*%
X23940000Y-35250000D03*
D14*
%TO.P,J4,2,Pin_2*%
%TO.N,+3.3V*%
X26480000Y-35250000D03*
%TO.P,J4,3,Pin_3*%
%TO.N,I2C1_SDA*%
X29020000Y-35250000D03*
%TO.P,J4,4,Pin_4*%
%TO.N,I2C1_SCL*%
X31560000Y-35250000D03*
%TD*%
D15*
%TO.P,U3,1,GNDF*%
%TO.N,GND*%
X5850000Y-10200000D03*
%TO.P,U3,2,GNDS*%
X5850000Y-9250000D03*
%TO.P,U3,3,EN*%
%TO.N,+3.3V*%
X5850000Y-8300000D03*
%TO.P,U3,4,VIN*%
X3575000Y-8300000D03*
%TO.P,U3,5,OUTS*%
%TO.N,VREF_2048*%
X3575000Y-9250000D03*
%TO.P,U3,6,OUTF*%
X3575000Y-10200000D03*
%TD*%
D16*
%TO.P,R1,1,1*%
%TO.N,+3.3V*%
X10710000Y-3755000D03*
%TO.P,R1,2,2*%
%TO.N,/CAL*%
X13250000Y-3755000D03*
%TO.P,R1,3,3*%
%TO.N,GND*%
X15790000Y-3755000D03*
%TD*%
D12*
%TO.P,R3,1*%
%TO.N,/M1_DAC*%
X17750000Y-29250000D03*
%TO.P,R3,2*%
%TO.N,Net-(U4A-+)*%
X19750000Y-29250000D03*
%TD*%
D17*
%TO.P,R9,1*%
%TO.N,Net-(JP2-B)*%
X13750000Y-23150000D03*
%TO.P,R9,2*%
%TO.N,/M2+*%
X11750000Y-23150000D03*
%TD*%
D12*
%TO.P,R5,1*%
%TO.N,/M1-*%
X4750000Y-56750000D03*
%TO.P,R5,2*%
%TO.N,GND*%
X6750000Y-56750000D03*
%TD*%
D18*
%TO.P,C1,1*%
%TO.N,+3.3V*%
X9250000Y-26212500D03*
%TO.P,C1,2*%
%TO.N,GND*%
X9250000Y-28287500D03*
%TD*%
D19*
%TO.P,JP1,1,A*%
%TO.N,/M1-*%
X5100000Y-53750000D03*
D20*
%TO.P,JP1,2,B*%
%TO.N,Net-(JP1-B)*%
X6400000Y-53750000D03*
%TD*%
D17*
%TO.P,R4,1*%
%TO.N,Net-(JP1-B)*%
X13750000Y-33750000D03*
%TO.P,R4,2*%
%TO.N,/M1+*%
X11750000Y-33750000D03*
%TD*%
D21*
%TO.P,R12,1*%
%TO.N,+3.3V*%
X28750000Y-29750000D03*
%TO.P,R12,2*%
%TO.N,I2C1_SDA*%
X28750000Y-31750000D03*
%TD*%
D13*
%TO.P,J1,1,Pin_1*%
%TO.N,+5V*%
X47250000Y-32330000D03*
D14*
%TO.P,J1,2,Pin_2*%
%TO.N,GND*%
X47250000Y-29790000D03*
%TO.P,J1,3,Pin_3*%
%TO.N,DISP_MOSI*%
X47250000Y-27250000D03*
%TO.P,J1,4,Pin_4*%
%TO.N,DISP_CS*%
X47250000Y-24710000D03*
%TO.P,J1,5,Pin_5*%
%TO.N,DISP_SCK*%
X47250000Y-22170000D03*
%TD*%
D22*
%TO.P,J3,1,Pin_1*%
%TO.N,LEFT_BUT*%
X44707500Y-38665000D03*
D11*
%TO.P,J3,2,Pin_2*%
%TO.N,RIGHT_BUT*%
X44707500Y-43745000D03*
%TO.P,J3,3,Pin_3*%
%TO.N,GND*%
X44707500Y-48825000D03*
%TD*%
D12*
%TO.P,R7,1*%
%TO.N,Net-(U4B-+)*%
X17750000Y-27250000D03*
%TO.P,R7,2*%
%TO.N,GND*%
X19750000Y-27250000D03*
%TD*%
D23*
%TO.P,U4,1*%
%TO.N,/M1+*%
X11845000Y-30725000D03*
%TO.P,U4,2,-*%
%TO.N,Net-(JP1-B)*%
X13115000Y-30725000D03*
%TO.P,U4,3,+*%
%TO.N,Net-(U4A-+)*%
X14385000Y-30725000D03*
%TO.P,U4,4,V-*%
%TO.N,GND*%
X15655000Y-30725000D03*
%TO.P,U4,5,+*%
%TO.N,Net-(U4B-+)*%
X15655000Y-25775000D03*
%TO.P,U4,6,-*%
%TO.N,Net-(JP2-B)*%
X14385000Y-25775000D03*
%TO.P,U4,7*%
%TO.N,/M2+*%
X13115000Y-25775000D03*
%TO.P,U4,8,V+*%
%TO.N,+3.3V*%
X11845000Y-25775000D03*
%TD*%
D21*
%TO.P,R10,1*%
%TO.N,+3.3V*%
X11225000Y-15250000D03*
%TO.P,R10,2*%
%TO.N,DAC_CS*%
X11225000Y-17250000D03*
%TD*%
D24*
%TO.P,U2,1,VDD*%
%TO.N,+3.3V*%
X7700000Y-22560000D03*
%TO.P,U2,2,NC*%
%TO.N,unconnected-(U2-NC-Pad2)*%
X7700000Y-21290000D03*
%TO.P,U2,3,~{CS}*%
%TO.N,DAC_CS*%
X7700000Y-20020000D03*
%TO.P,U2,4,SCK*%
%TO.N,DAC_SCK*%
X7700000Y-18750000D03*
%TO.P,U2,5,SDI*%
%TO.N,DAC_MOSI*%
X7700000Y-17480000D03*
%TO.P,U2,6,NC*%
%TO.N,unconnected-(U2-NC-Pad6)*%
X7700000Y-16210000D03*
%TO.P,U2,7,NC*%
%TO.N,unconnected-(U2-NC-Pad7)*%
X7700000Y-14940000D03*
%TO.P,U2,8,~{LDAC}*%
%TO.N,DAC_LDAC*%
X2750000Y-14940000D03*
%TO.P,U2,9,~{SHDN}*%
%TO.N,+3.3V*%
X2750000Y-16210000D03*
%TO.P,U2,10,VoutB*%
%TO.N,/M2_DAC*%
X2750000Y-17480000D03*
%TO.P,U2,11,VrefB*%
%TO.N,VREF_2048*%
X2750000Y-18750000D03*
%TO.P,U2,12,AVSS*%
%TO.N,GND*%
X2750000Y-20020000D03*
%TO.P,U2,13,VrefA*%
%TO.N,VREF_2048*%
X2750000Y-21290000D03*
%TO.P,U2,14,VoutA*%
%TO.N,/M1_DAC*%
X2750000Y-22560000D03*
%TD*%
D25*
%TO.P,U1,1,GP0*%
%TO.N,GPS_RX*%
X38365000Y-2015000D03*
%TO.P,U1,2,GP1*%
%TO.N,GPS_TX*%
X38365000Y-4555000D03*
%TO.P,U1,3,GP2*%
%TO.N,DISP_SCK*%
X38365000Y-7095000D03*
%TO.P,U1,4,GP3*%
%TO.N,DISP_MOSI*%
X38365000Y-9635000D03*
%TO.P,U1,5,GP4*%
%TO.N,RIGHT_BUT*%
X38365000Y-12175000D03*
D26*
%TO.P,U1,6,GP5*%
%TO.N,DISP_CS*%
X38365000Y-14715000D03*
%TO.P,U1,7,GP6*%
%TO.N,unconnected-(U1-GP6-Pad7)*%
X38365000Y-17255000D03*
%TO.P,U1,8,GP7*%
%TO.N,unconnected-(U1-GP7-Pad8)*%
X38365000Y-19795000D03*
%TO.P,U1,9,GP8*%
%TO.N,LEFT_BUT*%
X38365000Y-22335000D03*
D27*
%TO.P,U1,10,GP9*%
%TO.N,unconnected-(U1-GP9-Pad10)*%
X35225000Y-23145000D03*
D28*
%TO.P,U1,11,GP10*%
%TO.N,I2C1_SDA*%
X32685000Y-23145000D03*
%TO.P,U1,12,GP11*%
%TO.N,I2C1_SCL*%
X30145000Y-23145000D03*
%TO.P,U1,13,GP12*%
%TO.N,unconnected-(U1-GP12-Pad13)*%
X27605000Y-23145000D03*
%TO.P,U1,14,GP13*%
%TO.N,unconnected-(U1-GP13-Pad14)*%
X25065000Y-23145000D03*
D26*
%TO.P,U1,15,GP14*%
%TO.N,DAC_SCK*%
X21925000Y-22335000D03*
%TO.P,U1,16,GP15*%
%TO.N,DAC_MOSI*%
X21925000Y-19795000D03*
%TO.P,U1,17,GP26*%
%TO.N,DAC_CS*%
X21925000Y-17255000D03*
%TO.P,U1,18,GP27*%
%TO.N,DAC_LDAC*%
X21925000Y-14715000D03*
%TO.P,U1,19,GP28*%
%TO.N,unconnected-(U1-GP28-Pad19)*%
X21925000Y-12175000D03*
%TO.P,U1,20,GP29*%
%TO.N,/CAL*%
X21925000Y-9635000D03*
%TO.P,U1,21,3V3*%
%TO.N,+3.3V*%
X21925000Y-7095000D03*
%TO.P,U1,22,GND*%
%TO.N,GND*%
X21925000Y-4555000D03*
%TO.P,U1,23,5V*%
%TO.N,+5V*%
X21925000Y-2015000D03*
%TD*%
D21*
%TO.P,R11,1*%
%TO.N,+3.3V*%
X13725000Y-15250000D03*
%TO.P,R11,2*%
%TO.N,DAC_LDAC*%
X13725000Y-17250000D03*
%TD*%
D12*
%TO.P,R2,1*%
%TO.N,Net-(U4A-+)*%
X17750000Y-31250000D03*
%TO.P,R2,2*%
%TO.N,GND*%
X19750000Y-31250000D03*
%TD*%
D29*
%TO.P,C2,1*%
%TO.N,VREF_2048*%
X3675000Y-12750000D03*
%TO.P,C2,2*%
%TO.N,GND*%
X5750000Y-12750000D03*
%TD*%
D12*
%TO.P,R8,1*%
%TO.N,/M2-*%
X5250000Y-28250000D03*
%TO.P,R8,2*%
%TO.N,GND*%
X7250000Y-28250000D03*
%TD*%
D30*
%TO.P,C4,1*%
%TO.N,+3.3V*%
X7287500Y-26250000D03*
%TO.P,C4,2*%
%TO.N,GND*%
X5212500Y-26250000D03*
%TD*%
D31*
%TO.P,R14,1*%
%TO.N,+3.3V*%
X42250000Y-6750000D03*
%TO.P,R14,2*%
%TO.N,GPS_RX*%
X42250000Y-4750000D03*
%TD*%
D13*
%TO.P,J5,1,Pin_1*%
%TO.N,+3.3V*%
X47250000Y-17060000D03*
D14*
%TO.P,J5,2,Pin_2*%
%TO.N,GND*%
X47250000Y-14520000D03*
%TO.P,J5,3,Pin_3*%
%TO.N,GPS_TX*%
X47250000Y-11980000D03*
%TO.P,J5,4,Pin_4*%
%TO.N,GPS_RX*%
X47250000Y-9440000D03*
%TD*%
D18*
%TO.P,C3,1*%
%TO.N,+3.3V*%
X8712500Y-8175000D03*
%TO.P,C3,2*%
%TO.N,GND*%
X8712500Y-10250000D03*
%TD*%
D21*
%TO.P,R13,1*%
%TO.N,+3.3V*%
X31250000Y-29750000D03*
%TO.P,R13,2*%
%TO.N,I2C1_SCL*%
X31250000Y-31750000D03*
%TD*%
D32*
%TO.P,JP2,1,A*%
%TO.N,/M2-*%
X2750000Y-27550000D03*
D33*
%TO.P,JP2,2,B*%
%TO.N,Net-(JP2-B)*%
X2750000Y-26250000D03*
%TD*%
D34*
%TO.N,*%
X46750000Y-3250000D03*
X3250000Y-3250000D03*
X46750000Y-76750000D03*
X3250000Y-76750000D03*
D35*
%TO.N,GND*%
X42250000Y-1250000D03*
X10250000Y-40750000D03*
X17250000Y-35250000D03*
X7000000Y-1250000D03*
X18250000Y-41500000D03*
X44000000Y-69750000D03*
X40250000Y-57500000D03*
X44500000Y-28750000D03*
X25000000Y-31500000D03*
X23850000Y-26550000D03*
X30500000Y-59000000D03*
X33250000Y-46750000D03*
X46000000Y-46500000D03*
X11250000Y-75750000D03*
X48500000Y-19250000D03*
X37150000Y-26550000D03*
X38500000Y-30500000D03*
X48750000Y-34750000D03*
X18450000Y-11650000D03*
X26500000Y-77000000D03*
X18750000Y-54750000D03*
X3250000Y-41250000D03*
X25250000Y-19750000D03*
X24250000Y-72250000D03*
X7000000Y-46250000D03*
X44250000Y-40500000D03*
X14987500Y-28287500D03*
X8750000Y-11650000D03*
X26000000Y-46250000D03*
X13150000Y-11650000D03*
X7000000Y-36250000D03*
X21650000Y-26550000D03*
X34750000Y-75000000D03*
X6500000Y-6000000D03*
X15750000Y-33850000D03*
X4000000Y-61750000D03*
X33750000Y-10750000D03*
X48750000Y-7250000D03*
X3000000Y-36250000D03*
X33750000Y-3250000D03*
X14250000Y-66750000D03*
X28750000Y-7750000D03*
X1500000Y-7250000D03*
X34250000Y-17250000D03*
%TO.N,+3.3V*%
X43050000Y-27750000D03*
X4210000Y-16210000D03*
X7850000Y-13550000D03*
X26450000Y-27750000D03*
X43051000Y-23250000D03*
X15895000Y-7095000D03*
%TO.N,VREF_2048*%
X4395000Y-21050000D03*
X2350000Y-12750000D03*
X4150000Y-18850000D03*
%TO.N,DISP_CS*%
X44250000Y-22450000D03*
%TO.N,/M2+*%
X13050000Y-27350000D03*
X10250000Y-35450000D03*
%TO.N,RIGHT_BUT*%
X40850000Y-12150000D03*
X40050000Y-24450000D03*
%TO.N,Net-(JP2-B)*%
X2850000Y-24650000D03*
X9250000Y-24850000D03*
%TO.N,/CAL*%
X15865000Y-9635000D03*
%TO.N,/M1_DAC*%
X16250000Y-28350000D03*
X3850000Y-24150000D03*
%TO.N,/M2_DAC*%
X12905964Y-20894036D03*
X4350000Y-17650000D03*
%TO.N,DAC_CS*%
X9550000Y-16550000D03*
X9350000Y-19850000D03*
%TO.N,DAC_LDAC*%
X14650000Y-13750000D03*
X4250000Y-14650000D03*
%TD*%
D36*
%TO.N,I2C1_SDA*%
X30620000Y-36850000D02*
X29020000Y-35250000D01*
X34450000Y-34850000D02*
X32450000Y-36850000D01*
X32450000Y-36850000D02*
X30620000Y-36850000D01*
X34450000Y-29050000D02*
X34450000Y-34850000D01*
X32685000Y-27285000D02*
X34450000Y-29050000D01*
X32685000Y-22545000D02*
X32685000Y-27285000D01*
%TO.N,RIGHT_BUT*%
X46850000Y-41602500D02*
X44707500Y-43745000D01*
X45450000Y-35950000D02*
X46850000Y-37350000D01*
X40050000Y-26950000D02*
X45450000Y-32350000D01*
X46850000Y-37350000D02*
X46850000Y-41602500D01*
X40050000Y-24450000D02*
X40050000Y-26950000D01*
X45450000Y-32350000D02*
X45450000Y-35950000D01*
%TO.N,GND*%
X15750000Y-34350000D02*
X15750000Y-33850000D01*
X13650000Y-36450000D02*
X15750000Y-34350000D01*
X8450000Y-56050000D02*
X8450000Y-51950000D01*
X7750000Y-56750000D02*
X8450000Y-56050000D01*
X6750000Y-56750000D02*
X7750000Y-56750000D01*
X8450000Y-51950000D02*
X13650000Y-46750000D01*
X13650000Y-46750000D02*
X13650000Y-36450000D01*
%TO.N,/M1-*%
X4050000Y-53750000D02*
X5100000Y-53750000D01*
X3350000Y-53050000D02*
X4050000Y-53750000D01*
X3350000Y-45732500D02*
X3350000Y-53050000D01*
X5292500Y-43790000D02*
X3350000Y-45732500D01*
%TO.N,Net-(JP1-B)*%
X6400000Y-53000000D02*
X6400000Y-53750000D01*
X12750000Y-46650000D02*
X6400000Y-53000000D01*
X13750000Y-34650000D02*
X12750000Y-35650000D01*
X12750000Y-35650000D02*
X12750000Y-46650000D01*
X13750000Y-33750000D02*
X13750000Y-34650000D01*
%TO.N,+3.3V*%
X9950000Y-15250000D02*
X11225000Y-15250000D01*
X5950000Y-14650000D02*
X5950000Y-22550000D01*
X7850000Y-13550000D02*
X8250000Y-13550000D01*
X6750000Y-13850000D02*
X5950000Y-14650000D01*
X7550000Y-13850000D02*
X6750000Y-13850000D01*
X8250000Y-13550000D02*
X9950000Y-15250000D01*
X7850000Y-13550000D02*
X7550000Y-13850000D01*
%TO.N,GND*%
X7887500Y-11612500D02*
X8712500Y-11612500D01*
X6750000Y-12750000D02*
X7887500Y-11612500D01*
X5750000Y-12750000D02*
X6750000Y-12750000D01*
%TO.N,/M2_DAC*%
X17750000Y-23650000D02*
X17750000Y-25250000D01*
X15150000Y-21050000D02*
X17750000Y-23650000D01*
X13444035Y-21050000D02*
X15150000Y-21050000D01*
X13288071Y-20894036D02*
X13444035Y-21050000D01*
X12905964Y-20894036D02*
X13288071Y-20894036D01*
%TO.N,Net-(JP2-B)*%
X9250000Y-24750000D02*
X9250000Y-24850000D01*
X10299942Y-23700058D02*
X9250000Y-24750000D01*
X10299942Y-22700058D02*
X10299942Y-23700058D01*
X13000000Y-22000000D02*
X11000000Y-22000000D01*
X14385000Y-23385000D02*
X13000000Y-22000000D01*
X11000000Y-22000000D02*
X10299942Y-22700058D01*
X14385000Y-25775000D02*
X14385000Y-23385000D01*
%TO.N,GND*%
X9212500Y-28250000D02*
X9250000Y-28287500D01*
X5750000Y-12750000D02*
X5750000Y-13750000D01*
X5850000Y-10200000D02*
X7250000Y-10200000D01*
D37*
X8750000Y-11650000D02*
X8850000Y-11750000D01*
X23950000Y-26650000D02*
X23850000Y-26550000D01*
D36*
X5250000Y-26250000D02*
X7250000Y-28250000D01*
X9250000Y-28287500D02*
X14987500Y-28287500D01*
D37*
X22525000Y-4555000D02*
X16590000Y-4555000D01*
D36*
X44707500Y-48825000D02*
X42550000Y-46667500D01*
X5850000Y-9250000D02*
X6950000Y-9250000D01*
X5212500Y-14287500D02*
X5212500Y-20050000D01*
X7250000Y-9550000D02*
X7250000Y-10200000D01*
X15655000Y-28955000D02*
X15655000Y-30725000D01*
X2750000Y-20020000D02*
X5182500Y-20020000D01*
X20950000Y-27250000D02*
X21650000Y-26550000D01*
D37*
X13150000Y-11650000D02*
X18450000Y-11650000D01*
D36*
X7250000Y-10200000D02*
X8662500Y-10200000D01*
X5212500Y-26250000D02*
X5250000Y-26250000D01*
X19750000Y-31250000D02*
X23940000Y-31250000D01*
D37*
X8712500Y-11612500D02*
X8750000Y-11650000D01*
D36*
X5750000Y-13750000D02*
X5212500Y-14287500D01*
D37*
X8712500Y-10250000D02*
X8712500Y-11612500D01*
D36*
X42550000Y-31950000D02*
X37150000Y-26550000D01*
D37*
X16590000Y-4555000D02*
X15790000Y-3755000D01*
X23940000Y-31250000D02*
X23940000Y-26660000D01*
D36*
X7250000Y-28250000D02*
X9212500Y-28250000D01*
X42550000Y-46667500D02*
X42550000Y-31950000D01*
X6950000Y-9250000D02*
X7250000Y-9550000D01*
X5182500Y-20020000D02*
X5212500Y-20050000D01*
X5212500Y-26250000D02*
X5212500Y-20050000D01*
D37*
X23940000Y-35250000D02*
X23940000Y-31250000D01*
D36*
X8662500Y-10200000D02*
X8712500Y-10250000D01*
X5250000Y-26287500D02*
X5212500Y-26250000D01*
D37*
X23940000Y-26660000D02*
X23950000Y-26650000D01*
D36*
X19750000Y-27250000D02*
X20950000Y-27250000D01*
X14987500Y-28287500D02*
X15655000Y-28955000D01*
%TO.N,+3.3V*%
X2750000Y-16210000D02*
X4210000Y-16210000D01*
D37*
X11225000Y-8025000D02*
X11225000Y-15250000D01*
X11150000Y-7950000D02*
X11225000Y-8025000D01*
D36*
X9250000Y-26212500D02*
X10212500Y-26212500D01*
X11845000Y-26755000D02*
X11845000Y-25775000D01*
X42250000Y-6750000D02*
X42250000Y-8250000D01*
X44750000Y-10750000D02*
X44750000Y-16250000D01*
X5850000Y-8300000D02*
X8587500Y-8300000D01*
X5960000Y-22560000D02*
X5950000Y-22550000D01*
X8587500Y-8300000D02*
X8712500Y-8175000D01*
D37*
X26450000Y-29750000D02*
X26450000Y-27750000D01*
D36*
X26450000Y-29750000D02*
X26480000Y-29780000D01*
X45560000Y-17060000D02*
X47250000Y-17060000D01*
X7700000Y-22560000D02*
X5960000Y-22560000D01*
X10710000Y-6710000D02*
X11550000Y-7550000D01*
D37*
X43050000Y-23251000D02*
X43050000Y-27750000D01*
X26480000Y-29780000D02*
X26480000Y-35250000D01*
X15895000Y-7095000D02*
X12005000Y-7095000D01*
X12005000Y-7095000D02*
X11550000Y-7550000D01*
D36*
X10212500Y-26212500D02*
X11050000Y-27050000D01*
X42250000Y-8250000D02*
X44750000Y-10750000D01*
D37*
X22525000Y-7095000D02*
X15895000Y-7095000D01*
X11550000Y-7550000D02*
X11150000Y-7950000D01*
D36*
X11050000Y-27050000D02*
X11550000Y-27050000D01*
D37*
X43051000Y-23250000D02*
X43050000Y-23251000D01*
D36*
X11225000Y-15250000D02*
X13725000Y-15250000D01*
X5950000Y-23950000D02*
X5950000Y-22550000D01*
X44750000Y-16250000D02*
X45560000Y-17060000D01*
X7287500Y-26250000D02*
X9212500Y-26250000D01*
X11550000Y-27050000D02*
X11845000Y-26755000D01*
X9212500Y-26250000D02*
X9250000Y-26212500D01*
X10925000Y-8175000D02*
X11150000Y-7950000D01*
X31250000Y-29750000D02*
X26450000Y-29750000D01*
X8712500Y-8175000D02*
X10925000Y-8175000D01*
X7287500Y-25287500D02*
X5950000Y-23950000D01*
X10710000Y-3755000D02*
X10710000Y-6710000D01*
X3575000Y-8300000D02*
X5850000Y-8300000D01*
X7287500Y-26250000D02*
X7287500Y-25287500D01*
%TO.N,VREF_2048*%
X4395000Y-21105000D02*
X4210000Y-21290000D01*
X1950000Y-10150000D02*
X1950000Y-12350000D01*
X4210000Y-21290000D02*
X2750000Y-21290000D01*
X2350000Y-12750000D02*
X3675000Y-12750000D01*
X3575000Y-9250000D02*
X2550000Y-9250000D01*
X4395000Y-21050000D02*
X4395000Y-21105000D01*
X3575000Y-10200000D02*
X2000000Y-10200000D01*
X4050000Y-18750000D02*
X2750000Y-18750000D01*
X2550000Y-9250000D02*
X1950000Y-9850000D01*
X1950000Y-12350000D02*
X2350000Y-12750000D01*
X1950000Y-9850000D02*
X1950000Y-10150000D01*
X2000000Y-10200000D02*
X1950000Y-10150000D01*
X4150000Y-18850000D02*
X4050000Y-18750000D01*
%TO.N,DISP_SCK*%
X47250000Y-22170000D02*
X42650000Y-17570000D01*
X42650000Y-17570000D02*
X42650000Y-10350000D01*
X39395000Y-7095000D02*
X37765000Y-7095000D01*
X42650000Y-10350000D02*
X39395000Y-7095000D01*
%TO.N,DISP_CS*%
X40649000Y-17550000D02*
X40649000Y-15449000D01*
X43749000Y-20650000D02*
X40649000Y-17550000D01*
X44250000Y-21150000D02*
X43750000Y-20650000D01*
X40649000Y-15449000D02*
X39915000Y-14715000D01*
X44250000Y-22450000D02*
X44250000Y-21150000D01*
X39915000Y-14715000D02*
X37765000Y-14715000D01*
X43750000Y-20650000D02*
X43749000Y-20650000D01*
%TO.N,DISP_MOSI*%
X40335000Y-9635000D02*
X41950000Y-11250000D01*
X45150000Y-26850000D02*
X45550000Y-27250000D01*
X45550000Y-27250000D02*
X47250000Y-27250000D01*
X37765000Y-9635000D02*
X40335000Y-9635000D01*
X45150000Y-20950000D02*
X45150000Y-26850000D01*
X41950000Y-11250000D02*
X41950000Y-17750000D01*
X41950000Y-17750000D02*
X45150000Y-20950000D01*
%TO.N,/M2-*%
X5250000Y-29050000D02*
X4750000Y-29550000D01*
X4750000Y-29550000D02*
X2750000Y-29550000D01*
X5250000Y-28250000D02*
X5250000Y-29050000D01*
X2750000Y-31087500D02*
X5292500Y-33630000D01*
X2750000Y-27550000D02*
X2750000Y-29550000D01*
X2750000Y-29550000D02*
X2750000Y-31087500D01*
%TO.N,/M1+*%
X11845000Y-30725000D02*
X11845000Y-33655000D01*
X11845000Y-33655000D02*
X11750000Y-33750000D01*
X11750000Y-33750000D02*
X11750000Y-46550000D01*
X11750000Y-46550000D02*
X9430000Y-48870000D01*
X9430000Y-48870000D02*
X5292500Y-48870000D01*
%TO.N,/M1-*%
X4650000Y-55450000D02*
X4750000Y-55550000D01*
X5100000Y-53750000D02*
X5100000Y-55000000D01*
X5100000Y-55000000D02*
X4650000Y-55450000D01*
X4750000Y-55550000D02*
X4750000Y-56750000D01*
%TO.N,/M2+*%
X11750000Y-22750000D02*
X11750000Y-23050000D01*
X10250000Y-35450000D02*
X6990000Y-38710000D01*
X13115000Y-24415000D02*
X13115000Y-25775000D01*
X13115000Y-27285000D02*
X13050000Y-27350000D01*
X11750000Y-23050000D02*
X13115000Y-24415000D01*
X6990000Y-38710000D02*
X5292500Y-38710000D01*
X13115000Y-25775000D02*
X13115000Y-27285000D01*
%TO.N,RIGHT_BUT*%
X37765000Y-12175000D02*
X40825000Y-12175000D01*
X40825000Y-12175000D02*
X40850000Y-12150000D01*
%TO.N,LEFT_BUT*%
X44707500Y-38665000D02*
X44707500Y-32707500D01*
X44707500Y-32707500D02*
X38050000Y-26050000D01*
X38050000Y-26050000D02*
X38050000Y-22620000D01*
X38050000Y-22620000D02*
X37765000Y-22335000D01*
%TO.N,I2C1_SCL*%
X32750000Y-31750000D02*
X31250000Y-31750000D01*
X30145000Y-22545000D02*
X30145000Y-25945000D01*
X31250000Y-31750000D02*
X31250000Y-34940000D01*
X33650000Y-29450000D02*
X33650000Y-30850000D01*
X30145000Y-25945000D02*
X33650000Y-29450000D01*
X33650000Y-30850000D02*
X32750000Y-31750000D01*
X31250000Y-34940000D02*
X31560000Y-35250000D01*
%TO.N,I2C1_SDA*%
X28750000Y-34980000D02*
X29020000Y-35250000D01*
X28750000Y-31750000D02*
X28750000Y-34980000D01*
%TO.N,GPS_RX*%
X47250000Y-9440000D02*
X45040000Y-9440000D01*
X37765000Y-2015000D02*
X41115000Y-2015000D01*
X44650000Y-6550000D02*
X42850000Y-4750000D01*
X42250000Y-3150000D02*
X42250000Y-4750000D01*
X41115000Y-2015000D02*
X42250000Y-3150000D01*
X42850000Y-4750000D02*
X42250000Y-4750000D01*
X44650000Y-9050000D02*
X44650000Y-6550000D01*
X45040000Y-9440000D02*
X44650000Y-9050000D01*
%TO.N,Net-(JP1-B)*%
X13115000Y-30725000D02*
X13115000Y-32215000D01*
X13115000Y-32215000D02*
X13750000Y-32850000D01*
X13750000Y-32850000D02*
X13750000Y-33750000D01*
%TO.N,Net-(JP2-B)*%
X2850000Y-24650000D02*
X2850000Y-26150000D01*
X2850000Y-26150000D02*
X2750000Y-26250000D01*
%TO.N,/CAL*%
X22525000Y-9635000D02*
X15865000Y-9635000D01*
%TO.N,Net-(U4A-+)*%
X17750000Y-31250000D02*
X17750000Y-32250000D01*
X15250000Y-32750000D02*
X14385000Y-31885000D01*
X17750000Y-32250000D02*
X17250000Y-32750000D01*
X14385000Y-31885000D02*
X14385000Y-30725000D01*
X17250000Y-32750000D02*
X15250000Y-32750000D01*
X19750000Y-29250000D02*
X17750000Y-31250000D01*
%TO.N,/M1_DAC*%
X17750000Y-29250000D02*
X17150000Y-29250000D01*
X2750000Y-22560000D02*
X4160000Y-22560000D01*
X4160000Y-22560000D02*
X4450000Y-22850000D01*
X4450000Y-23550000D02*
X3850000Y-24150000D01*
X17150000Y-29250000D02*
X16250000Y-28350000D01*
X4450000Y-22850000D02*
X4450000Y-23550000D01*
%TO.N,/M2_DAC*%
X4180000Y-17480000D02*
X2750000Y-17480000D01*
X4350000Y-17650000D02*
X4180000Y-17480000D01*
%TO.N,Net-(U4B-+)*%
X16050000Y-27250000D02*
X15650000Y-26850000D01*
X17750000Y-27250000D02*
X16050000Y-27250000D01*
X15655000Y-26845000D02*
X15655000Y-25775000D01*
X15650000Y-26850000D02*
X15655000Y-26845000D01*
X19750000Y-25250000D02*
X17750000Y-27250000D01*
%TO.N,DAC_CS*%
X7700000Y-20020000D02*
X9180000Y-20020000D01*
X9180000Y-20020000D02*
X9350000Y-19850000D01*
X11700000Y-18550000D02*
X11225000Y-18075000D01*
X9550000Y-16550000D02*
X9550000Y-16650000D01*
X11225000Y-18075000D02*
X11225000Y-17250000D01*
X22525000Y-17255000D02*
X19745000Y-17255000D01*
X19745000Y-17255000D02*
X18450000Y-18550000D01*
X18450000Y-18550000D02*
X11700000Y-18550000D01*
X9550000Y-16650000D02*
X10150000Y-17250000D01*
X10150000Y-17250000D02*
X11225000Y-17250000D01*
%TO.N,DAC_LDAC*%
X15050000Y-17250000D02*
X13725000Y-17250000D01*
X16785000Y-14715000D02*
X15550000Y-14715000D01*
X14650000Y-13750000D02*
X14650000Y-13850000D01*
X15550000Y-14715000D02*
X15550000Y-16750000D01*
X14650000Y-13850000D02*
X15515000Y-14715000D01*
X2750000Y-14940000D02*
X3960000Y-14940000D01*
X15550000Y-16750000D02*
X15050000Y-17250000D01*
X15515000Y-14715000D02*
X16785000Y-14715000D01*
X22525000Y-14715000D02*
X16785000Y-14715000D01*
X3960000Y-14940000D02*
X4250000Y-14650000D01*
%TO.N,DAC_SCK*%
X7700000Y-18750000D02*
X9550000Y-18750000D01*
X9550000Y-18750000D02*
X10750000Y-19950000D01*
X20035000Y-22335000D02*
X22525000Y-22335000D01*
X10750000Y-19950000D02*
X17650000Y-19950000D01*
X17650000Y-19950000D02*
X20035000Y-22335000D01*
%TO.N,DAC_MOSI*%
X18450000Y-19250000D02*
X11150000Y-19250000D01*
X9380000Y-17480000D02*
X7700000Y-17480000D01*
X22525000Y-19795000D02*
X18995000Y-19795000D01*
X18995000Y-19795000D02*
X18450000Y-19250000D01*
X11150000Y-19250000D02*
X9380000Y-17480000D01*
%TD*%
%TA.AperFunction,Conductor*%
%TO.N,GND*%
G36*
X44368229Y-519407D02*
G01*
X44404193Y-568907D01*
X44404193Y-630093D01*
X44380043Y-669501D01*
X44239507Y-810038D01*
X44153167Y-896378D01*
X43934982Y-1162238D01*
X43743897Y-1448215D01*
X43581778Y-1751519D01*
X43581765Y-1751546D01*
X43450146Y-2069303D01*
X43350310Y-2398417D01*
X43283210Y-2735753D01*
X43249500Y-3078023D01*
X43249500Y-3421977D01*
X43275545Y-3686428D01*
X43272154Y-3701881D01*
X43273659Y-3717630D01*
X43265763Y-3731012D01*
X43262433Y-3746191D01*
X43250606Y-3756700D01*
X43242567Y-3770326D01*
X43228312Y-3776511D01*
X43216696Y-3786834D01*
X43200950Y-3788384D01*
X43186438Y-3794682D01*
X43171742Y-3791261D01*
X43155805Y-3792831D01*
X43126713Y-3781395D01*
X43125872Y-3780898D01*
X43019334Y-3715186D01*
X43008311Y-3711533D01*
X42999191Y-3706152D01*
X42985603Y-3690770D01*
X42969067Y-3678608D01*
X42965750Y-3668298D01*
X42958682Y-3660297D01*
X42956783Y-3640420D01*
X42950500Y-3620888D01*
X42950500Y-3081008D01*
X42950499Y-3081004D01*
X42945395Y-3055346D01*
X42923580Y-2945672D01*
X42911082Y-2915500D01*
X42885815Y-2854500D01*
X42870775Y-2818189D01*
X42870772Y-2818185D01*
X42870771Y-2818182D01*
X42838279Y-2769555D01*
X42794114Y-2703458D01*
X42696542Y-2605886D01*
X41561543Y-1470886D01*
X41527613Y-1448215D01*
X41446808Y-1394223D01*
X41319328Y-1341420D01*
X41183996Y-1314500D01*
X41183994Y-1314500D01*
X41183993Y-1314500D01*
X40283210Y-1314500D01*
X40225019Y-1295593D01*
X40195000Y-1260445D01*
X40124383Y-1121851D01*
X40124380Y-1121847D01*
X40124379Y-1121845D01*
X40005261Y-974748D01*
X40005257Y-974743D01*
X40005146Y-974653D01*
X39858154Y-855620D01*
X39858152Y-855619D01*
X39858150Y-855618D01*
X39858149Y-855617D01*
X39689488Y-769680D01*
X39506645Y-720688D01*
X39506641Y-720687D01*
X39506642Y-720687D01*
X39460960Y-717092D01*
X39428021Y-714500D01*
X39428014Y-714500D01*
X37301986Y-714500D01*
X37223356Y-720687D01*
X37223353Y-720688D01*
X37040512Y-769680D01*
X36871847Y-855619D01*
X36871845Y-855620D01*
X36724748Y-974738D01*
X36724738Y-974748D01*
X36605620Y-1121845D01*
X36605619Y-1121847D01*
X36605617Y-1121851D01*
X36519680Y-1290512D01*
X36470703Y-1473301D01*
X36470687Y-1473359D01*
X36467024Y-1519905D01*
X36464505Y-1551926D01*
X36464500Y-1551985D01*
X36464500Y-2478013D01*
X36470687Y-2556643D01*
X36470688Y-2556646D01*
X36488838Y-2624382D01*
X36519680Y-2739488D01*
X36578283Y-2854502D01*
X36605619Y-2908152D01*
X36605620Y-2908154D01*
X36647523Y-2959899D01*
X36724743Y-3055257D01*
X36724748Y-3055261D01*
X36871845Y-3174379D01*
X36871847Y-3174380D01*
X36871851Y-3174383D01*
X36915828Y-3196790D01*
X36959093Y-3240055D01*
X36968664Y-3300487D01*
X36940886Y-3355004D01*
X36915829Y-3373208D01*
X36915282Y-3373488D01*
X36871847Y-3395619D01*
X36871845Y-3395620D01*
X36724748Y-3514738D01*
X36724738Y-3514748D01*
X36605620Y-3661845D01*
X36605619Y-3661847D01*
X36605617Y-3661851D01*
X36519680Y-3830512D01*
X36492663Y-3931344D01*
X36470687Y-4013359D01*
X36468528Y-4040798D01*
X36465391Y-4080666D01*
X36464500Y-4091985D01*
X36464500Y-5018013D01*
X36470687Y-5096643D01*
X36470688Y-5096646D01*
X36495184Y-5188066D01*
X36519680Y-5279488D01*
X36605518Y-5447954D01*
X36605619Y-5448152D01*
X36605620Y-5448154D01*
X36724738Y-5595251D01*
X36724743Y-5595257D01*
X36724748Y-5595261D01*
X36871845Y-5714379D01*
X36871847Y-5714380D01*
X36871851Y-5714383D01*
X36915828Y-5736790D01*
X36959093Y-5780055D01*
X36968664Y-5840487D01*
X36940886Y-5895004D01*
X36915829Y-5913208D01*
X36880237Y-5931344D01*
X36871847Y-5935619D01*
X36871845Y-5935620D01*
X36724748Y-6054738D01*
X36724738Y-6054748D01*
X36605620Y-6201845D01*
X36605619Y-6201847D01*
X36602296Y-6208368D01*
X36519680Y-6370512D01*
X36470703Y-6553301D01*
X36470687Y-6553359D01*
X36468578Y-6580163D01*
X36464505Y-6631926D01*
X36464500Y-6631985D01*
X36464500Y-7558013D01*
X36470687Y-7636643D01*
X36470688Y-7636646D01*
X36485711Y-7692712D01*
X36519680Y-7819488D01*
X36599950Y-7977026D01*
X36605619Y-7988152D01*
X36605620Y-7988154D01*
X36714618Y-8122754D01*
X36724743Y-8135257D01*
X36724848Y-8135342D01*
X36871845Y-8254379D01*
X36871847Y-8254380D01*
X36871851Y-8254383D01*
X36915828Y-8276790D01*
X36959093Y-8320055D01*
X36968664Y-8380487D01*
X36940886Y-8435004D01*
X36915829Y-8453208D01*
X36875836Y-8473586D01*
X36871847Y-8475619D01*
X36871845Y-8475620D01*
X36724748Y-8594738D01*
X36724738Y-8594748D01*
X36605620Y-8741845D01*
X36605619Y-8741847D01*
X36605617Y-8741851D01*
X36519680Y-8910512D01*
X36470703Y-9093301D01*
X36470687Y-9093359D01*
X36467227Y-9137326D01*
X36464505Y-9171926D01*
X36464500Y-9171985D01*
X36464500Y-10098013D01*
X36470687Y-10176643D01*
X36470688Y-10176646D01*
X36473228Y-10186124D01*
X36519680Y-10359488D01*
X36591730Y-10500894D01*
X36605619Y-10528152D01*
X36605620Y-10528154D01*
X36719231Y-10668450D01*
X36724743Y-10675257D01*
X36724748Y-10675261D01*
X36871845Y-10794379D01*
X36871847Y-10794380D01*
X36871851Y-10794383D01*
X36915828Y-10816790D01*
X36959093Y-10860055D01*
X36968664Y-10920487D01*
X36940886Y-10975004D01*
X36915829Y-10993208D01*
X36901520Y-11000500D01*
X36871847Y-11015619D01*
X36871845Y-11015620D01*
X36724748Y-11134738D01*
X36724738Y-11134748D01*
X36605620Y-11281845D01*
X36605619Y-11281847D01*
X36605617Y-11281851D01*
X36519680Y-11450512D01*
X36470703Y-11633301D01*
X36470687Y-11633359D01*
X36468463Y-11661625D01*
X36464505Y-11711926D01*
X36464500Y-11711985D01*
X36464500Y-12638013D01*
X36470687Y-12716643D01*
X36470688Y-12716646D01*
X36480157Y-12751985D01*
X36519680Y-12899488D01*
X36596643Y-13050536D01*
X36605619Y-13068152D01*
X36605620Y-13068154D01*
X36693396Y-13176547D01*
X36724743Y-13215257D01*
X36724748Y-13215261D01*
X36871845Y-13334379D01*
X36871847Y-13334380D01*
X36871851Y-13334383D01*
X36915749Y-13356750D01*
X36959013Y-13400013D01*
X36968585Y-13460445D01*
X36940808Y-13514962D01*
X36915751Y-13533168D01*
X36871870Y-13555527D01*
X36871868Y-13555528D01*
X36724763Y-13674653D01*
X36724753Y-13674663D01*
X36605628Y-13821768D01*
X36605627Y-13821770D01*
X36519683Y-13990445D01*
X36470687Y-14173301D01*
X36464500Y-14251931D01*
X36464500Y-15178068D01*
X36470687Y-15256698D01*
X36470687Y-15256701D01*
X36470688Y-15256703D01*
X36519684Y-15439556D01*
X36580806Y-15559516D01*
X36605627Y-15608229D01*
X36605628Y-15608231D01*
X36692826Y-15715910D01*
X36724758Y-15755342D01*
X36724763Y-15755346D01*
X36871868Y-15874471D01*
X36871877Y-15874477D01*
X36915670Y-15896791D01*
X36958935Y-15940055D01*
X36968506Y-16000487D01*
X36940728Y-16055004D01*
X36915670Y-16073209D01*
X36871877Y-16095522D01*
X36871868Y-16095528D01*
X36724763Y-16214653D01*
X36724753Y-16214663D01*
X36605628Y-16361768D01*
X36605627Y-16361770D01*
X36519683Y-16530445D01*
X36470687Y-16713301D01*
X36464500Y-16791931D01*
X36464500Y-17718068D01*
X36470687Y-17796698D01*
X36470687Y-17796701D01*
X36470688Y-17796703D01*
X36484835Y-17849500D01*
X36513873Y-17957872D01*
X36519684Y-17979556D01*
X36580806Y-18099516D01*
X36605627Y-18148229D01*
X36605628Y-18148231D01*
X36724753Y-18295336D01*
X36724758Y-18295342D01*
X36724763Y-18295346D01*
X36871868Y-18414471D01*
X36871877Y-18414477D01*
X36915670Y-18436791D01*
X36958935Y-18480055D01*
X36968506Y-18540487D01*
X36940728Y-18595004D01*
X36915670Y-18613209D01*
X36871877Y-18635522D01*
X36871868Y-18635528D01*
X36724763Y-18754653D01*
X36724753Y-18754663D01*
X36605628Y-18901768D01*
X36605627Y-18901770D01*
X36519683Y-19070445D01*
X36470687Y-19253301D01*
X36464500Y-19331931D01*
X36464500Y-20258068D01*
X36470687Y-20336698D01*
X36470687Y-20336701D01*
X36470688Y-20336703D01*
X36474395Y-20350536D01*
X36517642Y-20511938D01*
X36519684Y-20519556D01*
X36596036Y-20669407D01*
X36605627Y-20688229D01*
X36605628Y-20688231D01*
X36713461Y-20821392D01*
X36724758Y-20835342D01*
X36724763Y-20835346D01*
X36871868Y-20954471D01*
X36871877Y-20954477D01*
X36915670Y-20976791D01*
X36958935Y-21020055D01*
X36968506Y-21080487D01*
X36940728Y-21135004D01*
X36915670Y-21153209D01*
X36871877Y-21175522D01*
X36871868Y-21175528D01*
X36724763Y-21294653D01*
X36724753Y-21294663D01*
X36605628Y-21441768D01*
X36605627Y-21441770D01*
X36605625Y-21441774D01*
X36573544Y-21504738D01*
X36523690Y-21602582D01*
X36480425Y-21645847D01*
X36419993Y-21655418D01*
X36365477Y-21627641D01*
X36358543Y-21619940D01*
X36265261Y-21504748D01*
X36265257Y-21504743D01*
X36265251Y-21504738D01*
X36118154Y-21385620D01*
X36118152Y-21385619D01*
X36118150Y-21385618D01*
X36118149Y-21385617D01*
X35949488Y-21299680D01*
X35766645Y-21250688D01*
X35766641Y-21250687D01*
X35766642Y-21250687D01*
X35720960Y-21247092D01*
X35688021Y-21244500D01*
X35688014Y-21244500D01*
X34761986Y-21244500D01*
X34683356Y-21250687D01*
X34683353Y-21250688D01*
X34500512Y-21299680D01*
X34331847Y-21385619D01*
X34331845Y-21385620D01*
X34184748Y-21504738D01*
X34184738Y-21504748D01*
X34065620Y-21651845D01*
X34065616Y-21651851D01*
X34038128Y-21705799D01*
X33994863Y-21749063D01*
X33934431Y-21758634D01*
X33879914Y-21730856D01*
X33861711Y-21705800D01*
X33832771Y-21649001D01*
X33832768Y-21648997D01*
X33832767Y-21648995D01*
X33714482Y-21502927D01*
X33714478Y-21502922D01*
X33714472Y-21502917D01*
X33568404Y-21384632D01*
X33568402Y-21384631D01*
X33568400Y-21384630D01*
X33568399Y-21384629D01*
X33400918Y-21299294D01*
X33400915Y-21299293D01*
X33400916Y-21299293D01*
X33313170Y-21275782D01*
X33219354Y-21250644D01*
X33219350Y-21250643D01*
X33219351Y-21250643D01*
X33173993Y-21247074D01*
X33141289Y-21244500D01*
X33141282Y-21244500D01*
X32228718Y-21244500D01*
X32150649Y-21250643D01*
X31969083Y-21299293D01*
X31801597Y-21384631D01*
X31801595Y-21384632D01*
X31655527Y-21502917D01*
X31655517Y-21502927D01*
X31537232Y-21648995D01*
X31537231Y-21648997D01*
X31503210Y-21715768D01*
X31459945Y-21759033D01*
X31399513Y-21768604D01*
X31344996Y-21740827D01*
X31326790Y-21715768D01*
X31322836Y-21708007D01*
X31292771Y-21649001D01*
X31292768Y-21648997D01*
X31292767Y-21648995D01*
X31174482Y-21502927D01*
X31174478Y-21502922D01*
X31174472Y-21502917D01*
X31028404Y-21384632D01*
X31028402Y-21384631D01*
X31028400Y-21384630D01*
X31028399Y-21384629D01*
X30860918Y-21299294D01*
X30860915Y-21299293D01*
X30860916Y-21299293D01*
X30773170Y-21275782D01*
X30679354Y-21250644D01*
X30679350Y-21250643D01*
X30679351Y-21250643D01*
X30633993Y-21247074D01*
X30601289Y-21244500D01*
X30601282Y-21244500D01*
X29688718Y-21244500D01*
X29610649Y-21250643D01*
X29429083Y-21299293D01*
X29261597Y-21384631D01*
X29261595Y-21384632D01*
X29115527Y-21502917D01*
X29115517Y-21502927D01*
X28997232Y-21648995D01*
X28997231Y-21648997D01*
X28963210Y-21715768D01*
X28919945Y-21759033D01*
X28859513Y-21768604D01*
X28804996Y-21740827D01*
X28786790Y-21715768D01*
X28782836Y-21708007D01*
X28752771Y-21649001D01*
X28752768Y-21648997D01*
X28752767Y-21648995D01*
X28634482Y-21502927D01*
X28634478Y-21502922D01*
X28634472Y-21502917D01*
X28488404Y-21384632D01*
X28488402Y-21384631D01*
X28488400Y-21384630D01*
X28488399Y-21384629D01*
X28320918Y-21299294D01*
X28320915Y-21299293D01*
X28320916Y-21299293D01*
X28233170Y-21275782D01*
X28139354Y-21250644D01*
X28139350Y-21250643D01*
X28139351Y-21250643D01*
X28093993Y-21247074D01*
X28061289Y-21244500D01*
X28061282Y-21244500D01*
X27148718Y-21244500D01*
X27070649Y-21250643D01*
X26889083Y-21299293D01*
X26721597Y-21384631D01*
X26721595Y-21384632D01*
X26575527Y-21502917D01*
X26575517Y-21502927D01*
X26457232Y-21648995D01*
X26457231Y-21648997D01*
X26423210Y-21715768D01*
X26379945Y-21759033D01*
X26319513Y-21768604D01*
X26264996Y-21740827D01*
X26246790Y-21715768D01*
X26242836Y-21708007D01*
X26212771Y-21649001D01*
X26212768Y-21648997D01*
X26212767Y-21648995D01*
X26094482Y-21502927D01*
X26094478Y-21502922D01*
X26094472Y-21502917D01*
X25948404Y-21384632D01*
X25948402Y-21384631D01*
X25948400Y-21384630D01*
X25948399Y-21384629D01*
X25780918Y-21299294D01*
X25780915Y-21299293D01*
X25780916Y-21299293D01*
X25693170Y-21275782D01*
X25599354Y-21250644D01*
X25599350Y-21250643D01*
X25599351Y-21250643D01*
X25553993Y-21247074D01*
X25521289Y-21244500D01*
X25521282Y-21244500D01*
X24608718Y-21244500D01*
X24530649Y-21250643D01*
X24349083Y-21299293D01*
X24181597Y-21384631D01*
X24181595Y-21384632D01*
X24035527Y-21502917D01*
X24035517Y-21502927D01*
X23935050Y-21626992D01*
X23883735Y-21660316D01*
X23822634Y-21657113D01*
X23775084Y-21618607D01*
X23769903Y-21609634D01*
X23766310Y-21602582D01*
X23684375Y-21441774D01*
X23684372Y-21441770D01*
X23684371Y-21441768D01*
X23565246Y-21294663D01*
X23565242Y-21294658D01*
X23559747Y-21290208D01*
X23418131Y-21175528D01*
X23418129Y-21175527D01*
X23418127Y-21175526D01*
X23418126Y-21175525D01*
X23374327Y-21153208D01*
X23331065Y-21109945D01*
X23321493Y-21049513D01*
X23349270Y-20994997D01*
X23374326Y-20976791D01*
X23418126Y-20954475D01*
X23565242Y-20835342D01*
X23684375Y-20688226D01*
X23770316Y-20519556D01*
X23819312Y-20336703D01*
X23825500Y-20258075D01*
X23825499Y-19331926D01*
X23819312Y-19253297D01*
X23770316Y-19070444D01*
X23684375Y-18901774D01*
X23684372Y-18901770D01*
X23684371Y-18901768D01*
X23565246Y-18754663D01*
X23565242Y-18754658D01*
X23565236Y-18754653D01*
X23418131Y-18635528D01*
X23418129Y-18635527D01*
X23418127Y-18635526D01*
X23418126Y-18635525D01*
X23374327Y-18613208D01*
X23331065Y-18569945D01*
X23321493Y-18509513D01*
X23349270Y-18454997D01*
X23374326Y-18436791D01*
X23418126Y-18414475D01*
X23565242Y-18295342D01*
X23684375Y-18148226D01*
X23770316Y-17979556D01*
X23819312Y-17796703D01*
X23825500Y-17718075D01*
X23825499Y-16791926D01*
X23819312Y-16713297D01*
X23770316Y-16530444D01*
X23684375Y-16361774D01*
X23684372Y-16361770D01*
X23684371Y-16361768D01*
X23565246Y-16214663D01*
X23565242Y-16214658D01*
X23565236Y-16214653D01*
X23418131Y-16095528D01*
X23418129Y-16095527D01*
X23418127Y-16095526D01*
X23418126Y-16095525D01*
X23374327Y-16073208D01*
X23331065Y-16029945D01*
X23321493Y-15969513D01*
X23349270Y-15914997D01*
X23374326Y-15896791D01*
X23418126Y-15874475D01*
X23565242Y-15755342D01*
X23684375Y-15608226D01*
X23770316Y-15439556D01*
X23819312Y-15256703D01*
X23825500Y-15178075D01*
X23825499Y-14251926D01*
X23819312Y-14173297D01*
X23770316Y-13990444D01*
X23684375Y-13821774D01*
X23684372Y-13821770D01*
X23684371Y-13821768D01*
X23565246Y-13674663D01*
X23565242Y-13674658D01*
X23548759Y-13661310D01*
X23418131Y-13555528D01*
X23418129Y-13555527D01*
X23418127Y-13555526D01*
X23418126Y-13555525D01*
X23374327Y-13533208D01*
X23331065Y-13489945D01*
X23321493Y-13429513D01*
X23349270Y-13374997D01*
X23374326Y-13356791D01*
X23418126Y-13334475D01*
X23565242Y-13215342D01*
X23684375Y-13068226D01*
X23770316Y-12899556D01*
X23819312Y-12716703D01*
X23825500Y-12638075D01*
X23825499Y-11711926D01*
X23819312Y-11633297D01*
X23770316Y-11450444D01*
X23684375Y-11281774D01*
X23684372Y-11281770D01*
X23684371Y-11281768D01*
X23565246Y-11134663D01*
X23565242Y-11134658D01*
X23565236Y-11134653D01*
X23418131Y-11015528D01*
X23418129Y-11015527D01*
X23418127Y-11015526D01*
X23418126Y-11015525D01*
X23374327Y-10993208D01*
X23331065Y-10949945D01*
X23321493Y-10889513D01*
X23349270Y-10834997D01*
X23374326Y-10816791D01*
X23418126Y-10794475D01*
X23565242Y-10675342D01*
X23658422Y-10560274D01*
X23684372Y-10528230D01*
X23684372Y-10528229D01*
X23684375Y-10528226D01*
X23770316Y-10359556D01*
X23819312Y-10176703D01*
X23825500Y-10098075D01*
X23825499Y-9171926D01*
X23819312Y-9093297D01*
X23770316Y-8910444D01*
X23684375Y-8741774D01*
X23684372Y-8741770D01*
X23684371Y-8741768D01*
X23565246Y-8594663D01*
X23565242Y-8594658D01*
X23538235Y-8572788D01*
X23418131Y-8475528D01*
X23418129Y-8475527D01*
X23418127Y-8475526D01*
X23418126Y-8475525D01*
X23374327Y-8453208D01*
X23331065Y-8409945D01*
X23321493Y-8349513D01*
X23349270Y-8294997D01*
X23374326Y-8276791D01*
X23418126Y-8254475D01*
X23565242Y-8135342D01*
X23684375Y-7988226D01*
X23770316Y-7819556D01*
X23819312Y-7636703D01*
X23825500Y-7558075D01*
X23825499Y-6631926D01*
X23819312Y-6553297D01*
X23770316Y-6370444D01*
X23684375Y-6201774D01*
X23684372Y-6201770D01*
X23684371Y-6201768D01*
X23565246Y-6054663D01*
X23565242Y-6054658D01*
X23565236Y-6054653D01*
X23418131Y-5935528D01*
X23418126Y-5935525D01*
X23373780Y-5912930D01*
X23330515Y-5869666D01*
X23320943Y-5809234D01*
X23348720Y-5754717D01*
X23373779Y-5736510D01*
X23417854Y-5714052D01*
X23564881Y-5594991D01*
X23564891Y-5594981D01*
X23683952Y-5447954D01*
X23769848Y-5279374D01*
X23818816Y-5096620D01*
X23825000Y-5018041D01*
X23825000Y-4805001D01*
X23824999Y-4805000D01*
X22840686Y-4805000D01*
X22845080Y-4800606D01*
X22897741Y-4709394D01*
X22925000Y-4607661D01*
X22925000Y-4502339D01*
X22897741Y-4400606D01*
X22845080Y-4309394D01*
X22840686Y-4305000D01*
X23824999Y-4305000D01*
X23825000Y-4304999D01*
X23825000Y-4091958D01*
X23818816Y-4013379D01*
X23769848Y-3830625D01*
X23683952Y-3662045D01*
X23564891Y-3515018D01*
X23564881Y-3515008D01*
X23417852Y-3395945D01*
X23373778Y-3373488D01*
X23330514Y-3330223D01*
X23320943Y-3269791D01*
X23348721Y-3215275D01*
X23373773Y-3197073D01*
X23418126Y-3174475D01*
X23565242Y-3055342D01*
X23684375Y-2908226D01*
X23770316Y-2739556D01*
X23819312Y-2556703D01*
X23825500Y-2478075D01*
X23825499Y-1551926D01*
X23819312Y-1473297D01*
X23770316Y-1290444D01*
X23684375Y-1121774D01*
X23684372Y-1121770D01*
X23684371Y-1121768D01*
X23565246Y-974663D01*
X23565242Y-974658D01*
X23565236Y-974653D01*
X23418131Y-855528D01*
X23418129Y-855527D01*
X23418127Y-855526D01*
X23418126Y-855525D01*
X23249456Y-769584D01*
X23249453Y-769583D01*
X23249454Y-769583D01*
X23170276Y-748367D01*
X23066603Y-720588D01*
X23066599Y-720587D01*
X23066600Y-720587D01*
X23020914Y-716992D01*
X22987975Y-714400D01*
X22987968Y-714400D01*
X20862031Y-714400D01*
X20783401Y-720587D01*
X20600545Y-769583D01*
X20431870Y-855527D01*
X20431868Y-855528D01*
X20284763Y-974653D01*
X20284753Y-974663D01*
X20165628Y-1121768D01*
X20165627Y-1121770D01*
X20079683Y-1290445D01*
X20030687Y-1473301D01*
X20024500Y-1551931D01*
X20024500Y-2478068D01*
X20030687Y-2556698D01*
X20030687Y-2556701D01*
X20030688Y-2556703D01*
X20048823Y-2624382D01*
X20079665Y-2739488D01*
X20079684Y-2739556D01*
X20165588Y-2908154D01*
X20165627Y-2908229D01*
X20165628Y-2908231D01*
X20207468Y-2959898D01*
X20284758Y-3055342D01*
X20284763Y-3055346D01*
X20431868Y-3174471D01*
X20431870Y-3174472D01*
X20431874Y-3174475D01*
X20476220Y-3197070D01*
X20519484Y-3240333D01*
X20529056Y-3300765D01*
X20501280Y-3355281D01*
X20476222Y-3373488D01*
X20432146Y-3395946D01*
X20285118Y-3515008D01*
X20285108Y-3515018D01*
X20166047Y-3662045D01*
X20080151Y-3830625D01*
X20031183Y-4013379D01*
X20025000Y-4091958D01*
X20025000Y-4304999D01*
X20025001Y-4305000D01*
X22209314Y-4305000D01*
X22204920Y-4309394D01*
X22152259Y-4400606D01*
X22125000Y-4502339D01*
X22125000Y-4607661D01*
X22152259Y-4709394D01*
X22204920Y-4800606D01*
X22209314Y-4805000D01*
X20025001Y-4805000D01*
X20025000Y-4805001D01*
X20025000Y-5018041D01*
X20031183Y-5096620D01*
X20080151Y-5279374D01*
X20166047Y-5447954D01*
X20285108Y-5594981D01*
X20285118Y-5594991D01*
X20432145Y-5714052D01*
X20476220Y-5736510D01*
X20519485Y-5779775D01*
X20529056Y-5840207D01*
X20501278Y-5894724D01*
X20476220Y-5912930D01*
X20431870Y-5935527D01*
X20431868Y-5935528D01*
X20284763Y-6054653D01*
X20284758Y-6054658D01*
X20282209Y-6057804D01*
X20230896Y-6091127D01*
X20205274Y-6094500D01*
X11906458Y-6094500D01*
X11883944Y-6098978D01*
X11861430Y-6103457D01*
X11713162Y-6132949D01*
X11713158Y-6132950D01*
X11659834Y-6155037D01*
X11659834Y-6155038D01*
X11585639Y-6185770D01*
X11547386Y-6201616D01*
X11486389Y-6206417D01*
X11434220Y-6174447D01*
X11410805Y-6117920D01*
X11410500Y-6110152D01*
X11410500Y-4805120D01*
X11429407Y-4746929D01*
X11451309Y-4725028D01*
X11472827Y-4709394D01*
X11505102Y-4685945D01*
X11640945Y-4550102D01*
X11753865Y-4394681D01*
X11841082Y-4223509D01*
X11880698Y-4101582D01*
X11885845Y-4085742D01*
X11921809Y-4036241D01*
X11980000Y-4017334D01*
X12038191Y-4036241D01*
X12074155Y-4085741D01*
X12074155Y-4085742D01*
X12118915Y-4223502D01*
X12118917Y-4223505D01*
X12118918Y-4223509D01*
X12160440Y-4305000D01*
X12205997Y-4394412D01*
X12206135Y-4394681D01*
X12319055Y-4550102D01*
X12454898Y-4685945D01*
X12610319Y-4798865D01*
X12781491Y-4886082D01*
X12964199Y-4945447D01*
X13024514Y-4955000D01*
X13153942Y-4975500D01*
X13153945Y-4975500D01*
X13346058Y-4975500D01*
X13440928Y-4960473D01*
X13535801Y-4945447D01*
X13718509Y-4886082D01*
X13889681Y-4798865D01*
X14045102Y-4685945D01*
X14180945Y-4550102D01*
X14293865Y-4394681D01*
X14381082Y-4223509D01*
X14426108Y-4084931D01*
X14462072Y-4035432D01*
X14520263Y-4016524D01*
X14578453Y-4035431D01*
X14614417Y-4084931D01*
X14614418Y-4084931D01*
X14659382Y-4223317D01*
X14746561Y-4394416D01*
X14767797Y-4423646D01*
X15390000Y-3801443D01*
X15390000Y-3807661D01*
X15417259Y-3909394D01*
X15469920Y-4000606D01*
X15544394Y-4075080D01*
X15635606Y-4127741D01*
X15737339Y-4155000D01*
X15743553Y-4155000D01*
X15121352Y-4777201D01*
X15150577Y-4798435D01*
X15150581Y-4798437D01*
X15321682Y-4885617D01*
X15504320Y-4944960D01*
X15693981Y-4975000D01*
X15886019Y-4975000D01*
X16075679Y-4944960D01*
X16258317Y-4885617D01*
X16429412Y-4798440D01*
X16429420Y-4798435D01*
X16458646Y-4777201D01*
X15836445Y-4155000D01*
X15842661Y-4155000D01*
X15944394Y-4127741D01*
X16035606Y-4075080D01*
X16110080Y-4000606D01*
X16162741Y-3909394D01*
X16190000Y-3807661D01*
X16190000Y-3801445D01*
X16812201Y-4423646D01*
X16833435Y-4394420D01*
X16833440Y-4394412D01*
X16920617Y-4223317D01*
X16979960Y-4040679D01*
X17010000Y-3851019D01*
X17010000Y-3658980D01*
X16979960Y-3469320D01*
X16920617Y-3286682D01*
X16833437Y-3115581D01*
X16833435Y-3115577D01*
X16812201Y-3086352D01*
X16190000Y-3708553D01*
X16190000Y-3702339D01*
X16162741Y-3600606D01*
X16110080Y-3509394D01*
X16035606Y-3434920D01*
X15944394Y-3382259D01*
X15842661Y-3355000D01*
X15836443Y-3355000D01*
X16458646Y-2732797D01*
X16429416Y-2711561D01*
X16258317Y-2624382D01*
X16075679Y-2565039D01*
X15886019Y-2535000D01*
X15693981Y-2535000D01*
X15504320Y-2565039D01*
X15321682Y-2624382D01*
X15150580Y-2711563D01*
X15121352Y-2732797D01*
X15743555Y-3355000D01*
X15737339Y-3355000D01*
X15635606Y-3382259D01*
X15544394Y-3434920D01*
X15469920Y-3509394D01*
X15417259Y-3600606D01*
X15390000Y-3702339D01*
X15390000Y-3708555D01*
X14767797Y-3086352D01*
X14746563Y-3115580D01*
X14659382Y-3286682D01*
X14614418Y-3425068D01*
X14578454Y-3474568D01*
X14520263Y-3493475D01*
X14462072Y-3474568D01*
X14426108Y-3425068D01*
X14425101Y-3421969D01*
X14381082Y-3286491D01*
X14293865Y-3115319D01*
X14180945Y-2959898D01*
X14045102Y-2824055D01*
X13889681Y-2711135D01*
X13889680Y-2711134D01*
X13889678Y-2711133D01*
X13811945Y-2671526D01*
X13718509Y-2623918D01*
X13718505Y-2623917D01*
X13718502Y-2623915D01*
X13535798Y-2564552D01*
X13346058Y-2534500D01*
X13346055Y-2534500D01*
X13153945Y-2534500D01*
X13153942Y-2534500D01*
X12964201Y-2564552D01*
X12781497Y-2623915D01*
X12610321Y-2711133D01*
X12454899Y-2824054D01*
X12319054Y-2959899D01*
X12206133Y-3115321D01*
X12118916Y-3286495D01*
X12074155Y-3424258D01*
X12038191Y-3473758D01*
X11980000Y-3492665D01*
X11921809Y-3473758D01*
X11885845Y-3424258D01*
X11869349Y-3373488D01*
X11841082Y-3286491D01*
X11753865Y-3115319D01*
X11640945Y-2959898D01*
X11505102Y-2824055D01*
X11349681Y-2711135D01*
X11349680Y-2711134D01*
X11349678Y-2711133D01*
X11271945Y-2671526D01*
X11178509Y-2623918D01*
X11178505Y-2623917D01*
X11178502Y-2623915D01*
X10995798Y-2564552D01*
X10806058Y-2534500D01*
X10806055Y-2534500D01*
X10613945Y-2534500D01*
X10613942Y-2534500D01*
X10424201Y-2564552D01*
X10241497Y-2623915D01*
X10070321Y-2711133D01*
X9914899Y-2824054D01*
X9779054Y-2959899D01*
X9666133Y-3115321D01*
X9578915Y-3286497D01*
X9519552Y-3469201D01*
X9489500Y-3658941D01*
X9489500Y-3851058D01*
X9519552Y-4040798D01*
X9578915Y-4223502D01*
X9578917Y-4223505D01*
X9578918Y-4223509D01*
X9620440Y-4305000D01*
X9665997Y-4394412D01*
X9666135Y-4394681D01*
X9779055Y-4550102D01*
X9914898Y-4685945D01*
X9914901Y-4685947D01*
X9968691Y-4725028D01*
X10004655Y-4774528D01*
X10009500Y-4805120D01*
X10009500Y-6778996D01*
X10036420Y-6914327D01*
X10036420Y-6914329D01*
X10089223Y-7041808D01*
X10163309Y-7152687D01*
X10165886Y-7156543D01*
X10294864Y-7285521D01*
X10297596Y-7290884D01*
X10302603Y-7294229D01*
X10311272Y-7317725D01*
X10322640Y-7340036D01*
X10321698Y-7345981D01*
X10323783Y-7351632D01*
X10316985Y-7375735D01*
X10313069Y-7400468D01*
X10307177Y-7410521D01*
X10293830Y-7430498D01*
X10245781Y-7468380D01*
X10211512Y-7474500D01*
X9900635Y-7474500D01*
X9842444Y-7455593D01*
X9816374Y-7427472D01*
X9780214Y-7368847D01*
X9780213Y-7368846D01*
X9780212Y-7368844D01*
X9656156Y-7244788D01*
X9656153Y-7244786D01*
X9656152Y-7244785D01*
X9506836Y-7152687D01*
X9506835Y-7152686D01*
X9506834Y-7152686D01*
X9340297Y-7097501D01*
X9340294Y-7097500D01*
X9237516Y-7087000D01*
X8187483Y-7087000D01*
X8084711Y-7097499D01*
X8084699Y-7097502D01*
X7918163Y-7152687D01*
X7768847Y-7244785D01*
X7644785Y-7368847D01*
X7552688Y-7518161D01*
X7552686Y-7518164D01*
X7552686Y-7518166D01*
X7548220Y-7531640D01*
X7511972Y-7580929D01*
X7454247Y-7599500D01*
X6736630Y-7599500D01*
X6686235Y-7585713D01*
X6622901Y-7548257D01*
X6622898Y-7548256D01*
X6465069Y-7502402D01*
X6465068Y-7502401D01*
X6465065Y-7502401D01*
X6441640Y-7500558D01*
X6428194Y-7499500D01*
X5271806Y-7499500D01*
X5259273Y-7500486D01*
X5234934Y-7502401D01*
X5234927Y-7502403D01*
X5077102Y-7548256D01*
X5077098Y-7548257D01*
X5013765Y-7585713D01*
X4963370Y-7599500D01*
X4461630Y-7599500D01*
X4411235Y-7585713D01*
X4347901Y-7548257D01*
X4347898Y-7548256D01*
X4190069Y-7502402D01*
X4190068Y-7502401D01*
X4190065Y-7502401D01*
X4166640Y-7500558D01*
X4153194Y-7499500D01*
X2996806Y-7499500D01*
X2984273Y-7500486D01*
X2959934Y-7502401D01*
X2959927Y-7502403D01*
X2802102Y-7548256D01*
X2660636Y-7631918D01*
X2544418Y-7748136D01*
X2460756Y-7889602D01*
X2414903Y-8047427D01*
X2414901Y-8047434D01*
X2412000Y-8084311D01*
X2412000Y-8482875D01*
X2393093Y-8541066D01*
X2349430Y-8572788D01*
X2350164Y-8574559D01*
X2218189Y-8629224D01*
X2103460Y-8705883D01*
X1405883Y-9403460D01*
X1329223Y-9518191D01*
X1276420Y-9645670D01*
X1276420Y-9645672D01*
X1264926Y-9703457D01*
X1264926Y-9703458D01*
X1249500Y-9781006D01*
X1249500Y-12418996D01*
X1276420Y-12554327D01*
X1276420Y-12554329D01*
X1329223Y-12681808D01*
X1405885Y-12796543D01*
X1428628Y-12819286D01*
X1455720Y-12869973D01*
X1484103Y-13012657D01*
X1484106Y-13012667D01*
X1551985Y-13176544D01*
X1551985Y-13176545D01*
X1650148Y-13323455D01*
X1650536Y-13324035D01*
X1775965Y-13449464D01*
X1923453Y-13548013D01*
X1923454Y-13548013D01*
X1923455Y-13548014D01*
X1941596Y-13555528D01*
X2087334Y-13615894D01*
X2261309Y-13650500D01*
X2261310Y-13650500D01*
X2438690Y-13650500D01*
X2438691Y-13650500D01*
X2612666Y-13615894D01*
X2612666Y-13615893D01*
X2617436Y-13614945D01*
X2617779Y-13616672D01*
X2671731Y-13617713D01*
X2720528Y-13654625D01*
X2723588Y-13659287D01*
X2744784Y-13693651D01*
X2744786Y-13693653D01*
X2744788Y-13693656D01*
X2868844Y-13817712D01*
X2868846Y-13817713D01*
X2868847Y-13817714D01*
X2902860Y-13838693D01*
X3018166Y-13909814D01*
X3128953Y-13946525D01*
X3178243Y-13982777D01*
X3196811Y-14041076D01*
X3177566Y-14099156D01*
X3127857Y-14134831D01*
X3097813Y-14139500D01*
X1859306Y-14139500D01*
X1846773Y-14140486D01*
X1822434Y-14142401D01*
X1822427Y-14142403D01*
X1664602Y-14188256D01*
X1523136Y-14271918D01*
X1406918Y-14388136D01*
X1323256Y-14529602D01*
X1277403Y-14687427D01*
X1277401Y-14687434D01*
X1274500Y-14724311D01*
X1274500Y-15155688D01*
X1277401Y-15192565D01*
X1277401Y-15192568D01*
X1277402Y-15192569D01*
X1323256Y-15350398D01*
X1406919Y-15491865D01*
X1420052Y-15504998D01*
X1447828Y-15559516D01*
X1438254Y-15619948D01*
X1420052Y-15645002D01*
X1406919Y-15658135D01*
X1323256Y-15799602D01*
X1277403Y-15957427D01*
X1277401Y-15957434D01*
X1274500Y-15994311D01*
X1274500Y-16425688D01*
X1277401Y-16462565D01*
X1277401Y-16462568D01*
X1277402Y-16462569D01*
X1323256Y-16620398D01*
X1406919Y-16761865D01*
X1420052Y-16774998D01*
X1447828Y-16829516D01*
X1438254Y-16889948D01*
X1420052Y-16915002D01*
X1406919Y-16928135D01*
X1323256Y-17069602D01*
X1277403Y-17227427D01*
X1277401Y-17227434D01*
X1274500Y-17264311D01*
X1274500Y-17695688D01*
X1277401Y-17732565D01*
X1277401Y-17732568D01*
X1277402Y-17732569D01*
X1323256Y-17890398D01*
X1406919Y-18031865D01*
X1420052Y-18044998D01*
X1447828Y-18099516D01*
X1438254Y-18159948D01*
X1420052Y-18185002D01*
X1406919Y-18198135D01*
X1323256Y-18339602D01*
X1277403Y-18497427D01*
X1277401Y-18497434D01*
X1276451Y-18509513D01*
X1274500Y-18534306D01*
X1274500Y-18965694D01*
X1275683Y-18980732D01*
X1277401Y-19002565D01*
X1277401Y-19002568D01*
X1277402Y-19002569D01*
X1323256Y-19160398D01*
X1406919Y-19301865D01*
X1420405Y-19315351D01*
X1448181Y-19369866D01*
X1438610Y-19430298D01*
X1420406Y-19455355D01*
X1407314Y-19468447D01*
X1323719Y-19609798D01*
X1323719Y-19609799D01*
X1277901Y-19767506D01*
X1277899Y-19767513D01*
X1277704Y-19770000D01*
X4225503Y-19770000D01*
X4272236Y-19743827D01*
X4412666Y-19715894D01*
X4576547Y-19648013D01*
X4724035Y-19549464D01*
X4849464Y-19424035D01*
X4948013Y-19276547D01*
X5015894Y-19112666D01*
X5050500Y-18938691D01*
X5050500Y-18761309D01*
X5015894Y-18587334D01*
X4978657Y-18497434D01*
X4946152Y-18418959D01*
X4947441Y-18418424D01*
X4937742Y-18364141D01*
X4964439Y-18309087D01*
X4965807Y-18307692D01*
X5049461Y-18224038D01*
X5049464Y-18224035D01*
X5068185Y-18196017D01*
X5116234Y-18158138D01*
X5177372Y-18155736D01*
X5228246Y-18189728D01*
X5249424Y-18247132D01*
X5249500Y-18251019D01*
X5249500Y-20391993D01*
X5230593Y-20450184D01*
X5181093Y-20486148D01*
X5119907Y-20486148D01*
X5080496Y-20461997D01*
X4969034Y-20350535D01*
X4821544Y-20251985D01*
X4657666Y-20184106D01*
X4483693Y-20149500D01*
X4483691Y-20149500D01*
X4306309Y-20149500D01*
X4306306Y-20149500D01*
X4132334Y-20184106D01*
X4132332Y-20184106D01*
X3968455Y-20251985D01*
X3968453Y-20251986D01*
X3966467Y-20253314D01*
X3965318Y-20253662D01*
X3964167Y-20254278D01*
X3964044Y-20254048D01*
X3911464Y-20270000D01*
X1277704Y-20270000D01*
X1277899Y-20272486D01*
X1277901Y-20272493D01*
X1323719Y-20430200D01*
X1323719Y-20430201D01*
X1407314Y-20571552D01*
X1420404Y-20584642D01*
X1448181Y-20639159D01*
X1438610Y-20699591D01*
X1420406Y-20724648D01*
X1406919Y-20738135D01*
X1323256Y-20879602D01*
X1277403Y-21037427D01*
X1277401Y-21037434D01*
X1274500Y-21074311D01*
X1274500Y-21505688D01*
X1277401Y-21542565D01*
X1277401Y-21542568D01*
X1277402Y-21542569D01*
X1323256Y-21700398D01*
X1406919Y-21841865D01*
X1418811Y-21853757D01*
X1420052Y-21854998D01*
X1447828Y-21909516D01*
X1438254Y-21969948D01*
X1420052Y-21995002D01*
X1406919Y-22008135D01*
X1323256Y-22149602D01*
X1277403Y-22307427D01*
X1277401Y-22307434D01*
X1275486Y-22331773D01*
X1274500Y-22344306D01*
X1274500Y-22775694D01*
X1275683Y-22790732D01*
X1277401Y-22812565D01*
X1277401Y-22812568D01*
X1277402Y-22812569D01*
X1323256Y-22970398D01*
X1406919Y-23111865D01*
X1523135Y-23228081D01*
X1664602Y-23311744D01*
X1822431Y-23357598D01*
X1859306Y-23360500D01*
X3126993Y-23360500D01*
X3185184Y-23379407D01*
X3221148Y-23428907D01*
X3221148Y-23490093D01*
X3196997Y-23529504D01*
X3150535Y-23575965D01*
X3060084Y-23711335D01*
X3012034Y-23749214D01*
X2958456Y-23753431D01*
X2938695Y-23749500D01*
X2938691Y-23749500D01*
X2761309Y-23749500D01*
X2761306Y-23749500D01*
X2587334Y-23784106D01*
X2587332Y-23784106D01*
X2423455Y-23851985D01*
X2423454Y-23851985D01*
X2275965Y-23950535D01*
X2150535Y-24075965D01*
X2051985Y-24223454D01*
X2051985Y-24223455D01*
X1984106Y-24387332D01*
X1984106Y-24387334D01*
X1949500Y-24561306D01*
X1949500Y-24738693D01*
X1969683Y-24840157D01*
X1982654Y-24905368D01*
X1984106Y-24912665D01*
X1984106Y-24912667D01*
X2051985Y-25076544D01*
X2051985Y-25076545D01*
X2126630Y-25188257D01*
X2143239Y-25247145D01*
X2122062Y-25304549D01*
X2082202Y-25334722D01*
X2054268Y-25346293D01*
X2054259Y-25346298D01*
X2054257Y-25346299D01*
X2047116Y-25350422D01*
X1940234Y-25412130D01*
X1835558Y-25492452D01*
X1742452Y-25585558D01*
X1662130Y-25690234D01*
X1596296Y-25804261D01*
X1545799Y-25926171D01*
X1511724Y-26053340D01*
X1511724Y-26053345D01*
X1499088Y-26149328D01*
X1494500Y-26184174D01*
X1494500Y-26750000D01*
X1497214Y-26787949D01*
X1499645Y-26821938D01*
X1499646Y-26821944D01*
X1512135Y-26864478D01*
X1515137Y-26906458D01*
X1494500Y-27049994D01*
X1494500Y-27050000D01*
X1494500Y-27615826D01*
X1505130Y-27696572D01*
X1511724Y-27746654D01*
X1511724Y-27746659D01*
X1545799Y-27873828D01*
X1596296Y-27995738D01*
X1596299Y-27995743D01*
X1655914Y-28099000D01*
X1662130Y-28109765D01*
X1742452Y-28214441D01*
X1742455Y-28214444D01*
X1742459Y-28214449D01*
X1835551Y-28307541D01*
X1940243Y-28387875D01*
X2000000Y-28422375D01*
X2040941Y-28467845D01*
X2049500Y-28508112D01*
X2049500Y-31156496D01*
X2076420Y-31291827D01*
X2076420Y-31291829D01*
X2129223Y-31419308D01*
X2129224Y-31419310D01*
X2129225Y-31419311D01*
X2205886Y-31534043D01*
X3021305Y-32349462D01*
X3776172Y-33104329D01*
X3803949Y-33158846D01*
X3800323Y-33204925D01*
X3780178Y-33266926D01*
X3742000Y-33507969D01*
X3742000Y-33752030D01*
X3780177Y-33993071D01*
X3855596Y-34225185D01*
X3966392Y-34442637D01*
X4038717Y-34542184D01*
X4109845Y-34640083D01*
X4282417Y-34812655D01*
X4425869Y-34916878D01*
X4479862Y-34956107D01*
X4566006Y-34999999D01*
X4697315Y-35066904D01*
X4929424Y-35142321D01*
X4929425Y-35142321D01*
X4929428Y-35142322D01*
X5170470Y-35180500D01*
X5170473Y-35180500D01*
X5414530Y-35180500D01*
X5655571Y-35142322D01*
X5655572Y-35142321D01*
X5655576Y-35142321D01*
X5887685Y-35066904D01*
X6105139Y-34956106D01*
X6302583Y-34812655D01*
X6475155Y-34640083D01*
X6618606Y-34442639D01*
X6729404Y-34225185D01*
X6804821Y-33993076D01*
X6804975Y-33992105D01*
X6843000Y-33752030D01*
X6843000Y-33507969D01*
X6804822Y-33266928D01*
X6799319Y-33249991D01*
X6729404Y-33034815D01*
X6650069Y-32879111D01*
X6618607Y-32817362D01*
X6579378Y-32763369D01*
X6475155Y-32619917D01*
X6302583Y-32447345D01*
X6213123Y-32382348D01*
X6105137Y-32303892D01*
X5887685Y-32193096D01*
X5655571Y-32117677D01*
X5414530Y-32079500D01*
X5414527Y-32079500D01*
X5170473Y-32079500D01*
X5170470Y-32079500D01*
X4929426Y-32117678D01*
X4867425Y-32137823D01*
X4806240Y-32137822D01*
X4766829Y-32113672D01*
X3479496Y-30826339D01*
X3451719Y-30771822D01*
X3450500Y-30756335D01*
X3450500Y-30349500D01*
X3469407Y-30291309D01*
X3518907Y-30255345D01*
X3549500Y-30250500D01*
X4818993Y-30250500D01*
X4818994Y-30250500D01*
X4954328Y-30223580D01*
X5081811Y-30170775D01*
X5196543Y-30094114D01*
X5794114Y-29496543D01*
X5835494Y-29434611D01*
X5883541Y-29396732D01*
X5886638Y-29395647D01*
X5919334Y-29384814D01*
X6068656Y-29292712D01*
X6180351Y-29181016D01*
X6234866Y-29153240D01*
X6295298Y-29162811D01*
X6320357Y-29181017D01*
X6431659Y-29292319D01*
X6580875Y-29384356D01*
X6747306Y-29439506D01*
X6850013Y-29449999D01*
X7000000Y-29449999D01*
X7000000Y-28500001D01*
X7500000Y-28500001D01*
X7500000Y-29449998D01*
X7500001Y-29449999D01*
X7649986Y-29449999D01*
X7752687Y-29439507D01*
X7752699Y-29439504D01*
X7919124Y-29384356D01*
X8068341Y-29292318D01*
X8068344Y-29292316D01*
X8154995Y-29205665D01*
X8209511Y-29177887D01*
X8269944Y-29187458D01*
X8295000Y-29205662D01*
X8306654Y-29217315D01*
X8306658Y-29217318D01*
X8455875Y-29309356D01*
X8622306Y-29364506D01*
X8725013Y-29374999D01*
X8999998Y-29374999D01*
X9000000Y-29374998D01*
X9000000Y-28537501D01*
X9500000Y-28537501D01*
X9500000Y-29374998D01*
X9500001Y-29374999D01*
X9774986Y-29374999D01*
X9877687Y-29364507D01*
X9877699Y-29364504D01*
X10044124Y-29309356D01*
X10193340Y-29217319D01*
X10317319Y-29093340D01*
X10409356Y-28944124D01*
X10464506Y-28777693D01*
X10475000Y-28674987D01*
X10475000Y-28537501D01*
X10474999Y-28537500D01*
X9500001Y-28537500D01*
X9500000Y-28537501D01*
X9000000Y-28537501D01*
X8999999Y-28537500D01*
X7998507Y-28537500D01*
X7940316Y-28518593D01*
X7928503Y-28508504D01*
X7919999Y-28500000D01*
X7500001Y-28500000D01*
X7500000Y-28500001D01*
X7000000Y-28500001D01*
X7000000Y-28349000D01*
X7018907Y-28290809D01*
X7068407Y-28254845D01*
X7099000Y-28250000D01*
X7249999Y-28250000D01*
X7250000Y-28249999D01*
X7250000Y-28099000D01*
X7268907Y-28040809D01*
X7318407Y-28004845D01*
X7349000Y-28000000D01*
X8376493Y-28000000D01*
X8434684Y-28018907D01*
X8446497Y-28028996D01*
X8455001Y-28037500D01*
X10474998Y-28037500D01*
X10474999Y-28037499D01*
X10474999Y-27900013D01*
X10464507Y-27797312D01*
X10464505Y-27797303D01*
X10426335Y-27682115D01*
X10425979Y-27620930D01*
X10461654Y-27571222D01*
X10519733Y-27551976D01*
X10578033Y-27570544D01*
X10590307Y-27580964D01*
X10603457Y-27594114D01*
X10718189Y-27670775D01*
X10845672Y-27723580D01*
X10981006Y-27750500D01*
X10981007Y-27750500D01*
X11618993Y-27750500D01*
X11618994Y-27750500D01*
X11754328Y-27723580D01*
X11881811Y-27670775D01*
X11996543Y-27594114D01*
X12019338Y-27571318D01*
X12073852Y-27543539D01*
X12134285Y-27553109D01*
X12177551Y-27596372D01*
X12184076Y-27612568D01*
X12184104Y-27612663D01*
X12251985Y-27776544D01*
X12251985Y-27776545D01*
X12316989Y-27873829D01*
X12350536Y-27924035D01*
X12475965Y-28049464D01*
X12623453Y-28148013D01*
X12787334Y-28215894D01*
X12961309Y-28250500D01*
X12961310Y-28250500D01*
X13138690Y-28250500D01*
X13138691Y-28250500D01*
X13312666Y-28215894D01*
X13476547Y-28148013D01*
X13624035Y-28049464D01*
X13749464Y-27924035D01*
X13848013Y-27776547D01*
X13915894Y-27612666D01*
X13950500Y-27438691D01*
X13950500Y-27326597D01*
X13969407Y-27268406D01*
X14018907Y-27232442D01*
X14077118Y-27231528D01*
X14132431Y-27247598D01*
X14169306Y-27250500D01*
X14169311Y-27250500D01*
X14600689Y-27250500D01*
X14600694Y-27250500D01*
X14637569Y-27247598D01*
X14795398Y-27201744D01*
X14892182Y-27144505D01*
X14951893Y-27131158D01*
X15008047Y-27155458D01*
X15025988Y-27178124D01*
X15026523Y-27177767D01*
X15105885Y-27296542D01*
X15105890Y-27296548D01*
X15408299Y-27598955D01*
X15505886Y-27696542D01*
X15507044Y-27697700D01*
X15520935Y-27724993D01*
X15534790Y-27752186D01*
X15534786Y-27752208D01*
X15534797Y-27752229D01*
X15532523Y-27766545D01*
X15534882Y-27766545D01*
X15534882Y-27766546D01*
X15532523Y-27766546D01*
X15530000Y-27782428D01*
X15525219Y-27812618D01*
X15525200Y-27812650D01*
X15525199Y-27812657D01*
X15525192Y-27812663D01*
X15519325Y-27822674D01*
X15451985Y-27923456D01*
X15384106Y-28087332D01*
X15384106Y-28087334D01*
X15349500Y-28261306D01*
X15349500Y-28438693D01*
X15384106Y-28612665D01*
X15384106Y-28612667D01*
X15451985Y-28776544D01*
X15451985Y-28776545D01*
X15511081Y-28864987D01*
X15550536Y-28924035D01*
X15675965Y-29049464D01*
X15823453Y-29148013D01*
X15843885Y-29156476D01*
X15890410Y-29196211D01*
X15905000Y-29247940D01*
X15905000Y-30474999D01*
X15905001Y-30475000D01*
X16454999Y-30475000D01*
X16455000Y-30474999D01*
X16455000Y-29834363D01*
X16451703Y-29792465D01*
X16452960Y-29792366D01*
X16460337Y-29737405D01*
X16502565Y-29693129D01*
X16562754Y-29682130D01*
X16617913Y-29708610D01*
X16619589Y-29710246D01*
X16623476Y-29714133D01*
X16651253Y-29768650D01*
X16651959Y-29774076D01*
X16659999Y-29852789D01*
X16660000Y-29852795D01*
X16660001Y-29852797D01*
X16711798Y-30009111D01*
X16715187Y-30019336D01*
X16807286Y-30168654D01*
X16807289Y-30168657D01*
X16818630Y-30179999D01*
X16846406Y-30234516D01*
X16836832Y-30294948D01*
X16818630Y-30320001D01*
X16807286Y-30331345D01*
X16715187Y-30480663D01*
X16660000Y-30647205D01*
X16649500Y-30749983D01*
X16649500Y-30930493D01*
X16630593Y-30988684D01*
X16581093Y-31024648D01*
X16519907Y-31024648D01*
X16480496Y-31000497D01*
X16454999Y-30975000D01*
X15754000Y-30975000D01*
X15695809Y-30956093D01*
X15659845Y-30906593D01*
X15655000Y-30876000D01*
X15655000Y-30725001D01*
X15654999Y-30725000D01*
X15504000Y-30725000D01*
X15445809Y-30706093D01*
X15409845Y-30656593D01*
X15405000Y-30626000D01*
X15405000Y-29252703D01*
X15404999Y-29252702D01*
X15402508Y-29252900D01*
X15244798Y-29298719D01*
X15103447Y-29382314D01*
X15090355Y-29395406D01*
X15035837Y-29423182D01*
X14975405Y-29413608D01*
X14950352Y-29395406D01*
X14936865Y-29381919D01*
X14795398Y-29298256D01*
X14637569Y-29252402D01*
X14637568Y-29252401D01*
X14637565Y-29252401D01*
X14614140Y-29250558D01*
X14600694Y-29249500D01*
X14169306Y-29249500D01*
X14156773Y-29250486D01*
X14132434Y-29252401D01*
X14132427Y-29252403D01*
X13974602Y-29298256D01*
X13833135Y-29381919D01*
X13820002Y-29395052D01*
X13765484Y-29422828D01*
X13705052Y-29413254D01*
X13679998Y-29395052D01*
X13674847Y-29389901D01*
X13666865Y-29381919D01*
X13525398Y-29298256D01*
X13367569Y-29252402D01*
X13367568Y-29252401D01*
X13367565Y-29252401D01*
X13344140Y-29250558D01*
X13330694Y-29249500D01*
X12899306Y-29249500D01*
X12886773Y-29250486D01*
X12862434Y-29252401D01*
X12862427Y-29252403D01*
X12704602Y-29298256D01*
X12563135Y-29381919D01*
X12550002Y-29395052D01*
X12495484Y-29422828D01*
X12435052Y-29413254D01*
X12409998Y-29395052D01*
X12404847Y-29389901D01*
X12396865Y-29381919D01*
X12255398Y-29298256D01*
X12097569Y-29252402D01*
X12097568Y-29252401D01*
X12097565Y-29252401D01*
X12074140Y-29250558D01*
X12060694Y-29249500D01*
X11629306Y-29249500D01*
X11616773Y-29250486D01*
X11592434Y-29252401D01*
X11592427Y-29252403D01*
X11434602Y-29298256D01*
X11293136Y-29381918D01*
X11176918Y-29498136D01*
X11093256Y-29639602D01*
X11047403Y-29797427D01*
X11047401Y-29797434D01*
X11044500Y-29834311D01*
X11044500Y-31615688D01*
X11047401Y-31652565D01*
X11047401Y-31652568D01*
X11047402Y-31652569D01*
X11092804Y-31808843D01*
X11093256Y-31810397D01*
X11093255Y-31810397D01*
X11093256Y-31810398D01*
X11130713Y-31873735D01*
X11144500Y-31924129D01*
X11144500Y-32522545D01*
X11125593Y-32580736D01*
X11084849Y-32610522D01*
X11085889Y-32612751D01*
X11080661Y-32615188D01*
X10931347Y-32707285D01*
X10807285Y-32831347D01*
X10715187Y-32980663D01*
X10660000Y-33147205D01*
X10649500Y-33249983D01*
X10649500Y-34250016D01*
X10659999Y-34352788D01*
X10660002Y-34352800D01*
X10704215Y-34486225D01*
X10704571Y-34547409D01*
X10668896Y-34597118D01*
X10610816Y-34616363D01*
X10572356Y-34608830D01*
X10512664Y-34584105D01*
X10338693Y-34549500D01*
X10338691Y-34549500D01*
X10161309Y-34549500D01*
X10161306Y-34549500D01*
X9987334Y-34584106D01*
X9987332Y-34584106D01*
X9823455Y-34651985D01*
X9823454Y-34651985D01*
X9675965Y-34750535D01*
X9550535Y-34875965D01*
X9451987Y-35023453D01*
X9384106Y-35187332D01*
X9384106Y-35187334D01*
X9355723Y-35330022D01*
X9328629Y-35380712D01*
X6780229Y-37929113D01*
X6725712Y-37956890D01*
X6665280Y-37947319D01*
X6622017Y-37904056D01*
X6618606Y-37897361D01*
X6475155Y-37699917D01*
X6302583Y-37527345D01*
X6122278Y-37396346D01*
X6105137Y-37383892D01*
X5887685Y-37273096D01*
X5655571Y-37197677D01*
X5414530Y-37159500D01*
X5414527Y-37159500D01*
X5170473Y-37159500D01*
X5170470Y-37159500D01*
X4929428Y-37197677D01*
X4697314Y-37273096D01*
X4479862Y-37383892D01*
X4282418Y-37527344D01*
X4109844Y-37699918D01*
X3966392Y-37897362D01*
X3855596Y-38114814D01*
X3780177Y-38346928D01*
X3742000Y-38587969D01*
X3742000Y-38832030D01*
X3780177Y-39073071D01*
X3855596Y-39305185D01*
X3966392Y-39522637D01*
X4035528Y-39617794D01*
X4109845Y-39720083D01*
X4282417Y-39892655D01*
X4338849Y-39933655D01*
X4479862Y-40036107D01*
X4522263Y-40057711D01*
X4697315Y-40146904D01*
X4929424Y-40222321D01*
X4929425Y-40222321D01*
X4929428Y-40222322D01*
X5170470Y-40260500D01*
X5170473Y-40260500D01*
X5414530Y-40260500D01*
X5655571Y-40222322D01*
X5655572Y-40222321D01*
X5655576Y-40222321D01*
X5887685Y-40146904D01*
X6105139Y-40036106D01*
X6302583Y-39892655D01*
X6475155Y-39720083D01*
X6618606Y-39522639D01*
X6648201Y-39464555D01*
X6691466Y-39421290D01*
X6736411Y-39410500D01*
X7058993Y-39410500D01*
X7058994Y-39410500D01*
X7194328Y-39383580D01*
X7321811Y-39330775D01*
X7436543Y-39254114D01*
X10319287Y-36371368D01*
X10369975Y-36344276D01*
X10512666Y-36315894D01*
X10676547Y-36248013D01*
X10824035Y-36149464D01*
X10880496Y-36093003D01*
X10935013Y-36065226D01*
X10995445Y-36074797D01*
X11038710Y-36118062D01*
X11049500Y-36163007D01*
X11049500Y-46218835D01*
X11030593Y-46277026D01*
X11020504Y-46288839D01*
X9168839Y-48140504D01*
X9114322Y-48168281D01*
X9098835Y-48169500D01*
X6942000Y-48169500D01*
X6883809Y-48150593D01*
X6847845Y-48101093D01*
X6843000Y-48070500D01*
X6843000Y-48019984D01*
X6834599Y-47937760D01*
X6832499Y-47917203D01*
X6777314Y-47750666D01*
X6685211Y-47601345D01*
X6561155Y-47477289D01*
X6504596Y-47442403D01*
X6411833Y-47385185D01*
X6245294Y-47330000D01*
X6142516Y-47319500D01*
X6142508Y-47319500D01*
X4442492Y-47319500D01*
X4442484Y-47319500D01*
X4339705Y-47330000D01*
X4180640Y-47382709D01*
X4119456Y-47383065D01*
X4069747Y-47347390D01*
X4050502Y-47289310D01*
X4050500Y-47288734D01*
X4050500Y-46063664D01*
X4069407Y-46005473D01*
X4079490Y-45993666D01*
X4766830Y-45306325D01*
X4821345Y-45278550D01*
X4867423Y-45282175D01*
X4929424Y-45302321D01*
X4929425Y-45302321D01*
X4929428Y-45302322D01*
X5170470Y-45340500D01*
X5170473Y-45340500D01*
X5414530Y-45340500D01*
X5655571Y-45302322D01*
X5655572Y-45302321D01*
X5655576Y-45302321D01*
X5887685Y-45226904D01*
X6105139Y-45116106D01*
X6302583Y-44972655D01*
X6475155Y-44800083D01*
X6618606Y-44602639D01*
X6729404Y-44385185D01*
X6804821Y-44153076D01*
X6804822Y-44153071D01*
X6843000Y-43912030D01*
X6843000Y-43667969D01*
X6804822Y-43426928D01*
X6804821Y-43426924D01*
X6729404Y-43194815D01*
X6618606Y-42977361D01*
X6475155Y-42779917D01*
X6302583Y-42607345D01*
X6213123Y-42542348D01*
X6105137Y-42463892D01*
X5887685Y-42353096D01*
X5655571Y-42277677D01*
X5414530Y-42239500D01*
X5414527Y-42239500D01*
X5170473Y-42239500D01*
X5170470Y-42239500D01*
X4929428Y-42277677D01*
X4697314Y-42353096D01*
X4479862Y-42463892D01*
X4282418Y-42607344D01*
X4109844Y-42779918D01*
X3966392Y-42977362D01*
X3855596Y-43194814D01*
X3780177Y-43426928D01*
X3742000Y-43667969D01*
X3742000Y-43912030D01*
X3780178Y-44153073D01*
X3800323Y-44215074D01*
X3800322Y-44276259D01*
X3776172Y-44315669D01*
X2805885Y-45285957D01*
X2769442Y-45340500D01*
X2769441Y-45340501D01*
X2729228Y-45400681D01*
X2729222Y-45400693D01*
X2676420Y-45528170D01*
X2676420Y-45528172D01*
X2649500Y-45663504D01*
X2649500Y-53118996D01*
X2676420Y-53254327D01*
X2676420Y-53254329D01*
X2729223Y-53381808D01*
X2805885Y-53496542D01*
X2805886Y-53496543D01*
X3505886Y-54196542D01*
X3603458Y-54294114D01*
X3718182Y-54370771D01*
X3718186Y-54370773D01*
X3718189Y-54370775D01*
X3792866Y-54401707D01*
X3845671Y-54423580D01*
X3872591Y-54428934D01*
X3981007Y-54450500D01*
X4141888Y-54450500D01*
X4157861Y-54455690D01*
X4174653Y-54456079D01*
X4184701Y-54464410D01*
X4200079Y-54469407D01*
X4223307Y-54493180D01*
X4225601Y-54496497D01*
X4262125Y-54559757D01*
X4335565Y-54655464D01*
X4336957Y-54657477D01*
X4345067Y-54684559D01*
X4354504Y-54711205D01*
X4353780Y-54713649D01*
X4354511Y-54716090D01*
X4345155Y-54742766D01*
X4337127Y-54769870D01*
X4334572Y-54772941D01*
X4334262Y-54773827D01*
X4333259Y-54774520D01*
X4325545Y-54783797D01*
X4203457Y-54905886D01*
X4203456Y-54905885D01*
X4105885Y-55003457D01*
X4029223Y-55118191D01*
X3976420Y-55245670D01*
X3976420Y-55245672D01*
X3949500Y-55381003D01*
X3949500Y-55518996D01*
X3967580Y-55609888D01*
X3960388Y-55670649D01*
X3935049Y-55702838D01*
X3935421Y-55703210D01*
X3932303Y-55706327D01*
X3931886Y-55706858D01*
X3931346Y-55707284D01*
X3807288Y-55831343D01*
X3807286Y-55831345D01*
X3715187Y-55980663D01*
X3660000Y-56147205D01*
X3649500Y-56249983D01*
X3649500Y-57250016D01*
X3659999Y-57352788D01*
X3660000Y-57352795D01*
X3660001Y-57352797D01*
X3715116Y-57519124D01*
X3715187Y-57519336D01*
X3807285Y-57668652D01*
X3807286Y-57668653D01*
X3807288Y-57668656D01*
X3931344Y-57792712D01*
X4080666Y-57884814D01*
X4247203Y-57939999D01*
X4349991Y-57950500D01*
X5150008Y-57950499D01*
X5150016Y-57950499D01*
X5252788Y-57940000D01*
X5252788Y-57939999D01*
X5252797Y-57939999D01*
X5419334Y-57884814D01*
X5568656Y-57792712D01*
X5680351Y-57681016D01*
X5734866Y-57653240D01*
X5795298Y-57662811D01*
X5820357Y-57681017D01*
X5931659Y-57792319D01*
X6080875Y-57884356D01*
X6247306Y-57939506D01*
X6350013Y-57949999D01*
X6500000Y-57949999D01*
X6500000Y-57000001D01*
X7000000Y-57000001D01*
X7000000Y-57949998D01*
X7000001Y-57949999D01*
X7149986Y-57949999D01*
X7252687Y-57939507D01*
X7252699Y-57939504D01*
X7419124Y-57884356D01*
X7568340Y-57792319D01*
X7692319Y-57668340D01*
X7784356Y-57519124D01*
X7839506Y-57352693D01*
X7850000Y-57249987D01*
X7850000Y-57000001D01*
X7849999Y-57000000D01*
X7000001Y-57000000D01*
X7000000Y-57000001D01*
X6500000Y-57000001D01*
X6500000Y-55550001D01*
X7000000Y-55550001D01*
X7000000Y-56499999D01*
X7000001Y-56500000D01*
X7849998Y-56500000D01*
X7849999Y-56499999D01*
X7849999Y-56250013D01*
X7839507Y-56147312D01*
X7839504Y-56147300D01*
X7784356Y-55980875D01*
X7692319Y-55831659D01*
X7568340Y-55707680D01*
X7419124Y-55615643D01*
X7252693Y-55560493D01*
X7149987Y-55550000D01*
X7000001Y-55550000D01*
X7000000Y-55550001D01*
X6500000Y-55550001D01*
X6499999Y-55550000D01*
X6350013Y-55550000D01*
X6350013Y-55550001D01*
X6247312Y-55560492D01*
X6247300Y-55560495D01*
X6080875Y-55615643D01*
X5931658Y-55707681D01*
X5931655Y-55707683D01*
X5820356Y-55818982D01*
X5807484Y-55825540D01*
X5797533Y-55836013D01*
X5780905Y-55839083D01*
X5765840Y-55846759D01*
X5751571Y-55844498D01*
X5737365Y-55847122D01*
X5722824Y-55839945D01*
X5705408Y-55837187D01*
X5682157Y-55820744D01*
X5681252Y-55819884D01*
X5568656Y-55707288D01*
X5551855Y-55696925D01*
X5544396Y-55689837D01*
X5534481Y-55671546D01*
X5521018Y-55655690D01*
X5520226Y-55645250D01*
X5515238Y-55636047D01*
X5517966Y-55615425D01*
X5516395Y-55594680D01*
X5522042Y-55584630D01*
X5523265Y-55575390D01*
X5532980Y-55565165D01*
X5542589Y-55548067D01*
X5571661Y-55518996D01*
X5644114Y-55446543D01*
X5720775Y-55331811D01*
X5773580Y-55204328D01*
X5797308Y-55085036D01*
X5827205Y-55031654D01*
X5882770Y-55006038D01*
X5896464Y-55005723D01*
X5896464Y-55005500D01*
X6465825Y-55005500D01*
X6465826Y-55005500D01*
X6596662Y-54988275D01*
X6723829Y-54954200D01*
X6845743Y-54903701D01*
X6959757Y-54837875D01*
X7064449Y-54757541D01*
X7157541Y-54664449D01*
X7237875Y-54559757D01*
X7303701Y-54445743D01*
X7354200Y-54323829D01*
X7388275Y-54196662D01*
X7405500Y-54065826D01*
X7405500Y-53434174D01*
X7388275Y-53303338D01*
X7354200Y-53176171D01*
X7338592Y-53138492D01*
X7333791Y-53077498D01*
X7360050Y-53030605D01*
X11687648Y-48703008D01*
X43157500Y-48703008D01*
X43157500Y-48946991D01*
X43195664Y-49187954D01*
X43271059Y-49419994D01*
X43381820Y-49637376D01*
X43381822Y-49637380D01*
X43449043Y-49729901D01*
X44183711Y-48995232D01*
X44194982Y-49037292D01*
X44267390Y-49162708D01*
X44369792Y-49265110D01*
X44495208Y-49337518D01*
X44537264Y-49348787D01*
X43802597Y-50083454D01*
X43895125Y-50150680D01*
X44112505Y-50261440D01*
X44344545Y-50336835D01*
X44585509Y-50375000D01*
X44829491Y-50375000D01*
X45070454Y-50336835D01*
X45302494Y-50261440D01*
X45519876Y-50150679D01*
X45519882Y-50150675D01*
X45612401Y-50083455D01*
X45612401Y-50083454D01*
X44877733Y-49348787D01*
X44919792Y-49337518D01*
X45045208Y-49265110D01*
X45147610Y-49162708D01*
X45220018Y-49037292D01*
X45231287Y-48995233D01*
X45965954Y-49729901D01*
X45965955Y-49729901D01*
X46033175Y-49637382D01*
X46033179Y-49637376D01*
X46143940Y-49419994D01*
X46219335Y-49187954D01*
X46257500Y-48946991D01*
X46257500Y-48703008D01*
X46219335Y-48462045D01*
X46143940Y-48230005D01*
X46033180Y-48012625D01*
X45965954Y-47920097D01*
X45231287Y-48654764D01*
X45220018Y-48612708D01*
X45147610Y-48487292D01*
X45045208Y-48384890D01*
X44919792Y-48312482D01*
X44877732Y-48301211D01*
X45612401Y-47566543D01*
X45519880Y-47499322D01*
X45519876Y-47499320D01*
X45302494Y-47388559D01*
X45070454Y-47313164D01*
X44829491Y-47275000D01*
X44585509Y-47275000D01*
X44344545Y-47313164D01*
X44112505Y-47388559D01*
X43895124Y-47499320D01*
X43802597Y-47566543D01*
X44537266Y-48301212D01*
X44495208Y-48312482D01*
X44369792Y-48384890D01*
X44267390Y-48487292D01*
X44194982Y-48612708D01*
X44183712Y-48654766D01*
X43449043Y-47920097D01*
X43381820Y-48012624D01*
X43271059Y-48230005D01*
X43195664Y-48462045D01*
X43157500Y-48703008D01*
X11687648Y-48703008D01*
X13294114Y-47096543D01*
X13370775Y-46981811D01*
X13423580Y-46854328D01*
X13443471Y-46754328D01*
X13450500Y-46718993D01*
X13450500Y-35981164D01*
X13469407Y-35922973D01*
X13479490Y-35911166D01*
X14294114Y-35096543D01*
X14370775Y-34981811D01*
X14395826Y-34921328D01*
X14435316Y-34874956D01*
X14568656Y-34792712D01*
X14692712Y-34668656D01*
X14784814Y-34519334D01*
X14839999Y-34352797D01*
X14841245Y-34340604D01*
X14841362Y-34339459D01*
X14850499Y-34250016D01*
X14850500Y-34250009D01*
X14850499Y-33490899D01*
X14869406Y-33432709D01*
X14918906Y-33396745D01*
X14980092Y-33396745D01*
X14987366Y-33399429D01*
X15045672Y-33423580D01*
X15181006Y-33450500D01*
X15181007Y-33450500D01*
X17318993Y-33450500D01*
X17318994Y-33450500D01*
X17454328Y-33423580D01*
X17581811Y-33370775D01*
X17696543Y-33294114D01*
X18294114Y-32696543D01*
X18370775Y-32581811D01*
X18423580Y-32454328D01*
X18431519Y-32414410D01*
X18461414Y-32361027D01*
X18476637Y-32349468D01*
X18568656Y-32292712D01*
X18680351Y-32181016D01*
X18734866Y-32153240D01*
X18795298Y-32162811D01*
X18820357Y-32181017D01*
X18931659Y-32292319D01*
X19080875Y-32384356D01*
X19247306Y-32439506D01*
X19350013Y-32449999D01*
X19500000Y-32449999D01*
X19500000Y-31500001D01*
X20000000Y-31500001D01*
X20000000Y-32449998D01*
X20000001Y-32449999D01*
X20149986Y-32449999D01*
X20252687Y-32439507D01*
X20252699Y-32439504D01*
X20419124Y-32384356D01*
X20568340Y-32292319D01*
X20692319Y-32168340D01*
X20784356Y-32019124D01*
X20839506Y-31852693D01*
X20850000Y-31749987D01*
X20850000Y-31500001D01*
X20849999Y-31500000D01*
X20000001Y-31500000D01*
X20000000Y-31500001D01*
X19500000Y-31500001D01*
X19500000Y-31349000D01*
X19518907Y-31290809D01*
X19568407Y-31254845D01*
X19599000Y-31250000D01*
X19749999Y-31250000D01*
X19750000Y-31249999D01*
X19750000Y-31099000D01*
X19768907Y-31040809D01*
X19818407Y-31004845D01*
X19849000Y-31000000D01*
X20849998Y-31000000D01*
X20849999Y-30999999D01*
X20849999Y-30750013D01*
X20839507Y-30647312D01*
X20839504Y-30647300D01*
X20784356Y-30480875D01*
X20692319Y-30331659D01*
X20681017Y-30320357D01*
X20653240Y-30265840D01*
X20662811Y-30205408D01*
X20681019Y-30180348D01*
X20692712Y-30168656D01*
X20784814Y-30019334D01*
X20839999Y-29852797D01*
X20850500Y-29750009D01*
X20850499Y-28749992D01*
X20850499Y-28749983D01*
X20840000Y-28647211D01*
X20839999Y-28647209D01*
X20839999Y-28647203D01*
X20784814Y-28480666D01*
X20692712Y-28331344D01*
X20681015Y-28319647D01*
X20653240Y-28265133D01*
X20662811Y-28204701D01*
X20681022Y-28179638D01*
X20692316Y-28168344D01*
X20784356Y-28019124D01*
X20839506Y-27852693D01*
X20850000Y-27749987D01*
X20850000Y-27500001D01*
X20849999Y-27500000D01*
X19849000Y-27500000D01*
X19790809Y-27481093D01*
X19754845Y-27431593D01*
X19750000Y-27401000D01*
X19750000Y-27099000D01*
X19768907Y-27040809D01*
X19818407Y-27004845D01*
X19849000Y-27000000D01*
X20849998Y-27000000D01*
X20849999Y-26999999D01*
X20849999Y-26750013D01*
X20839507Y-26647312D01*
X20839504Y-26647300D01*
X20784356Y-26480875D01*
X20692319Y-26331659D01*
X20681017Y-26320357D01*
X20653240Y-26265840D01*
X20662811Y-26205408D01*
X20681019Y-26180348D01*
X20692712Y-26168656D01*
X20784814Y-26019334D01*
X20839999Y-25852797D01*
X20850500Y-25750009D01*
X20850499Y-24749992D01*
X20850499Y-24749991D01*
X20850499Y-24749983D01*
X20840000Y-24647211D01*
X20839999Y-24647209D01*
X20839999Y-24647203D01*
X20784814Y-24480666D01*
X20727247Y-24387334D01*
X20692714Y-24331347D01*
X20692713Y-24331346D01*
X20692712Y-24331344D01*
X20568656Y-24207288D01*
X20568653Y-24207286D01*
X20568652Y-24207285D01*
X20419336Y-24115187D01*
X20419335Y-24115186D01*
X20419334Y-24115186D01*
X20252797Y-24060001D01*
X20252794Y-24060000D01*
X20150016Y-24049500D01*
X19349983Y-24049500D01*
X19247211Y-24059999D01*
X19247199Y-24060002D01*
X19080663Y-24115187D01*
X18931347Y-24207285D01*
X18931344Y-24207287D01*
X18931344Y-24207288D01*
X18820001Y-24318630D01*
X18765487Y-24346406D01*
X18705055Y-24336835D01*
X18679999Y-24318631D01*
X18568656Y-24207288D01*
X18568653Y-24207286D01*
X18568651Y-24207284D01*
X18497527Y-24163414D01*
X18457926Y-24116773D01*
X18450500Y-24079154D01*
X18450500Y-23581008D01*
X18450499Y-23581004D01*
X18445317Y-23554949D01*
X18424548Y-23450536D01*
X18423580Y-23445671D01*
X18414816Y-23424514D01*
X18370775Y-23318189D01*
X18294116Y-23203460D01*
X18294114Y-23203457D01*
X15910161Y-20819504D01*
X15882384Y-20764987D01*
X15891955Y-20704555D01*
X15935220Y-20661290D01*
X15980165Y-20650500D01*
X17318835Y-20650500D01*
X17377026Y-20669407D01*
X17388839Y-20679496D01*
X19490886Y-22781542D01*
X19588458Y-22879114D01*
X19703182Y-22955771D01*
X19703187Y-22955774D01*
X19703188Y-22955774D01*
X19703189Y-22955775D01*
X19753031Y-22976420D01*
X19830671Y-23008580D01*
X19857591Y-23013934D01*
X19966007Y-23035500D01*
X20006760Y-23035500D01*
X20064951Y-23054407D01*
X20094967Y-23089552D01*
X20141394Y-23180670D01*
X20165627Y-23228230D01*
X20165628Y-23228231D01*
X20279535Y-23368892D01*
X20284758Y-23375342D01*
X20284763Y-23375346D01*
X20431868Y-23494471D01*
X20431870Y-23494472D01*
X20431874Y-23494475D01*
X20600544Y-23580416D01*
X20783397Y-23629412D01*
X20862025Y-23635600D01*
X22987974Y-23635599D01*
X23066603Y-23629412D01*
X23249456Y-23580416D01*
X23418126Y-23494475D01*
X23565242Y-23375342D01*
X23601163Y-23330983D01*
X23652477Y-23297659D01*
X23713578Y-23300861D01*
X23761128Y-23339366D01*
X23777100Y-23393286D01*
X23777100Y-24213881D01*
X23783243Y-24291950D01*
X23830813Y-24469487D01*
X23831894Y-24473518D01*
X23915779Y-24638154D01*
X23917231Y-24641002D01*
X23917232Y-24641004D01*
X24035517Y-24787072D01*
X24035522Y-24787078D01*
X24035527Y-24787082D01*
X24181595Y-24905367D01*
X24181597Y-24905368D01*
X24181601Y-24905371D01*
X24349082Y-24990706D01*
X24530646Y-25039356D01*
X24608711Y-25045500D01*
X25521288Y-25045499D01*
X25599354Y-25039356D01*
X25780918Y-24990706D01*
X25948399Y-24905371D01*
X26094478Y-24787078D01*
X26212771Y-24640999D01*
X26246791Y-24574229D01*
X26290054Y-24530967D01*
X26350486Y-24521395D01*
X26405003Y-24549172D01*
X26423207Y-24574227D01*
X26429885Y-24587332D01*
X26457231Y-24641003D01*
X26457232Y-24641004D01*
X26575517Y-24787072D01*
X26575522Y-24787078D01*
X26575527Y-24787082D01*
X26721595Y-24905367D01*
X26721597Y-24905368D01*
X26721601Y-24905371D01*
X26889082Y-24990706D01*
X27070646Y-25039356D01*
X27148711Y-25045500D01*
X28061288Y-25045499D01*
X28139354Y-25039356D01*
X28320918Y-24990706D01*
X28488399Y-24905371D01*
X28634478Y-24787078D01*
X28752771Y-24640999D01*
X28786791Y-24574229D01*
X28830054Y-24530967D01*
X28890486Y-24521395D01*
X28945003Y-24549172D01*
X28963207Y-24574227D01*
X28969885Y-24587332D01*
X28997231Y-24641003D01*
X28997232Y-24641004D01*
X29115517Y-24787072D01*
X29115522Y-24787078D01*
X29115527Y-24787082D01*
X29261595Y-24905367D01*
X29261596Y-24905368D01*
X29261599Y-24905369D01*
X29261601Y-24905371D01*
X29390446Y-24971020D01*
X29433709Y-25014284D01*
X29444500Y-25059229D01*
X29444500Y-26013996D01*
X29471420Y-26149327D01*
X29471420Y-26149329D01*
X29524223Y-26276808D01*
X29579036Y-26358843D01*
X29600886Y-26391543D01*
X30648032Y-27438689D01*
X31689839Y-28480496D01*
X31717616Y-28535013D01*
X31708045Y-28595445D01*
X31664780Y-28638710D01*
X31619835Y-28649500D01*
X30749983Y-28649500D01*
X30647211Y-28659999D01*
X30647199Y-28660002D01*
X30480663Y-28715187D01*
X30331347Y-28807285D01*
X30207285Y-28931347D01*
X30163416Y-29002472D01*
X30148697Y-29014969D01*
X30137346Y-29030593D01*
X30125927Y-29034303D01*
X30116775Y-29042074D01*
X30079155Y-29049500D01*
X29920845Y-29049500D01*
X29862654Y-29030593D01*
X29836584Y-29002472D01*
X29792714Y-28931347D01*
X29792713Y-28931346D01*
X29792712Y-28931344D01*
X29668656Y-28807288D01*
X29668653Y-28807286D01*
X29668652Y-28807285D01*
X29519336Y-28715187D01*
X29519335Y-28715186D01*
X29519334Y-28715186D01*
X29352797Y-28660001D01*
X29352794Y-28660000D01*
X29250016Y-28649500D01*
X28249983Y-28649500D01*
X28147211Y-28659999D01*
X28147199Y-28660002D01*
X27980663Y-28715187D01*
X27831347Y-28807285D01*
X27707285Y-28931347D01*
X27663416Y-29002472D01*
X27648697Y-29014969D01*
X27637346Y-29030593D01*
X27625927Y-29034303D01*
X27616775Y-29042074D01*
X27579155Y-29049500D01*
X27549500Y-29049500D01*
X27491309Y-29030593D01*
X27455345Y-28981093D01*
X27450500Y-28950500D01*
X27450500Y-27651460D01*
X27450499Y-27651456D01*
X27443412Y-27615826D01*
X27412051Y-27458165D01*
X27336632Y-27276086D01*
X27227139Y-27112218D01*
X27087782Y-26972861D01*
X26970506Y-26894500D01*
X26923913Y-26863367D01*
X26741835Y-26787949D01*
X26548543Y-26749500D01*
X26548541Y-26749500D01*
X26351459Y-26749500D01*
X26351456Y-26749500D01*
X26158165Y-26787949D01*
X26158163Y-26787949D01*
X25976086Y-26863367D01*
X25812218Y-26972861D01*
X25812214Y-26972864D01*
X25672864Y-27112214D01*
X25672861Y-27112218D01*
X25563367Y-27276086D01*
X25487949Y-27458163D01*
X25487949Y-27458165D01*
X25449500Y-27651456D01*
X25449500Y-29848543D01*
X25477598Y-29989797D01*
X25479500Y-30009111D01*
X25479500Y-34272207D01*
X25460593Y-34330398D01*
X25411093Y-34366362D01*
X25349907Y-34366362D01*
X25300407Y-34330398D01*
X25284155Y-34294979D01*
X25283598Y-34292626D01*
X25233353Y-34157911D01*
X25233352Y-34157909D01*
X25147192Y-34042815D01*
X25147184Y-34042807D01*
X25032090Y-33956647D01*
X25032088Y-33956646D01*
X24897381Y-33906403D01*
X24897370Y-33906401D01*
X24837824Y-33900000D01*
X24190001Y-33900000D01*
X24190000Y-33900001D01*
X24190000Y-34816988D01*
X24132993Y-34784075D01*
X24005826Y-34750000D01*
X23874174Y-34750000D01*
X23747007Y-34784075D01*
X23690000Y-34816988D01*
X23690000Y-33900001D01*
X23689999Y-33900000D01*
X23042176Y-33900000D01*
X22982629Y-33906401D01*
X22982618Y-33906403D01*
X22847911Y-33956646D01*
X22847909Y-33956647D01*
X22732815Y-34042807D01*
X22732807Y-34042815D01*
X22646647Y-34157909D01*
X22646646Y-34157911D01*
X22596403Y-34292618D01*
X22596401Y-34292629D01*
X22590000Y-34352175D01*
X22590000Y-34999999D01*
X22590001Y-35000000D01*
X23506988Y-35000000D01*
X23474075Y-35057007D01*
X23440000Y-35184174D01*
X23440000Y-35315826D01*
X23474075Y-35442993D01*
X23506988Y-35500000D01*
X22590001Y-35500000D01*
X22590000Y-35500001D01*
X22590000Y-36147824D01*
X22589999Y-36147824D01*
X22596401Y-36207370D01*
X22596403Y-36207381D01*
X22646646Y-36342088D01*
X22646647Y-36342090D01*
X22732807Y-36457184D01*
X22732815Y-36457192D01*
X22847909Y-36543352D01*
X22847911Y-36543353D01*
X22982618Y-36593596D01*
X22982629Y-36593598D01*
X23042176Y-36600000D01*
X23689999Y-36600000D01*
X23690000Y-36599999D01*
X23690000Y-35683012D01*
X23747007Y-35715925D01*
X23874174Y-35750000D01*
X24005826Y-35750000D01*
X24132993Y-35715925D01*
X24190000Y-35683012D01*
X24190000Y-36599999D01*
X24190001Y-36600000D01*
X24837824Y-36600000D01*
X24897370Y-36593598D01*
X24897381Y-36593596D01*
X25032088Y-36543353D01*
X25032090Y-36543352D01*
X25147184Y-36457192D01*
X25147192Y-36457184D01*
X25233352Y-36342090D01*
X25233353Y-36342088D01*
X25283596Y-36207381D01*
X25283598Y-36207370D01*
X25285153Y-36192909D01*
X25310171Y-36137072D01*
X25363230Y-36106604D01*
X25424065Y-36113143D01*
X25453586Y-36133482D01*
X25600208Y-36280104D01*
X25600211Y-36280106D01*
X25600213Y-36280108D01*
X25772180Y-36405049D01*
X25772184Y-36405051D01*
X25961588Y-36501557D01*
X26163757Y-36567246D01*
X26163758Y-36567246D01*
X26163761Y-36567247D01*
X26373710Y-36600500D01*
X26373713Y-36600500D01*
X26586290Y-36600500D01*
X26796238Y-36567247D01*
X26796239Y-36567246D01*
X26796243Y-36567246D01*
X26998412Y-36501557D01*
X27187816Y-36405051D01*
X27359792Y-36280104D01*
X27510104Y-36129792D01*
X27635051Y-35957816D01*
X27661790Y-35905336D01*
X27705054Y-35862073D01*
X27765486Y-35852501D01*
X27820003Y-35880278D01*
X27838210Y-35905337D01*
X27864948Y-35957815D01*
X27864950Y-35957819D01*
X27989891Y-36129786D01*
X27989893Y-36129788D01*
X27989896Y-36129792D01*
X28140208Y-36280104D01*
X28140211Y-36280106D01*
X28140213Y-36280108D01*
X28312180Y-36405049D01*
X28312184Y-36405051D01*
X28501588Y-36501557D01*
X28703757Y-36567246D01*
X28703758Y-36567246D01*
X28703761Y-36567247D01*
X28913710Y-36600500D01*
X28913713Y-36600500D01*
X29126289Y-36600500D01*
X29171760Y-36593297D01*
X29295352Y-36573722D01*
X29355782Y-36583293D01*
X29380842Y-36601499D01*
X30173457Y-37394114D01*
X30288189Y-37470775D01*
X30415672Y-37523580D01*
X30551006Y-37550500D01*
X30551007Y-37550500D01*
X32518993Y-37550500D01*
X32518994Y-37550500D01*
X32654328Y-37523580D01*
X32781811Y-37470775D01*
X32896543Y-37394114D01*
X34994114Y-35296543D01*
X35070775Y-35181811D01*
X35123580Y-35054328D01*
X35129721Y-35023453D01*
X35150500Y-34918993D01*
X35150500Y-28981007D01*
X35139167Y-28924035D01*
X35123580Y-28845672D01*
X35083948Y-28749992D01*
X35070776Y-28718191D01*
X35066673Y-28712051D01*
X34994114Y-28603457D01*
X33414496Y-27023839D01*
X33386719Y-26969322D01*
X33385500Y-26953835D01*
X33385500Y-25059229D01*
X33404407Y-25001038D01*
X33439553Y-24971020D01*
X33568399Y-24905371D01*
X33714478Y-24787078D01*
X33832771Y-24640999D01*
X33861711Y-24584199D01*
X33904972Y-24540937D01*
X33965404Y-24531365D01*
X34019921Y-24559141D01*
X34038128Y-24584200D01*
X34065616Y-24638148D01*
X34065620Y-24638154D01*
X34156185Y-24749991D01*
X34184743Y-24785257D01*
X34184748Y-24785261D01*
X34331845Y-24904379D01*
X34331847Y-24904380D01*
X34331851Y-24904383D01*
X34500512Y-24990320D01*
X34683355Y-25039312D01*
X34761979Y-25045500D01*
X35688020Y-25045499D01*
X35766645Y-25039312D01*
X35949488Y-24990320D01*
X36118149Y-24904383D01*
X36265257Y-24785257D01*
X36384383Y-24638149D01*
X36470320Y-24469488D01*
X36519312Y-24286645D01*
X36525500Y-24208021D01*
X36525499Y-23408844D01*
X36544406Y-23350654D01*
X36593906Y-23314690D01*
X36655092Y-23314690D01*
X36701436Y-23346542D01*
X36715091Y-23363405D01*
X36724758Y-23375342D01*
X36724763Y-23375346D01*
X36871868Y-23494471D01*
X36871870Y-23494472D01*
X36871874Y-23494475D01*
X37040544Y-23580416D01*
X37223397Y-23629412D01*
X37258266Y-23632156D01*
X37314794Y-23655570D01*
X37346764Y-23707739D01*
X37349500Y-23730851D01*
X37349500Y-26118996D01*
X37359379Y-26168657D01*
X37374595Y-26245155D01*
X37376420Y-26254327D01*
X37376420Y-26254329D01*
X37429223Y-26381808D01*
X37496251Y-26482124D01*
X37505886Y-26496543D01*
X43978005Y-32968662D01*
X44005781Y-33023177D01*
X44007000Y-33038664D01*
X44007000Y-37015500D01*
X43988093Y-37073691D01*
X43938593Y-37109655D01*
X43908000Y-37114500D01*
X43857484Y-37114500D01*
X43754705Y-37125000D01*
X43588166Y-37180185D01*
X43438846Y-37272288D01*
X43314788Y-37396346D01*
X43222685Y-37545666D01*
X43167500Y-37712205D01*
X43157000Y-37814984D01*
X43157000Y-39515015D01*
X43167500Y-39617794D01*
X43222685Y-39784333D01*
X43279903Y-39877096D01*
X43314789Y-39933655D01*
X43438845Y-40057711D01*
X43588166Y-40149814D01*
X43754703Y-40204999D01*
X43775260Y-40207099D01*
X43857484Y-40215500D01*
X43857492Y-40215500D01*
X45557516Y-40215500D01*
X45632263Y-40207862D01*
X45660297Y-40204999D01*
X45826834Y-40149814D01*
X45976155Y-40057711D01*
X45980498Y-40053367D01*
X46035013Y-40025592D01*
X46095445Y-40035163D01*
X46138710Y-40078428D01*
X46149500Y-40123373D01*
X46149500Y-41271334D01*
X46130593Y-41329525D01*
X46120504Y-41341338D01*
X45233170Y-42228672D01*
X45178653Y-42256449D01*
X45132574Y-42252823D01*
X45070573Y-42232678D01*
X44829530Y-42194500D01*
X44829527Y-42194500D01*
X44585473Y-42194500D01*
X44585470Y-42194500D01*
X44344428Y-42232677D01*
X44112314Y-42308096D01*
X43894862Y-42418892D01*
X43697418Y-42562344D01*
X43524844Y-42734918D01*
X43381392Y-42932362D01*
X43270596Y-43149814D01*
X43195177Y-43381928D01*
X43157000Y-43622969D01*
X43157000Y-43867030D01*
X43195177Y-44108071D01*
X43270596Y-44340185D01*
X43381392Y-44557637D01*
X43414087Y-44602637D01*
X43524845Y-44755083D01*
X43697417Y-44927655D01*
X43840869Y-45031878D01*
X43894862Y-45071107D01*
X43983179Y-45116106D01*
X44112315Y-45181904D01*
X44344424Y-45257321D01*
X44344425Y-45257321D01*
X44344428Y-45257322D01*
X44585470Y-45295500D01*
X44585473Y-45295500D01*
X44829530Y-45295500D01*
X45070571Y-45257322D01*
X45070572Y-45257321D01*
X45070576Y-45257321D01*
X45302685Y-45181904D01*
X45520139Y-45071106D01*
X45717583Y-44927655D01*
X45890155Y-44755083D01*
X46033606Y-44557639D01*
X46144404Y-44340185D01*
X46219821Y-44108076D01*
X46219822Y-44108071D01*
X46258000Y-43867030D01*
X46258000Y-43622969D01*
X46219822Y-43381928D01*
X46199676Y-43319925D01*
X46199676Y-43258739D01*
X46223825Y-43219330D01*
X47394114Y-42049043D01*
X47470775Y-41934311D01*
X47523580Y-41806828D01*
X47550500Y-41671494D01*
X47550500Y-41533506D01*
X47550500Y-37281007D01*
X47550499Y-37281004D01*
X47550499Y-37280999D01*
X47548926Y-37273092D01*
X47548925Y-37273091D01*
X47548765Y-37272288D01*
X47523580Y-37145672D01*
X47470775Y-37018189D01*
X47394114Y-36903457D01*
X46179496Y-35688839D01*
X46151719Y-35634322D01*
X46150500Y-35618835D01*
X46150500Y-33763708D01*
X46169407Y-33705517D01*
X46218907Y-33669553D01*
X46280093Y-33669553D01*
X46284074Y-33670942D01*
X46292517Y-33674091D01*
X46352127Y-33680500D01*
X48147872Y-33680499D01*
X48207483Y-33674091D01*
X48274907Y-33648943D01*
X48342329Y-33623797D01*
X48342329Y-33623796D01*
X48342331Y-33623796D01*
X48457546Y-33537546D01*
X48543796Y-33422331D01*
X48594091Y-33287483D01*
X48600500Y-33227873D01*
X48600499Y-31432128D01*
X48594091Y-31372517D01*
X48585690Y-31349992D01*
X48543797Y-31237670D01*
X48457549Y-31122458D01*
X48457548Y-31122457D01*
X48457546Y-31122454D01*
X48426216Y-31099000D01*
X48342329Y-31036202D01*
X48207488Y-30985910D01*
X48207483Y-30985909D01*
X48207481Y-30985908D01*
X48207477Y-30985908D01*
X48176249Y-30982550D01*
X48147873Y-30979500D01*
X48147870Y-30979500D01*
X48112972Y-30979500D01*
X48054781Y-30960593D01*
X48022212Y-30915766D01*
X47379408Y-30272962D01*
X47442993Y-30255925D01*
X47557007Y-30190099D01*
X47650099Y-30097007D01*
X47715925Y-29982993D01*
X47732962Y-29919408D01*
X48365270Y-30551716D01*
X48404620Y-30497556D01*
X48501095Y-30308215D01*
X48566759Y-30106121D01*
X48600000Y-29896250D01*
X48600000Y-29683749D01*
X48566759Y-29473878D01*
X48501095Y-29271784D01*
X48404623Y-29082446D01*
X48404619Y-29082440D01*
X48365270Y-29028282D01*
X48365269Y-29028282D01*
X47732962Y-29660589D01*
X47715925Y-29597007D01*
X47650099Y-29482993D01*
X47557007Y-29389901D01*
X47442993Y-29324075D01*
X47379407Y-29307037D01*
X48011716Y-28674729D01*
X48011716Y-28674728D01*
X47957559Y-28635380D01*
X47957543Y-28635370D01*
X47904786Y-28608489D01*
X47861521Y-28565225D01*
X47851950Y-28504793D01*
X47879728Y-28450276D01*
X47904784Y-28432071D01*
X47957816Y-28405051D01*
X48129792Y-28280104D01*
X48280104Y-28129792D01*
X48380717Y-27991309D01*
X48405049Y-27957819D01*
X48405051Y-27957816D01*
X48501557Y-27768412D01*
X48567246Y-27566243D01*
X48570842Y-27543539D01*
X48600500Y-27356290D01*
X48600500Y-27143709D01*
X48567247Y-26933761D01*
X48562449Y-26918994D01*
X48501557Y-26731588D01*
X48405051Y-26542184D01*
X48405049Y-26542180D01*
X48280108Y-26370213D01*
X48280105Y-26370210D01*
X48280104Y-26370208D01*
X48129792Y-26219896D01*
X48129788Y-26219893D01*
X48129786Y-26219891D01*
X47957819Y-26094950D01*
X47957815Y-26094948D01*
X47926904Y-26079198D01*
X47905336Y-26068209D01*
X47862073Y-26024946D01*
X47852501Y-25964514D01*
X47880278Y-25909997D01*
X47905335Y-25891791D01*
X47957816Y-25865051D01*
X47974687Y-25852794D01*
X48055333Y-25794201D01*
X48129792Y-25740104D01*
X48280104Y-25589792D01*
X48392754Y-25434741D01*
X48405049Y-25417819D01*
X48405051Y-25417816D01*
X48501557Y-25228412D01*
X48567246Y-25026243D01*
X48567501Y-25024633D01*
X48600500Y-24816290D01*
X48600500Y-24603709D01*
X48567247Y-24393761D01*
X48553191Y-24350500D01*
X48501557Y-24191588D01*
X48405051Y-24002184D01*
X48405049Y-24002180D01*
X48280108Y-23830213D01*
X48280106Y-23830211D01*
X48280104Y-23830208D01*
X48129792Y-23679896D01*
X48129788Y-23679893D01*
X48129786Y-23679891D01*
X47957819Y-23554950D01*
X47957815Y-23554948D01*
X47926904Y-23539198D01*
X47905336Y-23528209D01*
X47862073Y-23484946D01*
X47852501Y-23424514D01*
X47880278Y-23369997D01*
X47905335Y-23351791D01*
X47957816Y-23325051D01*
X47970266Y-23316006D01*
X48091078Y-23228231D01*
X48129792Y-23200104D01*
X48280104Y-23049792D01*
X48405051Y-22877816D01*
X48501557Y-22688412D01*
X48567246Y-22486243D01*
X48567247Y-22486238D01*
X48600500Y-22276290D01*
X48600500Y-22063709D01*
X48567247Y-21853761D01*
X48565380Y-21848014D01*
X48501557Y-21651588D01*
X48405051Y-21462184D01*
X48405049Y-21462180D01*
X48280108Y-21290213D01*
X48280106Y-21290211D01*
X48280104Y-21290208D01*
X48129792Y-21139896D01*
X48129788Y-21139893D01*
X48129786Y-21139891D01*
X47957819Y-21014950D01*
X47957815Y-21014948D01*
X47768412Y-20918443D01*
X47566238Y-20852752D01*
X47356290Y-20819500D01*
X47356287Y-20819500D01*
X47143713Y-20819500D01*
X47143710Y-20819500D01*
X46974647Y-20846277D01*
X46914215Y-20836706D01*
X46889156Y-20818500D01*
X45136160Y-19065504D01*
X43379496Y-17308839D01*
X43351719Y-17254322D01*
X43350500Y-17238835D01*
X43350500Y-10580165D01*
X43369407Y-10521974D01*
X43418907Y-10486010D01*
X43480093Y-10486010D01*
X43519504Y-10510161D01*
X44020504Y-11011161D01*
X44048281Y-11065678D01*
X44049500Y-11081165D01*
X44049500Y-16318996D01*
X44067446Y-16409216D01*
X44076067Y-16452555D01*
X44076420Y-16454327D01*
X44076420Y-16454329D01*
X44129223Y-16581808D01*
X44204164Y-16693967D01*
X44205886Y-16696543D01*
X45113457Y-17604114D01*
X45228189Y-17680775D01*
X45355672Y-17733580D01*
X45491006Y-17760500D01*
X45491007Y-17760500D01*
X45800501Y-17760500D01*
X45858692Y-17779407D01*
X45894656Y-17828907D01*
X45899501Y-17859500D01*
X45899501Y-17957870D01*
X45905908Y-18017480D01*
X45905909Y-18017485D01*
X45956202Y-18152329D01*
X46009884Y-18224038D01*
X46042454Y-18267546D01*
X46042457Y-18267548D01*
X46042458Y-18267549D01*
X46157670Y-18353797D01*
X46292511Y-18404089D01*
X46292512Y-18404089D01*
X46292517Y-18404091D01*
X46352127Y-18410500D01*
X48147872Y-18410499D01*
X48207483Y-18404091D01*
X48322413Y-18361225D01*
X48342329Y-18353797D01*
X48342329Y-18353796D01*
X48342331Y-18353796D01*
X48457546Y-18267546D01*
X48543796Y-18152331D01*
X48594091Y-18017483D01*
X48600500Y-17957873D01*
X48600499Y-16162128D01*
X48594091Y-16102517D01*
X48576370Y-16055004D01*
X48543797Y-15967670D01*
X48457549Y-15852458D01*
X48457548Y-15852457D01*
X48457546Y-15852454D01*
X48457541Y-15852450D01*
X48342329Y-15766202D01*
X48207488Y-15715910D01*
X48207483Y-15715909D01*
X48207481Y-15715908D01*
X48207477Y-15715908D01*
X48176249Y-15712550D01*
X48147873Y-15709500D01*
X48147870Y-15709500D01*
X48112972Y-15709500D01*
X48054781Y-15690593D01*
X48022212Y-15645766D01*
X47379408Y-15002962D01*
X47442993Y-14985925D01*
X47557007Y-14920099D01*
X47650099Y-14827007D01*
X47715925Y-14712993D01*
X47732962Y-14649408D01*
X48365270Y-15281716D01*
X48404620Y-15227556D01*
X48501095Y-15038215D01*
X48566759Y-14836121D01*
X48600000Y-14626250D01*
X48600000Y-14413749D01*
X48566759Y-14203878D01*
X48501095Y-14001784D01*
X48404623Y-13812446D01*
X48404619Y-13812440D01*
X48365270Y-13758282D01*
X48365269Y-13758282D01*
X47732962Y-14390589D01*
X47715925Y-14327007D01*
X47650099Y-14212993D01*
X47557007Y-14119901D01*
X47442993Y-14054075D01*
X47379407Y-14037037D01*
X48011716Y-13404729D01*
X48011716Y-13404728D01*
X47957559Y-13365380D01*
X47957543Y-13365370D01*
X47904786Y-13338489D01*
X47861521Y-13295225D01*
X47851950Y-13234793D01*
X47879728Y-13180276D01*
X47904784Y-13162071D01*
X47957816Y-13135051D01*
X47958092Y-13134851D01*
X48049899Y-13068149D01*
X48129792Y-13010104D01*
X48280104Y-12859792D01*
X48405051Y-12687816D01*
X48501557Y-12498412D01*
X48567246Y-12296243D01*
X48567247Y-12296238D01*
X48600500Y-12086290D01*
X48600500Y-11873709D01*
X48567247Y-11663761D01*
X48557369Y-11633359D01*
X48501557Y-11461588D01*
X48405051Y-11272184D01*
X48405049Y-11272180D01*
X48280108Y-11100213D01*
X48280106Y-11100211D01*
X48280104Y-11100208D01*
X48129792Y-10949896D01*
X48129788Y-10949893D01*
X48129786Y-10949891D01*
X47957819Y-10824950D01*
X47957815Y-10824948D01*
X47926904Y-10809198D01*
X47905336Y-10798209D01*
X47862073Y-10754946D01*
X47852501Y-10694514D01*
X47880278Y-10639997D01*
X47905335Y-10621791D01*
X47957816Y-10595051D01*
X48129792Y-10470104D01*
X48280104Y-10319792D01*
X48405051Y-10147816D01*
X48501557Y-9958412D01*
X48567246Y-9756243D01*
X48567247Y-9756238D01*
X48600500Y-9546290D01*
X48600500Y-9333709D01*
X48567247Y-9123761D01*
X48567246Y-9123757D01*
X48501557Y-8921588D01*
X48405051Y-8732184D01*
X48405049Y-8732180D01*
X48280108Y-8560213D01*
X48280105Y-8560210D01*
X48280104Y-8560208D01*
X48129792Y-8409896D01*
X48129788Y-8409893D01*
X48129786Y-8409891D01*
X47957819Y-8284950D01*
X47957815Y-8284948D01*
X47768412Y-8188443D01*
X47566238Y-8122752D01*
X47356290Y-8089500D01*
X47356287Y-8089500D01*
X47143713Y-8089500D01*
X47143710Y-8089500D01*
X46933761Y-8122752D01*
X46731587Y-8188443D01*
X46542184Y-8284948D01*
X46542180Y-8284950D01*
X46370213Y-8409891D01*
X46219894Y-8560210D01*
X46119283Y-8698691D01*
X46069783Y-8734655D01*
X46039190Y-8739500D01*
X45449500Y-8739500D01*
X45391309Y-8720593D01*
X45355345Y-8671093D01*
X45350500Y-8640500D01*
X45350500Y-6607386D01*
X45369407Y-6549195D01*
X45418907Y-6513231D01*
X45480093Y-6513231D01*
X45487380Y-6515919D01*
X45569295Y-6549850D01*
X45569297Y-6549850D01*
X45569303Y-6549853D01*
X45898417Y-6649689D01*
X45898421Y-6649689D01*
X45898422Y-6649690D01*
X46235750Y-6716789D01*
X46273781Y-6720534D01*
X46578023Y-6750500D01*
X46578031Y-6750500D01*
X46921977Y-6750500D01*
X47150156Y-6728026D01*
X47264250Y-6716789D01*
X47601578Y-6649690D01*
X47601579Y-6649689D01*
X47601582Y-6649689D01*
X47930696Y-6549853D01*
X47930698Y-6549851D01*
X47930705Y-6549850D01*
X48248462Y-6418231D01*
X48490348Y-6288940D01*
X48551784Y-6256102D01*
X48623223Y-6208368D01*
X48837760Y-6065019D01*
X49103627Y-5846828D01*
X49330498Y-5619956D01*
X49385013Y-5592181D01*
X49445445Y-5601752D01*
X49488710Y-5645017D01*
X49499500Y-5689962D01*
X49499500Y-74310038D01*
X49480593Y-74368229D01*
X49431093Y-74404193D01*
X49369907Y-74404193D01*
X49330498Y-74380043D01*
X49103627Y-74153172D01*
X48837760Y-73934981D01*
X48766266Y-73887210D01*
X48551784Y-73743897D01*
X48248480Y-73581778D01*
X48248468Y-73581772D01*
X48248462Y-73581769D01*
X48248457Y-73581766D01*
X48248453Y-73581765D01*
X47930696Y-73450146D01*
X47601582Y-73350310D01*
X47330229Y-73296335D01*
X47264250Y-73283211D01*
X47264248Y-73283210D01*
X46921977Y-73249500D01*
X46921969Y-73249500D01*
X46578031Y-73249500D01*
X46578023Y-73249500D01*
X46235753Y-73283210D01*
X45898417Y-73350310D01*
X45569303Y-73450146D01*
X45251546Y-73581765D01*
X45251519Y-73581778D01*
X44948215Y-73743897D01*
X44662238Y-73934982D01*
X44396378Y-74153167D01*
X44153167Y-74396378D01*
X43934982Y-74662238D01*
X43743897Y-74948215D01*
X43581778Y-75251519D01*
X43581765Y-75251546D01*
X43450146Y-75569303D01*
X43350310Y-75898417D01*
X43283210Y-76235753D01*
X43249500Y-76578023D01*
X43249500Y-76921976D01*
X43283210Y-77264246D01*
X43350310Y-77601582D01*
X43450146Y-77930696D01*
X43581765Y-78248453D01*
X43581778Y-78248480D01*
X43743897Y-78551784D01*
X43934982Y-78837761D01*
X44143778Y-79092181D01*
X44153172Y-79103627D01*
X44380043Y-79330498D01*
X44407819Y-79385013D01*
X44398248Y-79445445D01*
X44354983Y-79488710D01*
X44310038Y-79499500D01*
X5689962Y-79499500D01*
X5631771Y-79480593D01*
X5595807Y-79431093D01*
X5595807Y-79369907D01*
X5619956Y-79330498D01*
X5846828Y-79103627D01*
X6065019Y-78837760D01*
X6256100Y-78551787D01*
X6418231Y-78248462D01*
X6549850Y-77930705D01*
X6649690Y-77601578D01*
X6716789Y-77264250D01*
X6729047Y-77139784D01*
X6750500Y-76921976D01*
X6750500Y-76578023D01*
X6716789Y-76235753D01*
X6716789Y-76235750D01*
X6649690Y-75898422D01*
X6649689Y-75898421D01*
X6649689Y-75898417D01*
X6549853Y-75569303D01*
X6418234Y-75251546D01*
X6418231Y-75251538D01*
X6418221Y-75251519D01*
X6256102Y-74948215D01*
X6160559Y-74805226D01*
X6065019Y-74662240D01*
X5846828Y-74396373D01*
X5603627Y-74153172D01*
X5337760Y-73934981D01*
X5266266Y-73887210D01*
X5051784Y-73743897D01*
X4748480Y-73581778D01*
X4748468Y-73581772D01*
X4748462Y-73581769D01*
X4748457Y-73581766D01*
X4748453Y-73581765D01*
X4430696Y-73450146D01*
X4101582Y-73350310D01*
X3830229Y-73296335D01*
X3764250Y-73283211D01*
X3764248Y-73283210D01*
X3421977Y-73249500D01*
X3421969Y-73249500D01*
X3078031Y-73249500D01*
X3078023Y-73249500D01*
X2735753Y-73283210D01*
X2398417Y-73350310D01*
X2069303Y-73450146D01*
X1751546Y-73581765D01*
X1751519Y-73581778D01*
X1448215Y-73743897D01*
X1162238Y-73934982D01*
X896378Y-74153167D01*
X896373Y-74153171D01*
X896373Y-74153172D01*
X669501Y-74380043D01*
X614987Y-74407819D01*
X554555Y-74398248D01*
X511290Y-74354983D01*
X500500Y-74310038D01*
X500500Y-5689962D01*
X519407Y-5631771D01*
X568907Y-5595807D01*
X630093Y-5595807D01*
X669501Y-5619956D01*
X896373Y-5846828D01*
X1162240Y-6065019D01*
X1296963Y-6155038D01*
X1448215Y-6256102D01*
X1662262Y-6370512D01*
X1751538Y-6418231D01*
X2069295Y-6549850D01*
X2069297Y-6549850D01*
X2069303Y-6549853D01*
X2398417Y-6649689D01*
X2398421Y-6649689D01*
X2398422Y-6649690D01*
X2735750Y-6716789D01*
X2773781Y-6720534D01*
X3078023Y-6750500D01*
X3078031Y-6750500D01*
X3421977Y-6750500D01*
X3650156Y-6728026D01*
X3764250Y-6716789D01*
X4101578Y-6649690D01*
X4101579Y-6649689D01*
X4101582Y-6649689D01*
X4430696Y-6549853D01*
X4430698Y-6549851D01*
X4430705Y-6549850D01*
X4748462Y-6418231D01*
X4990348Y-6288940D01*
X5051784Y-6256102D01*
X5123223Y-6208368D01*
X5337760Y-6065019D01*
X5603627Y-5846828D01*
X5846828Y-5603627D01*
X6065019Y-5337760D01*
X6256100Y-5051787D01*
X6274149Y-5018021D01*
X6350552Y-4875080D01*
X6418231Y-4748462D01*
X6549850Y-4430705D01*
X6551992Y-4423646D01*
X6649689Y-4101582D01*
X6651599Y-4091979D01*
X6716789Y-3764250D01*
X6741337Y-3515008D01*
X6750500Y-3421976D01*
X6750500Y-3078023D01*
X6717164Y-2739556D01*
X6716789Y-2735750D01*
X6649690Y-2398422D01*
X6649689Y-2398421D01*
X6649689Y-2398417D01*
X6549853Y-2069303D01*
X6418234Y-1751546D01*
X6418231Y-1751538D01*
X6418221Y-1751519D01*
X6335442Y-1596649D01*
X6256102Y-1448215D01*
X6130637Y-1260445D01*
X6065019Y-1162240D01*
X5846828Y-896373D01*
X5619956Y-669501D01*
X5592181Y-614987D01*
X5601752Y-554555D01*
X5645017Y-511290D01*
X5689962Y-500500D01*
X44310038Y-500500D01*
X44368229Y-519407D01*
G37*
%TD.AperFunction*%
%TA.AperFunction,Conductor*%
G36*
X44341740Y-23350500D02*
G01*
X44343555Y-23350500D01*
X44343555Y-23350898D01*
X44400560Y-23363405D01*
X44441203Y-23409142D01*
X44449500Y-23448816D01*
X44449500Y-26918996D01*
X44476420Y-27054327D01*
X44476420Y-27054329D01*
X44529223Y-27181808D01*
X44605885Y-27296542D01*
X44605890Y-27296548D01*
X45005885Y-27696541D01*
X45103458Y-27794114D01*
X45218182Y-27870771D01*
X45218187Y-27870774D01*
X45218188Y-27870774D01*
X45218189Y-27870775D01*
X45259248Y-27887782D01*
X45345671Y-27923580D01*
X45347959Y-27924035D01*
X45481007Y-27950500D01*
X46039190Y-27950500D01*
X46097381Y-27969407D01*
X46119282Y-27991308D01*
X46219896Y-28129792D01*
X46370208Y-28280104D01*
X46370211Y-28280106D01*
X46370213Y-28280108D01*
X46542180Y-28405049D01*
X46542189Y-28405054D01*
X46595212Y-28432070D01*
X46638477Y-28475334D01*
X46648049Y-28535766D01*
X46620272Y-28590283D01*
X46595214Y-28608489D01*
X46542451Y-28635373D01*
X46542442Y-28635378D01*
X46488282Y-28674728D01*
X47120591Y-29307037D01*
X47057007Y-29324075D01*
X46942993Y-29389901D01*
X46849901Y-29482993D01*
X46784075Y-29597007D01*
X46767037Y-29660591D01*
X46134728Y-29028282D01*
X46095378Y-29082442D01*
X46095376Y-29082446D01*
X45998904Y-29271784D01*
X45933240Y-29473878D01*
X45900000Y-29683749D01*
X45900000Y-29896250D01*
X45933240Y-30106121D01*
X45998904Y-30308215D01*
X46095376Y-30497553D01*
X46095380Y-30497559D01*
X46134728Y-30551716D01*
X46134729Y-30551716D01*
X46767037Y-29919407D01*
X46784075Y-29982993D01*
X46849901Y-30097007D01*
X46942993Y-30190099D01*
X47057007Y-30255925D01*
X47120589Y-30272962D01*
X46474632Y-30918918D01*
X46471437Y-30932228D01*
X46424911Y-30971964D01*
X46387029Y-30979500D01*
X46352132Y-30979500D01*
X46352129Y-30979500D01*
X46352128Y-30979501D01*
X46344949Y-30980272D01*
X46292519Y-30985908D01*
X46292514Y-30985909D01*
X46157670Y-31036202D01*
X46042458Y-31122450D01*
X46042450Y-31122458D01*
X45956202Y-31237670D01*
X45905910Y-31372511D01*
X45905908Y-31372522D01*
X45899500Y-31432129D01*
X45899500Y-31569835D01*
X45880593Y-31628026D01*
X45831093Y-31663990D01*
X45769907Y-31663990D01*
X45730496Y-31639839D01*
X43010161Y-28919504D01*
X42982384Y-28864987D01*
X42991955Y-28804555D01*
X43035220Y-28761290D01*
X43080165Y-28750500D01*
X43148540Y-28750500D01*
X43148541Y-28750500D01*
X43341835Y-28712051D01*
X43523914Y-28636632D01*
X43687782Y-28527139D01*
X43827139Y-28387782D01*
X43936632Y-28223914D01*
X44012051Y-28041835D01*
X44050500Y-27848541D01*
X44050500Y-23448816D01*
X44069407Y-23390625D01*
X44118907Y-23354661D01*
X44156445Y-23350591D01*
X44156445Y-23350500D01*
X44157293Y-23350500D01*
X44159203Y-23350293D01*
X44161305Y-23350500D01*
X44161309Y-23350500D01*
X44338695Y-23350500D01*
X44340797Y-23350293D01*
X44341740Y-23350500D01*
G37*
%TD.AperFunction*%
%TA.AperFunction,Conductor*%
G36*
X5228246Y-23879398D02*
G01*
X5249424Y-23936802D01*
X5249500Y-23940689D01*
X5249500Y-24018996D01*
X5276420Y-24154327D01*
X5276420Y-24154329D01*
X5329223Y-24281808D01*
X5399732Y-24387334D01*
X5405886Y-24396543D01*
X5919029Y-24909686D01*
X5946805Y-24964201D01*
X5937234Y-25024633D01*
X5893969Y-25067898D01*
X5833537Y-25077469D01*
X5817884Y-25073663D01*
X5702693Y-25035493D01*
X5599987Y-25025000D01*
X5462501Y-25025000D01*
X5462500Y-25025001D01*
X5462500Y-26151000D01*
X5443593Y-26209191D01*
X5394093Y-26245155D01*
X5363500Y-26250000D01*
X5061500Y-26250000D01*
X5003309Y-26231093D01*
X4967345Y-26181593D01*
X4962500Y-26151000D01*
X4962500Y-25025001D01*
X4962499Y-25025000D01*
X4825013Y-25025000D01*
X4825013Y-25025001D01*
X4722312Y-25035492D01*
X4722300Y-25035495D01*
X4555875Y-25090643D01*
X4406659Y-25182680D01*
X4282680Y-25306659D01*
X4190643Y-25455875D01*
X4135493Y-25622306D01*
X4125000Y-25725012D01*
X4125000Y-25840812D01*
X4106093Y-25899003D01*
X4056593Y-25934967D01*
X3995407Y-25934967D01*
X3945907Y-25899003D01*
X3934536Y-25878698D01*
X3903703Y-25804261D01*
X3892086Y-25784140D01*
X3837875Y-25690243D01*
X3837871Y-25690238D01*
X3837869Y-25690234D01*
X3757547Y-25585558D01*
X3757544Y-25585555D01*
X3757541Y-25585551D01*
X3664449Y-25492459D01*
X3664444Y-25492455D01*
X3664441Y-25492452D01*
X3589232Y-25434741D01*
X3581069Y-25422864D01*
X3569407Y-25414391D01*
X3564171Y-25398277D01*
X3554577Y-25384317D01*
X3550500Y-25356200D01*
X3550500Y-25252515D01*
X3567185Y-25197513D01*
X3639917Y-25088663D01*
X3687966Y-25050785D01*
X3741546Y-25046569D01*
X3753427Y-25048932D01*
X3761303Y-25050499D01*
X3761306Y-25050499D01*
X3761309Y-25050500D01*
X3761310Y-25050500D01*
X3938690Y-25050500D01*
X3938691Y-25050500D01*
X4112666Y-25015894D01*
X4276547Y-24948013D01*
X4424035Y-24849464D01*
X4549464Y-24724035D01*
X4648013Y-24576547D01*
X4715894Y-24412666D01*
X4744276Y-24269973D01*
X4771369Y-24219286D01*
X4994114Y-23996543D01*
X5068185Y-23885687D01*
X5116234Y-23847808D01*
X5177372Y-23845406D01*
X5228246Y-23879398D01*
G37*
%TD.AperFunction*%
%TA.AperFunction,Conductor*%
G36*
X5195445Y-21619797D02*
G01*
X5238710Y-21663062D01*
X5249500Y-21708007D01*
X5249500Y-22459310D01*
X5248872Y-22461241D01*
X5249424Y-22463197D01*
X5239476Y-22490158D01*
X5230593Y-22517501D01*
X5228948Y-22518695D01*
X5228246Y-22520600D01*
X5204360Y-22536560D01*
X5181093Y-22553465D01*
X5179061Y-22553465D01*
X5177373Y-22554593D01*
X5148662Y-22553465D01*
X5119907Y-22553465D01*
X5118263Y-22552270D01*
X5116234Y-22552191D01*
X5093673Y-22534405D01*
X5070407Y-22517501D01*
X5068185Y-22514311D01*
X5040489Y-22472861D01*
X5040488Y-22472861D01*
X4994114Y-22403457D01*
X4655579Y-22064921D01*
X4627802Y-22010405D01*
X4637373Y-21949973D01*
X4680638Y-21906708D01*
X4687687Y-21903458D01*
X4821547Y-21848013D01*
X4969035Y-21749464D01*
X5080496Y-21638003D01*
X5135013Y-21610226D01*
X5195445Y-21619797D01*
G37*
%TD.AperFunction*%
%TA.AperFunction,Conductor*%
G36*
X5214795Y-16475969D02*
G01*
X5246764Y-16528138D01*
X5249500Y-16551250D01*
X5249500Y-17048980D01*
X5230593Y-17107171D01*
X5181093Y-17143135D01*
X5119907Y-17143135D01*
X5070407Y-17107171D01*
X5068185Y-17103982D01*
X5049464Y-17075965D01*
X4924033Y-16950534D01*
X4915790Y-16945026D01*
X4877911Y-16896975D01*
X4875511Y-16835837D01*
X4900790Y-16792708D01*
X4909464Y-16784035D01*
X5008013Y-16636547D01*
X5059036Y-16513364D01*
X5098772Y-16466839D01*
X5158267Y-16452555D01*
X5214795Y-16475969D01*
G37*
%TD.AperFunction*%
%TA.AperFunction,Conductor*%
G36*
X46097381Y-10159407D02*
G01*
X46119282Y-10181308D01*
X46219896Y-10319792D01*
X46370208Y-10470104D01*
X46370211Y-10470106D01*
X46370213Y-10470108D01*
X46542180Y-10595049D01*
X46542184Y-10595051D01*
X46594662Y-10621790D01*
X46637927Y-10665055D01*
X46647498Y-10725487D01*
X46619720Y-10780004D01*
X46594662Y-10798210D01*
X46542184Y-10824948D01*
X46542180Y-10824950D01*
X46370213Y-10949891D01*
X46219891Y-11100213D01*
X46094950Y-11272180D01*
X46094948Y-11272184D01*
X45998443Y-11461587D01*
X45932752Y-11663761D01*
X45899500Y-11873709D01*
X45899500Y-12086290D01*
X45932752Y-12296238D01*
X45998443Y-12498412D01*
X46094948Y-12687815D01*
X46094950Y-12687819D01*
X46219891Y-12859786D01*
X46219893Y-12859788D01*
X46219896Y-12859792D01*
X46370208Y-13010104D01*
X46370211Y-13010106D01*
X46370213Y-13010108D01*
X46542180Y-13135049D01*
X46542189Y-13135054D01*
X46595212Y-13162070D01*
X46638477Y-13205334D01*
X46648049Y-13265766D01*
X46620272Y-13320283D01*
X46595214Y-13338489D01*
X46542451Y-13365373D01*
X46542442Y-13365378D01*
X46488282Y-13404728D01*
X47120591Y-14037037D01*
X47057007Y-14054075D01*
X46942993Y-14119901D01*
X46849901Y-14212993D01*
X46784075Y-14327007D01*
X46767037Y-14390591D01*
X46134728Y-13758282D01*
X46095378Y-13812442D01*
X46095376Y-13812446D01*
X45998904Y-14001784D01*
X45933240Y-14203878D01*
X45900000Y-14413749D01*
X45900000Y-14626250D01*
X45933240Y-14836121D01*
X45998904Y-15038215D01*
X46095376Y-15227553D01*
X46095380Y-15227559D01*
X46134728Y-15281716D01*
X46134729Y-15281716D01*
X46767037Y-14649407D01*
X46784075Y-14712993D01*
X46849901Y-14827007D01*
X46942993Y-14920099D01*
X47057007Y-14985925D01*
X47120589Y-15002962D01*
X46474632Y-15648918D01*
X46471437Y-15662228D01*
X46424911Y-15701964D01*
X46387029Y-15709500D01*
X46352132Y-15709500D01*
X46352129Y-15709500D01*
X46352128Y-15709501D01*
X46344949Y-15710272D01*
X46292519Y-15715908D01*
X46292514Y-15715909D01*
X46157670Y-15766202D01*
X46042458Y-15852450D01*
X46042450Y-15852458D01*
X45956202Y-15967670D01*
X45905910Y-16102511D01*
X45905908Y-16102522D01*
X45899500Y-16162129D01*
X45899500Y-16169835D01*
X45880593Y-16228026D01*
X45831093Y-16263990D01*
X45769907Y-16263990D01*
X45730496Y-16239839D01*
X45479496Y-15988839D01*
X45451719Y-15934322D01*
X45450500Y-15918835D01*
X45450500Y-10681011D01*
X45450499Y-10681003D01*
X45449355Y-10675251D01*
X45443644Y-10646542D01*
X45423580Y-10545672D01*
X45397177Y-10481930D01*
X45370776Y-10418191D01*
X45294110Y-10303450D01*
X45293168Y-10302303D01*
X45292920Y-10301670D01*
X45291412Y-10299413D01*
X45291907Y-10299081D01*
X45270869Y-10245326D01*
X45286319Y-10186124D01*
X45333616Y-10147309D01*
X45369697Y-10140500D01*
X46039190Y-10140500D01*
X46097381Y-10159407D01*
G37*
%TD.AperFunction*%
%TA.AperFunction,Conductor*%
G36*
X5214794Y-15012539D02*
G01*
X5246764Y-15064708D01*
X5249500Y-15087820D01*
X5249500Y-15868749D01*
X5230593Y-15926940D01*
X5181093Y-15962904D01*
X5119907Y-15962904D01*
X5070407Y-15926940D01*
X5059036Y-15906634D01*
X5008014Y-15783455D01*
X5008014Y-15783454D01*
X4909464Y-15635965D01*
X4788800Y-15515301D01*
X4761023Y-15460784D01*
X4770594Y-15400352D01*
X4803799Y-15362984D01*
X4824035Y-15349464D01*
X4949464Y-15224035D01*
X5048013Y-15076547D01*
X5059036Y-15049934D01*
X5098771Y-15003409D01*
X5158266Y-14989125D01*
X5214794Y-15012539D01*
G37*
%TD.AperFunction*%
%TA.AperFunction,Conductor*%
G36*
X20263465Y-8114407D02*
G01*
X20282208Y-8132193D01*
X20284758Y-8135342D01*
X20284763Y-8135346D01*
X20431868Y-8254471D01*
X20431877Y-8254477D01*
X20475670Y-8276791D01*
X20518935Y-8320055D01*
X20528506Y-8380487D01*
X20500728Y-8435004D01*
X20475670Y-8453209D01*
X20431877Y-8475522D01*
X20431868Y-8475528D01*
X20284763Y-8594653D01*
X20284753Y-8594663D01*
X20165628Y-8741768D01*
X20165627Y-8741769D01*
X20147154Y-8778026D01*
X20094968Y-8880446D01*
X20051706Y-8923709D01*
X20006760Y-8934500D01*
X16467516Y-8934500D01*
X16412514Y-8917815D01*
X16291554Y-8836990D01*
X16291542Y-8836984D01*
X16127666Y-8769106D01*
X15953693Y-8734500D01*
X15953691Y-8734500D01*
X15776309Y-8734500D01*
X15776306Y-8734500D01*
X15602334Y-8769106D01*
X15602332Y-8769106D01*
X15438455Y-8836985D01*
X15438454Y-8836985D01*
X15290965Y-8935535D01*
X15165535Y-9060965D01*
X15066985Y-9208454D01*
X15066985Y-9208455D01*
X14999106Y-9372332D01*
X14999106Y-9372334D01*
X14964500Y-9546306D01*
X14964500Y-9723693D01*
X14999106Y-9897665D01*
X14999106Y-9897667D01*
X15066985Y-10061544D01*
X15066985Y-10061545D01*
X15143894Y-10176646D01*
X15165536Y-10209035D01*
X15290965Y-10334464D01*
X15438453Y-10433013D01*
X15438454Y-10433013D01*
X15438455Y-10433014D01*
X15475581Y-10448391D01*
X15602334Y-10500894D01*
X15776309Y-10535500D01*
X15776310Y-10535500D01*
X15953690Y-10535500D01*
X15953691Y-10535500D01*
X16127666Y-10500894D01*
X16291547Y-10433013D01*
X16291549Y-10433011D01*
X16291554Y-10433009D01*
X16401486Y-10359554D01*
X16412514Y-10352184D01*
X16467516Y-10335500D01*
X20006760Y-10335500D01*
X20064951Y-10354407D01*
X20094967Y-10389552D01*
X20161931Y-10520977D01*
X20165627Y-10528230D01*
X20284684Y-10675251D01*
X20284758Y-10675342D01*
X20284763Y-10675346D01*
X20431868Y-10794471D01*
X20431877Y-10794477D01*
X20475670Y-10816791D01*
X20518935Y-10860055D01*
X20528506Y-10920487D01*
X20500728Y-10975004D01*
X20475670Y-10993209D01*
X20431877Y-11015522D01*
X20431868Y-11015528D01*
X20284763Y-11134653D01*
X20284753Y-11134663D01*
X20165628Y-11281768D01*
X20165627Y-11281770D01*
X20079683Y-11450445D01*
X20030687Y-11633301D01*
X20028291Y-11663757D01*
X20024922Y-11706570D01*
X20024500Y-11711931D01*
X20024500Y-12638068D01*
X20030687Y-12716698D01*
X20030687Y-12716701D01*
X20030688Y-12716703D01*
X20051396Y-12793985D01*
X20079665Y-12899488D01*
X20079684Y-12899556D01*
X20165588Y-13068154D01*
X20165627Y-13068229D01*
X20165628Y-13068231D01*
X20284684Y-13215251D01*
X20284758Y-13215342D01*
X20284763Y-13215346D01*
X20431868Y-13334471D01*
X20431877Y-13334477D01*
X20475670Y-13356791D01*
X20518935Y-13400055D01*
X20528506Y-13460487D01*
X20500728Y-13515004D01*
X20475670Y-13533209D01*
X20431877Y-13555522D01*
X20431868Y-13555528D01*
X20284763Y-13674653D01*
X20284753Y-13674663D01*
X20165628Y-13821768D01*
X20165627Y-13821769D01*
X20150231Y-13851987D01*
X20094968Y-13960446D01*
X20051706Y-14003709D01*
X20006760Y-14014500D01*
X15846165Y-14014500D01*
X15787974Y-13995593D01*
X15776161Y-13985504D01*
X15579496Y-13788839D01*
X15551719Y-13734322D01*
X15550500Y-13718835D01*
X15550500Y-13661310D01*
X15550499Y-13661306D01*
X15515894Y-13487334D01*
X15461822Y-13356791D01*
X15448014Y-13323455D01*
X15448014Y-13323454D01*
X15349464Y-13175965D01*
X15224034Y-13050535D01*
X15076544Y-12951985D01*
X14912666Y-12884106D01*
X14738693Y-12849500D01*
X14738691Y-12849500D01*
X14561309Y-12849500D01*
X14561306Y-12849500D01*
X14387334Y-12884106D01*
X14387332Y-12884106D01*
X14223455Y-12951985D01*
X14223454Y-12951985D01*
X14075965Y-13050535D01*
X13950535Y-13175965D01*
X13851985Y-13323454D01*
X13851985Y-13323455D01*
X13784106Y-13487332D01*
X13784106Y-13487334D01*
X13749500Y-13661306D01*
X13749500Y-13838693D01*
X13752581Y-13854180D01*
X13783266Y-14008445D01*
X13784106Y-14012665D01*
X13785517Y-14017316D01*
X13784479Y-14017630D01*
X13788886Y-14073610D01*
X13756917Y-14125779D01*
X13700390Y-14149195D01*
X13692621Y-14149500D01*
X13224983Y-14149500D01*
X13122211Y-14159999D01*
X13122199Y-14160002D01*
X12955663Y-14215187D01*
X12806347Y-14307285D01*
X12682285Y-14431347D01*
X12638416Y-14502472D01*
X12623697Y-14514969D01*
X12612346Y-14530593D01*
X12600927Y-14534303D01*
X12591775Y-14542074D01*
X12554155Y-14549500D01*
X12395845Y-14549500D01*
X12337654Y-14530593D01*
X12311584Y-14502472D01*
X12290711Y-14468631D01*
X12267712Y-14431344D01*
X12254494Y-14418126D01*
X12226718Y-14363608D01*
X12225500Y-14348124D01*
X12225500Y-8330427D01*
X12227968Y-8322829D01*
X12226719Y-8314941D01*
X12237241Y-8294288D01*
X12244407Y-8272236D01*
X12254496Y-8260424D01*
X12260541Y-8254379D01*
X12327139Y-8187782D01*
X12327141Y-8187778D01*
X12390424Y-8124496D01*
X12444941Y-8096719D01*
X12460427Y-8095500D01*
X15796459Y-8095500D01*
X20205274Y-8095500D01*
X20263465Y-8114407D01*
G37*
%TD.AperFunction*%
%TA.AperFunction,Conductor*%
G36*
X5003921Y-13854180D02*
G01*
X5093377Y-13909357D01*
X5259806Y-13964506D01*
X5362512Y-13974999D01*
X5395332Y-13974999D01*
X5453523Y-13993905D01*
X5489489Y-14043404D01*
X5489490Y-14104589D01*
X5465340Y-14144001D01*
X5405886Y-14203456D01*
X5352646Y-14283136D01*
X5352644Y-14283139D01*
X5349094Y-14288453D01*
X5329225Y-14318189D01*
X5298423Y-14392549D01*
X5296944Y-14395536D01*
X5277768Y-14415143D01*
X5259967Y-14435987D01*
X5256591Y-14436797D01*
X5254164Y-14439280D01*
X5227126Y-14443871D01*
X5200472Y-14450271D01*
X5197265Y-14448942D01*
X5193842Y-14449524D01*
X5169267Y-14437345D01*
X5143944Y-14426856D01*
X5141604Y-14423636D01*
X5139019Y-14422355D01*
X5134748Y-14414199D01*
X5116775Y-14389461D01*
X5048014Y-14223455D01*
X5048014Y-14223454D01*
X4949464Y-14075965D01*
X4881944Y-14008445D01*
X4854167Y-13953928D01*
X4863738Y-13893496D01*
X4907003Y-13850231D01*
X4967435Y-13840660D01*
X5003921Y-13854180D01*
G37*
%TD.AperFunction*%
%TA.AperFunction,Conductor*%
G36*
X10183691Y-8894407D02*
G01*
X10219655Y-8943907D01*
X10224500Y-8974500D01*
X10224500Y-14294835D01*
X10205593Y-14353026D01*
X10156093Y-14388990D01*
X10094907Y-14388990D01*
X10055496Y-14364839D01*
X9384308Y-13693651D01*
X8696543Y-13005886D01*
X8696539Y-13005883D01*
X8581810Y-12929224D01*
X8464995Y-12880838D01*
X8432877Y-12859378D01*
X8424034Y-12850535D01*
X8276544Y-12751985D01*
X8112666Y-12684106D01*
X7938693Y-12649500D01*
X7938691Y-12649500D01*
X7761309Y-12649500D01*
X7761306Y-12649500D01*
X7587334Y-12684106D01*
X7587332Y-12684106D01*
X7423455Y-12751985D01*
X7423454Y-12751985D01*
X7275965Y-12850535D01*
X7150533Y-12975967D01*
X7063982Y-13105501D01*
X7050186Y-13116376D01*
X7039858Y-13130593D01*
X7026752Y-13134851D01*
X7015933Y-13143381D01*
X6981667Y-13149500D01*
X6936500Y-13149500D01*
X6878309Y-13130593D01*
X6842345Y-13081093D01*
X6837500Y-13050500D01*
X6837500Y-13000001D01*
X6837499Y-13000000D01*
X5849000Y-13000000D01*
X5790809Y-12981093D01*
X5754845Y-12931593D01*
X5750000Y-12901000D01*
X5750000Y-12750001D01*
X5749999Y-12750000D01*
X5599000Y-12750000D01*
X5540809Y-12731093D01*
X5504845Y-12681593D01*
X5500000Y-12651000D01*
X5500000Y-11525001D01*
X6000000Y-11525001D01*
X6000000Y-12499999D01*
X6000001Y-12500000D01*
X6837498Y-12500000D01*
X6837499Y-12499999D01*
X6837499Y-12225013D01*
X6827007Y-12122312D01*
X6827004Y-12122300D01*
X6771856Y-11955875D01*
X6679819Y-11806659D01*
X6555840Y-11682680D01*
X6406624Y-11590643D01*
X6240193Y-11535493D01*
X6137487Y-11525000D01*
X6000001Y-11525000D01*
X6000000Y-11525001D01*
X5500000Y-11525001D01*
X5499999Y-11525000D01*
X5362513Y-11525000D01*
X5362513Y-11525001D01*
X5259812Y-11535492D01*
X5259800Y-11535495D01*
X5093375Y-11590643D01*
X4944159Y-11682680D01*
X4820180Y-11806659D01*
X4797053Y-11844154D01*
X4750411Y-11883754D01*
X4689401Y-11888377D01*
X4637325Y-11856255D01*
X4628532Y-11844152D01*
X4605214Y-11806347D01*
X4605213Y-11806346D01*
X4605212Y-11806344D01*
X4481156Y-11682288D01*
X4481153Y-11682286D01*
X4481152Y-11682285D01*
X4331836Y-11590187D01*
X4331835Y-11590186D01*
X4331834Y-11590186D01*
X4165297Y-11535001D01*
X4165294Y-11535000D01*
X4062516Y-11524500D01*
X3287483Y-11524500D01*
X3184711Y-11534999D01*
X3184699Y-11535002D01*
X3018163Y-11590187D01*
X2868847Y-11682285D01*
X2868844Y-11682287D01*
X2868844Y-11682288D01*
X2819501Y-11731630D01*
X2764987Y-11759406D01*
X2704555Y-11749835D01*
X2661290Y-11706570D01*
X2650500Y-11661625D01*
X2650500Y-11035652D01*
X2669407Y-10977461D01*
X2718907Y-10941497D01*
X2780093Y-10941497D01*
X2799893Y-10950438D01*
X2802102Y-10951744D01*
X2959931Y-10997598D01*
X2996806Y-11000500D01*
X2996811Y-11000500D01*
X4153189Y-11000500D01*
X4153194Y-11000500D01*
X4190069Y-10997598D01*
X4347898Y-10951744D01*
X4489365Y-10868081D01*
X4605581Y-10751865D01*
X4627577Y-10714670D01*
X4673471Y-10674209D01*
X4734385Y-10668450D01*
X4787050Y-10699595D01*
X4798004Y-10714671D01*
X4819816Y-10751554D01*
X4935947Y-10867685D01*
X5077299Y-10951280D01*
X5235010Y-10997100D01*
X5271863Y-11000000D01*
X5599999Y-11000000D01*
X5600000Y-10999999D01*
X5600000Y-10450001D01*
X6100000Y-10450001D01*
X6100000Y-10999999D01*
X6100001Y-11000000D01*
X6428137Y-11000000D01*
X6464989Y-10997100D01*
X6622700Y-10951280D01*
X6622701Y-10951280D01*
X6764052Y-10867685D01*
X6880185Y-10751552D01*
X6963780Y-10610201D01*
X6963780Y-10610200D01*
X6995796Y-10500001D01*
X7487501Y-10500001D01*
X7487501Y-10637486D01*
X7497992Y-10740187D01*
X7497995Y-10740199D01*
X7553143Y-10906624D01*
X7645180Y-11055840D01*
X7769159Y-11179819D01*
X7918375Y-11271856D01*
X8084806Y-11327006D01*
X8187513Y-11337499D01*
X8462498Y-11337499D01*
X8462500Y-11337498D01*
X8462500Y-10500001D01*
X8962500Y-10500001D01*
X8962500Y-11337498D01*
X8962501Y-11337499D01*
X9237486Y-11337499D01*
X9340187Y-11327007D01*
X9340199Y-11327004D01*
X9506624Y-11271856D01*
X9655840Y-11179819D01*
X9779819Y-11055840D01*
X9871856Y-10906624D01*
X9927006Y-10740193D01*
X9937500Y-10637487D01*
X9937500Y-10500001D01*
X9937499Y-10500000D01*
X8962501Y-10500000D01*
X8962500Y-10500001D01*
X8462500Y-10500001D01*
X8462499Y-10500000D01*
X7487502Y-10500000D01*
X7487501Y-10500001D01*
X6995796Y-10500001D01*
X7009598Y-10452493D01*
X7009600Y-10452485D01*
X7009699Y-10451231D01*
X7009699Y-10451226D01*
X7009795Y-10450000D01*
X6100001Y-10450000D01*
X6100000Y-10450001D01*
X5600000Y-10450001D01*
X5600000Y-9500001D01*
X6100000Y-9500001D01*
X6100000Y-9949999D01*
X6100001Y-9950000D01*
X7009795Y-9950000D01*
X7009600Y-9947513D01*
X7009598Y-9947506D01*
X6963781Y-9789801D01*
X6955262Y-9775396D01*
X6941914Y-9715684D01*
X6955262Y-9674604D01*
X6963781Y-9660198D01*
X7009598Y-9502493D01*
X7009600Y-9502486D01*
X7009796Y-9500000D01*
X6100001Y-9500000D01*
X6100000Y-9500001D01*
X5600000Y-9500001D01*
X5600000Y-9349000D01*
X5618907Y-9290809D01*
X5668407Y-9254845D01*
X5699000Y-9250000D01*
X5849999Y-9250000D01*
X5850000Y-9249999D01*
X5850000Y-9199500D01*
X5868907Y-9141309D01*
X5918407Y-9105345D01*
X5949000Y-9100500D01*
X6428189Y-9100500D01*
X6428194Y-9100500D01*
X6465069Y-9097598D01*
X6622898Y-9051744D01*
X6677577Y-9019407D01*
X6686235Y-9014287D01*
X6736630Y-9000500D01*
X7623124Y-9000500D01*
X7627162Y-9001812D01*
X7631295Y-9000838D01*
X7648014Y-9008587D01*
X7681315Y-9019407D01*
X7687727Y-9024483D01*
X7690521Y-9026889D01*
X7768844Y-9105212D01*
X7813336Y-9132655D01*
X7819283Y-9137776D01*
X7831287Y-9157546D01*
X7846253Y-9175173D01*
X7846861Y-9183196D01*
X7851038Y-9190076D01*
X7849129Y-9213122D01*
X7850877Y-9236183D01*
X7846652Y-9243032D01*
X7845988Y-9251052D01*
X7830897Y-9268574D01*
X7818757Y-9288259D01*
X7806654Y-9297053D01*
X7769159Y-9320180D01*
X7645180Y-9444159D01*
X7553143Y-9593375D01*
X7497993Y-9759806D01*
X7487500Y-9862512D01*
X7487500Y-9999999D01*
X7487501Y-10000000D01*
X9937498Y-10000000D01*
X9937499Y-9999999D01*
X9937499Y-9862513D01*
X9927007Y-9759812D01*
X9927004Y-9759800D01*
X9871856Y-9593375D01*
X9779819Y-9444159D01*
X9655839Y-9320179D01*
X9618346Y-9297053D01*
X9578745Y-9250412D01*
X9574122Y-9189402D01*
X9606243Y-9137326D01*
X9618338Y-9128537D01*
X9656156Y-9105212D01*
X9780212Y-8981156D01*
X9816374Y-8922528D01*
X9863015Y-8882926D01*
X9900635Y-8875500D01*
X10125500Y-8875500D01*
X10183691Y-8894407D01*
G37*
%TD.AperFunction*%
%TD*%
M02*
