M48
; DRILL file {KiCad 9.0.2-rc1} date 2025-04-26T18:26:18-0400
; FORMAT={3:3/ absolute / metric / suppress leading zeros}
; #@! TF.CreationDate,2025-04-26T18:26:18-04:00
; #@! TF.GenerationSoftware,Kicad,Pcbnew,9.0.2-rc1
; #@! TF.FileFunction,MixedPlating,1,2
FMAT,2
METRIC,TZ
; #@! TA.AperFunction,Plated,PTH,ViaDrill
T1C0.400
; #@! TA.AperFunction,Plated,PTH,ComponentDrill
T2C0.800
; #@! TA.AperFunction,Plated,PTH,ComponentDrill
T3C1.000
; #@! TA.AperFunction,Plated,PTH,ComponentDrill
T4C1.100
; #@! TA.AperFunction,Plated,PTH,ViaDrill
T5C3.400
%
G90
G05
T1
X1500Y-7250
X2350Y-12750
X2850Y-24650
X3000Y-36250
X3250Y-41250
X3850Y-24150
X4000Y-61750
X4150Y-18850
X4210Y-16210
X4250Y-14650
X4350Y-17650
X4395Y-21050
X6500Y-6000
X7000Y-1250
X7000Y-36250
X7000Y-46250
X7850Y-13550
X8750Y-11650
X9250Y-24850
X9350Y-19850
X9550Y-16550
X10250Y-35450
X10250Y-40750
X11250Y-75750
X12906Y-20894
X13050Y-27350
X13150Y-11650
X14250Y-66750
X14650Y-13750
X14988Y-28288
X15750Y-33850
X15865Y-9635
X15895Y-7095
X16250Y-28350
X17250Y-35250
X18250Y-41500
X18450Y-11650
X18750Y-54750
X21650Y-26550
X23850Y-26550
X24250Y-72250
X25000Y-31500
X25250Y-19750
X26000Y-46250
X26450Y-27750
X26500Y-77000
X28750Y-7750
X30500Y-59000
X33250Y-46750
X33750Y-3250
X33750Y-10750
X34250Y-17250
X34750Y-75000
X37150Y-26550
X38500Y-30500
X40050Y-24450
X40250Y-57500
X40850Y-12150
X42250Y-1250
X43050Y-27750
X43051Y-23250
X44000Y-69750
X44250Y-22450
X44250Y-40500
X44500Y-28750
X46000Y-46500
X48500Y-19250
X48750Y-7250
X48750Y-34750
T2
X10710Y-3755
X13250Y-3755
X15790Y-3755
X22525Y-2015
X22525Y-4555
X22525Y-7095
X22525Y-9635
X22525Y-12175
X22525Y-14715
X22525Y-17255
X22525Y-19795
X22525Y-22335
X25065Y-22545
X27605Y-22545
X30145Y-22545
X32685Y-22545
X35225Y-22545
X37765Y-2015
X37765Y-4555
X37765Y-7095
X37765Y-9635
X37765Y-12175
X37765Y-14715
X37765Y-17255
X37765Y-19795
X37765Y-22335
T3
X23940Y-35250
X26480Y-35250
X29020Y-35250
X31560Y-35250
X47250Y-9440
X47250Y-11980
X47250Y-14520
X47250Y-17060
X47250Y-22170
X47250Y-24710
X47250Y-27250
X47250Y-29790
X47250Y-32330
T4
X5293Y-33630
X5293Y-38710
X5293Y-43790
X5293Y-48870
X44707Y-38665
X44707Y-43745
X44707Y-48825
T5
X3250Y-3250
X3250Y-76750
X46750Y-3250
X46750Y-76750
M30
