%TF.GenerationSoftware,KiCad,Pcbnew,9.0.2-rc1*%
%TF.CreationDate,2025-05-18T20:42:10-04:00*%
%TF.ProjectId,moonclock,6d6f6f6e-636c-46f6-936b-2e6b69636164,rev?*%
%TF.SameCoordinates,PX7088980PY3920060*%
%TF.FileFunction,Copper,L1,Top*%
%TF.FilePolarity,Positive*%
%FSLAX46Y46*%
G04 Gerber Fmt 4.6, Leading zero omitted, Abs format (unit mm)*
G04 Created by KiCad (PCBNEW 9.0.2-rc1) date 2025-05-18 20:42:10*
%MOMM*%
%LPD*%
G01*
G04 APERTURE LIST*
G04 Aperture macros list*
%AMRoundRect*
0 Rectangle with rounded corners*
0 $1 Rounding radius*
0 $2 $3 $4 $5 $6 $7 $8 $9 X,Y pos of 4 corners*
0 Add a 4 corners polygon primitive as box body*
4,1,4,$2,$3,$4,$5,$6,$7,$8,$9,$2,$3,0*
0 Add four circle primitives for the rounded corners*
1,1,$1+$1,$2,$3*
1,1,$1+$1,$4,$5*
1,1,$1+$1,$6,$7*
1,1,$1+$1,$8,$9*
0 Add four rect primitives between the rounded corners*
20,1,$1+$1,$2,$3,$4,$5,0*
20,1,$1+$1,$4,$5,$6,$7,0*
20,1,$1+$1,$6,$7,$8,$9,0*
20,1,$1+$1,$8,$9,$2,$3,0*%
%AMFreePoly0*
4,1,23,0.500000,-0.750000,0.000000,-0.750000,0.000000,-0.745722,-0.065263,-0.745722,-0.191342,-0.711940,-0.304381,-0.646677,-0.396677,-0.554381,-0.461940,-0.441342,-0.495722,-0.315263,-0.495722,-0.250000,-0.500000,-0.250000,-0.500000,0.250000,-0.495722,0.250000,-0.495722,0.315263,-0.461940,0.441342,-0.396677,0.554381,-0.304381,0.646677,-0.191342,0.711940,-0.065263,0.745722,0.000000,0.745722,
0.000000,0.750000,0.500000,0.750000,0.500000,-0.750000,0.500000,-0.750000,$1*%
%AMFreePoly1*
4,1,23,0.000000,0.745722,0.065263,0.745722,0.191342,0.711940,0.304381,0.646677,0.396677,0.554381,0.461940,0.441342,0.495722,0.315263,0.495722,0.250000,0.500000,0.250000,0.500000,-0.250000,0.495722,-0.250000,0.495722,-0.315263,0.461940,-0.441342,0.396677,-0.554381,0.304381,-0.646677,0.191342,-0.711940,0.065263,-0.745722,0.000000,-0.745722,0.000000,-0.750000,-0.500000,-0.750000,
-0.500000,0.750000,0.000000,0.750000,0.000000,0.745722,0.000000,0.745722,$1*%
G04 Aperture macros list end*
%TA.AperFunction,SMDPad,CuDef*%
%ADD10RoundRect,0.250000X0.350000X0.450000X-0.350000X0.450000X-0.350000X-0.450000X0.350000X-0.450000X0*%
%TD*%
%TA.AperFunction,ComponentPad*%
%ADD11RoundRect,0.250000X-1.050000X1.050000X-1.050000X-1.050000X1.050000X-1.050000X1.050000X1.050000X0*%
%TD*%
%TA.AperFunction,ComponentPad*%
%ADD12C,2.600000*%
%TD*%
%TA.AperFunction,ComponentPad*%
%ADD13RoundRect,0.250000X1.050000X-1.050000X1.050000X1.050000X-1.050000X1.050000X-1.050000X-1.050000X0*%
%TD*%
%TA.AperFunction,ComponentPad*%
%ADD14C,2.250000*%
%TD*%
%TA.AperFunction,ComponentPad*%
%ADD15C,1.755000*%
%TD*%
%TA.AperFunction,ComponentPad*%
%ADD16R,1.700000X1.700000*%
%TD*%
%TA.AperFunction,ComponentPad*%
%ADD17C,1.700000*%
%TD*%
%TA.AperFunction,ComponentPad*%
%ADD18C,1.440000*%
%TD*%
%TA.AperFunction,SMDPad,CuDef*%
%ADD19RoundRect,0.250000X0.450000X-0.350000X0.450000X0.350000X-0.450000X0.350000X-0.450000X-0.350000X0*%
%TD*%
%TA.AperFunction,SMDPad,CuDef*%
%ADD20RoundRect,0.150000X0.150000X-0.825000X0.150000X0.825000X-0.150000X0.825000X-0.150000X-0.825000X0*%
%TD*%
%TA.AperFunction,SMDPad,CuDef*%
%ADD21RoundRect,0.250000X-0.475000X0.337500X-0.475000X-0.337500X0.475000X-0.337500X0.475000X0.337500X0*%
%TD*%
%TA.AperFunction,SMDPad,CuDef*%
%ADD22RoundRect,0.237500X-0.237500X0.300000X-0.237500X-0.300000X0.237500X-0.300000X0.237500X0.300000X0*%
%TD*%
%TA.AperFunction,SMDPad,CuDef*%
%ADD23FreePoly0,90.000000*%
%TD*%
%TA.AperFunction,SMDPad,CuDef*%
%ADD24FreePoly1,90.000000*%
%TD*%
%TA.AperFunction,SMDPad,CuDef*%
%ADD25RoundRect,0.250000X-0.450000X0.350000X-0.450000X-0.350000X0.450000X-0.350000X0.450000X0.350000X0*%
%TD*%
%TA.AperFunction,SMDPad,CuDef*%
%ADD26RoundRect,0.100000X-0.100000X0.637500X-0.100000X-0.637500X0.100000X-0.637500X0.100000X0.637500X0*%
%TD*%
%TA.AperFunction,SMDPad,CuDef*%
%ADD27RoundRect,0.250000X-0.350000X-0.450000X0.350000X-0.450000X0.350000X0.450000X-0.350000X0.450000X0*%
%TD*%
%TA.AperFunction,SMDPad,CuDef*%
%ADD28R,1.900000X1.300000*%
%TD*%
%TA.AperFunction,ComponentPad*%
%ADD29RoundRect,0.400000X-1.000000X-0.400000X1.000000X-0.400000X1.000000X0.400000X-1.000000X0.400000X0*%
%TD*%
%TA.AperFunction,ComponentPad*%
%ADD30RoundRect,0.400050X-0.999950X-0.400050X0.999950X-0.400050X0.999950X0.400050X-0.999950X0.400050X0*%
%TD*%
%TA.AperFunction,ComponentPad*%
%ADD31RoundRect,0.400000X-0.400000X-1.000000X0.400000X-1.000000X0.400000X1.000000X-0.400000X1.000000X0*%
%TD*%
%TA.AperFunction,ComponentPad*%
%ADD32RoundRect,0.393700X-0.393700X-1.006300X0.393700X-1.006300X0.393700X1.006300X-0.393700X1.006300X0*%
%TD*%
%TA.AperFunction,ViaPad*%
%ADD33C,0.800000*%
%TD*%
%TA.AperFunction,ViaPad*%
%ADD34C,6.000000*%
%TD*%
%TA.AperFunction,Conductor*%
%ADD35C,0.400000*%
%TD*%
%TA.AperFunction,Conductor*%
%ADD36C,0.200000*%
%TD*%
%TA.AperFunction,Conductor*%
%ADD37C,1.000000*%
%TD*%
G04 APERTURE END LIST*
D10*
%TO.P,R8,1*%
%TO.N,/M2_DAC*%
X19750000Y-29100000D03*
%TO.P,R8,2*%
%TO.N,Net-(U4B-+)*%
X17750000Y-29100000D03*
%TD*%
D11*
%TO.P,J4,1,Pin_1*%
%TO.N,/M1+*%
X5077500Y-33480000D03*
D12*
%TO.P,J4,2,Pin_2*%
%TO.N,/M1-*%
X5077500Y-38560000D03*
%TO.P,J4,3,Pin_3*%
%TO.N,/M2+*%
X5077500Y-43640000D03*
%TO.P,J4,4,Pin_4*%
%TO.N,/M2-*%
X5077500Y-48720000D03*
%TD*%
D13*
%TO.P,J5,1,Pin_1*%
%TO.N,EXP1*%
X44500000Y-53180000D03*
D12*
%TO.P,J5,2,Pin_2*%
%TO.N,GND*%
X44500000Y-48100000D03*
%TO.P,J5,3,Pin_3*%
%TO.N,EXP2*%
X44500000Y-43020000D03*
%TO.P,J5,4,Pin_4*%
%TO.N,GND*%
X44500000Y-37940000D03*
%TD*%
D14*
%TO.P,BT1,1,+*%
%TO.N,Net-(BT1-+)*%
X44250000Y-67475000D03*
D15*
%TO.P,BT1,2,-*%
%TO.N,GND*%
X24250000Y-67475000D03*
%TD*%
D16*
%TO.P,J6,1,Pin_1*%
%TO.N,I2C1_SCL*%
X23940000Y-35250000D03*
D17*
%TO.P,J6,2,Pin_2*%
%TO.N,I2C1_SDA*%
X26480000Y-35250000D03*
%TO.P,J6,3,Pin_3*%
%TO.N,+3.3V*%
X29020000Y-35250000D03*
%TO.P,J6,4,Pin_4*%
%TO.N,GND*%
X31560000Y-35250000D03*
%TD*%
D18*
%TO.P,R1,1,1*%
%TO.N,+3.3V*%
X10710000Y-3755000D03*
%TO.P,R1,2,2*%
%TO.N,/CAL*%
X13250000Y-3755000D03*
%TO.P,R1,3,3*%
%TO.N,GND*%
X15790000Y-3755000D03*
%TD*%
D10*
%TO.P,R9,1*%
%TO.N,/M1_DAC*%
X19750000Y-33300000D03*
%TO.P,R9,2*%
%TO.N,Net-(U4A-+)*%
X17750000Y-33300000D03*
%TD*%
%TO.P,R2,1*%
%TO.N,Net-(JP2-B)*%
X13750000Y-23150000D03*
%TO.P,R2,2*%
%TO.N,/M2+*%
X11750000Y-23150000D03*
%TD*%
D19*
%TO.P,R10,1*%
%TO.N,/M1-*%
X14750000Y-40450000D03*
%TO.P,R10,2*%
%TO.N,GND*%
X14750000Y-38450000D03*
%TD*%
D20*
%TO.P,U4,1,X1*%
%TO.N,Net-(U5-X1)*%
X26730000Y-44100000D03*
%TO.P,U4,2,X2*%
%TO.N,Net-(U5-X2)*%
X28000000Y-44100000D03*
%TO.P,U4,3,VBAT*%
%TO.N,Net-(BT1-+)*%
X29270000Y-44100000D03*
%TO.P,U4,4,VSS*%
%TO.N,GND*%
X30540000Y-44100000D03*
%TO.P,U4,5,SDA*%
%TO.N,I2C1_SDA*%
X30540000Y-39150000D03*
%TO.P,U4,6,SCL*%
%TO.N,I2C1_SCL*%
X29270000Y-39150000D03*
%TO.P,U4,7,MFP*%
%TO.N,unconnected-(U5-MFP-Pad7)*%
X28000000Y-39150000D03*
%TO.P,U4,8,VCC*%
%TO.N,+3.3V*%
X26730000Y-39150000D03*
%TD*%
D21*
%TO.P,C1,1*%
%TO.N,+3.3V*%
X9250000Y-26212500D03*
%TO.P,C1,2*%
%TO.N,GND*%
X9250000Y-28287500D03*
%TD*%
D22*
%TO.P,C3,1*%
%TO.N,Net-(U5-X2)*%
X31635000Y-47900000D03*
%TO.P,C3,2*%
%TO.N,GND*%
X31635000Y-49625000D03*
%TD*%
D23*
%TO.P,JP2,1,A*%
%TO.N,/M1-*%
X12250000Y-40100000D03*
D24*
%TO.P,JP2,2,B*%
%TO.N,Net-(JP1-B)*%
X12250000Y-38800000D03*
%TD*%
D10*
%TO.P,R11,1*%
%TO.N,Net-(JP1-B)*%
X14000000Y-33750000D03*
%TO.P,R11,2*%
%TO.N,/M1+*%
X12000000Y-33750000D03*
%TD*%
D25*
%TO.P,R5,1*%
%TO.N,+3.3V*%
X28750000Y-27000000D03*
%TO.P,R5,2*%
%TO.N,I2C1_SDA*%
X28750000Y-29000000D03*
%TD*%
D26*
%TO.P,U3,1,VDD*%
%TO.N,+3.3V*%
X19475000Y-36737500D03*
%TO.P,U3,2,VREF*%
X18825000Y-36737500D03*
%TO.P,U3,3,VOUT0*%
%TO.N,/M1_DAC*%
X18175000Y-36737500D03*
%TO.P,U3,4,VOUT1*%
%TO.N,/M2_DAC*%
X17525000Y-36737500D03*
%TO.P,U3,5,VSS*%
%TO.N,GND*%
X17525000Y-42462500D03*
%TO.P,U3,6,~{LAT}*%
X18175000Y-42462500D03*
%TO.P,U3,7,SCL*%
%TO.N,I2C1_SCL*%
X18825000Y-42462500D03*
%TO.P,U3,8,SDA*%
%TO.N,I2C1_SDA*%
X19475000Y-42462500D03*
%TD*%
D16*
%TO.P,J7,1,Pin_1*%
%TO.N,+5V*%
X47250000Y-32330000D03*
D17*
%TO.P,J7,2,Pin_2*%
%TO.N,GND*%
X47250000Y-29790000D03*
%TO.P,J7,3,Pin_3*%
%TO.N,DISP_MOSI*%
X47250000Y-27250000D03*
%TO.P,J7,4,Pin_4*%
%TO.N,DISP_CS*%
X47250000Y-24710000D03*
%TO.P,J7,5,Pin_5*%
%TO.N,DISP_SCK*%
X47250000Y-22170000D03*
%TD*%
D27*
%TO.P,R3,1*%
%TO.N,Net-(U4B-+)*%
X17750000Y-27100000D03*
%TO.P,R3,2*%
%TO.N,GND*%
X19750000Y-27100000D03*
%TD*%
D20*
%TO.P,U2,1*%
%TO.N,/M1+*%
X11845000Y-30725000D03*
%TO.P,U2,2,-*%
%TO.N,Net-(JP1-B)*%
X13115000Y-30725000D03*
%TO.P,U2,3,+*%
%TO.N,Net-(U4A-+)*%
X14385000Y-30725000D03*
%TO.P,U2,4,V-*%
%TO.N,GND*%
X15655000Y-30725000D03*
%TO.P,U2,5,+*%
%TO.N,Net-(U4B-+)*%
X15655000Y-25775000D03*
%TO.P,U2,6,-*%
%TO.N,Net-(JP2-B)*%
X14385000Y-25775000D03*
%TO.P,U2,7*%
%TO.N,/M2+*%
X13115000Y-25775000D03*
%TO.P,U2,8,V+*%
%TO.N,+3.3V*%
X11845000Y-25775000D03*
%TD*%
D16*
%TO.P,J1,1,Pin_1*%
%TO.N,EXP1*%
X3000000Y-9520000D03*
D17*
%TO.P,J1,2,Pin_2*%
%TO.N,EXP2*%
X3000000Y-12060000D03*
%TO.P,J1,3,Pin_3*%
%TO.N,EXP3*%
X3000000Y-14600000D03*
%TO.P,J1,4,Pin_4*%
%TO.N,EXP4*%
X3000000Y-17140000D03*
%TO.P,J1,5,Pin_5*%
%TO.N,+3.3V*%
X3000000Y-19680000D03*
%TO.P,J1,6,Pin_6*%
%TO.N,GND*%
X3000000Y-22220000D03*
%TD*%
D22*
%TO.P,C2,1*%
%TO.N,Net-(U5-X1)*%
X22635000Y-47900000D03*
%TO.P,C2,2*%
%TO.N,GND*%
X22635000Y-49625000D03*
%TD*%
D25*
%TO.P,R6,1*%
%TO.N,+3.3V*%
X31250000Y-27000000D03*
%TO.P,R6,2*%
%TO.N,I2C1_SCL*%
X31250000Y-29000000D03*
%TD*%
D23*
%TO.P,JP1,1,A*%
%TO.N,/M2-*%
X2750000Y-27550000D03*
D24*
%TO.P,JP1,2,B*%
%TO.N,Net-(JP2-B)*%
X2750000Y-26250000D03*
%TD*%
D11*
%TO.P,J3,1,Pin_1*%
%TO.N,LEFT_BUT*%
X5077500Y-53800000D03*
D12*
%TO.P,J3,2,Pin_2*%
%TO.N,GND*%
X5077500Y-58880000D03*
%TO.P,J3,3,Pin_3*%
%TO.N,RIGHT_BUT*%
X5077500Y-63960000D03*
%TO.P,J3,4,Pin_4*%
%TO.N,GND*%
X5077500Y-69040000D03*
%TD*%
D27*
%TO.P,R12,1*%
%TO.N,Net-(U4A-+)*%
X17750000Y-31250000D03*
%TO.P,R12,2*%
%TO.N,GND*%
X19750000Y-31250000D03*
%TD*%
D21*
%TO.P,C4,1*%
%TO.N,+3.3V*%
X24100000Y-38862500D03*
%TO.P,C4,2*%
%TO.N,GND*%
X24100000Y-40937500D03*
%TD*%
%TO.P,C5,1*%
%TO.N,+3.3V*%
X21900000Y-38862500D03*
%TO.P,C5,2*%
%TO.N,GND*%
X21900000Y-40937500D03*
%TD*%
D19*
%TO.P,R7,1*%
%TO.N,+3.3V*%
X42250000Y-6750000D03*
%TO.P,R7,2*%
%TO.N,GPS_RX*%
X42250000Y-4750000D03*
%TD*%
D28*
%TO.P,Y1,1*%
%TO.N,Net-(U5-X1)*%
X25535000Y-47875000D03*
%TO.P,Y1,2*%
%TO.N,unconnected-(Y1-Pad2)*%
X25535000Y-53375000D03*
%TO.P,Y1,3*%
%TO.N,unconnected-(Y1-Pad3)*%
X28735000Y-53375000D03*
%TO.P,Y1,4*%
%TO.N,Net-(U5-X2)*%
X28735000Y-47875000D03*
%TD*%
D27*
%TO.P,R4,1*%
%TO.N,/M2-*%
X5250000Y-28250000D03*
%TO.P,R4,2*%
%TO.N,GND*%
X7250000Y-28250000D03*
%TD*%
D16*
%TO.P,J2,1,Pin_1*%
%TO.N,+3.3V*%
X47250000Y-17060000D03*
D17*
%TO.P,J2,2,Pin_2*%
%TO.N,GND*%
X47250000Y-14520000D03*
%TO.P,J2,3,Pin_3*%
%TO.N,GPS_TX*%
X47250000Y-11980000D03*
%TO.P,J2,4,Pin_4*%
%TO.N,GPS_RX*%
X47250000Y-9440000D03*
%TD*%
D29*
%TO.P,U1,1,GP0*%
%TO.N,GPS_RX*%
X38365000Y-2015000D03*
%TO.P,U1,2,GP1*%
%TO.N,GPS_TX*%
X38365000Y-4555000D03*
%TO.P,U1,3,GP2*%
%TO.N,DISP_SCK*%
X38365000Y-7095000D03*
%TO.P,U1,4,GP3*%
%TO.N,DISP_MOSI*%
X38365000Y-9635000D03*
%TO.P,U1,5,GP4*%
%TO.N,unconnected-(U1-GP4-Pad5)*%
X38365000Y-12175000D03*
D30*
%TO.P,U1,6,GP5*%
%TO.N,DISP_CS*%
X38365000Y-14715000D03*
%TO.P,U1,7,GP6*%
%TO.N,unconnected-(U1-GP6-Pad7)*%
X38365000Y-17255000D03*
%TO.P,U1,8,GP7*%
%TO.N,RIGHT_BUT*%
X38365000Y-19795000D03*
%TO.P,U1,9,GP8*%
%TO.N,LEFT_BUT*%
X38365000Y-22335000D03*
D31*
%TO.P,U1,10,GP9*%
%TO.N,unconnected-(U1-GP9-Pad10)*%
X35225000Y-22935000D03*
D32*
%TO.P,U1,11,GP10*%
%TO.N,I2C1_SDA*%
X32685000Y-22935000D03*
%TO.P,U1,12,GP11*%
%TO.N,I2C1_SCL*%
X30145000Y-22935000D03*
%TO.P,U1,13,GP12*%
%TO.N,unconnected-(U1-GP12-Pad13)*%
X27605000Y-22935000D03*
%TO.P,U1,14,GP13*%
%TO.N,unconnected-(U1-GP13-Pad14)*%
X25065000Y-22935000D03*
D30*
%TO.P,U1,15,GP14*%
%TO.N,EXP4*%
X21925000Y-22335000D03*
%TO.P,U1,16,GP15*%
%TO.N,EXP3*%
X21925000Y-19795000D03*
%TO.P,U1,17,GP26*%
%TO.N,EXP2*%
X21925000Y-17255000D03*
%TO.P,U1,18,GP27*%
%TO.N,EXP1*%
X21925000Y-14715000D03*
%TO.P,U1,19,GP28*%
%TO.N,unconnected-(U1-GP28-Pad19)*%
X21925000Y-12175000D03*
%TO.P,U1,20,GP29*%
%TO.N,/CAL*%
X21925000Y-9635000D03*
%TO.P,U1,21,3V3*%
%TO.N,+3.3V*%
X21925000Y-7095000D03*
%TO.P,U1,22,GND*%
%TO.N,GND*%
X21925000Y-4555000D03*
%TO.P,U1,23,5V*%
%TO.N,+5V*%
X21925000Y-2015000D03*
%TD*%
D33*
%TO.N,GND*%
X7000000Y-1250000D03*
X36800000Y-36400000D03*
X8300000Y-30900000D03*
X12600000Y-13500000D03*
X10900000Y-72100000D03*
X23850000Y-26550000D03*
X27100000Y-51000000D03*
X24100000Y-45500000D03*
X8800000Y-43900000D03*
X14500000Y-18900000D03*
X18450000Y-18900000D03*
X37150000Y-26550000D03*
D34*
X46750000Y-3250000D03*
D33*
X48600000Y-49900000D03*
X24800000Y-76400000D03*
X26400000Y-1900000D03*
X18450000Y-11650000D03*
X27000000Y-56900000D03*
X45800000Y-57700000D03*
X25250000Y-19750000D03*
X29100000Y-32900000D03*
D34*
X3250000Y-3250000D03*
D33*
X47300000Y-64800000D03*
X10900000Y-37000000D03*
X11800000Y-54200000D03*
X14987500Y-28287500D03*
D34*
X46750000Y-76750000D03*
D33*
X9000000Y-40400000D03*
X33000000Y-70900000D03*
X21650000Y-26550000D03*
X47400000Y-19400000D03*
X6500000Y-6000000D03*
X15750000Y-33850000D03*
X8000000Y-34800000D03*
X19300000Y-56200000D03*
X21900000Y-42400000D03*
X42900000Y-73200000D03*
X33750000Y-10750000D03*
X37200000Y-30200000D03*
X17200000Y-39600000D03*
X30900000Y-62400000D03*
X33750000Y-3250000D03*
X36100000Y-46100000D03*
X28750000Y-7750000D03*
X13800000Y-65200000D03*
X7300000Y-10800000D03*
X38500000Y-65300000D03*
D34*
X3250000Y-76750000D03*
D33*
X1500000Y-7250000D03*
X29400000Y-41200000D03*
X34250000Y-17250000D03*
%TO.N,+3.3V*%
X43050000Y-27750000D03*
X17249001Y-17600000D03*
X26450000Y-27750000D03*
X17249001Y-20150999D03*
X36000000Y-27750000D03*
X43051000Y-23250000D03*
X15895000Y-7095000D03*
X36000000Y-33500000D03*
X23700000Y-37600000D03*
%TO.N,DISP_CS*%
X44250000Y-22450000D03*
%TO.N,/M2+*%
X13050000Y-27350000D03*
X10300000Y-35500000D03*
%TO.N,RIGHT_BUT*%
X36600000Y-59400000D03*
%TO.N,LEFT_BUT*%
X36000000Y-58600000D03*
%TO.N,I2C1_SCL*%
X27400000Y-33600000D03*
X18400000Y-44300000D03*
%TO.N,I2C1_SDA*%
X28800000Y-31600000D03*
X19500000Y-44200000D03*
X27100000Y-31700000D03*
%TO.N,Net-(JP2-B)*%
X2850000Y-24650000D03*
X9250000Y-24850000D03*
%TO.N,/CAL*%
X15865000Y-9635000D03*
%TO.N,/M2_DAC*%
X21300000Y-30300000D03*
X20200000Y-34724265D03*
X21300000Y-32200000D03*
X17900000Y-34700000D03*
%TO.N,Net-(BT1-+)*%
X31900000Y-45400000D03*
X29600000Y-46000000D03*
%TO.N,EXP1*%
X38200000Y-25300000D03*
X39100000Y-52900000D03*
%TO.N,EXP2*%
X39200000Y-24900000D03*
X39100000Y-42900000D03*
%TD*%
D35*
%TO.N,GND*%
X3620000Y-58880000D02*
X5077500Y-58880000D01*
X23100000Y-68625000D02*
X24250000Y-67475000D01*
D36*
X18662500Y-40937500D02*
X18175000Y-41425000D01*
D35*
X9212500Y-28250000D02*
X9250000Y-28287500D01*
X27100000Y-49625000D02*
X27100000Y-46900000D01*
D36*
X17525000Y-43575000D02*
X17525000Y-42462500D01*
D35*
X23100000Y-68700000D02*
X23100000Y-68625000D01*
X31100000Y-46500000D02*
X30540000Y-45940000D01*
D37*
X37200000Y-26600000D02*
X37200000Y-30200000D01*
D35*
X24900000Y-46300000D02*
X25600000Y-45600000D01*
X21500000Y-49200000D02*
X21500000Y-46700000D01*
X24250000Y-67475000D02*
X22635000Y-65860000D01*
D37*
X3180000Y-22220000D02*
X6500000Y-18900000D01*
D35*
X21500000Y-46700000D02*
X21900000Y-46300000D01*
X22635000Y-49625000D02*
X27100000Y-49625000D01*
X32475000Y-49625000D02*
X32900000Y-49200000D01*
D36*
X18000000Y-43700000D02*
X17700000Y-43700000D01*
D37*
X23950000Y-26650000D02*
X23850000Y-26550000D01*
D35*
X9250000Y-28287500D02*
X14987500Y-28287500D01*
D37*
X22525000Y-4555000D02*
X16590000Y-4555000D01*
D35*
X22635000Y-49625000D02*
X21925000Y-49625000D01*
X2500000Y-66462500D02*
X2500000Y-60000000D01*
X22635000Y-65860000D02*
X22635000Y-49625000D01*
X24100000Y-40937500D02*
X25337500Y-40937500D01*
D37*
X31560000Y-35250000D02*
X36650000Y-35250000D01*
D35*
X5077500Y-69040000D02*
X2500000Y-66462500D01*
X22760000Y-69040000D02*
X23100000Y-68700000D01*
X15655000Y-28955000D02*
X15655000Y-30725000D01*
X20950000Y-27250000D02*
X21650000Y-26550000D01*
D36*
X18175000Y-43525000D02*
X18000000Y-43700000D01*
D35*
X25600000Y-42200000D02*
X26100000Y-41700000D01*
X30540000Y-45940000D02*
X30540000Y-44100000D01*
X32900000Y-49200000D02*
X32900000Y-47100000D01*
X27100000Y-49625000D02*
X31635000Y-49625000D01*
D36*
X17550000Y-43600000D02*
X17525000Y-43575000D01*
X18175000Y-41425000D02*
X18175000Y-42462500D01*
D35*
X3250000Y-3250000D02*
X2700000Y-3800000D01*
X2500000Y-60000000D02*
X3620000Y-58880000D01*
D37*
X37200000Y-34700000D02*
X37200000Y-30200000D01*
D35*
X19750000Y-31250000D02*
X23940000Y-31250000D01*
X14750000Y-38450000D02*
X14750000Y-35350000D01*
X5077500Y-69040000D02*
X22760000Y-69040000D01*
X32900000Y-47100000D02*
X32300000Y-46500000D01*
D37*
X37150000Y-26550000D02*
X37200000Y-26600000D01*
D35*
X31635000Y-49625000D02*
X32475000Y-49625000D01*
X25337500Y-40937500D02*
X26100000Y-41700000D01*
D37*
X16590000Y-4555000D02*
X15790000Y-3755000D01*
X46047919Y-29790000D02*
X47250000Y-29790000D01*
X23940000Y-31250000D02*
X23940000Y-26660000D01*
D35*
X26600000Y-42200000D02*
X29900000Y-42200000D01*
X7250000Y-28250000D02*
X9212500Y-28250000D01*
D36*
X21900000Y-40937500D02*
X18662500Y-40937500D01*
D37*
X44500000Y-37940000D02*
X44500000Y-31337919D01*
D35*
X14750000Y-35350000D02*
X15750000Y-34350000D01*
X21900000Y-46300000D02*
X24900000Y-46300000D01*
D36*
X17700000Y-43700000D02*
X17600000Y-43600000D01*
D37*
X44500000Y-37940000D02*
X47200000Y-40640000D01*
D35*
X15750000Y-34350000D02*
X15750000Y-33850000D01*
X29900000Y-42200000D02*
X30540000Y-42840000D01*
D36*
X18175000Y-42462500D02*
X18175000Y-43525000D01*
X17600000Y-43600000D02*
X17550000Y-43600000D01*
D35*
X21900000Y-40937500D02*
X24100000Y-40937500D01*
X26100000Y-41700000D02*
X26600000Y-42200000D01*
X21925000Y-49625000D02*
X21500000Y-49200000D01*
D37*
X47200000Y-40640000D02*
X47200000Y-45400000D01*
X23940000Y-26660000D02*
X23950000Y-26650000D01*
X14500000Y-18900000D02*
X18450000Y-18900000D01*
X6500000Y-18900000D02*
X14500000Y-18900000D01*
D35*
X27100000Y-46900000D02*
X27300000Y-46700000D01*
D37*
X44500000Y-31337919D02*
X46047919Y-29790000D01*
X3000000Y-22220000D02*
X3180000Y-22220000D01*
D35*
X30540000Y-42840000D02*
X30540000Y-44100000D01*
D37*
X21900000Y-40937500D02*
X21900000Y-42400000D01*
X36650000Y-35250000D02*
X37200000Y-34700000D01*
D35*
X32300000Y-46500000D02*
X31100000Y-46500000D01*
X19750000Y-27250000D02*
X20950000Y-27250000D01*
X14987500Y-28287500D02*
X15655000Y-28955000D01*
X25600000Y-45600000D02*
X25600000Y-42200000D01*
D37*
X47200000Y-45400000D02*
X44500000Y-48100000D01*
D35*
%TO.N,+3.3V*%
X25600000Y-39200000D02*
X25650000Y-39150000D01*
D37*
X3000000Y-19680000D02*
X3120000Y-19680000D01*
X9000000Y-22000000D02*
X9000000Y-23300000D01*
D35*
X11845000Y-24645000D02*
X11845000Y-25775000D01*
D37*
X10700000Y-20300000D02*
X9000000Y-22000000D01*
D35*
X24100000Y-38862500D02*
X24100000Y-38000000D01*
X42250000Y-6750000D02*
X42250000Y-8250000D01*
X44750000Y-10750000D02*
X44750000Y-16250000D01*
D37*
X9000000Y-23300000D02*
X7500000Y-24800000D01*
D35*
X25650000Y-39150000D02*
X26730000Y-39150000D01*
X24100000Y-38862500D02*
X25262500Y-38862500D01*
X19500000Y-38400000D02*
X19500000Y-38862500D01*
X10500000Y-24700000D02*
X10700000Y-24500000D01*
X19200000Y-38900000D02*
X19237500Y-38862500D01*
X10700000Y-24500000D02*
X11700000Y-24500000D01*
X19475000Y-36737500D02*
X19475000Y-38375000D01*
X45560000Y-17060000D02*
X47250000Y-17060000D01*
X18825000Y-36737500D02*
X18825000Y-38525000D01*
X10710000Y-5800000D02*
X12005000Y-7095000D01*
D37*
X36000000Y-33500000D02*
X36000000Y-27750000D01*
X43050000Y-23251000D02*
X43050000Y-27750000D01*
D35*
X15895000Y-7095000D02*
X12005000Y-7095000D01*
D37*
X8012500Y-26212500D02*
X9250000Y-26212500D01*
D35*
X11700000Y-24500000D02*
X11845000Y-24645000D01*
X42250000Y-8250000D02*
X44750000Y-10750000D01*
X19475000Y-38375000D02*
X19500000Y-38400000D01*
D37*
X22525000Y-7095000D02*
X15895000Y-7095000D01*
D35*
X31250000Y-27000000D02*
X28750000Y-27000000D01*
D37*
X3120000Y-19680000D02*
X5200000Y-17600000D01*
X43051000Y-23250000D02*
X43050000Y-23251000D01*
D35*
X44750000Y-16250000D02*
X45560000Y-17060000D01*
D37*
X5200000Y-17600000D02*
X17249001Y-17600000D01*
D35*
X25262500Y-38862500D02*
X25600000Y-39200000D01*
X10212500Y-26212500D02*
X10500000Y-25925000D01*
X24100000Y-38000000D02*
X23700000Y-37600000D01*
D37*
X7500000Y-24800000D02*
X7500000Y-25700000D01*
D35*
X27925000Y-27000000D02*
X27175000Y-27750000D01*
X19237500Y-38862500D02*
X19500000Y-38862500D01*
X28750000Y-27000000D02*
X27925000Y-27000000D01*
X19500000Y-38862500D02*
X21900000Y-38862500D01*
X27175000Y-27750000D02*
X26450000Y-27750000D01*
X9250000Y-26212500D02*
X10212500Y-26212500D01*
X10500000Y-25925000D02*
X10500000Y-24700000D01*
X18825000Y-38525000D02*
X19200000Y-38900000D01*
D37*
X17249001Y-20150999D02*
X17100000Y-20300000D01*
X17100000Y-20300000D02*
X10700000Y-20300000D01*
D35*
X24100000Y-38862500D02*
X21900000Y-38862500D01*
X10710000Y-3755000D02*
X10710000Y-5800000D01*
D37*
X7500000Y-25700000D02*
X8012500Y-26212500D01*
D35*
%TO.N,DISP_SCK*%
X47250000Y-22170000D02*
X42650000Y-17570000D01*
X42650000Y-17570000D02*
X42650000Y-10350000D01*
X39395000Y-7095000D02*
X37765000Y-7095000D01*
X42650000Y-10350000D02*
X39395000Y-7095000D01*
%TO.N,DISP_CS*%
X40649000Y-17550000D02*
X40649000Y-15449000D01*
X43749000Y-20650000D02*
X40649000Y-17550000D01*
X44250000Y-21150000D02*
X43750000Y-20650000D01*
X40649000Y-15449000D02*
X39915000Y-14715000D01*
X44250000Y-22450000D02*
X44250000Y-21150000D01*
X39915000Y-14715000D02*
X37765000Y-14715000D01*
X43750000Y-20650000D02*
X43749000Y-20650000D01*
%TO.N,DISP_MOSI*%
X40335000Y-9635000D02*
X41950000Y-11250000D01*
X45150000Y-26850000D02*
X45550000Y-27250000D01*
X45550000Y-27250000D02*
X47250000Y-27250000D01*
X37765000Y-9635000D02*
X40335000Y-9635000D01*
X45150000Y-20950000D02*
X45150000Y-26850000D01*
X41950000Y-11250000D02*
X41950000Y-17750000D01*
X41950000Y-17750000D02*
X45150000Y-20950000D01*
%TO.N,/M2-*%
X5250000Y-29050000D02*
X4750000Y-29550000D01*
X5077500Y-48720000D02*
X2100000Y-45742500D01*
X4750000Y-29550000D02*
X2750000Y-29550000D01*
X5250000Y-28250000D02*
X5250000Y-29050000D01*
X2100000Y-45742500D02*
X2100000Y-30200000D01*
X2750000Y-27550000D02*
X2750000Y-29550000D01*
X2100000Y-30200000D02*
X2750000Y-29550000D01*
%TO.N,/M1+*%
X11845000Y-30725000D02*
X11845000Y-33655000D01*
X11730000Y-33480000D02*
X12000000Y-33750000D01*
X5077500Y-33480000D02*
X11730000Y-33480000D01*
%TO.N,/M1-*%
X14300000Y-41800000D02*
X14750000Y-41350000D01*
X12400000Y-41800000D02*
X14300000Y-41800000D01*
X12250000Y-40100000D02*
X12250000Y-41650000D01*
X14750000Y-41350000D02*
X14750000Y-40450000D01*
X12250000Y-41650000D02*
X12400000Y-41800000D01*
X8317500Y-41800000D02*
X12400000Y-41800000D01*
X5077500Y-38560000D02*
X8317500Y-41800000D01*
%TO.N,/M2+*%
X3000000Y-41562500D02*
X5077500Y-43640000D01*
X10300000Y-35500000D02*
X9600000Y-36200000D01*
X11750000Y-23200000D02*
X13115000Y-24565000D01*
X13115000Y-27285000D02*
X13050000Y-27350000D01*
X3000000Y-37700000D02*
X3000000Y-41562500D01*
X9600000Y-36200000D02*
X4500000Y-36200000D01*
X4500000Y-36200000D02*
X3000000Y-37700000D01*
X13115000Y-24565000D02*
X13115000Y-25775000D01*
X13115000Y-25775000D02*
X13115000Y-27285000D01*
D36*
%TO.N,RIGHT_BUT*%
X36600000Y-59400000D02*
X36700000Y-59300000D01*
X41300000Y-57100000D02*
X41300000Y-20500000D01*
X41300000Y-20500000D02*
X40595000Y-19795000D01*
X36700000Y-59300000D02*
X39100000Y-59300000D01*
X39100000Y-59300000D02*
X41300000Y-57100000D01*
X40595000Y-19795000D02*
X37765000Y-19795000D01*
%TO.N,LEFT_BUT*%
X37830000Y-22400000D02*
X40100000Y-22400000D01*
X40800000Y-23100000D02*
X40800000Y-56700000D01*
X40800000Y-56700000D02*
X38900000Y-58600000D01*
X38900000Y-58600000D02*
X36000000Y-58600000D01*
X40100000Y-22400000D02*
X40800000Y-23100000D01*
X37765000Y-22335000D02*
X37830000Y-22400000D01*
%TO.N,I2C1_SCL*%
X18825000Y-43675000D02*
X18825000Y-42462500D01*
D35*
X30200000Y-25100000D02*
X30600000Y-25500000D01*
D36*
X28800000Y-37100000D02*
X26500000Y-37100000D01*
X30150000Y-30100000D02*
X31250000Y-29000000D01*
D35*
X32700000Y-28600000D02*
X32700000Y-26000000D01*
X32200000Y-25500000D02*
X32700000Y-26000000D01*
D36*
X24650000Y-35250000D02*
X23940000Y-35250000D01*
D35*
X32300000Y-29000000D02*
X32700000Y-28600000D01*
X30200000Y-22600000D02*
X30200000Y-25100000D01*
D36*
X29270000Y-37570000D02*
X28800000Y-37100000D01*
D35*
X30600000Y-25500000D02*
X32200000Y-25500000D01*
X31250000Y-29000000D02*
X32300000Y-29000000D01*
D36*
X26500000Y-37100000D02*
X24650000Y-35250000D01*
X29270000Y-39150000D02*
X29270000Y-37570000D01*
X18400000Y-44300000D02*
X18400000Y-44100000D01*
X27400000Y-33600000D02*
X28000000Y-33000000D01*
X28000000Y-33000000D02*
X28000000Y-30850000D01*
X28750000Y-30100000D02*
X30150000Y-30100000D01*
D35*
X30145000Y-22545000D02*
X30200000Y-22600000D01*
D36*
X28000000Y-30850000D02*
X28750000Y-30100000D01*
X18400000Y-44100000D02*
X18825000Y-43675000D01*
%TO.N,I2C1_SDA*%
X26480000Y-35250000D02*
X26480000Y-32320000D01*
X26480000Y-32320000D02*
X27100000Y-31700000D01*
X19500000Y-43800000D02*
X19475000Y-43775000D01*
D35*
X32685000Y-22545000D02*
X32685000Y-24585000D01*
X31900000Y-30800000D02*
X33500000Y-29200000D01*
D36*
X28999000Y-36699000D02*
X27099000Y-36699000D01*
X30540000Y-38240000D02*
X28999000Y-36699000D01*
X19500000Y-44200000D02*
X19500000Y-43800000D01*
D35*
X33500000Y-25400000D02*
X33500000Y-29200000D01*
D36*
X19475000Y-43775000D02*
X19475000Y-42462500D01*
D35*
X28750000Y-29000000D02*
X27850000Y-29000000D01*
X27850000Y-29000000D02*
X27100000Y-29750000D01*
X32685000Y-24585000D02*
X33500000Y-25400000D01*
X31900000Y-30800000D02*
X29600000Y-30800000D01*
X29600000Y-30800000D02*
X28800000Y-31600000D01*
D36*
X30540000Y-39150000D02*
X30540000Y-38240000D01*
X27099000Y-36699000D02*
X26480000Y-36080000D01*
X26480000Y-36080000D02*
X26480000Y-35250000D01*
D35*
X27100000Y-29750000D02*
X27100000Y-31700000D01*
%TO.N,GPS_RX*%
X47250000Y-9440000D02*
X45040000Y-9440000D01*
X37765000Y-2015000D02*
X41115000Y-2015000D01*
X44650000Y-6550000D02*
X42850000Y-4750000D01*
X42250000Y-3150000D02*
X42250000Y-4750000D01*
X41115000Y-2015000D02*
X42250000Y-3150000D01*
X42850000Y-4750000D02*
X42250000Y-4750000D01*
X44650000Y-9050000D02*
X44650000Y-6550000D01*
X45040000Y-9440000D02*
X44650000Y-9050000D01*
%TO.N,Net-(JP1-B)*%
X12250000Y-36950000D02*
X14000000Y-35200000D01*
X12250000Y-38800000D02*
X12250000Y-36950000D01*
X13115000Y-30725000D02*
X13115000Y-32215000D01*
X14000000Y-35200000D02*
X14000000Y-33750000D01*
X13115000Y-32215000D02*
X13750000Y-32850000D01*
X13750000Y-32850000D02*
X13750000Y-33750000D01*
%TO.N,Net-(JP2-B)*%
X13750000Y-22650000D02*
X13000000Y-21900000D01*
X2850000Y-24650000D02*
X2850000Y-26150000D01*
X10299942Y-23700058D02*
X9250000Y-24750000D01*
X9250000Y-24750000D02*
X9250000Y-24850000D01*
X14385000Y-24515000D02*
X14385000Y-25775000D01*
X13750000Y-23150000D02*
X13750000Y-22650000D01*
X14400000Y-24500000D02*
X14385000Y-24515000D01*
X13000000Y-21900000D02*
X11000000Y-21900000D01*
X2850000Y-26150000D02*
X2750000Y-26250000D01*
X13750000Y-23150000D02*
X13750000Y-23850000D01*
X10299942Y-22600058D02*
X10299942Y-23700058D01*
X13750000Y-23850000D02*
X14400000Y-24500000D01*
X11000000Y-21900000D02*
X10299942Y-22600058D01*
%TO.N,/CAL*%
X22525000Y-9635000D02*
X15865000Y-9635000D01*
%TO.N,Net-(U4A-+)*%
X14385000Y-31885000D02*
X15250000Y-32750000D01*
X16550000Y-32750000D02*
X16900000Y-33100000D01*
X16900000Y-33100000D02*
X17750000Y-33100000D01*
X14385000Y-30725000D02*
X14385000Y-31885000D01*
D36*
X17750000Y-31250000D02*
X17750000Y-33100000D01*
D35*
X15250000Y-32750000D02*
X16550000Y-32750000D01*
D36*
%TO.N,/M1_DAC*%
X19750000Y-34050000D02*
X18175000Y-35625000D01*
X19750000Y-33100000D02*
X19750000Y-34050000D01*
X18175000Y-35625000D02*
X18175000Y-36737500D01*
%TO.N,/M2_DAC*%
X21300000Y-32200000D02*
X21300000Y-33800000D01*
X17900000Y-35000000D02*
X17525000Y-35375000D01*
X21300000Y-33800000D02*
X20375735Y-34724265D01*
X21300000Y-29600000D02*
X20800000Y-29100000D01*
X17525000Y-35375000D02*
X17525000Y-36737500D01*
X21300000Y-30300000D02*
X21300000Y-29600000D01*
X20375735Y-34724265D02*
X20200000Y-34724265D01*
X17900000Y-34700000D02*
X17900000Y-35000000D01*
X20800000Y-29100000D02*
X19750000Y-29100000D01*
D35*
%TO.N,Net-(U4B-+)*%
X16050000Y-27250000D02*
X15650000Y-26850000D01*
X17750000Y-27250000D02*
X16050000Y-27250000D01*
X15655000Y-26845000D02*
X15655000Y-25775000D01*
X15650000Y-26850000D02*
X15655000Y-26845000D01*
X17750000Y-27100000D02*
X17750000Y-29100000D01*
%TO.N,Net-(BT1-+)*%
X37875000Y-67475000D02*
X44250000Y-67475000D01*
X35100000Y-64700000D02*
X37875000Y-67475000D01*
X33500000Y-45400000D02*
X35100000Y-47000000D01*
X29270000Y-44100000D02*
X29270000Y-45670000D01*
X35100000Y-47000000D02*
X35100000Y-64700000D01*
X31900000Y-45400000D02*
X33500000Y-45400000D01*
X29270000Y-45670000D02*
X29600000Y-46000000D01*
%TO.N,Net-(U5-X2)*%
X28000000Y-44100000D02*
X28000000Y-46000000D01*
X31610000Y-47875000D02*
X31635000Y-47900000D01*
X28735000Y-47875000D02*
X31610000Y-47875000D01*
X28000000Y-46000000D02*
X28735000Y-46735000D01*
X28735000Y-46735000D02*
X28735000Y-47875000D01*
%TO.N,Net-(U5-X1)*%
X26730000Y-44100000D02*
X26730000Y-45870000D01*
X25535000Y-47065000D02*
X25535000Y-47875000D01*
X25535000Y-47875000D02*
X22660000Y-47875000D01*
X26730000Y-45870000D02*
X25535000Y-47065000D01*
X22660000Y-47875000D02*
X22635000Y-47900000D01*
D36*
%TO.N,EXP4*%
X3640000Y-16500000D02*
X18100000Y-16500000D01*
X18100000Y-16500000D02*
X19400000Y-17800000D01*
X19400000Y-22100000D02*
X19635000Y-22335000D01*
X19635000Y-22335000D02*
X22525000Y-22335000D01*
X3000000Y-17140000D02*
X3640000Y-16500000D01*
X19400000Y-17800000D02*
X19400000Y-22100000D01*
%TO.N,EXP3*%
X20195000Y-19795000D02*
X19900000Y-19500000D01*
X19900000Y-17700000D02*
X18200000Y-16000000D01*
X22525000Y-19795000D02*
X20195000Y-19795000D01*
X4400000Y-16000000D02*
X3000000Y-14600000D01*
X18200000Y-16000000D02*
X4400000Y-16000000D01*
X19900000Y-19500000D02*
X19900000Y-17700000D01*
%TO.N,EXP1*%
X38200000Y-52000000D02*
X39100000Y-52900000D01*
X38200000Y-25300000D02*
X38200000Y-52000000D01*
X14420000Y-9520000D02*
X3000000Y-9520000D01*
X22525000Y-14715000D02*
X19615000Y-14715000D01*
X19615000Y-14715000D02*
X14420000Y-9520000D01*
%TO.N,EXP2*%
X3000000Y-12060000D02*
X3000000Y-12800000D01*
X38700000Y-42500000D02*
X39100000Y-42900000D01*
X20255000Y-17255000D02*
X22525000Y-17255000D01*
X39200000Y-24900000D02*
X39200000Y-25500000D01*
X5500000Y-15300000D02*
X18300000Y-15300000D01*
X39200000Y-25500000D02*
X38700000Y-26000000D01*
X38700000Y-26000000D02*
X38700000Y-42500000D01*
X3000000Y-12800000D02*
X5500000Y-15300000D01*
X18300000Y-15300000D02*
X20255000Y-17255000D01*
%TD*%
%TA.AperFunction,Conductor*%
%TO.N,GND*%
G36*
X18391987Y-17646481D02*
G01*
X18413617Y-17662854D01*
X18770503Y-18019739D01*
X18798281Y-18074256D01*
X18799500Y-18089743D01*
X18799500Y-22014863D01*
X18799499Y-22014881D01*
X18799499Y-22020943D01*
X18799499Y-22179057D01*
X18830857Y-22296083D01*
X18840424Y-22331788D01*
X18858658Y-22363368D01*
X18868645Y-22380666D01*
X18919480Y-22468716D01*
X19031284Y-22580520D01*
X19031286Y-22580521D01*
X19154478Y-22703713D01*
X19154480Y-22703716D01*
X19266284Y-22815520D01*
X19266286Y-22815521D01*
X19333491Y-22854322D01*
X19333495Y-22854324D01*
X19333502Y-22854328D01*
X19403215Y-22894577D01*
X19555943Y-22935500D01*
X19970477Y-22935500D01*
X20028668Y-22954407D01*
X20064632Y-23003907D01*
X20066103Y-23008876D01*
X20079680Y-23059547D01*
X20079683Y-23059553D01*
X20079684Y-23059556D01*
X20165625Y-23228226D01*
X20165627Y-23228229D01*
X20165628Y-23228231D01*
X20284173Y-23374620D01*
X20284758Y-23375342D01*
X20284763Y-23375346D01*
X20431868Y-23494471D01*
X20431870Y-23494472D01*
X20431874Y-23494475D01*
X20600544Y-23580416D01*
X20783397Y-23629412D01*
X20862025Y-23635600D01*
X22987974Y-23635599D01*
X23066603Y-23629412D01*
X23249456Y-23580416D01*
X23418126Y-23494475D01*
X23565242Y-23375342D01*
X23601163Y-23330983D01*
X23652477Y-23297659D01*
X23713578Y-23300861D01*
X23761128Y-23339366D01*
X23777100Y-23393286D01*
X23777100Y-24003881D01*
X23783243Y-24081950D01*
X23830813Y-24259487D01*
X23831894Y-24263518D01*
X23915779Y-24428154D01*
X23917231Y-24431002D01*
X23917232Y-24431004D01*
X24035517Y-24577072D01*
X24035522Y-24577078D01*
X24035527Y-24577082D01*
X24181595Y-24695367D01*
X24181597Y-24695368D01*
X24181601Y-24695371D01*
X24349082Y-24780706D01*
X24530646Y-24829356D01*
X24608711Y-24835500D01*
X25521288Y-24835499D01*
X25599354Y-24829356D01*
X25780918Y-24780706D01*
X25948399Y-24695371D01*
X26094478Y-24577078D01*
X26212771Y-24430999D01*
X26246791Y-24364229D01*
X26290054Y-24320967D01*
X26350486Y-24311395D01*
X26405003Y-24339172D01*
X26423207Y-24364227D01*
X26441180Y-24399500D01*
X26457231Y-24431003D01*
X26457232Y-24431004D01*
X26575517Y-24577072D01*
X26575522Y-24577078D01*
X26575527Y-24577082D01*
X26721595Y-24695367D01*
X26721597Y-24695368D01*
X26721601Y-24695371D01*
X26889082Y-24780706D01*
X27070646Y-24829356D01*
X27148711Y-24835500D01*
X28061288Y-24835499D01*
X28139354Y-24829356D01*
X28320918Y-24780706D01*
X28488399Y-24695371D01*
X28634478Y-24577078D01*
X28752771Y-24430999D01*
X28786791Y-24364229D01*
X28830054Y-24320967D01*
X28890486Y-24311395D01*
X28945003Y-24339172D01*
X28963207Y-24364227D01*
X28981180Y-24399500D01*
X28997231Y-24431003D01*
X28997232Y-24431004D01*
X29115517Y-24577072D01*
X29115522Y-24577078D01*
X29115527Y-24577082D01*
X29261595Y-24695367D01*
X29261597Y-24695368D01*
X29261601Y-24695371D01*
X29429082Y-24780706D01*
X29429084Y-24780706D01*
X29429087Y-24780708D01*
X29433927Y-24782566D01*
X29433182Y-24784506D01*
X29477414Y-24813207D01*
X29499362Y-24870320D01*
X29499500Y-24875539D01*
X29499500Y-25168996D01*
X29507917Y-25211309D01*
X29525546Y-25299936D01*
X29526420Y-25304327D01*
X29526420Y-25304329D01*
X29579223Y-25431808D01*
X29655885Y-25546542D01*
X29655890Y-25546548D01*
X29974393Y-25865049D01*
X30055886Y-25946542D01*
X30153458Y-26044114D01*
X30178796Y-26061044D01*
X30184649Y-26066501D01*
X30195793Y-26086599D01*
X30210022Y-26104648D01*
X30210343Y-26112840D01*
X30214320Y-26120011D01*
X30211521Y-26142824D01*
X30212424Y-26165787D01*
X30207264Y-26177536D01*
X30206871Y-26180742D01*
X30204953Y-26182798D01*
X30201402Y-26190886D01*
X30163416Y-26252472D01*
X30116775Y-26292074D01*
X30079155Y-26299500D01*
X29920845Y-26299500D01*
X29862654Y-26280593D01*
X29836584Y-26252472D01*
X29792714Y-26181347D01*
X29792713Y-26181346D01*
X29792712Y-26181344D01*
X29668656Y-26057288D01*
X29668653Y-26057286D01*
X29668652Y-26057285D01*
X29519336Y-25965187D01*
X29519335Y-25965186D01*
X29519334Y-25965186D01*
X29352797Y-25910001D01*
X29352794Y-25910000D01*
X29250016Y-25899500D01*
X28249983Y-25899500D01*
X28147211Y-25909999D01*
X28147199Y-25910002D01*
X27980663Y-25965187D01*
X27831347Y-26057285D01*
X27707285Y-26181347D01*
X27615185Y-26330666D01*
X27611470Y-26341878D01*
X27575218Y-26391167D01*
X27572497Y-26393051D01*
X27478457Y-26455885D01*
X26997416Y-26936924D01*
X26942900Y-26964701D01*
X26882468Y-26955130D01*
X26880748Y-26954232D01*
X26876545Y-26951986D01*
X26712666Y-26884106D01*
X26538693Y-26849500D01*
X26538691Y-26849500D01*
X26361309Y-26849500D01*
X26361306Y-26849500D01*
X26187334Y-26884106D01*
X26187332Y-26884106D01*
X26023455Y-26951985D01*
X26023454Y-26951985D01*
X25875965Y-27050535D01*
X25750535Y-27175965D01*
X25651985Y-27323454D01*
X25651985Y-27323455D01*
X25584106Y-27487332D01*
X25584106Y-27487334D01*
X25549500Y-27661306D01*
X25549500Y-27838693D01*
X25567662Y-27929996D01*
X25581586Y-27999999D01*
X25584106Y-28012665D01*
X25584106Y-28012667D01*
X25651985Y-28176544D01*
X25651985Y-28176545D01*
X25730543Y-28294114D01*
X25750536Y-28324035D01*
X25875965Y-28449464D01*
X26023453Y-28548013D01*
X26023454Y-28548013D01*
X26023455Y-28548014D01*
X26060581Y-28563391D01*
X26187334Y-28615894D01*
X26361309Y-28650500D01*
X26361310Y-28650500D01*
X26538690Y-28650500D01*
X26538691Y-28650500D01*
X26712666Y-28615894D01*
X26876547Y-28548013D01*
X26876549Y-28548011D01*
X26876554Y-28548009D01*
X26997514Y-28467185D01*
X27052516Y-28450500D01*
X27169836Y-28450500D01*
X27228027Y-28469407D01*
X27263991Y-28518907D01*
X27263991Y-28580093D01*
X27239841Y-28619501D01*
X26840009Y-29019334D01*
X26555883Y-29303460D01*
X26479223Y-29418191D01*
X26426420Y-29545670D01*
X26426420Y-29545672D01*
X26399891Y-29679043D01*
X26399889Y-29679053D01*
X26399500Y-29681007D01*
X26399500Y-31097483D01*
X26382815Y-31152485D01*
X26301990Y-31273445D01*
X26301984Y-31273457D01*
X26234106Y-31437332D01*
X26234106Y-31437334D01*
X26199500Y-31611306D01*
X26199500Y-31710257D01*
X26197031Y-31717854D01*
X26198281Y-31725744D01*
X26187756Y-31746399D01*
X26180593Y-31768448D01*
X26170505Y-31780258D01*
X26111286Y-31839478D01*
X26111284Y-31839480D01*
X26111275Y-31839487D01*
X25999480Y-31951283D01*
X25993672Y-31961344D01*
X25973853Y-31995672D01*
X25960192Y-32019334D01*
X25920424Y-32088211D01*
X25920423Y-32088215D01*
X25879499Y-32240943D01*
X25879499Y-32240945D01*
X25879499Y-32407031D01*
X25879500Y-32407044D01*
X25879500Y-33979601D01*
X25860593Y-34037792D01*
X25825445Y-34067811D01*
X25772184Y-34094948D01*
X25772180Y-34094950D01*
X25600212Y-34219892D01*
X25600206Y-34219897D01*
X25454044Y-34366059D01*
X25399528Y-34393836D01*
X25339096Y-34384264D01*
X25295831Y-34341000D01*
X25285608Y-34306633D01*
X25284837Y-34299464D01*
X25284091Y-34292517D01*
X25279617Y-34280521D01*
X25233797Y-34157670D01*
X25147549Y-34042458D01*
X25147548Y-34042457D01*
X25147546Y-34042454D01*
X25144626Y-34040268D01*
X25032329Y-33956202D01*
X24897488Y-33905910D01*
X24897483Y-33905909D01*
X24897481Y-33905908D01*
X24897477Y-33905908D01*
X24866249Y-33902550D01*
X24837873Y-33899500D01*
X24837870Y-33899500D01*
X23042133Y-33899500D01*
X23042129Y-33899500D01*
X23042128Y-33899501D01*
X23037486Y-33900000D01*
X22982519Y-33905908D01*
X22982514Y-33905909D01*
X22847670Y-33956202D01*
X22732458Y-34042450D01*
X22732450Y-34042458D01*
X22646202Y-34157670D01*
X22595910Y-34292511D01*
X22595908Y-34292522D01*
X22589500Y-34352129D01*
X22589500Y-36147866D01*
X22589501Y-36147870D01*
X22595908Y-36207480D01*
X22595909Y-36207485D01*
X22646202Y-36342329D01*
X22732450Y-36457541D01*
X22732454Y-36457546D01*
X22732457Y-36457548D01*
X22732458Y-36457549D01*
X22847670Y-36543797D01*
X22982511Y-36594089D01*
X22982512Y-36594089D01*
X22982517Y-36594091D01*
X23042127Y-36600500D01*
X23262181Y-36600499D01*
X23320369Y-36619406D01*
X23356333Y-36668906D01*
X23356334Y-36730091D01*
X23320370Y-36779591D01*
X23300067Y-36790962D01*
X23273454Y-36801985D01*
X23125965Y-36900535D01*
X23000535Y-37025965D01*
X22901985Y-37173454D01*
X22901985Y-37173455D01*
X22834106Y-37337332D01*
X22834106Y-37337334D01*
X22799500Y-37511306D01*
X22799500Y-37688698D01*
X22806007Y-37721410D01*
X22798815Y-37782171D01*
X22757281Y-37827100D01*
X22697271Y-37839036D01*
X22677769Y-37834697D01*
X22527794Y-37785000D01*
X22425016Y-37774500D01*
X21374983Y-37774500D01*
X21272211Y-37784999D01*
X21272199Y-37785002D01*
X21105663Y-37840187D01*
X20956347Y-37932285D01*
X20832285Y-38056347D01*
X20796126Y-38114972D01*
X20749485Y-38154574D01*
X20711865Y-38162000D01*
X20274500Y-38162000D01*
X20216309Y-38143093D01*
X20180345Y-38093593D01*
X20175500Y-38063000D01*
X20175500Y-36660533D01*
X20175499Y-36660519D01*
X20175499Y-36060642D01*
X20175499Y-36060640D01*
X20160044Y-35943238D01*
X20144117Y-35904786D01*
X20099538Y-35797163D01*
X20099537Y-35797162D01*
X20099536Y-35797159D01*
X20089462Y-35784030D01*
X20069039Y-35726357D01*
X20086416Y-35667691D01*
X20134958Y-35630444D01*
X20168005Y-35624765D01*
X20288690Y-35624765D01*
X20288691Y-35624765D01*
X20462666Y-35590159D01*
X20626547Y-35522278D01*
X20774035Y-35423729D01*
X20899464Y-35298300D01*
X20998013Y-35150812D01*
X20998014Y-35150810D01*
X20998018Y-35150802D01*
X21038352Y-35053423D01*
X21065894Y-34986931D01*
X21085756Y-34887073D01*
X21112848Y-34836385D01*
X21668713Y-34280521D01*
X21668716Y-34280520D01*
X21780520Y-34168716D01*
X21837898Y-34069334D01*
X21851020Y-34046607D01*
X21851030Y-34046588D01*
X21851057Y-34046542D01*
X21859577Y-34031785D01*
X21900500Y-33879057D01*
X21900500Y-33720943D01*
X21900500Y-32914007D01*
X21919407Y-32855816D01*
X21929496Y-32844003D01*
X21999464Y-32774035D01*
X22098013Y-32626547D01*
X22165894Y-32462666D01*
X22200500Y-32288691D01*
X22200500Y-32111309D01*
X22165894Y-31937334D01*
X22098014Y-31773455D01*
X22098014Y-31773454D01*
X21999464Y-31625965D01*
X21874034Y-31500535D01*
X21726544Y-31401985D01*
X21580430Y-31341464D01*
X21533904Y-31301728D01*
X21519620Y-31242233D01*
X21543034Y-31185705D01*
X21580430Y-31158536D01*
X21667531Y-31122458D01*
X21726547Y-31098013D01*
X21874035Y-30999464D01*
X21999464Y-30874035D01*
X22098013Y-30726547D01*
X22165894Y-30562666D01*
X22200500Y-30388691D01*
X22200500Y-30211309D01*
X22165894Y-30037334D01*
X22098014Y-29873455D01*
X22098014Y-29873454D01*
X21999464Y-29725965D01*
X21929497Y-29655998D01*
X21901720Y-29601481D01*
X21900501Y-29585994D01*
X21900501Y-29520942D01*
X21900500Y-29520940D01*
X21859578Y-29368219D01*
X21859578Y-29368218D01*
X21859577Y-29368216D01*
X21780520Y-29231284D01*
X21280521Y-28731285D01*
X21280520Y-28731284D01*
X21280520Y-28731283D01*
X21168715Y-28619479D01*
X21078244Y-28567246D01*
X21078241Y-28567245D01*
X21074742Y-28565225D01*
X21044931Y-28548013D01*
X21031784Y-28540422D01*
X20888588Y-28502052D01*
X20837274Y-28468728D01*
X20820237Y-28437566D01*
X20818416Y-28432070D01*
X20784814Y-28330666D01*
X20718969Y-28223913D01*
X20692714Y-28181347D01*
X20692713Y-28181346D01*
X20692712Y-28181344D01*
X20681015Y-28169647D01*
X20653240Y-28115133D01*
X20662811Y-28054701D01*
X20681022Y-28029638D01*
X20692316Y-28018344D01*
X20784356Y-27869124D01*
X20839506Y-27702693D01*
X20850000Y-27599987D01*
X20850000Y-27350001D01*
X20849999Y-27350000D01*
X19849000Y-27350000D01*
X19790809Y-27331093D01*
X19754845Y-27281593D01*
X19750000Y-27251000D01*
X19750000Y-27100001D01*
X19749999Y-27100000D01*
X19599000Y-27100000D01*
X19540809Y-27081093D01*
X19504845Y-27031593D01*
X19500000Y-27001000D01*
X19500000Y-25900001D01*
X20000000Y-25900001D01*
X20000000Y-26849999D01*
X20000001Y-26850000D01*
X20849998Y-26850000D01*
X20849999Y-26849999D01*
X20849999Y-26600013D01*
X20839507Y-26497312D01*
X20839504Y-26497300D01*
X20784356Y-26330875D01*
X20692319Y-26181659D01*
X20568340Y-26057680D01*
X20419124Y-25965643D01*
X20252693Y-25910493D01*
X20149987Y-25900000D01*
X20000001Y-25900000D01*
X20000000Y-25900001D01*
X19500000Y-25900001D01*
X19499999Y-25900000D01*
X19350013Y-25900000D01*
X19350013Y-25900001D01*
X19247312Y-25910492D01*
X19247300Y-25910495D01*
X19080875Y-25965643D01*
X18931658Y-26057681D01*
X18931655Y-26057683D01*
X18820356Y-26168982D01*
X18765840Y-26196759D01*
X18705408Y-26187187D01*
X18680352Y-26168984D01*
X18568656Y-26057288D01*
X18568653Y-26057286D01*
X18568652Y-26057285D01*
X18419336Y-25965187D01*
X18419335Y-25965186D01*
X18419334Y-25965186D01*
X18252797Y-25910001D01*
X18252794Y-25910000D01*
X18150016Y-25899500D01*
X17349983Y-25899500D01*
X17247211Y-25909999D01*
X17247199Y-25910002D01*
X17080663Y-25965187D01*
X16931347Y-26057285D01*
X16807285Y-26181347D01*
X16734409Y-26299500D01*
X16715186Y-26330666D01*
X16665158Y-26481641D01*
X16647237Y-26506005D01*
X16629374Y-26530593D01*
X16629084Y-26530686D01*
X16628906Y-26530930D01*
X16571183Y-26549500D01*
X16554500Y-26549500D01*
X16496309Y-26530593D01*
X16460345Y-26481093D01*
X16455500Y-26450500D01*
X16455500Y-24884311D01*
X16452598Y-24847434D01*
X16452598Y-24847431D01*
X16406744Y-24689602D01*
X16323081Y-24548135D01*
X16206865Y-24431919D01*
X16065398Y-24348256D01*
X15907569Y-24302402D01*
X15907568Y-24302401D01*
X15907565Y-24302401D01*
X15884140Y-24300558D01*
X15870694Y-24299500D01*
X15439306Y-24299500D01*
X15426773Y-24300486D01*
X15402434Y-24302401D01*
X15402427Y-24302403D01*
X15244601Y-24348256D01*
X15221177Y-24362109D01*
X15161465Y-24375454D01*
X15105313Y-24351154D01*
X15075217Y-24300262D01*
X15074993Y-24300330D01*
X15074714Y-24299412D01*
X15074168Y-24298488D01*
X15073685Y-24296200D01*
X15073580Y-24295674D01*
X15073579Y-24295670D01*
X15020776Y-24168191D01*
X15020219Y-24167358D01*
X14944114Y-24053457D01*
X14890157Y-23999500D01*
X14834259Y-23943601D01*
X14806482Y-23889085D01*
X14810288Y-23842457D01*
X14839999Y-23752797D01*
X14841695Y-23736201D01*
X14850499Y-23650016D01*
X14850500Y-23650009D01*
X14850499Y-22649992D01*
X14850499Y-22649983D01*
X14840000Y-22547211D01*
X14839999Y-22547209D01*
X14839999Y-22547203D01*
X14784814Y-22380666D01*
X14692712Y-22231344D01*
X14568656Y-22107288D01*
X14568653Y-22107286D01*
X14568652Y-22107285D01*
X14419336Y-22015187D01*
X14419335Y-22015186D01*
X14419334Y-22015186D01*
X14252797Y-21960001D01*
X14252794Y-21960000D01*
X14150017Y-21949500D01*
X14150009Y-21949500D01*
X14081165Y-21949500D01*
X14022974Y-21930593D01*
X14011162Y-21920504D01*
X13560161Y-21469504D01*
X13532383Y-21414987D01*
X13541954Y-21354555D01*
X13585219Y-21311290D01*
X13630164Y-21300500D01*
X17198540Y-21300500D01*
X17198541Y-21300500D01*
X17295188Y-21281275D01*
X17391836Y-21262051D01*
X17445165Y-21239961D01*
X17573914Y-21186632D01*
X17737782Y-21077139D01*
X17877139Y-20937782D01*
X17877139Y-20937780D01*
X17882776Y-20932144D01*
X17882781Y-20932137D01*
X18026140Y-20788780D01*
X18105689Y-20669726D01*
X18135628Y-20624920D01*
X18135629Y-20624916D01*
X18135632Y-20624913D01*
X18211052Y-20442835D01*
X18249501Y-20249539D01*
X18249501Y-20052459D01*
X18211052Y-19859163D01*
X18135632Y-19677085D01*
X18135630Y-19677082D01*
X18135625Y-19677072D01*
X18026145Y-19513224D01*
X18026142Y-19513221D01*
X18026140Y-19513218D01*
X17886782Y-19373860D01*
X17886778Y-19373857D01*
X17886775Y-19373854D01*
X17722927Y-19264374D01*
X17722913Y-19264367D01*
X17540840Y-19188949D01*
X17540834Y-19188947D01*
X17347543Y-19150499D01*
X17347541Y-19150499D01*
X17150461Y-19150499D01*
X17150458Y-19150499D01*
X16957167Y-19188947D01*
X16957161Y-19188949D01*
X16775086Y-19264368D01*
X16747479Y-19282815D01*
X16692477Y-19299500D01*
X10601456Y-19299500D01*
X10528744Y-19313963D01*
X10528725Y-19313967D01*
X10526145Y-19314481D01*
X10408164Y-19337949D01*
X10371862Y-19352986D01*
X10365326Y-19355693D01*
X10365323Y-19355694D01*
X10226087Y-19413367D01*
X10062218Y-19522861D01*
X10062214Y-19522864D01*
X8222864Y-21362214D01*
X8222861Y-21362218D01*
X8113367Y-21526087D01*
X8078426Y-21610443D01*
X8037949Y-21708162D01*
X8037949Y-21708164D01*
X8021015Y-21793297D01*
X7999500Y-21901456D01*
X7999500Y-22844571D01*
X7980593Y-22902762D01*
X7970504Y-22914575D01*
X6722864Y-24162214D01*
X6722861Y-24162218D01*
X6613367Y-24326087D01*
X6560609Y-24453457D01*
X6537949Y-24508162D01*
X6537949Y-24508164D01*
X6522201Y-24587334D01*
X6499500Y-24701456D01*
X6499500Y-25798541D01*
X6506118Y-25831810D01*
X6506118Y-25831811D01*
X6537949Y-25991837D01*
X6537950Y-25991840D01*
X6547132Y-26014007D01*
X6560038Y-26045165D01*
X6591302Y-26120642D01*
X6613367Y-26173912D01*
X6613371Y-26173921D01*
X6690762Y-26289742D01*
X6722861Y-26337782D01*
X6722864Y-26337785D01*
X6722868Y-26337790D01*
X6867859Y-26482780D01*
X6867865Y-26482785D01*
X7235359Y-26850281D01*
X7235360Y-26850281D01*
X7235361Y-26850282D01*
X7235360Y-26850282D01*
X7308051Y-26922972D01*
X7374718Y-26989639D01*
X7456001Y-27043951D01*
X7493881Y-27092000D01*
X7500000Y-27126266D01*
X7500000Y-27999999D01*
X7500001Y-28000000D01*
X8376493Y-28000000D01*
X8434684Y-28018907D01*
X8446497Y-28028996D01*
X8455001Y-28037500D01*
X10474998Y-28037500D01*
X10474999Y-28037499D01*
X10474999Y-27900013D01*
X10464507Y-27797312D01*
X10464504Y-27797300D01*
X10409356Y-27630875D01*
X10317319Y-27481659D01*
X10193339Y-27357679D01*
X10155846Y-27334553D01*
X10116245Y-27287912D01*
X10111622Y-27226902D01*
X10143743Y-27174826D01*
X10155838Y-27166037D01*
X10193656Y-27142712D01*
X10317712Y-27018656D01*
X10376731Y-26922969D01*
X10423102Y-26883480D01*
X10544311Y-26833275D01*
X10659043Y-26756614D01*
X10875496Y-26540159D01*
X10930013Y-26512382D01*
X10990445Y-26521953D01*
X11033709Y-26565218D01*
X11044500Y-26610163D01*
X11044500Y-26665688D01*
X11047401Y-26702565D01*
X11047401Y-26702568D01*
X11047402Y-26702569D01*
X11093256Y-26860398D01*
X11176919Y-27001865D01*
X11293135Y-27118081D01*
X11434602Y-27201744D01*
X11592431Y-27247598D01*
X11629306Y-27250500D01*
X11629311Y-27250500D01*
X12050500Y-27250500D01*
X12108691Y-27269407D01*
X12144655Y-27318907D01*
X12149500Y-27349500D01*
X12149500Y-27438693D01*
X12167663Y-27530001D01*
X12181588Y-27600009D01*
X12184106Y-27612665D01*
X12184106Y-27612667D01*
X12251985Y-27776544D01*
X12251985Y-27776545D01*
X12350232Y-27923580D01*
X12350536Y-27924035D01*
X12475965Y-28049464D01*
X12623453Y-28148013D01*
X12623454Y-28148013D01*
X12623455Y-28148014D01*
X12643211Y-28156197D01*
X12787334Y-28215894D01*
X12961309Y-28250500D01*
X12961310Y-28250500D01*
X13138690Y-28250500D01*
X13138691Y-28250500D01*
X13312666Y-28215894D01*
X13476547Y-28148013D01*
X13624035Y-28049464D01*
X13749464Y-27924035D01*
X13848013Y-27776547D01*
X13915894Y-27612666D01*
X13950500Y-27438691D01*
X13950500Y-27326597D01*
X13969407Y-27268406D01*
X14018907Y-27232442D01*
X14077118Y-27231528D01*
X14132431Y-27247598D01*
X14169306Y-27250500D01*
X14169311Y-27250500D01*
X14600689Y-27250500D01*
X14600694Y-27250500D01*
X14637569Y-27247598D01*
X14795398Y-27201744D01*
X14892182Y-27144505D01*
X14951893Y-27131158D01*
X15008047Y-27155458D01*
X15025988Y-27178124D01*
X15026523Y-27177767D01*
X15105885Y-27296542D01*
X15105890Y-27296548D01*
X15505885Y-27696541D01*
X15603458Y-27794114D01*
X15718182Y-27870771D01*
X15718187Y-27870774D01*
X15718188Y-27870774D01*
X15718189Y-27870775D01*
X15759248Y-27887782D01*
X15845671Y-27923580D01*
X15872591Y-27928934D01*
X15981007Y-27950500D01*
X16709995Y-27950500D01*
X16723772Y-27954976D01*
X16738256Y-27954619D01*
X16749729Y-27963410D01*
X16768186Y-27969407D01*
X16788628Y-27989351D01*
X16791646Y-27993297D01*
X16807288Y-28018656D01*
X16823267Y-28034635D01*
X16827257Y-28039851D01*
X16835350Y-28062817D01*
X16846406Y-28084516D01*
X16845349Y-28091187D01*
X16847594Y-28097558D01*
X16840642Y-28120897D01*
X16836832Y-28144948D01*
X16831148Y-28152770D01*
X16830128Y-28156197D01*
X16826821Y-28158726D01*
X16818630Y-28170001D01*
X16807286Y-28181345D01*
X16715187Y-28330663D01*
X16660000Y-28497205D01*
X16649500Y-28599983D01*
X16649500Y-29600016D01*
X16659999Y-29702788D01*
X16660000Y-29702795D01*
X16660001Y-29702797D01*
X16714807Y-29868191D01*
X16715187Y-29869336D01*
X16807285Y-30018652D01*
X16807286Y-30018653D01*
X16807288Y-30018656D01*
X16893630Y-30104998D01*
X16921406Y-30159513D01*
X16911835Y-30219945D01*
X16893631Y-30245000D01*
X16848633Y-30289999D01*
X16807285Y-30331347D01*
X16715187Y-30480663D01*
X16660000Y-30647205D01*
X16649500Y-30749983D01*
X16649500Y-30930493D01*
X16630593Y-30988684D01*
X16581093Y-31024648D01*
X16519907Y-31024648D01*
X16480496Y-31000497D01*
X16454999Y-30975000D01*
X15754000Y-30975000D01*
X15695809Y-30956093D01*
X15659845Y-30906593D01*
X15655000Y-30876000D01*
X15655000Y-30725001D01*
X15654999Y-30725000D01*
X15504000Y-30725000D01*
X15445809Y-30706093D01*
X15409845Y-30656593D01*
X15405000Y-30626000D01*
X15405000Y-30474999D01*
X15905000Y-30474999D01*
X15905001Y-30475000D01*
X16454999Y-30475000D01*
X16455000Y-30474999D01*
X16455000Y-29834363D01*
X16452100Y-29797510D01*
X16406280Y-29639799D01*
X16406280Y-29639798D01*
X16322685Y-29498447D01*
X16206552Y-29382314D01*
X16065201Y-29298719D01*
X16065202Y-29298719D01*
X15907491Y-29252900D01*
X15905000Y-29252702D01*
X15905000Y-30474999D01*
X15405000Y-30474999D01*
X15405000Y-29252703D01*
X15404999Y-29252702D01*
X15402508Y-29252900D01*
X15244798Y-29298719D01*
X15103447Y-29382314D01*
X15090355Y-29395406D01*
X15035837Y-29423182D01*
X14975405Y-29413608D01*
X14950352Y-29395406D01*
X14936865Y-29381919D01*
X14795398Y-29298256D01*
X14637569Y-29252402D01*
X14637568Y-29252401D01*
X14637565Y-29252401D01*
X14614140Y-29250558D01*
X14600694Y-29249500D01*
X14169306Y-29249500D01*
X14156773Y-29250486D01*
X14132434Y-29252401D01*
X14132427Y-29252403D01*
X13974602Y-29298256D01*
X13833135Y-29381919D01*
X13820002Y-29395052D01*
X13765484Y-29422828D01*
X13705052Y-29413254D01*
X13679998Y-29395052D01*
X13674847Y-29389901D01*
X13666865Y-29381919D01*
X13525398Y-29298256D01*
X13367569Y-29252402D01*
X13367568Y-29252401D01*
X13367565Y-29252401D01*
X13344140Y-29250558D01*
X13330694Y-29249500D01*
X12899306Y-29249500D01*
X12886773Y-29250486D01*
X12862434Y-29252401D01*
X12862427Y-29252403D01*
X12704602Y-29298256D01*
X12563135Y-29381919D01*
X12550002Y-29395052D01*
X12495484Y-29422828D01*
X12435052Y-29413254D01*
X12409998Y-29395052D01*
X12404847Y-29389901D01*
X12396865Y-29381919D01*
X12255398Y-29298256D01*
X12097569Y-29252402D01*
X12097568Y-29252401D01*
X12097565Y-29252401D01*
X12074140Y-29250558D01*
X12060694Y-29249500D01*
X11629306Y-29249500D01*
X11616773Y-29250486D01*
X11592434Y-29252401D01*
X11592427Y-29252403D01*
X11434602Y-29298256D01*
X11293136Y-29381918D01*
X11176918Y-29498136D01*
X11093256Y-29639602D01*
X11047403Y-29797427D01*
X11047401Y-29797434D01*
X11044500Y-29834311D01*
X11044500Y-31615688D01*
X11047401Y-31652565D01*
X11047401Y-31652568D01*
X11047402Y-31652569D01*
X11084500Y-31780261D01*
X11093256Y-31810397D01*
X11093255Y-31810397D01*
X11093256Y-31810398D01*
X11130713Y-31873735D01*
X11144500Y-31924129D01*
X11144500Y-32680500D01*
X11125593Y-32738691D01*
X11076093Y-32774655D01*
X11045500Y-32779500D01*
X6976999Y-32779500D01*
X6918808Y-32760593D01*
X6882844Y-32711093D01*
X6877999Y-32680500D01*
X6877999Y-32379983D01*
X6867500Y-32277211D01*
X6867499Y-32277209D01*
X6867499Y-32277203D01*
X6812314Y-32110666D01*
X6720212Y-31961344D01*
X6596156Y-31837288D01*
X6596153Y-31837286D01*
X6596152Y-31837285D01*
X6446836Y-31745187D01*
X6446835Y-31745186D01*
X6446834Y-31745186D01*
X6280297Y-31690001D01*
X6280294Y-31690000D01*
X6177516Y-31679500D01*
X3977483Y-31679500D01*
X3874711Y-31689999D01*
X3874699Y-31690002D01*
X3708163Y-31745187D01*
X3558847Y-31837285D01*
X3434785Y-31961347D01*
X3342687Y-32110663D01*
X3287500Y-32277205D01*
X3277000Y-32379983D01*
X3277000Y-34580016D01*
X3287499Y-34682788D01*
X3287500Y-34682795D01*
X3287501Y-34682797D01*
X3338394Y-34836383D01*
X3342687Y-34849336D01*
X3434785Y-34998652D01*
X3434786Y-34998653D01*
X3434788Y-34998656D01*
X3558844Y-35122712D01*
X3558846Y-35122713D01*
X3558847Y-35122714D01*
X3604385Y-35150802D01*
X3708166Y-35214814D01*
X3874703Y-35269999D01*
X3977491Y-35280500D01*
X6177508Y-35280499D01*
X6177516Y-35280499D01*
X6280288Y-35270000D01*
X6280288Y-35269999D01*
X6280297Y-35269999D01*
X6446834Y-35214814D01*
X6596156Y-35122712D01*
X6720212Y-34998656D01*
X6812314Y-34849334D01*
X6867499Y-34682797D01*
X6872027Y-34638478D01*
X6878000Y-34580016D01*
X6878000Y-34279500D01*
X6896907Y-34221309D01*
X6946407Y-34185345D01*
X6977000Y-34180500D01*
X10802998Y-34180500D01*
X10861189Y-34199407D01*
X10897153Y-34248907D01*
X10901485Y-34269439D01*
X10909999Y-34352788D01*
X10910000Y-34352795D01*
X10910001Y-34352797D01*
X10954896Y-34488282D01*
X10965187Y-34519336D01*
X11057285Y-34668652D01*
X11057286Y-34668653D01*
X11057288Y-34668656D01*
X11181344Y-34792712D01*
X11330666Y-34884814D01*
X11497203Y-34939999D01*
X11599991Y-34950500D01*
X12400008Y-34950499D01*
X12400016Y-34950499D01*
X12502788Y-34940000D01*
X12502788Y-34939999D01*
X12502797Y-34939999D01*
X12669334Y-34884814D01*
X12818656Y-34792712D01*
X12929998Y-34681369D01*
X12984513Y-34653594D01*
X13044945Y-34663165D01*
X13070000Y-34681368D01*
X13181344Y-34792712D01*
X13181346Y-34792713D01*
X13181347Y-34792714D01*
X13220303Y-34816742D01*
X13259905Y-34863383D01*
X13264528Y-34924393D01*
X13238335Y-34971007D01*
X11705883Y-36503460D01*
X11629223Y-36618191D01*
X11576420Y-36745670D01*
X11576420Y-36745672D01*
X11552046Y-36868211D01*
X11552045Y-36868214D01*
X11549500Y-36881004D01*
X11549500Y-37841887D01*
X11530593Y-37900078D01*
X11500001Y-37927623D01*
X11440238Y-37962127D01*
X11440236Y-37962128D01*
X11335558Y-38042452D01*
X11242452Y-38135558D01*
X11162130Y-38240234D01*
X11096296Y-38354261D01*
X11045799Y-38476171D01*
X11011724Y-38603340D01*
X11011724Y-38603345D01*
X10994500Y-38734174D01*
X10994500Y-39300000D01*
X10998040Y-39349500D01*
X10999645Y-39371938D01*
X10999646Y-39371944D01*
X11012135Y-39414478D01*
X11015137Y-39456458D01*
X10994500Y-39599994D01*
X10994500Y-40165826D01*
X11011724Y-40296654D01*
X11011724Y-40296659D01*
X11045799Y-40423828D01*
X11096296Y-40545738D01*
X11162130Y-40659765D01*
X11242452Y-40764441D01*
X11242455Y-40764444D01*
X11242459Y-40764449D01*
X11335551Y-40857541D01*
X11335554Y-40857543D01*
X11419500Y-40921958D01*
X11454155Y-40972383D01*
X11452553Y-41033547D01*
X11415306Y-41082089D01*
X11359232Y-41099500D01*
X8648665Y-41099500D01*
X8590474Y-41080593D01*
X8578661Y-41070504D01*
X6792474Y-39284317D01*
X6764697Y-39229800D01*
X6771014Y-39176427D01*
X6786106Y-39139992D01*
X6831243Y-38971539D01*
X6847193Y-38912014D01*
X6878000Y-38678011D01*
X6878000Y-38441989D01*
X6847193Y-38207986D01*
X6786106Y-37980007D01*
X6748846Y-37890054D01*
X6695786Y-37761955D01*
X6689116Y-37750402D01*
X6577773Y-37557550D01*
X6540888Y-37509480D01*
X6434097Y-37370307D01*
X6434095Y-37370305D01*
X6434092Y-37370301D01*
X6267199Y-37203408D01*
X6267194Y-37203404D01*
X6267192Y-37203402D01*
X6103819Y-37078042D01*
X6069163Y-37027618D01*
X6070764Y-36966453D01*
X6108012Y-36917912D01*
X6164086Y-36900500D01*
X9668993Y-36900500D01*
X9668994Y-36900500D01*
X9804328Y-36873580D01*
X9931811Y-36820775D01*
X10046543Y-36744114D01*
X10369285Y-36421370D01*
X10419971Y-36394277D01*
X10562666Y-36365894D01*
X10726547Y-36298013D01*
X10874035Y-36199464D01*
X10999464Y-36074035D01*
X11098013Y-35926547D01*
X11165894Y-35762666D01*
X11200500Y-35588691D01*
X11200500Y-35411309D01*
X11165894Y-35237334D01*
X11098014Y-35073455D01*
X11098014Y-35073454D01*
X10999464Y-34925965D01*
X10874034Y-34800535D01*
X10726544Y-34701985D01*
X10562666Y-34634106D01*
X10388693Y-34599500D01*
X10388691Y-34599500D01*
X10211309Y-34599500D01*
X10211306Y-34599500D01*
X10037334Y-34634106D01*
X10037332Y-34634106D01*
X9873455Y-34701985D01*
X9873454Y-34701985D01*
X9725965Y-34800535D01*
X9600535Y-34925965D01*
X9501985Y-35073454D01*
X9501985Y-35073455D01*
X9434106Y-35237332D01*
X9434103Y-35237342D01*
X9405720Y-35380026D01*
X9378628Y-35430713D01*
X9338841Y-35470502D01*
X9284325Y-35498281D01*
X9268836Y-35499500D01*
X4431004Y-35499500D01*
X4331550Y-35519283D01*
X4331546Y-35519284D01*
X4325821Y-35520423D01*
X4295671Y-35526420D01*
X4248539Y-35545943D01*
X4244952Y-35547428D01*
X4244948Y-35547430D01*
X4168189Y-35579224D01*
X4067444Y-35646541D01*
X4067443Y-35646542D01*
X4053460Y-35655884D01*
X2969504Y-36739839D01*
X2914987Y-36767616D01*
X2854555Y-36758045D01*
X2811290Y-36714780D01*
X2800500Y-36669835D01*
X2800500Y-30531165D01*
X2819407Y-30472974D01*
X2829496Y-30461161D01*
X3011161Y-30279496D01*
X3065678Y-30251719D01*
X3081165Y-30250500D01*
X4818993Y-30250500D01*
X4818994Y-30250500D01*
X4954328Y-30223580D01*
X5081811Y-30170775D01*
X5196543Y-30094114D01*
X5794114Y-29496543D01*
X5835494Y-29434611D01*
X5883541Y-29396732D01*
X5886638Y-29395647D01*
X5919334Y-29384814D01*
X6068656Y-29292712D01*
X6180351Y-29181016D01*
X6234866Y-29153240D01*
X6295298Y-29162811D01*
X6320357Y-29181017D01*
X6431659Y-29292319D01*
X6580875Y-29384356D01*
X6747306Y-29439506D01*
X6850013Y-29449999D01*
X7000000Y-29449999D01*
X7000000Y-28500001D01*
X7500000Y-28500001D01*
X7500000Y-29449998D01*
X7500001Y-29449999D01*
X7649986Y-29449999D01*
X7752687Y-29439507D01*
X7752699Y-29439504D01*
X7919124Y-29384356D01*
X8068341Y-29292318D01*
X8068344Y-29292316D01*
X8154995Y-29205665D01*
X8209511Y-29177887D01*
X8269944Y-29187458D01*
X8295000Y-29205662D01*
X8306654Y-29217315D01*
X8306658Y-29217318D01*
X8455875Y-29309356D01*
X8622306Y-29364506D01*
X8725013Y-29374999D01*
X8999998Y-29374999D01*
X9000000Y-29374998D01*
X9000000Y-28537501D01*
X9500000Y-28537501D01*
X9500000Y-29374998D01*
X9500001Y-29374999D01*
X9774986Y-29374999D01*
X9877687Y-29364507D01*
X9877699Y-29364504D01*
X10044124Y-29309356D01*
X10193340Y-29217319D01*
X10317319Y-29093340D01*
X10409356Y-28944124D01*
X10464506Y-28777693D01*
X10475000Y-28674987D01*
X10475000Y-28537501D01*
X10474999Y-28537500D01*
X9500001Y-28537500D01*
X9500000Y-28537501D01*
X9000000Y-28537501D01*
X8999999Y-28537500D01*
X7998507Y-28537500D01*
X7940316Y-28518593D01*
X7928503Y-28508504D01*
X7919999Y-28500000D01*
X7500001Y-28500000D01*
X7500000Y-28500001D01*
X7000000Y-28500001D01*
X7000000Y-27050001D01*
X6999999Y-27050000D01*
X6850013Y-27050000D01*
X6850013Y-27050001D01*
X6747312Y-27060492D01*
X6747300Y-27060495D01*
X6580875Y-27115643D01*
X6431658Y-27207681D01*
X6431655Y-27207683D01*
X6320356Y-27318982D01*
X6265840Y-27346759D01*
X6205408Y-27337187D01*
X6180352Y-27318984D01*
X6068656Y-27207288D01*
X6068653Y-27207286D01*
X6068652Y-27207285D01*
X5919336Y-27115187D01*
X5919335Y-27115186D01*
X5919334Y-27115186D01*
X5752797Y-27060001D01*
X5752794Y-27060000D01*
X5650016Y-27049500D01*
X4849983Y-27049500D01*
X4747211Y-27059999D01*
X4747199Y-27060002D01*
X4580663Y-27115187D01*
X4431347Y-27207285D01*
X4307285Y-27331347D01*
X4215187Y-27480662D01*
X4215186Y-27480666D01*
X4198474Y-27531099D01*
X4162223Y-27580387D01*
X4103923Y-27598955D01*
X4045844Y-27579709D01*
X4010169Y-27530001D01*
X4005500Y-27499957D01*
X4005500Y-27050000D01*
X4005067Y-27043950D01*
X4000355Y-26978060D01*
X3987865Y-26935523D01*
X3984862Y-26893540D01*
X3985370Y-26890012D01*
X4001042Y-26781006D01*
X4005500Y-26750004D01*
X4005500Y-26184175D01*
X4005500Y-26184174D01*
X3988275Y-26053338D01*
X3954200Y-25926171D01*
X3947706Y-25910493D01*
X3903703Y-25804261D01*
X3900401Y-25798541D01*
X3837875Y-25690243D01*
X3837871Y-25690238D01*
X3837869Y-25690234D01*
X3757547Y-25585558D01*
X3757544Y-25585555D01*
X3757541Y-25585551D01*
X3664449Y-25492459D01*
X3664444Y-25492455D01*
X3664441Y-25492452D01*
X3589232Y-25434741D01*
X3581069Y-25422864D01*
X3569407Y-25414391D01*
X3564171Y-25398277D01*
X3554577Y-25384317D01*
X3550500Y-25356200D01*
X3550500Y-25252515D01*
X3567185Y-25197513D01*
X3568415Y-25195672D01*
X3648013Y-25076547D01*
X3715894Y-24912666D01*
X3750500Y-24738691D01*
X3750500Y-24561309D01*
X3715894Y-24387334D01*
X3664608Y-24263518D01*
X3648014Y-24223455D01*
X3648014Y-24223454D01*
X3549464Y-24075965D01*
X3424034Y-23950535D01*
X3276544Y-23851985D01*
X3112666Y-23784106D01*
X3022134Y-23766098D01*
X2968750Y-23736201D01*
X2943134Y-23680636D01*
X2955071Y-23620626D01*
X3000001Y-23579094D01*
X3041448Y-23570000D01*
X3106250Y-23570000D01*
X3316121Y-23536759D01*
X3518215Y-23471095D01*
X3707556Y-23374620D01*
X3761716Y-23335270D01*
X3129408Y-22702962D01*
X3192993Y-22685925D01*
X3307007Y-22620099D01*
X3400099Y-22527007D01*
X3465925Y-22412993D01*
X3482962Y-22349408D01*
X4115270Y-22981716D01*
X4154620Y-22927556D01*
X4251095Y-22738215D01*
X4316759Y-22536121D01*
X4350000Y-22326250D01*
X4350000Y-22113749D01*
X4316759Y-21903878D01*
X4251095Y-21701784D01*
X4154623Y-21512446D01*
X4154619Y-21512440D01*
X4115270Y-21458282D01*
X4115269Y-21458282D01*
X3482962Y-22090589D01*
X3465925Y-22027007D01*
X3400099Y-21912993D01*
X3307007Y-21819901D01*
X3192993Y-21754075D01*
X3129407Y-21737037D01*
X3761716Y-21104729D01*
X3761716Y-21104728D01*
X3707559Y-21065380D01*
X3707543Y-21065370D01*
X3654786Y-21038489D01*
X3611521Y-20995225D01*
X3601950Y-20934793D01*
X3629728Y-20880276D01*
X3654784Y-20862071D01*
X3707816Y-20835051D01*
X3879792Y-20710104D01*
X4030104Y-20559792D01*
X4155051Y-20387816D01*
X4251557Y-20198412D01*
X4317246Y-19996243D01*
X4330763Y-19910897D01*
X4358540Y-19856380D01*
X4358540Y-19856379D01*
X5585424Y-18629496D01*
X5639941Y-18601719D01*
X5655428Y-18600500D01*
X17347541Y-18600500D01*
X17347542Y-18600500D01*
X17540836Y-18562051D01*
X17722915Y-18486632D01*
X17886783Y-18377139D01*
X18026140Y-18237782D01*
X18135633Y-18073914D01*
X18211052Y-17891835D01*
X18246517Y-17713542D01*
X18276413Y-17660160D01*
X18331978Y-17634544D01*
X18391987Y-17646481D01*
G37*
%TD.AperFunction*%
%TA.AperFunction,Conductor*%
G36*
X20751737Y-31016684D02*
G01*
X20873453Y-31098013D01*
X20873454Y-31098013D01*
X20873455Y-31098014D01*
X21019569Y-31158536D01*
X21066095Y-31198272D01*
X21080379Y-31257767D01*
X21056964Y-31314295D01*
X21019569Y-31341464D01*
X20873455Y-31401985D01*
X20873454Y-31401985D01*
X20751738Y-31483315D01*
X20696736Y-31500000D01*
X19849000Y-31500000D01*
X19790809Y-31481093D01*
X19754845Y-31431593D01*
X19750000Y-31401000D01*
X19750000Y-31099000D01*
X19768907Y-31040809D01*
X19818407Y-31004845D01*
X19849000Y-31000000D01*
X20696736Y-31000000D01*
X20751737Y-31016684D01*
G37*
%TD.AperFunction*%
%TA.AperFunction,Conductor*%
G36*
X46097381Y-10159407D02*
G01*
X46119282Y-10181308D01*
X46219896Y-10319792D01*
X46370208Y-10470104D01*
X46370211Y-10470106D01*
X46370213Y-10470108D01*
X46542180Y-10595049D01*
X46542184Y-10595051D01*
X46594662Y-10621790D01*
X46637927Y-10665055D01*
X46647498Y-10725487D01*
X46619720Y-10780004D01*
X46594662Y-10798210D01*
X46542184Y-10824948D01*
X46542180Y-10824950D01*
X46370213Y-10949891D01*
X46219891Y-11100213D01*
X46094950Y-11272180D01*
X46094948Y-11272184D01*
X45998443Y-11461587D01*
X45932752Y-11663761D01*
X45899500Y-11873709D01*
X45899500Y-12086290D01*
X45932752Y-12296238D01*
X45998443Y-12498412D01*
X46094948Y-12687815D01*
X46094950Y-12687819D01*
X46219891Y-12859786D01*
X46219893Y-12859788D01*
X46219896Y-12859792D01*
X46370208Y-13010104D01*
X46370211Y-13010106D01*
X46370213Y-13010108D01*
X46542180Y-13135049D01*
X46542189Y-13135054D01*
X46595212Y-13162070D01*
X46638477Y-13205334D01*
X46648049Y-13265766D01*
X46620272Y-13320283D01*
X46595214Y-13338489D01*
X46542451Y-13365373D01*
X46542442Y-13365378D01*
X46488282Y-13404728D01*
X47120591Y-14037037D01*
X47057007Y-14054075D01*
X46942993Y-14119901D01*
X46849901Y-14212993D01*
X46784075Y-14327007D01*
X46767037Y-14390591D01*
X46134728Y-13758282D01*
X46095378Y-13812442D01*
X46095376Y-13812446D01*
X45998904Y-14001784D01*
X45933240Y-14203878D01*
X45900000Y-14413749D01*
X45900000Y-14626250D01*
X45933240Y-14836121D01*
X45998904Y-15038215D01*
X46095376Y-15227553D01*
X46095380Y-15227559D01*
X46134728Y-15281716D01*
X46134729Y-15281716D01*
X46767037Y-14649407D01*
X46784075Y-14712993D01*
X46849901Y-14827007D01*
X46942993Y-14920099D01*
X47057007Y-14985925D01*
X47120589Y-15002962D01*
X46474632Y-15648918D01*
X46471437Y-15662228D01*
X46424911Y-15701964D01*
X46387029Y-15709500D01*
X46352132Y-15709500D01*
X46352129Y-15709500D01*
X46352128Y-15709501D01*
X46344949Y-15710272D01*
X46292519Y-15715908D01*
X46292514Y-15715909D01*
X46157670Y-15766202D01*
X46042458Y-15852450D01*
X46042450Y-15852458D01*
X45956202Y-15967670D01*
X45905910Y-16102511D01*
X45905908Y-16102522D01*
X45899500Y-16162129D01*
X45899500Y-16169835D01*
X45880593Y-16228026D01*
X45831093Y-16263990D01*
X45769907Y-16263990D01*
X45730496Y-16239839D01*
X45479496Y-15988839D01*
X45451719Y-15934322D01*
X45450500Y-15918835D01*
X45450500Y-10681008D01*
X45450499Y-10681004D01*
X45449355Y-10675251D01*
X45423580Y-10545672D01*
X45395333Y-10477477D01*
X45370776Y-10418191D01*
X45351642Y-10389555D01*
X45314832Y-10334464D01*
X45294114Y-10303457D01*
X45292225Y-10301568D01*
X45288094Y-10295554D01*
X45280551Y-10270065D01*
X45270869Y-10245326D01*
X45271975Y-10241086D01*
X45270732Y-10236884D01*
X45279609Y-10211834D01*
X45286319Y-10186124D01*
X45289705Y-10183344D01*
X45291170Y-10179213D01*
X45313075Y-10164165D01*
X45333616Y-10147309D01*
X45339130Y-10146268D01*
X45341603Y-10144570D01*
X45347327Y-10144721D01*
X45369697Y-10140500D01*
X46039190Y-10140500D01*
X46097381Y-10159407D01*
G37*
%TD.AperFunction*%
%TA.AperFunction,Conductor*%
G36*
X14188448Y-10139407D02*
G01*
X14200261Y-10149496D01*
X18624878Y-14574113D01*
X18652655Y-14628630D01*
X18643084Y-14689062D01*
X18599819Y-14732327D01*
X18539387Y-14741898D01*
X18529251Y-14739744D01*
X18429416Y-14712993D01*
X18379057Y-14699499D01*
X18220943Y-14699499D01*
X18214880Y-14699499D01*
X18214864Y-14699500D01*
X5789743Y-14699500D01*
X5731552Y-14680593D01*
X5719739Y-14670504D01*
X4072606Y-13023371D01*
X4044829Y-12968854D01*
X4054400Y-12908422D01*
X4062511Y-12895186D01*
X4155051Y-12767816D01*
X4251557Y-12578412D01*
X4317246Y-12376243D01*
X4350500Y-12166287D01*
X4350500Y-11953713D01*
X4350500Y-11953709D01*
X4317247Y-11743761D01*
X4306923Y-11711986D01*
X4251557Y-11541588D01*
X4155051Y-11352184D01*
X4155049Y-11352180D01*
X4030108Y-11180213D01*
X4030106Y-11180211D01*
X4030104Y-11180208D01*
X3883938Y-11034042D01*
X3856163Y-10979528D01*
X3865734Y-10919096D01*
X3908999Y-10875831D01*
X3943364Y-10865608D01*
X3957483Y-10864091D01*
X4062426Y-10824950D01*
X4092329Y-10813797D01*
X4092329Y-10813796D01*
X4092331Y-10813796D01*
X4207546Y-10727546D01*
X4293796Y-10612331D01*
X4344091Y-10477483D01*
X4350500Y-10417873D01*
X4350500Y-10219500D01*
X4369407Y-10161309D01*
X4418907Y-10125345D01*
X4449500Y-10120500D01*
X14130257Y-10120500D01*
X14188448Y-10139407D01*
G37*
%TD.AperFunction*%
%TA.AperFunction,Conductor*%
G36*
X20028811Y-10342664D02*
G01*
X20051706Y-10346291D01*
X20057353Y-10351938D01*
X20064951Y-10354407D01*
X20094967Y-10389552D01*
X20161931Y-10520977D01*
X20165627Y-10528230D01*
X20165628Y-10528231D01*
X20284684Y-10675251D01*
X20284758Y-10675342D01*
X20284763Y-10675346D01*
X20431868Y-10794471D01*
X20431877Y-10794477D01*
X20475670Y-10816791D01*
X20518935Y-10860055D01*
X20528506Y-10920487D01*
X20500728Y-10975004D01*
X20475670Y-10993209D01*
X20431877Y-11015522D01*
X20431868Y-11015528D01*
X20284763Y-11134653D01*
X20284753Y-11134663D01*
X20165628Y-11281768D01*
X20165627Y-11281770D01*
X20079683Y-11450445D01*
X20030687Y-11633301D01*
X20024500Y-11711931D01*
X20024500Y-12638068D01*
X20030687Y-12716698D01*
X20079665Y-12899488D01*
X20079684Y-12899556D01*
X20165588Y-13068154D01*
X20165627Y-13068229D01*
X20165628Y-13068231D01*
X20284521Y-13215049D01*
X20284758Y-13215342D01*
X20284763Y-13215346D01*
X20431868Y-13334471D01*
X20431877Y-13334477D01*
X20475670Y-13356791D01*
X20518935Y-13400055D01*
X20528506Y-13460487D01*
X20500728Y-13515004D01*
X20475670Y-13533209D01*
X20431877Y-13555522D01*
X20431868Y-13555528D01*
X20284763Y-13674653D01*
X20284753Y-13674663D01*
X20165628Y-13821768D01*
X20165627Y-13821770D01*
X20079683Y-13990446D01*
X20079680Y-13990452D01*
X20066103Y-14041124D01*
X20064632Y-14043389D01*
X20064632Y-14046093D01*
X20048091Y-14068858D01*
X20032779Y-14092438D01*
X20030256Y-14093406D01*
X20028668Y-14095593D01*
X20001908Y-14104287D01*
X19975657Y-14114364D01*
X19970477Y-14114500D01*
X19904743Y-14114500D01*
X19846552Y-14095593D01*
X19834739Y-14085504D01*
X16311326Y-10562091D01*
X16283549Y-10507574D01*
X16293120Y-10447142D01*
X16326326Y-10409774D01*
X16412516Y-10352183D01*
X16467516Y-10335500D01*
X20006760Y-10335500D01*
X20028811Y-10342664D01*
G37*
%TD.AperFunction*%
%TA.AperFunction,Conductor*%
G36*
X49458691Y-519407D02*
G01*
X49494655Y-568907D01*
X49499500Y-599500D01*
X49499500Y-79400500D01*
X49480593Y-79458691D01*
X49431093Y-79494655D01*
X49400500Y-79499500D01*
X599500Y-79499500D01*
X541309Y-79480593D01*
X505345Y-79431093D01*
X500500Y-79400500D01*
X500500Y-68922021D01*
X3277500Y-68922021D01*
X3277500Y-69157978D01*
X3308298Y-69391908D01*
X3308298Y-69391913D01*
X3369367Y-69619824D01*
X3369371Y-69619837D01*
X3459663Y-69837824D01*
X3459665Y-69837829D01*
X3577642Y-70042169D01*
X3640220Y-70123724D01*
X4476457Y-69287486D01*
X4501478Y-69347890D01*
X4572612Y-69454351D01*
X4663149Y-69544888D01*
X4769610Y-69616022D01*
X4830010Y-69641041D01*
X3993774Y-70477278D01*
X3993773Y-70477278D01*
X4075330Y-70539857D01*
X4279670Y-70657834D01*
X4279675Y-70657836D01*
X4497662Y-70748128D01*
X4497675Y-70748132D01*
X4725588Y-70809201D01*
X4959521Y-70839999D01*
X4959523Y-70840000D01*
X5195477Y-70840000D01*
X5195478Y-70839999D01*
X5429408Y-70809201D01*
X5429413Y-70809201D01*
X5657324Y-70748132D01*
X5657337Y-70748128D01*
X5875324Y-70657836D01*
X5875329Y-70657834D01*
X6079665Y-70539860D01*
X6161224Y-70477278D01*
X5324987Y-69641041D01*
X5385390Y-69616022D01*
X5491851Y-69544888D01*
X5582388Y-69454351D01*
X5653522Y-69347890D01*
X5678541Y-69287487D01*
X6514778Y-70123724D01*
X6577360Y-70042165D01*
X6695334Y-69837829D01*
X6695336Y-69837824D01*
X6785628Y-69619837D01*
X6785632Y-69619824D01*
X6846701Y-69391913D01*
X6846701Y-69391908D01*
X6877499Y-69157978D01*
X6877500Y-69157977D01*
X6877500Y-68922023D01*
X6877499Y-68922021D01*
X6846701Y-68688091D01*
X6846701Y-68688086D01*
X6822522Y-68597850D01*
X6785632Y-68460174D01*
X6785628Y-68460162D01*
X6695336Y-68242175D01*
X6695334Y-68242170D01*
X6577357Y-68037830D01*
X6514778Y-67956274D01*
X5678541Y-68792510D01*
X5653522Y-68732110D01*
X5582388Y-68625649D01*
X5491851Y-68535112D01*
X5385390Y-68463978D01*
X5324986Y-68438957D01*
X6161224Y-67602720D01*
X6161225Y-67602720D01*
X6079669Y-67540142D01*
X5920831Y-67448435D01*
X5920828Y-67448435D01*
X5875320Y-67422161D01*
X5741143Y-67366584D01*
X22872500Y-67366584D01*
X22872500Y-67583415D01*
X22906416Y-67797560D01*
X22973420Y-68003777D01*
X23071855Y-68196967D01*
X23071857Y-68196971D01*
X23115039Y-68256405D01*
X23697634Y-67673809D01*
X23704867Y-67700802D01*
X23781883Y-67834198D01*
X23890802Y-67943117D01*
X24024198Y-68020133D01*
X24051187Y-68027364D01*
X23468593Y-68609958D01*
X23468593Y-68609959D01*
X23528026Y-68653140D01*
X23528032Y-68653144D01*
X23721222Y-68751579D01*
X23927439Y-68818583D01*
X24141585Y-68852500D01*
X24358415Y-68852500D01*
X24572560Y-68818583D01*
X24778777Y-68751579D01*
X24971967Y-68653144D01*
X24971972Y-68653140D01*
X25031405Y-68609959D01*
X24448811Y-68027365D01*
X24475802Y-68020133D01*
X24609198Y-67943117D01*
X24718117Y-67834198D01*
X24795133Y-67700802D01*
X24802365Y-67673811D01*
X25384959Y-68256405D01*
X25428140Y-68196972D01*
X25428144Y-68196967D01*
X25526579Y-68003777D01*
X25593583Y-67797560D01*
X25627500Y-67583415D01*
X25627500Y-67366584D01*
X25593583Y-67152439D01*
X25526579Y-66946222D01*
X25428144Y-66753032D01*
X25428140Y-66753026D01*
X25384959Y-66693593D01*
X25384958Y-66693593D01*
X24802364Y-67276187D01*
X24795133Y-67249198D01*
X24718117Y-67115802D01*
X24609198Y-67006883D01*
X24475802Y-66929867D01*
X24448809Y-66922634D01*
X25031405Y-66340039D01*
X24971971Y-66296857D01*
X24971967Y-66296855D01*
X24778777Y-66198420D01*
X24572560Y-66131416D01*
X24358415Y-66097500D01*
X24141585Y-66097500D01*
X23927439Y-66131416D01*
X23721222Y-66198420D01*
X23528038Y-66296852D01*
X23468594Y-66340040D01*
X24051188Y-66922634D01*
X24024198Y-66929867D01*
X23890802Y-67006883D01*
X23781883Y-67115802D01*
X23704867Y-67249198D01*
X23697634Y-67276188D01*
X23115040Y-66693594D01*
X23071852Y-66753038D01*
X22973420Y-66946222D01*
X22906416Y-67152439D01*
X22872500Y-67366584D01*
X5741143Y-67366584D01*
X5657337Y-67331871D01*
X5657324Y-67331867D01*
X5429411Y-67270798D01*
X5195478Y-67240000D01*
X4959521Y-67240000D01*
X4725591Y-67270798D01*
X4725586Y-67270798D01*
X4497675Y-67331867D01*
X4497662Y-67331871D01*
X4279675Y-67422163D01*
X4279670Y-67422165D01*
X4075331Y-67540141D01*
X3993774Y-67602720D01*
X4830012Y-68438958D01*
X4769610Y-68463978D01*
X4663149Y-68535112D01*
X4572612Y-68625649D01*
X4501478Y-68732110D01*
X4476458Y-68792512D01*
X3640220Y-67956274D01*
X3577641Y-68037831D01*
X3459665Y-68242170D01*
X3459663Y-68242175D01*
X3369371Y-68460162D01*
X3369367Y-68460175D01*
X3308298Y-68688086D01*
X3308298Y-68688091D01*
X3277500Y-68922021D01*
X500500Y-68922021D01*
X500500Y-63841987D01*
X3277000Y-63841987D01*
X3277000Y-64078012D01*
X3307806Y-64312006D01*
X3307806Y-64312011D01*
X3368893Y-64539992D01*
X3459213Y-64758044D01*
X3577229Y-64962453D01*
X3720902Y-65149692D01*
X3720904Y-65149694D01*
X3720908Y-65149699D01*
X3887801Y-65316592D01*
X3887805Y-65316595D01*
X3887807Y-65316597D01*
X4075046Y-65460270D01*
X4075050Y-65460273D01*
X4279451Y-65578284D01*
X4279452Y-65578284D01*
X4279455Y-65578286D01*
X4497507Y-65668606D01*
X4725486Y-65729693D01*
X4959489Y-65760500D01*
X4959490Y-65760500D01*
X5195510Y-65760500D01*
X5195511Y-65760500D01*
X5429514Y-65729693D01*
X5657493Y-65668606D01*
X5875549Y-65578284D01*
X6079950Y-65460273D01*
X6267199Y-65316592D01*
X6434092Y-65149699D01*
X6577773Y-64962450D01*
X6695784Y-64758049D01*
X6786106Y-64539993D01*
X6847193Y-64312014D01*
X6878000Y-64078011D01*
X6878000Y-63841989D01*
X6847193Y-63607986D01*
X6786106Y-63380007D01*
X6695784Y-63161951D01*
X6577773Y-62957550D01*
X6434092Y-62770301D01*
X6267199Y-62603408D01*
X6267194Y-62603404D01*
X6267192Y-62603402D01*
X6079953Y-62459729D01*
X5875544Y-62341713D01*
X5657492Y-62251393D01*
X5501777Y-62209670D01*
X5429514Y-62190307D01*
X5429511Y-62190306D01*
X5429509Y-62190306D01*
X5195512Y-62159500D01*
X5195511Y-62159500D01*
X4959489Y-62159500D01*
X4959487Y-62159500D01*
X4725493Y-62190306D01*
X4725488Y-62190306D01*
X4497507Y-62251393D01*
X4279455Y-62341713D01*
X4075046Y-62459729D01*
X3887807Y-62603402D01*
X3720902Y-62770307D01*
X3577229Y-62957546D01*
X3459213Y-63161955D01*
X3368893Y-63380007D01*
X3307806Y-63607988D01*
X3307806Y-63607993D01*
X3277000Y-63841987D01*
X500500Y-63841987D01*
X500500Y-58762021D01*
X3277500Y-58762021D01*
X3277500Y-58997978D01*
X3308298Y-59231908D01*
X3308298Y-59231913D01*
X3369367Y-59459824D01*
X3369371Y-59459837D01*
X3459663Y-59677824D01*
X3459665Y-59677829D01*
X3577642Y-59882169D01*
X3640220Y-59963724D01*
X4476457Y-59127486D01*
X4501478Y-59187890D01*
X4572612Y-59294351D01*
X4663149Y-59384888D01*
X4769610Y-59456022D01*
X4830010Y-59481041D01*
X3993774Y-60317278D01*
X3993773Y-60317278D01*
X4075330Y-60379857D01*
X4279670Y-60497834D01*
X4279675Y-60497836D01*
X4497662Y-60588128D01*
X4497675Y-60588132D01*
X4725588Y-60649201D01*
X4959521Y-60679999D01*
X4959523Y-60680000D01*
X5195477Y-60680000D01*
X5195478Y-60679999D01*
X5429408Y-60649201D01*
X5429413Y-60649201D01*
X5657324Y-60588132D01*
X5657337Y-60588128D01*
X5875324Y-60497836D01*
X5875329Y-60497834D01*
X6079665Y-60379860D01*
X6161224Y-60317278D01*
X5324987Y-59481041D01*
X5385390Y-59456022D01*
X5491851Y-59384888D01*
X5582388Y-59294351D01*
X5653522Y-59187890D01*
X5678541Y-59127487D01*
X6514778Y-59963724D01*
X6577360Y-59882165D01*
X6695334Y-59677829D01*
X6695336Y-59677824D01*
X6785628Y-59459837D01*
X6785632Y-59459824D01*
X6846701Y-59231913D01*
X6846701Y-59231908D01*
X6877499Y-58997978D01*
X6877500Y-58997977D01*
X6877500Y-58762023D01*
X6877499Y-58762021D01*
X6846701Y-58528091D01*
X6846701Y-58528086D01*
X6785632Y-58300175D01*
X6785628Y-58300162D01*
X6695336Y-58082175D01*
X6695334Y-58082170D01*
X6577357Y-57877830D01*
X6514778Y-57796274D01*
X5678541Y-58632510D01*
X5653522Y-58572110D01*
X5582388Y-58465649D01*
X5491851Y-58375112D01*
X5385390Y-58303978D01*
X5324986Y-58278957D01*
X6161224Y-57442720D01*
X6161225Y-57442720D01*
X6079669Y-57380142D01*
X5875329Y-57262165D01*
X5875324Y-57262163D01*
X5657337Y-57171871D01*
X5657324Y-57171867D01*
X5429411Y-57110798D01*
X5195478Y-57080000D01*
X4959521Y-57080000D01*
X4725591Y-57110798D01*
X4725586Y-57110798D01*
X4497675Y-57171867D01*
X4497662Y-57171871D01*
X4279675Y-57262163D01*
X4279670Y-57262165D01*
X4075331Y-57380141D01*
X3993774Y-57442720D01*
X4830012Y-58278958D01*
X4769610Y-58303978D01*
X4663149Y-58375112D01*
X4572612Y-58465649D01*
X4501478Y-58572110D01*
X4476458Y-58632512D01*
X3640220Y-57796274D01*
X3577641Y-57877831D01*
X3459665Y-58082170D01*
X3459663Y-58082175D01*
X3369371Y-58300162D01*
X3369367Y-58300175D01*
X3308298Y-58528086D01*
X3308298Y-58528091D01*
X3277500Y-58762021D01*
X500500Y-58762021D01*
X500500Y-52699983D01*
X3277000Y-52699983D01*
X3277000Y-54900016D01*
X3287499Y-55002788D01*
X3287502Y-55002800D01*
X3342687Y-55169336D01*
X3434785Y-55318652D01*
X3434786Y-55318653D01*
X3434788Y-55318656D01*
X3558844Y-55442712D01*
X3708166Y-55534814D01*
X3874703Y-55589999D01*
X3977491Y-55600500D01*
X6177508Y-55600499D01*
X6177516Y-55600499D01*
X6280288Y-55590000D01*
X6280288Y-55589999D01*
X6280297Y-55589999D01*
X6446834Y-55534814D01*
X6596156Y-55442712D01*
X6720212Y-55318656D01*
X6812314Y-55169334D01*
X6867499Y-55002797D01*
X6878000Y-54900009D01*
X6877999Y-52699992D01*
X6877999Y-52699991D01*
X6877999Y-52699983D01*
X6876421Y-52684537D01*
X6875664Y-52677129D01*
X24084500Y-52677129D01*
X24084500Y-54072866D01*
X24084501Y-54072870D01*
X24090908Y-54132480D01*
X24090909Y-54132485D01*
X24141202Y-54267329D01*
X24150700Y-54280016D01*
X24227454Y-54382546D01*
X24227457Y-54382548D01*
X24227458Y-54382549D01*
X24342670Y-54468797D01*
X24477511Y-54519089D01*
X24477512Y-54519089D01*
X24477517Y-54519091D01*
X24537127Y-54525500D01*
X26532872Y-54525499D01*
X26592483Y-54519091D01*
X26659907Y-54493943D01*
X26727329Y-54468797D01*
X26727329Y-54468796D01*
X26727331Y-54468796D01*
X26842546Y-54382546D01*
X26928796Y-54267331D01*
X26979091Y-54132483D01*
X26985500Y-54072873D01*
X26985499Y-52677129D01*
X27284500Y-52677129D01*
X27284500Y-54072866D01*
X27284501Y-54072870D01*
X27290908Y-54132480D01*
X27290909Y-54132485D01*
X27341202Y-54267329D01*
X27350700Y-54280016D01*
X27427454Y-54382546D01*
X27427457Y-54382548D01*
X27427458Y-54382549D01*
X27542670Y-54468797D01*
X27677511Y-54519089D01*
X27677512Y-54519089D01*
X27677517Y-54519091D01*
X27737127Y-54525500D01*
X29732872Y-54525499D01*
X29792483Y-54519091D01*
X29859907Y-54493943D01*
X29927329Y-54468797D01*
X29927329Y-54468796D01*
X29927331Y-54468796D01*
X30042546Y-54382546D01*
X30128796Y-54267331D01*
X30179091Y-54132483D01*
X30185500Y-54072873D01*
X30185499Y-52677128D01*
X30179091Y-52617517D01*
X30179089Y-52617511D01*
X30128797Y-52482670D01*
X30042549Y-52367458D01*
X30042548Y-52367457D01*
X30042546Y-52367454D01*
X29987124Y-52325965D01*
X29927329Y-52281202D01*
X29792488Y-52230910D01*
X29792483Y-52230909D01*
X29792481Y-52230908D01*
X29792477Y-52230908D01*
X29761249Y-52227550D01*
X29732873Y-52224500D01*
X29732870Y-52224500D01*
X27737133Y-52224500D01*
X27737129Y-52224500D01*
X27737128Y-52224501D01*
X27729949Y-52225272D01*
X27677519Y-52230908D01*
X27677514Y-52230909D01*
X27542670Y-52281202D01*
X27427458Y-52367450D01*
X27427450Y-52367458D01*
X27341202Y-52482670D01*
X27290910Y-52617511D01*
X27290908Y-52617522D01*
X27284500Y-52677129D01*
X26985499Y-52677129D01*
X26985499Y-52677128D01*
X26979091Y-52617517D01*
X26979089Y-52617511D01*
X26928797Y-52482670D01*
X26842549Y-52367458D01*
X26842548Y-52367457D01*
X26842546Y-52367454D01*
X26787124Y-52325965D01*
X26727329Y-52281202D01*
X26592488Y-52230910D01*
X26592483Y-52230909D01*
X26592481Y-52230908D01*
X26592477Y-52230908D01*
X26561249Y-52227550D01*
X26532873Y-52224500D01*
X26532870Y-52224500D01*
X24537133Y-52224500D01*
X24537129Y-52224500D01*
X24537128Y-52224501D01*
X24529949Y-52225272D01*
X24477519Y-52230908D01*
X24477514Y-52230909D01*
X24342670Y-52281202D01*
X24227458Y-52367450D01*
X24227450Y-52367458D01*
X24141202Y-52482670D01*
X24090910Y-52617511D01*
X24090908Y-52617522D01*
X24084500Y-52677129D01*
X6875664Y-52677129D01*
X6867500Y-52597211D01*
X6867499Y-52597209D01*
X6867499Y-52597203D01*
X6812314Y-52430666D01*
X6720212Y-52281344D01*
X6596156Y-52157288D01*
X6596153Y-52157286D01*
X6596152Y-52157285D01*
X6446836Y-52065187D01*
X6446835Y-52065186D01*
X6446834Y-52065186D01*
X6280297Y-52010001D01*
X6280294Y-52010000D01*
X6177516Y-51999500D01*
X3977483Y-51999500D01*
X3874711Y-52009999D01*
X3874699Y-52010002D01*
X3708163Y-52065187D01*
X3558847Y-52157285D01*
X3434785Y-52281347D01*
X3342687Y-52430663D01*
X3287500Y-52597205D01*
X3277000Y-52699983D01*
X500500Y-52699983D01*
X500500Y-30131006D01*
X1399500Y-30131006D01*
X1399500Y-45811496D01*
X1426420Y-45946827D01*
X1426420Y-45946829D01*
X1479223Y-46074308D01*
X1479224Y-46074310D01*
X1479225Y-46074311D01*
X1555886Y-46189043D01*
X2464673Y-47097830D01*
X3362525Y-47995682D01*
X3390302Y-48050199D01*
X3383986Y-48103569D01*
X3368896Y-48140002D01*
X3368892Y-48140014D01*
X3307806Y-48367988D01*
X3307806Y-48367993D01*
X3277000Y-48601987D01*
X3277000Y-48838012D01*
X3307806Y-49072006D01*
X3307806Y-49072011D01*
X3368893Y-49299992D01*
X3459213Y-49518044D01*
X3577229Y-49722453D01*
X3720902Y-49909692D01*
X3720904Y-49909694D01*
X3720908Y-49909699D01*
X3887801Y-50076592D01*
X3887805Y-50076595D01*
X3887807Y-50076597D01*
X4075046Y-50220270D01*
X4075050Y-50220273D01*
X4279451Y-50338284D01*
X4279452Y-50338284D01*
X4279455Y-50338286D01*
X4497507Y-50428606D01*
X4725486Y-50489693D01*
X4959489Y-50520500D01*
X4959490Y-50520500D01*
X5195510Y-50520500D01*
X5195511Y-50520500D01*
X5429514Y-50489693D01*
X5657493Y-50428606D01*
X5875549Y-50338284D01*
X6079950Y-50220273D01*
X6267199Y-50076592D01*
X6434092Y-49909699D01*
X6460717Y-49875001D01*
X21660001Y-49875001D01*
X21660001Y-49974154D01*
X21670317Y-50075142D01*
X21670320Y-50075154D01*
X21724548Y-50238806D01*
X21815053Y-50385535D01*
X21936964Y-50507446D01*
X22083693Y-50597951D01*
X22247351Y-50652181D01*
X22348344Y-50662499D01*
X22384999Y-50662499D01*
X22385000Y-50662498D01*
X22385000Y-49875001D01*
X22885000Y-49875001D01*
X22885000Y-50662498D01*
X22885001Y-50662499D01*
X22921654Y-50662499D01*
X23022642Y-50652182D01*
X23022654Y-50652179D01*
X23186306Y-50597951D01*
X23333035Y-50507446D01*
X23454946Y-50385535D01*
X23545451Y-50238806D01*
X23599681Y-50075148D01*
X23610000Y-49974155D01*
X23610000Y-49875001D01*
X30660001Y-49875001D01*
X30660001Y-49974154D01*
X30670317Y-50075142D01*
X30670320Y-50075154D01*
X30724548Y-50238806D01*
X30815053Y-50385535D01*
X30936964Y-50507446D01*
X31083693Y-50597951D01*
X31247351Y-50652181D01*
X31348344Y-50662499D01*
X31384999Y-50662499D01*
X31385000Y-50662498D01*
X31385000Y-49875001D01*
X31885000Y-49875001D01*
X31885000Y-50662498D01*
X31885001Y-50662499D01*
X31921654Y-50662499D01*
X32022642Y-50652182D01*
X32022654Y-50652179D01*
X32186306Y-50597951D01*
X32333035Y-50507446D01*
X32454946Y-50385535D01*
X32545451Y-50238806D01*
X32599681Y-50075148D01*
X32610000Y-49974155D01*
X32610000Y-49875001D01*
X32609999Y-49875000D01*
X31885001Y-49875000D01*
X31885000Y-49875001D01*
X31385000Y-49875001D01*
X31384999Y-49875000D01*
X30660002Y-49875000D01*
X30660001Y-49875001D01*
X23610000Y-49875001D01*
X23609999Y-49875000D01*
X22885001Y-49875000D01*
X22885000Y-49875001D01*
X22385000Y-49875001D01*
X22384999Y-49875000D01*
X21660002Y-49875000D01*
X21660001Y-49875001D01*
X6460717Y-49875001D01*
X6577773Y-49722450D01*
X6695784Y-49518049D01*
X6786106Y-49299993D01*
X6847193Y-49072014D01*
X6878000Y-48838011D01*
X6878000Y-48601989D01*
X6847193Y-48367986D01*
X6786106Y-48140007D01*
X6748906Y-48050199D01*
X6695786Y-47921955D01*
X6620820Y-47792110D01*
X6577773Y-47717550D01*
X6449833Y-47550815D01*
X21659500Y-47550815D01*
X21659500Y-48249184D01*
X21669824Y-48350244D01*
X21669827Y-48350256D01*
X21724091Y-48514014D01*
X21724094Y-48514020D01*
X21814657Y-48660846D01*
X21814658Y-48660847D01*
X21814660Y-48660850D01*
X21846661Y-48692851D01*
X21874437Y-48747366D01*
X21864866Y-48807798D01*
X21846661Y-48832856D01*
X21815053Y-48864464D01*
X21724548Y-49011193D01*
X21670318Y-49174851D01*
X21660000Y-49275844D01*
X21660000Y-49374999D01*
X21660001Y-49375000D01*
X23609998Y-49375000D01*
X23609999Y-49374999D01*
X23609999Y-49275845D01*
X23599682Y-49174857D01*
X23599679Y-49174845D01*
X23545451Y-49011193D01*
X23454946Y-48864464D01*
X23423339Y-48832857D01*
X23418790Y-48823930D01*
X23410934Y-48817715D01*
X23405203Y-48797262D01*
X23395562Y-48778340D01*
X23397129Y-48768445D01*
X23394426Y-48758799D01*
X23401049Y-48743691D01*
X23405133Y-48717908D01*
X23415701Y-48701431D01*
X23419268Y-48696921D01*
X23455340Y-48660850D01*
X23482009Y-48617611D01*
X23485596Y-48613078D01*
X23506487Y-48599170D01*
X23525618Y-48582927D01*
X23533107Y-48581448D01*
X23536527Y-48579172D01*
X23543244Y-48579447D01*
X23563238Y-48575500D01*
X24000918Y-48575500D01*
X24059109Y-48594407D01*
X24093676Y-48639903D01*
X24141203Y-48767330D01*
X24180874Y-48820324D01*
X24227454Y-48882546D01*
X24227457Y-48882548D01*
X24227458Y-48882549D01*
X24342670Y-48968797D01*
X24477511Y-49019089D01*
X24477512Y-49019089D01*
X24477517Y-49019091D01*
X24537127Y-49025500D01*
X26532872Y-49025499D01*
X26592483Y-49019091D01*
X26659907Y-48993943D01*
X26727329Y-48968797D01*
X26727329Y-48968796D01*
X26727331Y-48968796D01*
X26842546Y-48882546D01*
X26928796Y-48767331D01*
X26934056Y-48753230D01*
X26968511Y-48660850D01*
X26979091Y-48632483D01*
X26985500Y-48572873D01*
X26985499Y-47177128D01*
X26979091Y-47117517D01*
X26973198Y-47101716D01*
X26928797Y-46982670D01*
X26886816Y-46926591D01*
X26842861Y-46867875D01*
X26823125Y-46809963D01*
X26841199Y-46751508D01*
X26852104Y-46738551D01*
X27245710Y-46344945D01*
X27300224Y-46317171D01*
X27360656Y-46326742D01*
X27398027Y-46359951D01*
X27455885Y-46446542D01*
X27614281Y-46604939D01*
X27642058Y-46659455D01*
X27632487Y-46719887D01*
X27589222Y-46763152D01*
X27578874Y-46767700D01*
X27542669Y-46781203D01*
X27427458Y-46867450D01*
X27427450Y-46867458D01*
X27341202Y-46982670D01*
X27290910Y-47117511D01*
X27290908Y-47117522D01*
X27286815Y-47155593D01*
X27284783Y-47174500D01*
X27284500Y-47177129D01*
X27284500Y-48572866D01*
X27284500Y-48572869D01*
X27284501Y-48572872D01*
X27285423Y-48581448D01*
X27290908Y-48632480D01*
X27290909Y-48632485D01*
X27341202Y-48767329D01*
X27413918Y-48864464D01*
X27427454Y-48882546D01*
X27427457Y-48882548D01*
X27427458Y-48882549D01*
X27542670Y-48968797D01*
X27677511Y-49019089D01*
X27677512Y-49019089D01*
X27677517Y-49019091D01*
X27737127Y-49025500D01*
X29732872Y-49025499D01*
X29792483Y-49019091D01*
X29859907Y-48993943D01*
X29927329Y-48968797D01*
X29927329Y-48968796D01*
X29927331Y-48968796D01*
X30042546Y-48882546D01*
X30128796Y-48767331D01*
X30134056Y-48753230D01*
X30168511Y-48660850D01*
X30176323Y-48639903D01*
X30214373Y-48591989D01*
X30269081Y-48575500D01*
X30706762Y-48575500D01*
X30719789Y-48579732D01*
X30733474Y-48579172D01*
X30745160Y-48587976D01*
X30764953Y-48594407D01*
X30784405Y-48613079D01*
X30787989Y-48617610D01*
X30814660Y-48660850D01*
X30850728Y-48696918D01*
X30854299Y-48701432D01*
X30863032Y-48724983D01*
X30874437Y-48747366D01*
X30873508Y-48753230D01*
X30875573Y-48758799D01*
X30868795Y-48782984D01*
X30864866Y-48807798D01*
X30859944Y-48814571D01*
X30859064Y-48817715D01*
X30855765Y-48820324D01*
X30846661Y-48832856D01*
X30815053Y-48864464D01*
X30724548Y-49011193D01*
X30670318Y-49174851D01*
X30660000Y-49275844D01*
X30660000Y-49374999D01*
X30660001Y-49375000D01*
X32609998Y-49375000D01*
X32609999Y-49374999D01*
X32609999Y-49275845D01*
X32599682Y-49174857D01*
X32599679Y-49174845D01*
X32545451Y-49011193D01*
X32454946Y-48864464D01*
X32423339Y-48832857D01*
X32395562Y-48778340D01*
X32405133Y-48717908D01*
X32423335Y-48692854D01*
X32455340Y-48660850D01*
X32545908Y-48514016D01*
X32600174Y-48350253D01*
X32610500Y-48249177D01*
X32610499Y-47550824D01*
X32610499Y-47550823D01*
X32610499Y-47550815D01*
X32600175Y-47449755D01*
X32600174Y-47449753D01*
X32600174Y-47449747D01*
X32545908Y-47285984D01*
X32478765Y-47177128D01*
X32455342Y-47139153D01*
X32455341Y-47139152D01*
X32455340Y-47139150D01*
X32333350Y-47017160D01*
X32333347Y-47017158D01*
X32333346Y-47017157D01*
X32186520Y-46926594D01*
X32186514Y-46926591D01*
X32022756Y-46872327D01*
X32022746Y-46872324D01*
X31921684Y-46862000D01*
X31348315Y-46862000D01*
X31247255Y-46872324D01*
X31247243Y-46872327D01*
X31083485Y-46926591D01*
X31083479Y-46926594D01*
X30936653Y-47017157D01*
X30936650Y-47017159D01*
X30936650Y-47017160D01*
X30814660Y-47139150D01*
X30814658Y-47139152D01*
X30810583Y-47143228D01*
X30809128Y-47141773D01*
X30765503Y-47170825D01*
X30738779Y-47174500D01*
X30269082Y-47174500D01*
X30210891Y-47155593D01*
X30176324Y-47110097D01*
X30128796Y-46982669D01*
X30065155Y-46897655D01*
X30045418Y-46839740D01*
X30063492Y-46781285D01*
X30089403Y-46756013D01*
X30174035Y-46699464D01*
X30299464Y-46574035D01*
X30398013Y-46426547D01*
X30465894Y-46262666D01*
X30500500Y-46088691D01*
X30500500Y-45911309D01*
X30465894Y-45737334D01*
X30398013Y-45573453D01*
X30309176Y-45440500D01*
X30306684Y-45436770D01*
X30290000Y-45381769D01*
X30290000Y-43849999D01*
X30790000Y-43849999D01*
X30790001Y-43850000D01*
X31339999Y-43850000D01*
X31340000Y-43849999D01*
X31340000Y-43209363D01*
X31337100Y-43172510D01*
X31291280Y-43014799D01*
X31291280Y-43014798D01*
X31207685Y-42873447D01*
X31091552Y-42757314D01*
X30950201Y-42673719D01*
X30950202Y-42673719D01*
X30792491Y-42627900D01*
X30790000Y-42627702D01*
X30790000Y-43849999D01*
X30290000Y-43849999D01*
X30290000Y-42627703D01*
X30289999Y-42627702D01*
X30287508Y-42627900D01*
X30129798Y-42673719D01*
X29988447Y-42757314D01*
X29975355Y-42770406D01*
X29920837Y-42798182D01*
X29860405Y-42788608D01*
X29835352Y-42770406D01*
X29821865Y-42756919D01*
X29680398Y-42673256D01*
X29522569Y-42627402D01*
X29522568Y-42627401D01*
X29522565Y-42627401D01*
X29499140Y-42625558D01*
X29485694Y-42624500D01*
X29054306Y-42624500D01*
X29041773Y-42625486D01*
X29017434Y-42627401D01*
X29017427Y-42627403D01*
X28859602Y-42673256D01*
X28718135Y-42756919D01*
X28705002Y-42770052D01*
X28650484Y-42797828D01*
X28590052Y-42788254D01*
X28564998Y-42770052D01*
X28551865Y-42756919D01*
X28410398Y-42673256D01*
X28252569Y-42627402D01*
X28252568Y-42627401D01*
X28252565Y-42627401D01*
X28229140Y-42625558D01*
X28215694Y-42624500D01*
X27784306Y-42624500D01*
X27771773Y-42625486D01*
X27747434Y-42627401D01*
X27747427Y-42627403D01*
X27589602Y-42673256D01*
X27448135Y-42756919D01*
X27435002Y-42770052D01*
X27380484Y-42797828D01*
X27320052Y-42788254D01*
X27294998Y-42770052D01*
X27281865Y-42756919D01*
X27140398Y-42673256D01*
X26982569Y-42627402D01*
X26982568Y-42627401D01*
X26982565Y-42627401D01*
X26959140Y-42625558D01*
X26945694Y-42624500D01*
X26514306Y-42624500D01*
X26501773Y-42625486D01*
X26477434Y-42627401D01*
X26477427Y-42627403D01*
X26319602Y-42673256D01*
X26178136Y-42756918D01*
X26061918Y-42873136D01*
X25978256Y-43014602D01*
X25932403Y-43172427D01*
X25932401Y-43172434D01*
X25930486Y-43196773D01*
X25929500Y-43209306D01*
X25929500Y-44990694D01*
X25929964Y-44996592D01*
X25932401Y-45027565D01*
X25932401Y-45027568D01*
X25932402Y-45027569D01*
X25953590Y-45100499D01*
X25978256Y-45185397D01*
X25978255Y-45185397D01*
X25978256Y-45185398D01*
X26015713Y-45248735D01*
X26029500Y-45299129D01*
X26029500Y-45538835D01*
X26010593Y-45597026D01*
X26000504Y-45608839D01*
X24990889Y-46618453D01*
X24949428Y-46680503D01*
X24901377Y-46718381D01*
X24867113Y-46724500D01*
X24537133Y-46724500D01*
X24537129Y-46724500D01*
X24537128Y-46724501D01*
X24534170Y-46724819D01*
X24477519Y-46730908D01*
X24477514Y-46730909D01*
X24342670Y-46781202D01*
X24227458Y-46867450D01*
X24227450Y-46867458D01*
X24141202Y-46982670D01*
X24093677Y-47110096D01*
X24055627Y-47158011D01*
X24000919Y-47174500D01*
X23531221Y-47174500D01*
X23473030Y-47155593D01*
X23459776Y-47142868D01*
X23459417Y-47143228D01*
X23455341Y-47139152D01*
X23455340Y-47139150D01*
X23333350Y-47017160D01*
X23333347Y-47017158D01*
X23333346Y-47017157D01*
X23186520Y-46926594D01*
X23186514Y-46926591D01*
X23022756Y-46872327D01*
X23022746Y-46872324D01*
X22921684Y-46862000D01*
X22348315Y-46862000D01*
X22247255Y-46872324D01*
X22247243Y-46872327D01*
X22083485Y-46926591D01*
X22083479Y-46926594D01*
X21936653Y-47017157D01*
X21814657Y-47139153D01*
X21724094Y-47285979D01*
X21724091Y-47285985D01*
X21669827Y-47449743D01*
X21669824Y-47449753D01*
X21659500Y-47550815D01*
X6449833Y-47550815D01*
X6434092Y-47530301D01*
X6267199Y-47363408D01*
X6267194Y-47363404D01*
X6267192Y-47363402D01*
X6079953Y-47219729D01*
X6006164Y-47177127D01*
X5875549Y-47101716D01*
X5875544Y-47101713D01*
X5657492Y-47011393D01*
X5501777Y-46969670D01*
X5429514Y-46950307D01*
X5429511Y-46950306D01*
X5429509Y-46950306D01*
X5195512Y-46919500D01*
X5195511Y-46919500D01*
X4959489Y-46919500D01*
X4959487Y-46919500D01*
X4725493Y-46950306D01*
X4725488Y-46950306D01*
X4521276Y-47005025D01*
X4497507Y-47011394D01*
X4497502Y-47011395D01*
X4497502Y-47011396D01*
X4461069Y-47026486D01*
X4400072Y-47031285D01*
X4353182Y-47005025D01*
X2829496Y-45481339D01*
X2801719Y-45426822D01*
X2800500Y-45411335D01*
X2800500Y-42592665D01*
X2819407Y-42534474D01*
X2868907Y-42498510D01*
X2930093Y-42498510D01*
X2969504Y-42522661D01*
X3362525Y-42915682D01*
X3390302Y-42970199D01*
X3383986Y-43023569D01*
X3368896Y-43060002D01*
X3368892Y-43060014D01*
X3307806Y-43287988D01*
X3307806Y-43287993D01*
X3277000Y-43521987D01*
X3277000Y-43758012D01*
X3307806Y-43992006D01*
X3307806Y-43992011D01*
X3368893Y-44219992D01*
X3459213Y-44438044D01*
X3459216Y-44438049D01*
X3568045Y-44626547D01*
X3577229Y-44642453D01*
X3720902Y-44829692D01*
X3720904Y-44829694D01*
X3720908Y-44829699D01*
X3887801Y-44996592D01*
X3887805Y-44996595D01*
X3887807Y-44996597D01*
X4019977Y-45098014D01*
X4075050Y-45140273D01*
X4279451Y-45258284D01*
X4279452Y-45258284D01*
X4279455Y-45258286D01*
X4378059Y-45299129D01*
X4497507Y-45348606D01*
X4725486Y-45409693D01*
X4959489Y-45440500D01*
X4959490Y-45440500D01*
X5195510Y-45440500D01*
X5195511Y-45440500D01*
X5429514Y-45409693D01*
X5657493Y-45348606D01*
X5875549Y-45258284D01*
X6079950Y-45140273D01*
X6267199Y-44996592D01*
X6434092Y-44829699D01*
X6577773Y-44642450D01*
X6695784Y-44438049D01*
X6786106Y-44219993D01*
X6788434Y-44211306D01*
X17499500Y-44211306D01*
X17499500Y-44388693D01*
X17514215Y-44462667D01*
X17525673Y-44520273D01*
X17534106Y-44562665D01*
X17534106Y-44562667D01*
X17601985Y-44726544D01*
X17601985Y-44726545D01*
X17670911Y-44829699D01*
X17700536Y-44874035D01*
X17825965Y-44999464D01*
X17973453Y-45098013D01*
X17973454Y-45098013D01*
X17973455Y-45098014D01*
X17979457Y-45100500D01*
X18137334Y-45165894D01*
X18311309Y-45200500D01*
X18311310Y-45200500D01*
X18488690Y-45200500D01*
X18488691Y-45200500D01*
X18662666Y-45165894D01*
X18826547Y-45098013D01*
X18970089Y-45002100D01*
X19028975Y-44985492D01*
X19068885Y-44996329D01*
X19068959Y-44996152D01*
X19070341Y-44996724D01*
X19071768Y-44997112D01*
X19073457Y-44998015D01*
X19083322Y-45002101D01*
X19237334Y-45065894D01*
X19411309Y-45100500D01*
X19411310Y-45100500D01*
X19588690Y-45100500D01*
X19588691Y-45100500D01*
X19762666Y-45065894D01*
X19926547Y-44998013D01*
X20074035Y-44899464D01*
X20199464Y-44774035D01*
X20298013Y-44626547D01*
X20365894Y-44462666D01*
X20400500Y-44288691D01*
X20400500Y-44111309D01*
X20365894Y-43937334D01*
X20298014Y-43773455D01*
X20298014Y-43773454D01*
X20199464Y-43625965D01*
X20107439Y-43533940D01*
X20079662Y-43479423D01*
X20089233Y-43418991D01*
X20098902Y-43403667D01*
X20099536Y-43402841D01*
X20160044Y-43256762D01*
X20175500Y-43139361D01*
X20175499Y-41785640D01*
X20160044Y-41668238D01*
X20099537Y-41522161D01*
X20099537Y-41522160D01*
X20003286Y-41396723D01*
X20003285Y-41396722D01*
X20003282Y-41396718D01*
X20003277Y-41396714D01*
X20003276Y-41396713D01*
X19878981Y-41301339D01*
X19877841Y-41300464D01*
X19877840Y-41300463D01*
X19877838Y-41300462D01*
X19731765Y-41239957D01*
X19731763Y-41239956D01*
X19731762Y-41239956D01*
X19731761Y-41239955D01*
X19731758Y-41239955D01*
X19614361Y-41224500D01*
X19335642Y-41224500D01*
X19335637Y-41224501D01*
X19218240Y-41239955D01*
X19187884Y-41252529D01*
X19126887Y-41257328D01*
X19112115Y-41252528D01*
X19081767Y-41239957D01*
X19081758Y-41239955D01*
X18964361Y-41224500D01*
X18685642Y-41224500D01*
X18685637Y-41224501D01*
X18568242Y-41239955D01*
X18568234Y-41239957D01*
X18537228Y-41252800D01*
X18476231Y-41257599D01*
X18461460Y-41252799D01*
X18431632Y-41240444D01*
X18375000Y-41232988D01*
X18375000Y-41287828D01*
X18356093Y-41346019D01*
X18336268Y-41366369D01*
X18296724Y-41396712D01*
X18296713Y-41396723D01*
X18200463Y-41522160D01*
X18165464Y-41606656D01*
X18125727Y-41653181D01*
X18066233Y-41667465D01*
X18009705Y-41644050D01*
X17977735Y-41591881D01*
X17975000Y-41568770D01*
X17975000Y-41232988D01*
X17974999Y-41232988D01*
X17918369Y-41240443D01*
X17887884Y-41253071D01*
X17826887Y-41257870D01*
X17812116Y-41253071D01*
X17781630Y-41240443D01*
X17725000Y-41232988D01*
X17725000Y-43660732D01*
X17706093Y-43718923D01*
X17702536Y-43723527D01*
X17700540Y-43725959D01*
X17601985Y-43873455D01*
X17534106Y-44037332D01*
X17534106Y-44037334D01*
X17499500Y-44211306D01*
X6788434Y-44211306D01*
X6847193Y-43992014D01*
X6878000Y-43758011D01*
X6878000Y-43521989D01*
X6847193Y-43287986D01*
X6786106Y-43060007D01*
X6748906Y-42970199D01*
X6695786Y-42841955D01*
X6695784Y-42841951D01*
X6595349Y-42667993D01*
X6592178Y-42662501D01*
X16825001Y-42662501D01*
X16825001Y-43139324D01*
X16840443Y-43256629D01*
X16840444Y-43256631D01*
X16900899Y-43402585D01*
X16900901Y-43402589D01*
X16997070Y-43527919D01*
X16997080Y-43527929D01*
X17122410Y-43624098D01*
X17122414Y-43624100D01*
X17268364Y-43684554D01*
X17268372Y-43684556D01*
X17324999Y-43692011D01*
X17325000Y-43692010D01*
X17325000Y-42662501D01*
X17324999Y-42662500D01*
X16825002Y-42662500D01*
X16825001Y-42662501D01*
X6592178Y-42662501D01*
X6577774Y-42637552D01*
X6577773Y-42637550D01*
X6434092Y-42450301D01*
X6267199Y-42283408D01*
X6267194Y-42283404D01*
X6267192Y-42283402D01*
X6079953Y-42139729D01*
X5875544Y-42021713D01*
X5657492Y-41931393D01*
X5501777Y-41889670D01*
X5429514Y-41870307D01*
X5429511Y-41870306D01*
X5429509Y-41870306D01*
X5195512Y-41839500D01*
X5195511Y-41839500D01*
X4959489Y-41839500D01*
X4959487Y-41839500D01*
X4725493Y-41870306D01*
X4725488Y-41870306D01*
X4521276Y-41925025D01*
X4497507Y-41931394D01*
X4497502Y-41931395D01*
X4497502Y-41931396D01*
X4461069Y-41946486D01*
X4400072Y-41951285D01*
X4353182Y-41925025D01*
X3729496Y-41301339D01*
X3701719Y-41246822D01*
X3700500Y-41231335D01*
X3700500Y-39968298D01*
X3719407Y-39910107D01*
X3768907Y-39874143D01*
X3830093Y-39874143D01*
X3869501Y-39898292D01*
X3887801Y-39916592D01*
X3887805Y-39916595D01*
X3887807Y-39916597D01*
X4075046Y-40060270D01*
X4075050Y-40060273D01*
X4279451Y-40178284D01*
X4279452Y-40178284D01*
X4279455Y-40178286D01*
X4417336Y-40235398D01*
X4497507Y-40268606D01*
X4725486Y-40329693D01*
X4959489Y-40360500D01*
X4959490Y-40360500D01*
X5195510Y-40360500D01*
X5195511Y-40360500D01*
X5429514Y-40329693D01*
X5657493Y-40268606D01*
X5693927Y-40253513D01*
X5754923Y-40248713D01*
X5801817Y-40274974D01*
X7870957Y-42344114D01*
X7985689Y-42420775D01*
X8113172Y-42473580D01*
X8248506Y-42500500D01*
X8248507Y-42500500D01*
X14368993Y-42500500D01*
X14368994Y-42500500D01*
X14504328Y-42473580D01*
X14631811Y-42420775D01*
X14746543Y-42344114D01*
X15294114Y-41796543D01*
X15301375Y-41785676D01*
X16825000Y-41785676D01*
X16825000Y-42262499D01*
X16825001Y-42262500D01*
X17324999Y-42262500D01*
X17325000Y-42262499D01*
X17325000Y-41232988D01*
X17324999Y-41232988D01*
X17268367Y-41240444D01*
X17122414Y-41300899D01*
X17122410Y-41300901D01*
X16997080Y-41397070D01*
X16997070Y-41397080D01*
X16900901Y-41522410D01*
X16900899Y-41522414D01*
X16840444Y-41668368D01*
X16840443Y-41668369D01*
X16825000Y-41785676D01*
X15301375Y-41785676D01*
X15370775Y-41681811D01*
X15423580Y-41554328D01*
X15423580Y-41554323D01*
X15424388Y-41552375D01*
X15464124Y-41505849D01*
X15484701Y-41496289D01*
X15519334Y-41484814D01*
X15668656Y-41392712D01*
X15792712Y-41268656D01*
X15842769Y-41187501D01*
X20675001Y-41187501D01*
X20675001Y-41324986D01*
X20685492Y-41427687D01*
X20685495Y-41427699D01*
X20740643Y-41594124D01*
X20832680Y-41743340D01*
X20956659Y-41867319D01*
X21105875Y-41959356D01*
X21272306Y-42014506D01*
X21375013Y-42024999D01*
X21649998Y-42024999D01*
X21650000Y-42024998D01*
X21650000Y-41187501D01*
X22150000Y-41187501D01*
X22150000Y-42024998D01*
X22150001Y-42024999D01*
X22424986Y-42024999D01*
X22527687Y-42014507D01*
X22527699Y-42014504D01*
X22694124Y-41959356D01*
X22843340Y-41867319D01*
X22929996Y-41780664D01*
X22984513Y-41752887D01*
X23044945Y-41762458D01*
X23070004Y-41780664D01*
X23156659Y-41867319D01*
X23305875Y-41959356D01*
X23472306Y-42014506D01*
X23575013Y-42024999D01*
X23849998Y-42024999D01*
X23850000Y-42024998D01*
X23850000Y-41187501D01*
X24350000Y-41187501D01*
X24350000Y-42024998D01*
X24350001Y-42024999D01*
X24624986Y-42024999D01*
X24727687Y-42014507D01*
X24727699Y-42014504D01*
X24894124Y-41959356D01*
X25043340Y-41867319D01*
X25167319Y-41743340D01*
X25259356Y-41594124D01*
X25314506Y-41427693D01*
X25325000Y-41324987D01*
X25325000Y-41187501D01*
X25324999Y-41187500D01*
X24350001Y-41187500D01*
X24350000Y-41187501D01*
X23850000Y-41187501D01*
X23849999Y-41187500D01*
X22150001Y-41187500D01*
X22150000Y-41187501D01*
X21650000Y-41187501D01*
X21649999Y-41187500D01*
X20675002Y-41187500D01*
X20675001Y-41187501D01*
X15842769Y-41187501D01*
X15884814Y-41119334D01*
X15939999Y-40952797D01*
X15950500Y-40850009D01*
X15950499Y-40049992D01*
X15950499Y-40049991D01*
X15950499Y-40049983D01*
X15940000Y-39947211D01*
X15939999Y-39947209D01*
X15939999Y-39947203D01*
X15884814Y-39780666D01*
X15803067Y-39648132D01*
X15792714Y-39631347D01*
X15792713Y-39631346D01*
X15792712Y-39631344D01*
X15681015Y-39519647D01*
X15653240Y-39465133D01*
X15662811Y-39404701D01*
X15681018Y-39379642D01*
X15792316Y-39268344D01*
X15792318Y-39268341D01*
X15884356Y-39119124D01*
X15939506Y-38952693D01*
X15950000Y-38849987D01*
X15950000Y-38700001D01*
X15949999Y-38700000D01*
X14849000Y-38700000D01*
X14790809Y-38681093D01*
X14754845Y-38631593D01*
X14750000Y-38601000D01*
X14750000Y-38450001D01*
X14749999Y-38450000D01*
X14599000Y-38450000D01*
X14540809Y-38431093D01*
X14504845Y-38381593D01*
X14500000Y-38351000D01*
X14500000Y-37350001D01*
X15000000Y-37350001D01*
X15000000Y-38199999D01*
X15000001Y-38200000D01*
X15949998Y-38200000D01*
X15949999Y-38199999D01*
X15949999Y-38050013D01*
X15939507Y-37947312D01*
X15939504Y-37947300D01*
X15884356Y-37780875D01*
X15792319Y-37631659D01*
X15668340Y-37507680D01*
X15519124Y-37415643D01*
X15352693Y-37360493D01*
X15249987Y-37350000D01*
X15000001Y-37350000D01*
X15000000Y-37350001D01*
X14500000Y-37350001D01*
X14499999Y-37350000D01*
X14250013Y-37350000D01*
X14147312Y-37360492D01*
X14147300Y-37360495D01*
X13980875Y-37415643D01*
X13831659Y-37507680D01*
X13707680Y-37631659D01*
X13615643Y-37780875D01*
X13560493Y-37947306D01*
X13550000Y-38050012D01*
X13550000Y-38238181D01*
X13531093Y-38296372D01*
X13481593Y-38332336D01*
X13420407Y-38332336D01*
X13370907Y-38296372D01*
X13365264Y-38287681D01*
X13337876Y-38240244D01*
X13337871Y-38240236D01*
X13257547Y-38135558D01*
X13257544Y-38135555D01*
X13257541Y-38135551D01*
X13164449Y-38042459D01*
X13164444Y-38042455D01*
X13164441Y-38042452D01*
X13059763Y-37962128D01*
X13059761Y-37962127D01*
X12999999Y-37927623D01*
X12959059Y-37882153D01*
X12950500Y-37841887D01*
X12950500Y-37281164D01*
X12969407Y-37222973D01*
X12979490Y-37211166D01*
X14544114Y-35646543D01*
X14620775Y-35531811D01*
X14673580Y-35404328D01*
X14700500Y-35268994D01*
X14700500Y-35131006D01*
X14700500Y-34920844D01*
X14719407Y-34862653D01*
X14747529Y-34836583D01*
X14765678Y-34825388D01*
X14818656Y-34792712D01*
X14942712Y-34668656D01*
X15034814Y-34519334D01*
X15089999Y-34352797D01*
X15100500Y-34250009D01*
X15100499Y-33549499D01*
X15119406Y-33491309D01*
X15168906Y-33455345D01*
X15199499Y-33450500D01*
X16218835Y-33450500D01*
X16277026Y-33469407D01*
X16288838Y-33479496D01*
X16383597Y-33574254D01*
X16453457Y-33644114D01*
X16568189Y-33720775D01*
X16568190Y-33720775D01*
X16568191Y-33720776D01*
X16590044Y-33729828D01*
X16636570Y-33769564D01*
X16650646Y-33811230D01*
X16659664Y-33899500D01*
X16660001Y-33902797D01*
X16714681Y-34067811D01*
X16715187Y-34069336D01*
X16807285Y-34218652D01*
X16807286Y-34218653D01*
X16807288Y-34218656D01*
X16931344Y-34342712D01*
X16931346Y-34342713D01*
X16931348Y-34342715D01*
X16981094Y-34373398D01*
X17020696Y-34420038D01*
X17026221Y-34476973D01*
X16999500Y-34611306D01*
X16999500Y-34788693D01*
X17013211Y-34857619D01*
X17029597Y-34940000D01*
X17035055Y-34967436D01*
X17033785Y-34967688D01*
X17033708Y-34971584D01*
X17037615Y-34980359D01*
X17033115Y-35001525D01*
X17032688Y-35023157D01*
X17024894Y-35040207D01*
X17002465Y-35079056D01*
X17002464Y-35079057D01*
X16965425Y-35143209D01*
X16965423Y-35143213D01*
X16965423Y-35143215D01*
X16924499Y-35295943D01*
X16924499Y-35295945D01*
X16924499Y-35462031D01*
X16924500Y-35462044D01*
X16924500Y-35732227D01*
X16905593Y-35790418D01*
X16904045Y-35792490D01*
X16900465Y-35797154D01*
X16855883Y-35904786D01*
X16846871Y-35926545D01*
X16839957Y-35943236D01*
X16839955Y-35943241D01*
X16824500Y-36060637D01*
X16824500Y-37414357D01*
X16824501Y-37414362D01*
X16839955Y-37531758D01*
X16839957Y-37531766D01*
X16900462Y-37677838D01*
X16900462Y-37677839D01*
X16996713Y-37803276D01*
X16996718Y-37803282D01*
X16996722Y-37803285D01*
X16996723Y-37803286D01*
X17016857Y-37818735D01*
X17122159Y-37899536D01*
X17122160Y-37899536D01*
X17122161Y-37899537D01*
X17268233Y-37960042D01*
X17268238Y-37960044D01*
X17385639Y-37975500D01*
X17664360Y-37975499D01*
X17781762Y-37960044D01*
X17812113Y-37947471D01*
X17869406Y-37941856D01*
X17878922Y-37943758D01*
X17918238Y-37960044D01*
X18035639Y-37975500D01*
X18037703Y-37975499D01*
X18044907Y-37976940D01*
X18068858Y-37990383D01*
X18093647Y-38002207D01*
X18095278Y-38005212D01*
X18098262Y-38006887D01*
X18109736Y-38031840D01*
X18122842Y-38055977D01*
X18123343Y-38061428D01*
X18123825Y-38062477D01*
X18123560Y-38063798D01*
X18124500Y-38074019D01*
X18124500Y-38593996D01*
X18151420Y-38729327D01*
X18151420Y-38729329D01*
X18204223Y-38856808D01*
X18204224Y-38856810D01*
X18204225Y-38856811D01*
X18280886Y-38971543D01*
X18753457Y-39444114D01*
X18868189Y-39520775D01*
X18868190Y-39520775D01*
X18868191Y-39520776D01*
X18897070Y-39532738D01*
X18995672Y-39573580D01*
X19131006Y-39600500D01*
X19131007Y-39600500D01*
X19268993Y-39600500D01*
X19268994Y-39600500D01*
X19404328Y-39573580D01*
X19405533Y-39573080D01*
X19411678Y-39570536D01*
X19449563Y-39563000D01*
X20711865Y-39563000D01*
X20770056Y-39581907D01*
X20796126Y-39610028D01*
X20832285Y-39668652D01*
X20832286Y-39668653D01*
X20832288Y-39668656D01*
X20956344Y-39792712D01*
X20956346Y-39792713D01*
X20956347Y-39792714D01*
X20994152Y-39816032D01*
X21033753Y-39862673D01*
X21038377Y-39923683D01*
X21006257Y-39975759D01*
X20994154Y-39984553D01*
X20956659Y-40007680D01*
X20832680Y-40131659D01*
X20740643Y-40280875D01*
X20685493Y-40447306D01*
X20675000Y-40550012D01*
X20675000Y-40687499D01*
X20675001Y-40687500D01*
X25324998Y-40687500D01*
X25324999Y-40687499D01*
X25324999Y-40550013D01*
X25314507Y-40447312D01*
X25314504Y-40447300D01*
X25259356Y-40280875D01*
X25167319Y-40131659D01*
X25043339Y-40007679D01*
X25005846Y-39984553D01*
X25003715Y-39982043D01*
X25000570Y-39981062D01*
X24984093Y-39958934D01*
X24966245Y-39937912D01*
X24965996Y-39934627D01*
X24964029Y-39931986D01*
X24963706Y-39904408D01*
X24961622Y-39876902D01*
X24963351Y-39874097D01*
X24963313Y-39870805D01*
X24973374Y-39857848D01*
X24993743Y-39824826D01*
X24998694Y-39820887D01*
X25002155Y-39818309D01*
X25043656Y-39792712D01*
X25064419Y-39771947D01*
X25070196Y-39767647D01*
X25092684Y-39760047D01*
X25113829Y-39749273D01*
X25121143Y-39750431D01*
X25128161Y-39748060D01*
X25150818Y-39755129D01*
X25174262Y-39758841D01*
X25184319Y-39764735D01*
X25268189Y-39820775D01*
X25395672Y-39873580D01*
X25531006Y-39900500D01*
X25531007Y-39900500D01*
X25668993Y-39900500D01*
X25668994Y-39900500D01*
X25804328Y-39873580D01*
X25804328Y-39873579D01*
X25809098Y-39872631D01*
X25809472Y-39874515D01*
X25862910Y-39875550D01*
X25911705Y-39912466D01*
X25929500Y-39969095D01*
X25929500Y-40040688D01*
X25932401Y-40077565D01*
X25932401Y-40077568D01*
X25932402Y-40077569D01*
X25978256Y-40235398D01*
X26061919Y-40376865D01*
X26178135Y-40493081D01*
X26319602Y-40576744D01*
X26477431Y-40622598D01*
X26514306Y-40625500D01*
X26514311Y-40625500D01*
X26945689Y-40625500D01*
X26945694Y-40625500D01*
X26982569Y-40622598D01*
X27140398Y-40576744D01*
X27281865Y-40493081D01*
X27294998Y-40479947D01*
X27349513Y-40452172D01*
X27409945Y-40461743D01*
X27435000Y-40479946D01*
X27448135Y-40493081D01*
X27589602Y-40576744D01*
X27747431Y-40622598D01*
X27784306Y-40625500D01*
X27784311Y-40625500D01*
X28215689Y-40625500D01*
X28215694Y-40625500D01*
X28252569Y-40622598D01*
X28410398Y-40576744D01*
X28551865Y-40493081D01*
X28564998Y-40479947D01*
X28619513Y-40452172D01*
X28679945Y-40461743D01*
X28705000Y-40479946D01*
X28718135Y-40493081D01*
X28859602Y-40576744D01*
X29017431Y-40622598D01*
X29054306Y-40625500D01*
X29054311Y-40625500D01*
X29485689Y-40625500D01*
X29485694Y-40625500D01*
X29522569Y-40622598D01*
X29680398Y-40576744D01*
X29821865Y-40493081D01*
X29834998Y-40479947D01*
X29889513Y-40452172D01*
X29949945Y-40461743D01*
X29975000Y-40479946D01*
X29988135Y-40493081D01*
X30129602Y-40576744D01*
X30287431Y-40622598D01*
X30324306Y-40625500D01*
X30324311Y-40625500D01*
X30755689Y-40625500D01*
X30755694Y-40625500D01*
X30792569Y-40622598D01*
X30950398Y-40576744D01*
X31091865Y-40493081D01*
X31208081Y-40376865D01*
X31291744Y-40235398D01*
X31337598Y-40077569D01*
X31340500Y-40040694D01*
X31340500Y-38259306D01*
X31337598Y-38222431D01*
X31291744Y-38064602D01*
X31208081Y-37923135D01*
X31091865Y-37806919D01*
X30950398Y-37723256D01*
X30864996Y-37698443D01*
X30822614Y-37673379D01*
X29709019Y-36559784D01*
X29681242Y-36505267D01*
X29690813Y-36444835D01*
X29725028Y-36407830D01*
X29724670Y-36407337D01*
X29727154Y-36405532D01*
X29727317Y-36405356D01*
X29727805Y-36405056D01*
X29727816Y-36405051D01*
X29899792Y-36280104D01*
X30050104Y-36129792D01*
X30175051Y-35957816D01*
X30202071Y-35904785D01*
X30245334Y-35861522D01*
X30305765Y-35851950D01*
X30360282Y-35879726D01*
X30378489Y-35904786D01*
X30405370Y-35957543D01*
X30405380Y-35957559D01*
X30444728Y-36011716D01*
X30444729Y-36011716D01*
X31077037Y-35379407D01*
X31094075Y-35442993D01*
X31159901Y-35557007D01*
X31252993Y-35650099D01*
X31367007Y-35715925D01*
X31430589Y-35732962D01*
X30798282Y-36365269D01*
X30798282Y-36365270D01*
X30852440Y-36404619D01*
X30852446Y-36404623D01*
X31041784Y-36501095D01*
X31243878Y-36566759D01*
X31453750Y-36600000D01*
X31666250Y-36600000D01*
X31876121Y-36566759D01*
X32078215Y-36501095D01*
X32267556Y-36404620D01*
X32321716Y-36365270D01*
X31689408Y-35732962D01*
X31752993Y-35715925D01*
X31867007Y-35650099D01*
X31960099Y-35557007D01*
X32025925Y-35442993D01*
X32042962Y-35379408D01*
X32675270Y-36011716D01*
X32714620Y-35957556D01*
X32811095Y-35768215D01*
X32876759Y-35566121D01*
X32910000Y-35356250D01*
X32910000Y-35143749D01*
X32876759Y-34933878D01*
X32811095Y-34731784D01*
X32714623Y-34542446D01*
X32714619Y-34542440D01*
X32675270Y-34488282D01*
X32675269Y-34488282D01*
X32042962Y-35120589D01*
X32025925Y-35057007D01*
X31960099Y-34942993D01*
X31867007Y-34849901D01*
X31752993Y-34784075D01*
X31689407Y-34767037D01*
X32321716Y-34134729D01*
X32321716Y-34134728D01*
X32267559Y-34095380D01*
X32267553Y-34095376D01*
X32078215Y-33998904D01*
X31876121Y-33933240D01*
X31666250Y-33900000D01*
X31453750Y-33900000D01*
X31243878Y-33933240D01*
X31041784Y-33998904D01*
X30852446Y-34095376D01*
X30852442Y-34095378D01*
X30798282Y-34134728D01*
X31430591Y-34767037D01*
X31367007Y-34784075D01*
X31252993Y-34849901D01*
X31159901Y-34942993D01*
X31094075Y-35057007D01*
X31077037Y-35120591D01*
X30444728Y-34488282D01*
X30405378Y-34542442D01*
X30405373Y-34542451D01*
X30378489Y-34595214D01*
X30335224Y-34638478D01*
X30274792Y-34648049D01*
X30220276Y-34620271D01*
X30202070Y-34595212D01*
X30175054Y-34542189D01*
X30175049Y-34542180D01*
X30050108Y-34370213D01*
X30050106Y-34370211D01*
X30050104Y-34370208D01*
X29899792Y-34219896D01*
X29899788Y-34219893D01*
X29899786Y-34219891D01*
X29727819Y-34094950D01*
X29727815Y-34094948D01*
X29538412Y-33998443D01*
X29336238Y-33932752D01*
X29126290Y-33899500D01*
X29126287Y-33899500D01*
X28913713Y-33899500D01*
X28913710Y-33899500D01*
X28703761Y-33932752D01*
X28501584Y-33998444D01*
X28370659Y-34065153D01*
X28310227Y-34074724D01*
X28255711Y-34046946D01*
X28227934Y-33992429D01*
X28234250Y-33939060D01*
X28265894Y-33862666D01*
X28300500Y-33688691D01*
X28300500Y-33589741D01*
X28302968Y-33582143D01*
X28301719Y-33574254D01*
X28312243Y-33553598D01*
X28319407Y-33531550D01*
X28329486Y-33519747D01*
X28368713Y-33480521D01*
X28368716Y-33480520D01*
X28480520Y-33368716D01*
X28530639Y-33281904D01*
X28559577Y-33231785D01*
X28600500Y-33079057D01*
X28600500Y-32920943D01*
X28600500Y-32598816D01*
X28619407Y-32540625D01*
X28668907Y-32504661D01*
X28706445Y-32500591D01*
X28706445Y-32500500D01*
X28707293Y-32500500D01*
X28709203Y-32500293D01*
X28711305Y-32500500D01*
X28711309Y-32500500D01*
X28888690Y-32500500D01*
X28888691Y-32500500D01*
X29062666Y-32465894D01*
X29226547Y-32398013D01*
X29374035Y-32299464D01*
X29499464Y-32174035D01*
X29598013Y-32026547D01*
X29665894Y-31862666D01*
X29694276Y-31719973D01*
X29721369Y-31669286D01*
X29861161Y-31529496D01*
X29915678Y-31501719D01*
X29931164Y-31500500D01*
X31968993Y-31500500D01*
X31968994Y-31500500D01*
X32104328Y-31473580D01*
X32231811Y-31420775D01*
X32346543Y-31344114D01*
X34044114Y-29646543D01*
X34120775Y-29531811D01*
X34173580Y-29404328D01*
X34200500Y-29268994D01*
X34200500Y-29131006D01*
X34200500Y-27651456D01*
X34999500Y-27651456D01*
X34999500Y-33598543D01*
X35037949Y-33791834D01*
X35037949Y-33791836D01*
X35113367Y-33973913D01*
X35113368Y-33973914D01*
X35222861Y-34137782D01*
X35362218Y-34277139D01*
X35526086Y-34386632D01*
X35708165Y-34462051D01*
X35901459Y-34500500D01*
X35901460Y-34500500D01*
X36098540Y-34500500D01*
X36098541Y-34500500D01*
X36291835Y-34462051D01*
X36473914Y-34386632D01*
X36637782Y-34277139D01*
X36777139Y-34137782D01*
X36886632Y-33973914D01*
X36962051Y-33791835D01*
X37000500Y-33598541D01*
X37000500Y-27651459D01*
X36962051Y-27458165D01*
X36886632Y-27276086D01*
X36777139Y-27112218D01*
X36637782Y-26972861D01*
X36519070Y-26893540D01*
X36473913Y-26863367D01*
X36291835Y-26787949D01*
X36098543Y-26749500D01*
X36098541Y-26749500D01*
X35901459Y-26749500D01*
X35901456Y-26749500D01*
X35708165Y-26787949D01*
X35708163Y-26787949D01*
X35526086Y-26863367D01*
X35362218Y-26972861D01*
X35362214Y-26972864D01*
X35222864Y-27112214D01*
X35222861Y-27112218D01*
X35113367Y-27276086D01*
X35037949Y-27458163D01*
X35037949Y-27458165D01*
X34999500Y-27651456D01*
X34200500Y-27651456D01*
X34200500Y-25331007D01*
X34193644Y-25296542D01*
X34173580Y-25195672D01*
X34120775Y-25068189D01*
X34044114Y-24953457D01*
X33901966Y-24811309D01*
X33756594Y-24665936D01*
X33728817Y-24611420D01*
X33738388Y-24550988D01*
X33749655Y-24533638D01*
X33832771Y-24430999D01*
X33861711Y-24374199D01*
X33904972Y-24330937D01*
X33965404Y-24321365D01*
X34019921Y-24349141D01*
X34038128Y-24374200D01*
X34065616Y-24428148D01*
X34065620Y-24428154D01*
X34173448Y-24561309D01*
X34184743Y-24575257D01*
X34184748Y-24575261D01*
X34331845Y-24694379D01*
X34331847Y-24694380D01*
X34331851Y-24694383D01*
X34500512Y-24780320D01*
X34683355Y-24829312D01*
X34761979Y-24835500D01*
X35688020Y-24835499D01*
X35766645Y-24829312D01*
X35949488Y-24780320D01*
X36118149Y-24694383D01*
X36265257Y-24575257D01*
X36382073Y-24431002D01*
X36384379Y-24428154D01*
X36384379Y-24428153D01*
X36384383Y-24428149D01*
X36470320Y-24259488D01*
X36519312Y-24076645D01*
X36525500Y-23998021D01*
X36525499Y-23408843D01*
X36544406Y-23350654D01*
X36593906Y-23314690D01*
X36655092Y-23314690D01*
X36701436Y-23346542D01*
X36724172Y-23374619D01*
X36724758Y-23375342D01*
X36724763Y-23375346D01*
X36871868Y-23494471D01*
X36871870Y-23494472D01*
X36871874Y-23494475D01*
X37040544Y-23580416D01*
X37223397Y-23629412D01*
X37302025Y-23635600D01*
X39427974Y-23635599D01*
X39506603Y-23629412D01*
X39689456Y-23580416D01*
X39858126Y-23494475D01*
X40005242Y-23375342D01*
X40023562Y-23352717D01*
X40074876Y-23319394D01*
X40135977Y-23322595D01*
X40183528Y-23361100D01*
X40199500Y-23415020D01*
X40199500Y-24462179D01*
X40180593Y-24520370D01*
X40131093Y-24556334D01*
X40069907Y-24556334D01*
X40020407Y-24520370D01*
X40009036Y-24500064D01*
X39998014Y-24473455D01*
X39998014Y-24473454D01*
X39899464Y-24325965D01*
X39774034Y-24200535D01*
X39626544Y-24101985D01*
X39462666Y-24034106D01*
X39288693Y-23999500D01*
X39288691Y-23999500D01*
X39111309Y-23999500D01*
X39111306Y-23999500D01*
X38937334Y-24034106D01*
X38937332Y-24034106D01*
X38773455Y-24101985D01*
X38773454Y-24101985D01*
X38625965Y-24200535D01*
X38500537Y-24325963D01*
X38469063Y-24373067D01*
X38421012Y-24410945D01*
X38367435Y-24415162D01*
X38288696Y-24399500D01*
X38288691Y-24399500D01*
X38111309Y-24399500D01*
X38111306Y-24399500D01*
X37937334Y-24434106D01*
X37937332Y-24434106D01*
X37773455Y-24501985D01*
X37773454Y-24501985D01*
X37625965Y-24600535D01*
X37500535Y-24725965D01*
X37401985Y-24873454D01*
X37401985Y-24873455D01*
X37334106Y-25037332D01*
X37334106Y-25037334D01*
X37299500Y-25211306D01*
X37299500Y-25388693D01*
X37334106Y-25562665D01*
X37334106Y-25562667D01*
X37401985Y-25726544D01*
X37401985Y-25726545D01*
X37500535Y-25874034D01*
X37570504Y-25944003D01*
X37598281Y-25998520D01*
X37599500Y-26014007D01*
X37599500Y-51914863D01*
X37599499Y-51914881D01*
X37599499Y-51920943D01*
X37599499Y-52079057D01*
X37640189Y-52230910D01*
X37640424Y-52231787D01*
X37667812Y-52279223D01*
X37667813Y-52279226D01*
X37719478Y-52368713D01*
X37719480Y-52368716D01*
X37831284Y-52480520D01*
X37831286Y-52480521D01*
X38170504Y-52819739D01*
X38198281Y-52874256D01*
X38199500Y-52889743D01*
X38199500Y-52988693D01*
X38234106Y-53162665D01*
X38234106Y-53162667D01*
X38301985Y-53326544D01*
X38301985Y-53326545D01*
X38400535Y-53474034D01*
X38400536Y-53474035D01*
X38525965Y-53599464D01*
X38673453Y-53698013D01*
X38837334Y-53765894D01*
X39011309Y-53800500D01*
X39011310Y-53800500D01*
X39188690Y-53800500D01*
X39188691Y-53800500D01*
X39362666Y-53765894D01*
X39526547Y-53698013D01*
X39674035Y-53599464D01*
X39799464Y-53474035D01*
X39898013Y-53326547D01*
X39965894Y-53162666D01*
X40000500Y-52988691D01*
X40000500Y-52811309D01*
X39965894Y-52637334D01*
X39901831Y-52482670D01*
X39898014Y-52473455D01*
X39898014Y-52473454D01*
X39799464Y-52325965D01*
X39674034Y-52200535D01*
X39526544Y-52101985D01*
X39362666Y-52034106D01*
X39188693Y-51999500D01*
X39188691Y-51999500D01*
X39089743Y-51999500D01*
X39031552Y-51980593D01*
X39019739Y-51970504D01*
X38829496Y-51780261D01*
X38801719Y-51725744D01*
X38800500Y-51710257D01*
X38800500Y-43879199D01*
X38819407Y-43821008D01*
X38868907Y-43785044D01*
X38918812Y-43782101D01*
X39011309Y-43800500D01*
X39011310Y-43800500D01*
X39188690Y-43800500D01*
X39188691Y-43800500D01*
X39362666Y-43765894D01*
X39526547Y-43698013D01*
X39674035Y-43599464D01*
X39799464Y-43474035D01*
X39898013Y-43326547D01*
X39965894Y-43162666D01*
X40000500Y-42988691D01*
X40000500Y-42811309D01*
X39965894Y-42637334D01*
X39898014Y-42473455D01*
X39898014Y-42473454D01*
X39799464Y-42325965D01*
X39674034Y-42200535D01*
X39526544Y-42101985D01*
X39361615Y-42033670D01*
X39315089Y-41993934D01*
X39300500Y-41942206D01*
X39300500Y-26289742D01*
X39319407Y-26231551D01*
X39329497Y-26219738D01*
X39482734Y-26066501D01*
X39680520Y-25868716D01*
X39759577Y-25731784D01*
X39795853Y-25596401D01*
X39821476Y-25552023D01*
X39899462Y-25474037D01*
X39899464Y-25474035D01*
X39998013Y-25326547D01*
X40009036Y-25299934D01*
X40048771Y-25253409D01*
X40108266Y-25239125D01*
X40164794Y-25262539D01*
X40196764Y-25314708D01*
X40199500Y-25337820D01*
X40199500Y-56410256D01*
X40180593Y-56468447D01*
X40170504Y-56480260D01*
X38680261Y-57970504D01*
X38625744Y-57998281D01*
X38610257Y-57999500D01*
X36714007Y-57999500D01*
X36655816Y-57980593D01*
X36644003Y-57970504D01*
X36574034Y-57900535D01*
X36426544Y-57801985D01*
X36262666Y-57734106D01*
X36088693Y-57699500D01*
X36088691Y-57699500D01*
X35911309Y-57699500D01*
X35911303Y-57699500D01*
X35909188Y-57699708D01*
X35908241Y-57699500D01*
X35906446Y-57699500D01*
X35906446Y-57699105D01*
X35849426Y-57686586D01*
X35808791Y-57640843D01*
X35800500Y-57601183D01*
X35800500Y-46931013D01*
X35800500Y-46931007D01*
X35787858Y-46867454D01*
X35773580Y-46795672D01*
X35741565Y-46718381D01*
X35720776Y-46668191D01*
X35717120Y-46662720D01*
X35644114Y-46553457D01*
X33946543Y-44855886D01*
X33893582Y-44820499D01*
X33831808Y-44779223D01*
X33704328Y-44726420D01*
X33568996Y-44699500D01*
X33568994Y-44699500D01*
X33568993Y-44699500D01*
X32502516Y-44699500D01*
X32447514Y-44682815D01*
X32326554Y-44601990D01*
X32326542Y-44601984D01*
X32162666Y-44534106D01*
X31988693Y-44499500D01*
X31988691Y-44499500D01*
X31811309Y-44499500D01*
X31811306Y-44499500D01*
X31637334Y-44534106D01*
X31637332Y-44534106D01*
X31476885Y-44600565D01*
X31415888Y-44605365D01*
X31363719Y-44573396D01*
X31340305Y-44516868D01*
X31340000Y-44509101D01*
X31340000Y-44350001D01*
X31339999Y-44350000D01*
X30790001Y-44350000D01*
X30790000Y-44350001D01*
X30790000Y-45572295D01*
X30792486Y-45572100D01*
X30792490Y-45572099D01*
X30900215Y-45540802D01*
X30961371Y-45542724D01*
X31009717Y-45580224D01*
X31024934Y-45616556D01*
X31034106Y-45662667D01*
X31101985Y-45826544D01*
X31101985Y-45826545D01*
X31182357Y-45946829D01*
X31200536Y-45974035D01*
X31325965Y-46099464D01*
X31473453Y-46198013D01*
X31473454Y-46198013D01*
X31473455Y-46198014D01*
X31510581Y-46213391D01*
X31637334Y-46265894D01*
X31811309Y-46300500D01*
X31811310Y-46300500D01*
X31988690Y-46300500D01*
X31988691Y-46300500D01*
X32162666Y-46265894D01*
X32326547Y-46198013D01*
X32326549Y-46198011D01*
X32326554Y-46198009D01*
X32447514Y-46117185D01*
X32502516Y-46100500D01*
X33168835Y-46100500D01*
X33227026Y-46119407D01*
X33238839Y-46129496D01*
X34370504Y-47261161D01*
X34398281Y-47315678D01*
X34399500Y-47331165D01*
X34399500Y-64768996D01*
X34426420Y-64904327D01*
X34426420Y-64904329D01*
X34479223Y-65031808D01*
X34479224Y-65031810D01*
X34479225Y-65031811D01*
X34555886Y-65146543D01*
X37428457Y-68019114D01*
X37543189Y-68095775D01*
X37543190Y-68095775D01*
X37543191Y-68095776D01*
X37572070Y-68107738D01*
X37670672Y-68148580D01*
X37806006Y-68175500D01*
X37806007Y-68175500D01*
X42721914Y-68175500D01*
X42780105Y-68194407D01*
X42810124Y-68229555D01*
X42816554Y-68242175D01*
X42859748Y-68326947D01*
X43010138Y-68533942D01*
X43191058Y-68714862D01*
X43398053Y-68865252D01*
X43626025Y-68981410D01*
X43869361Y-69060474D01*
X43970444Y-69076484D01*
X44122067Y-69100500D01*
X44122070Y-69100500D01*
X44377933Y-69100500D01*
X44504284Y-69080487D01*
X44630639Y-69060474D01*
X44873975Y-68981410D01*
X45101947Y-68865252D01*
X45308942Y-68714862D01*
X45489862Y-68533942D01*
X45640252Y-68326947D01*
X45756410Y-68098975D01*
X45835474Y-67855639D01*
X45875500Y-67602930D01*
X45875500Y-67347070D01*
X45875500Y-67347066D01*
X45835474Y-67094363D01*
X45835474Y-67094361D01*
X45756410Y-66851025D01*
X45640252Y-66623053D01*
X45489862Y-66416058D01*
X45308942Y-66235138D01*
X45101947Y-66084748D01*
X45101946Y-66084747D01*
X45101944Y-66084746D01*
X44873973Y-65968589D01*
X44630636Y-65889525D01*
X44377933Y-65849500D01*
X44377930Y-65849500D01*
X44122070Y-65849500D01*
X44122067Y-65849500D01*
X43869363Y-65889525D01*
X43626026Y-65968589D01*
X43398055Y-66084746D01*
X43294555Y-66159943D01*
X43191058Y-66235138D01*
X43010138Y-66416058D01*
X42934943Y-66519555D01*
X42859746Y-66623055D01*
X42810124Y-66720445D01*
X42766859Y-66763710D01*
X42721914Y-66774500D01*
X38206165Y-66774500D01*
X38147974Y-66755593D01*
X38136161Y-66745504D01*
X35829496Y-64438839D01*
X35801719Y-64384322D01*
X35800500Y-64368835D01*
X35800500Y-60113007D01*
X35819407Y-60054816D01*
X35868907Y-60018852D01*
X35930093Y-60018852D01*
X35969504Y-60043003D01*
X36025965Y-60099464D01*
X36173453Y-60198013D01*
X36337334Y-60265894D01*
X36511309Y-60300500D01*
X36511310Y-60300500D01*
X36688690Y-60300500D01*
X36688691Y-60300500D01*
X36862666Y-60265894D01*
X37026547Y-60198013D01*
X37174035Y-60099464D01*
X37299464Y-59974035D01*
X37319200Y-59944498D01*
X37367249Y-59906619D01*
X37401515Y-59900500D01*
X39014864Y-59900500D01*
X39014880Y-59900501D01*
X39020943Y-59900501D01*
X39179055Y-59900501D01*
X39179057Y-59900501D01*
X39331785Y-59859577D01*
X39331787Y-59859575D01*
X39331789Y-59859575D01*
X39348783Y-59849762D01*
X39388994Y-59826547D01*
X39468716Y-59780520D01*
X39580520Y-59668716D01*
X39580521Y-59668713D01*
X41668713Y-57580521D01*
X41668716Y-57580520D01*
X41780520Y-57468716D01*
X41830639Y-57381904D01*
X41859577Y-57331785D01*
X41900501Y-57179057D01*
X41900501Y-57020943D01*
X41900501Y-57014881D01*
X41900500Y-57014863D01*
X41900500Y-52079983D01*
X42699500Y-52079983D01*
X42699500Y-54280016D01*
X42709999Y-54382788D01*
X42710000Y-54382795D01*
X42710001Y-54382797D01*
X42755164Y-54519091D01*
X42765187Y-54549336D01*
X42857285Y-54698652D01*
X42857286Y-54698653D01*
X42857288Y-54698656D01*
X42981344Y-54822712D01*
X43130666Y-54914814D01*
X43297203Y-54969999D01*
X43399991Y-54980500D01*
X45600008Y-54980499D01*
X45600016Y-54980499D01*
X45702788Y-54970000D01*
X45702788Y-54969999D01*
X45702797Y-54969999D01*
X45869334Y-54914814D01*
X46018656Y-54822712D01*
X46142712Y-54698656D01*
X46234814Y-54549334D01*
X46289999Y-54382797D01*
X46300500Y-54280009D01*
X46300499Y-52079992D01*
X46300499Y-52079991D01*
X46300499Y-52079983D01*
X46290000Y-51977211D01*
X46289999Y-51977209D01*
X46289999Y-51977203D01*
X46234814Y-51810666D01*
X46142712Y-51661344D01*
X46018656Y-51537288D01*
X46018653Y-51537286D01*
X46018652Y-51537285D01*
X45869336Y-51445187D01*
X45869335Y-51445186D01*
X45869334Y-51445186D01*
X45702797Y-51390001D01*
X45702794Y-51390000D01*
X45600016Y-51379500D01*
X43399983Y-51379500D01*
X43297211Y-51389999D01*
X43297199Y-51390002D01*
X43130663Y-51445187D01*
X42981347Y-51537285D01*
X42857285Y-51661347D01*
X42765187Y-51810663D01*
X42710000Y-51977205D01*
X42699500Y-52079983D01*
X41900500Y-52079983D01*
X41900500Y-47982021D01*
X42700000Y-47982021D01*
X42700000Y-48217978D01*
X42730798Y-48451908D01*
X42730798Y-48451913D01*
X42791867Y-48679824D01*
X42791871Y-48679837D01*
X42882163Y-48897824D01*
X42882165Y-48897829D01*
X43000142Y-49102169D01*
X43062720Y-49183724D01*
X43898957Y-48347486D01*
X43923978Y-48407890D01*
X43995112Y-48514351D01*
X44085649Y-48604888D01*
X44192110Y-48676022D01*
X44252510Y-48701041D01*
X43416274Y-49537278D01*
X43416273Y-49537278D01*
X43497830Y-49599857D01*
X43702170Y-49717834D01*
X43702175Y-49717836D01*
X43920162Y-49808128D01*
X43920175Y-49808132D01*
X44148088Y-49869201D01*
X44382021Y-49899999D01*
X44382023Y-49900000D01*
X44617977Y-49900000D01*
X44617978Y-49899999D01*
X44851908Y-49869201D01*
X44851913Y-49869201D01*
X45079824Y-49808132D01*
X45079837Y-49808128D01*
X45297824Y-49717836D01*
X45297829Y-49717834D01*
X45502165Y-49599860D01*
X45583724Y-49537278D01*
X44747487Y-48701041D01*
X44807890Y-48676022D01*
X44914351Y-48604888D01*
X45004888Y-48514351D01*
X45076022Y-48407890D01*
X45101041Y-48347487D01*
X45937278Y-49183724D01*
X45999860Y-49102165D01*
X46117834Y-48897829D01*
X46117836Y-48897824D01*
X46208128Y-48679837D01*
X46208132Y-48679824D01*
X46269201Y-48451913D01*
X46269201Y-48451908D01*
X46299999Y-48217978D01*
X46300000Y-48217977D01*
X46300000Y-47982023D01*
X46299999Y-47982021D01*
X46269201Y-47748091D01*
X46269201Y-47748086D01*
X46208132Y-47520175D01*
X46208128Y-47520162D01*
X46117836Y-47302175D01*
X46117834Y-47302170D01*
X45999857Y-47097830D01*
X45937278Y-47016274D01*
X45101041Y-47852510D01*
X45076022Y-47792110D01*
X45004888Y-47685649D01*
X44914351Y-47595112D01*
X44807890Y-47523978D01*
X44747486Y-47498957D01*
X45583724Y-46662720D01*
X45583725Y-46662720D01*
X45502169Y-46600142D01*
X45297829Y-46482165D01*
X45297824Y-46482163D01*
X45079837Y-46391871D01*
X45079824Y-46391867D01*
X44851911Y-46330798D01*
X44617978Y-46300000D01*
X44382021Y-46300000D01*
X44148091Y-46330798D01*
X44148086Y-46330798D01*
X43920175Y-46391867D01*
X43920162Y-46391871D01*
X43702175Y-46482163D01*
X43702170Y-46482165D01*
X43497831Y-46600141D01*
X43416274Y-46662720D01*
X44252512Y-47498958D01*
X44192110Y-47523978D01*
X44085649Y-47595112D01*
X43995112Y-47685649D01*
X43923978Y-47792110D01*
X43898958Y-47852512D01*
X43062720Y-47016274D01*
X43000141Y-47097831D01*
X42882165Y-47302170D01*
X42882163Y-47302175D01*
X42791871Y-47520162D01*
X42791867Y-47520175D01*
X42730798Y-47748086D01*
X42730798Y-47748091D01*
X42700000Y-47982021D01*
X41900500Y-47982021D01*
X41900500Y-42901987D01*
X42699500Y-42901987D01*
X42699500Y-43138012D01*
X42730306Y-43372006D01*
X42730306Y-43372011D01*
X42791393Y-43599992D01*
X42881713Y-43818044D01*
X42999729Y-44022453D01*
X43143402Y-44209692D01*
X43143404Y-44209694D01*
X43143408Y-44209699D01*
X43310301Y-44376592D01*
X43310305Y-44376595D01*
X43310307Y-44376597D01*
X43497546Y-44520270D01*
X43497550Y-44520273D01*
X43701951Y-44638284D01*
X43701952Y-44638284D01*
X43701955Y-44638286D01*
X43809458Y-44682815D01*
X43920007Y-44728606D01*
X44147986Y-44789693D01*
X44381989Y-44820500D01*
X44381990Y-44820500D01*
X44618010Y-44820500D01*
X44618011Y-44820500D01*
X44852014Y-44789693D01*
X45079993Y-44728606D01*
X45298049Y-44638284D01*
X45502450Y-44520273D01*
X45689699Y-44376592D01*
X45856592Y-44209699D01*
X46000273Y-44022450D01*
X46118284Y-43818049D01*
X46208606Y-43599993D01*
X46269693Y-43372014D01*
X46300500Y-43138011D01*
X46300500Y-42901989D01*
X46269693Y-42667986D01*
X46208606Y-42440007D01*
X46161368Y-42325965D01*
X46118286Y-42221955D01*
X46070813Y-42139729D01*
X46000273Y-42017550D01*
X45856592Y-41830301D01*
X45689699Y-41663408D01*
X45689694Y-41663404D01*
X45689692Y-41663402D01*
X45502453Y-41519729D01*
X45492317Y-41513877D01*
X45343053Y-41427699D01*
X45298044Y-41401713D01*
X45079992Y-41311393D01*
X44880239Y-41257870D01*
X44852014Y-41250307D01*
X44852011Y-41250306D01*
X44852009Y-41250306D01*
X44618012Y-41219500D01*
X44618011Y-41219500D01*
X44381989Y-41219500D01*
X44381987Y-41219500D01*
X44147993Y-41250306D01*
X44147988Y-41250306D01*
X43920007Y-41311393D01*
X43701955Y-41401713D01*
X43497546Y-41519729D01*
X43310307Y-41663402D01*
X43143402Y-41830307D01*
X42999729Y-42017546D01*
X42881713Y-42221955D01*
X42791393Y-42440007D01*
X42730306Y-42667988D01*
X42730306Y-42667993D01*
X42699500Y-42901987D01*
X41900500Y-42901987D01*
X41900500Y-37822021D01*
X42700000Y-37822021D01*
X42700000Y-38057978D01*
X42730798Y-38291908D01*
X42730798Y-38291913D01*
X42791867Y-38519824D01*
X42791871Y-38519837D01*
X42882163Y-38737824D01*
X42882165Y-38737829D01*
X43000142Y-38942169D01*
X43062720Y-39023724D01*
X43898957Y-38187486D01*
X43923978Y-38247890D01*
X43995112Y-38354351D01*
X44085649Y-38444888D01*
X44192110Y-38516022D01*
X44252510Y-38541041D01*
X43416274Y-39377278D01*
X43416273Y-39377278D01*
X43497830Y-39439857D01*
X43702170Y-39557834D01*
X43702175Y-39557836D01*
X43920162Y-39648128D01*
X43920175Y-39648132D01*
X44148088Y-39709201D01*
X44382021Y-39739999D01*
X44382023Y-39740000D01*
X44617977Y-39740000D01*
X44617978Y-39739999D01*
X44851908Y-39709201D01*
X44851913Y-39709201D01*
X45079824Y-39648132D01*
X45079837Y-39648128D01*
X45297824Y-39557836D01*
X45297829Y-39557834D01*
X45502165Y-39439860D01*
X45583724Y-39377278D01*
X44747487Y-38541041D01*
X44807890Y-38516022D01*
X44914351Y-38444888D01*
X45004888Y-38354351D01*
X45076022Y-38247890D01*
X45101041Y-38187487D01*
X45937278Y-39023724D01*
X45999860Y-38942165D01*
X46117834Y-38737829D01*
X46117836Y-38737824D01*
X46208128Y-38519837D01*
X46208132Y-38519824D01*
X46269201Y-38291913D01*
X46269201Y-38291908D01*
X46299999Y-38057978D01*
X46300000Y-38057977D01*
X46300000Y-37822023D01*
X46299999Y-37822021D01*
X46269201Y-37588091D01*
X46269201Y-37588086D01*
X46208132Y-37360175D01*
X46208128Y-37360162D01*
X46117836Y-37142175D01*
X46117834Y-37142170D01*
X45999857Y-36937830D01*
X45937278Y-36856274D01*
X45101041Y-37692510D01*
X45076022Y-37632110D01*
X45004888Y-37525649D01*
X44914351Y-37435112D01*
X44807890Y-37363978D01*
X44747486Y-37338957D01*
X45583724Y-36502720D01*
X45583725Y-36502720D01*
X45502169Y-36440142D01*
X45297829Y-36322165D01*
X45297824Y-36322163D01*
X45079837Y-36231871D01*
X45079824Y-36231867D01*
X44851911Y-36170798D01*
X44617978Y-36140000D01*
X44382021Y-36140000D01*
X44148091Y-36170798D01*
X44148086Y-36170798D01*
X43920175Y-36231867D01*
X43920162Y-36231871D01*
X43702175Y-36322163D01*
X43702170Y-36322165D01*
X43497831Y-36440141D01*
X43416274Y-36502720D01*
X44252512Y-37338958D01*
X44192110Y-37363978D01*
X44085649Y-37435112D01*
X43995112Y-37525649D01*
X43923978Y-37632110D01*
X43898958Y-37692512D01*
X43062720Y-36856274D01*
X43000141Y-36937831D01*
X42882165Y-37142170D01*
X42882163Y-37142175D01*
X42791871Y-37360162D01*
X42791867Y-37360175D01*
X42730798Y-37588086D01*
X42730798Y-37588091D01*
X42700000Y-37822021D01*
X41900500Y-37822021D01*
X41900500Y-28086998D01*
X41919407Y-28028807D01*
X41968907Y-27992843D01*
X42030093Y-27992843D01*
X42079593Y-28028807D01*
X42090962Y-28049110D01*
X42094350Y-28057288D01*
X42163367Y-28223913D01*
X42181132Y-28250500D01*
X42272861Y-28387782D01*
X42412218Y-28527139D01*
X42576086Y-28636632D01*
X42758165Y-28712051D01*
X42951459Y-28750500D01*
X42951460Y-28750500D01*
X43148540Y-28750500D01*
X43148541Y-28750500D01*
X43341835Y-28712051D01*
X43523914Y-28636632D01*
X43687782Y-28527139D01*
X43827139Y-28387782D01*
X43936632Y-28223914D01*
X44012051Y-28041835D01*
X44050500Y-27848541D01*
X44050500Y-23448816D01*
X44069407Y-23390625D01*
X44118907Y-23354661D01*
X44156445Y-23350591D01*
X44156445Y-23350500D01*
X44157293Y-23350500D01*
X44159203Y-23350293D01*
X44161305Y-23350500D01*
X44161309Y-23350500D01*
X44338695Y-23350500D01*
X44340797Y-23350293D01*
X44341740Y-23350500D01*
X44343555Y-23350500D01*
X44343555Y-23350898D01*
X44400560Y-23363405D01*
X44441203Y-23409142D01*
X44449500Y-23448816D01*
X44449500Y-26918996D01*
X44476420Y-27054327D01*
X44476420Y-27054329D01*
X44529223Y-27181808D01*
X44605885Y-27296542D01*
X44605890Y-27296548D01*
X45005885Y-27696541D01*
X45103458Y-27794114D01*
X45218182Y-27870771D01*
X45218187Y-27870774D01*
X45218188Y-27870774D01*
X45218189Y-27870775D01*
X45259248Y-27887782D01*
X45345671Y-27923580D01*
X45372591Y-27928934D01*
X45481007Y-27950500D01*
X46039190Y-27950500D01*
X46097381Y-27969407D01*
X46119282Y-27991308D01*
X46219896Y-28129792D01*
X46370208Y-28280104D01*
X46370211Y-28280106D01*
X46370213Y-28280108D01*
X46542180Y-28405049D01*
X46542189Y-28405054D01*
X46595212Y-28432070D01*
X46638477Y-28475334D01*
X46648049Y-28535766D01*
X46620272Y-28590283D01*
X46595214Y-28608489D01*
X46542451Y-28635373D01*
X46542442Y-28635378D01*
X46488282Y-28674728D01*
X47120591Y-29307037D01*
X47057007Y-29324075D01*
X46942993Y-29389901D01*
X46849901Y-29482993D01*
X46784075Y-29597007D01*
X46767037Y-29660591D01*
X46134728Y-29028282D01*
X46095378Y-29082442D01*
X46095376Y-29082446D01*
X45998904Y-29271784D01*
X45933240Y-29473878D01*
X45900000Y-29683749D01*
X45900000Y-29896250D01*
X45933240Y-30106121D01*
X45998904Y-30308215D01*
X46095376Y-30497553D01*
X46095380Y-30497559D01*
X46134728Y-30551716D01*
X46134729Y-30551716D01*
X46767037Y-29919407D01*
X46784075Y-29982993D01*
X46849901Y-30097007D01*
X46942993Y-30190099D01*
X47057007Y-30255925D01*
X47120589Y-30272962D01*
X46474632Y-30918918D01*
X46471437Y-30932228D01*
X46424911Y-30971964D01*
X46387029Y-30979500D01*
X46352132Y-30979500D01*
X46352129Y-30979500D01*
X46352128Y-30979501D01*
X46344949Y-30980272D01*
X46292519Y-30985908D01*
X46292514Y-30985909D01*
X46157670Y-31036202D01*
X46042458Y-31122450D01*
X46042450Y-31122458D01*
X45956202Y-31237670D01*
X45905910Y-31372511D01*
X45905908Y-31372522D01*
X45901533Y-31413209D01*
X45899558Y-31431593D01*
X45899500Y-31432129D01*
X45899500Y-33227866D01*
X45899500Y-33227869D01*
X45899501Y-33227872D01*
X45899922Y-33231785D01*
X45905908Y-33287480D01*
X45905909Y-33287485D01*
X45956202Y-33422329D01*
X46007841Y-33491309D01*
X46042454Y-33537546D01*
X46042457Y-33537548D01*
X46042458Y-33537549D01*
X46157670Y-33623797D01*
X46292511Y-33674089D01*
X46292512Y-33674089D01*
X46292517Y-33674091D01*
X46352127Y-33680500D01*
X48147872Y-33680499D01*
X48207483Y-33674091D01*
X48287856Y-33644114D01*
X48342329Y-33623797D01*
X48342329Y-33623796D01*
X48342331Y-33623796D01*
X48457546Y-33537546D01*
X48543796Y-33422331D01*
X48563794Y-33368715D01*
X48594089Y-33287488D01*
X48594090Y-33287485D01*
X48594091Y-33287483D01*
X48600500Y-33227873D01*
X48600499Y-31432128D01*
X48594091Y-31372517D01*
X48583498Y-31344116D01*
X48543797Y-31237670D01*
X48457549Y-31122458D01*
X48457548Y-31122457D01*
X48457546Y-31122454D01*
X48426216Y-31099000D01*
X48342329Y-31036202D01*
X48207488Y-30985910D01*
X48207483Y-30985909D01*
X48207481Y-30985908D01*
X48207477Y-30985908D01*
X48176249Y-30982550D01*
X48147873Y-30979500D01*
X48147870Y-30979500D01*
X48112972Y-30979500D01*
X48054781Y-30960593D01*
X48022212Y-30915766D01*
X47379408Y-30272962D01*
X47442993Y-30255925D01*
X47557007Y-30190099D01*
X47650099Y-30097007D01*
X47715925Y-29982993D01*
X47732962Y-29919408D01*
X48365270Y-30551716D01*
X48404620Y-30497556D01*
X48501095Y-30308215D01*
X48566759Y-30106121D01*
X48600000Y-29896250D01*
X48600000Y-29683749D01*
X48566759Y-29473878D01*
X48501095Y-29271784D01*
X48404623Y-29082446D01*
X48404619Y-29082440D01*
X48365270Y-29028282D01*
X48365269Y-29028282D01*
X47732962Y-29660589D01*
X47715925Y-29597007D01*
X47650099Y-29482993D01*
X47557007Y-29389901D01*
X47442993Y-29324075D01*
X47379407Y-29307037D01*
X48011716Y-28674729D01*
X48011716Y-28674728D01*
X47957559Y-28635380D01*
X47957543Y-28635370D01*
X47904786Y-28608489D01*
X47861521Y-28565225D01*
X47851950Y-28504793D01*
X47879728Y-28450276D01*
X47904784Y-28432071D01*
X47957816Y-28405051D01*
X48129792Y-28280104D01*
X48280104Y-28129792D01*
X48374403Y-28000000D01*
X48405049Y-27957819D01*
X48405051Y-27957816D01*
X48501557Y-27768412D01*
X48567246Y-27566243D01*
X48567247Y-27566238D01*
X48600500Y-27356290D01*
X48600500Y-27143709D01*
X48567247Y-26933761D01*
X48567246Y-26933757D01*
X48501557Y-26731588D01*
X48405051Y-26542184D01*
X48405049Y-26542180D01*
X48280108Y-26370213D01*
X48280105Y-26370210D01*
X48280104Y-26370208D01*
X48129792Y-26219896D01*
X48129788Y-26219893D01*
X48129786Y-26219891D01*
X47957819Y-26094950D01*
X47957815Y-26094948D01*
X47926904Y-26079198D01*
X47905336Y-26068209D01*
X47862073Y-26024946D01*
X47852501Y-25964514D01*
X47880278Y-25909997D01*
X47905335Y-25891791D01*
X47957816Y-25865051D01*
X48129792Y-25740104D01*
X48280104Y-25589792D01*
X48394885Y-25431808D01*
X48405049Y-25417819D01*
X48405051Y-25417816D01*
X48501557Y-25228412D01*
X48567246Y-25026243D01*
X48573194Y-24988691D01*
X48600500Y-24816290D01*
X48600500Y-24603709D01*
X48567247Y-24393761D01*
X48560892Y-24374203D01*
X48501557Y-24191588D01*
X48405051Y-24002184D01*
X48405049Y-24002180D01*
X48280108Y-23830213D01*
X48280106Y-23830211D01*
X48280104Y-23830208D01*
X48129792Y-23679896D01*
X48129788Y-23679893D01*
X48129786Y-23679891D01*
X47957819Y-23554950D01*
X47957815Y-23554948D01*
X47922116Y-23536759D01*
X47905336Y-23528209D01*
X47862073Y-23484946D01*
X47852501Y-23424514D01*
X47880278Y-23369997D01*
X47905335Y-23351791D01*
X47957816Y-23325051D01*
X47961197Y-23322595D01*
X48129786Y-23200108D01*
X48129792Y-23200104D01*
X48280104Y-23049792D01*
X48405051Y-22877816D01*
X48501557Y-22688412D01*
X48567246Y-22486243D01*
X48583968Y-22380666D01*
X48600500Y-22276290D01*
X48600500Y-22063709D01*
X48567247Y-21853761D01*
X48564708Y-21845947D01*
X48501557Y-21651588D01*
X48405051Y-21462184D01*
X48405049Y-21462180D01*
X48280108Y-21290213D01*
X48280106Y-21290211D01*
X48280104Y-21290208D01*
X48129792Y-21139896D01*
X48129788Y-21139893D01*
X48129786Y-21139891D01*
X47957819Y-21014950D01*
X47957815Y-21014948D01*
X47768412Y-20918443D01*
X47566238Y-20852752D01*
X47356290Y-20819500D01*
X47356287Y-20819500D01*
X47143713Y-20819500D01*
X47143710Y-20819500D01*
X46974647Y-20846277D01*
X46914215Y-20836706D01*
X46889156Y-20818500D01*
X43379496Y-17308839D01*
X43351719Y-17254322D01*
X43350500Y-17238835D01*
X43350500Y-10580165D01*
X43369407Y-10521974D01*
X43418907Y-10486010D01*
X43480093Y-10486010D01*
X43519504Y-10510161D01*
X44020504Y-11011161D01*
X44048281Y-11065678D01*
X44049500Y-11081165D01*
X44049500Y-16318996D01*
X44067446Y-16409216D01*
X44072014Y-16432180D01*
X44076420Y-16454327D01*
X44076420Y-16454329D01*
X44129223Y-16581808D01*
X44129224Y-16581810D01*
X44129225Y-16581811D01*
X44205886Y-16696543D01*
X45113457Y-17604114D01*
X45228189Y-17680775D01*
X45355672Y-17733580D01*
X45491006Y-17760500D01*
X45491007Y-17760500D01*
X45800501Y-17760500D01*
X45858692Y-17779407D01*
X45894656Y-17828907D01*
X45899501Y-17859500D01*
X45899501Y-17957870D01*
X45905908Y-18017480D01*
X45905909Y-18017485D01*
X45956202Y-18152329D01*
X46020175Y-18237785D01*
X46042454Y-18267546D01*
X46042457Y-18267548D01*
X46042458Y-18267549D01*
X46157670Y-18353797D01*
X46292511Y-18404089D01*
X46292512Y-18404089D01*
X46292517Y-18404091D01*
X46352127Y-18410500D01*
X48147872Y-18410499D01*
X48207483Y-18404091D01*
X48312144Y-18365055D01*
X48342329Y-18353797D01*
X48342329Y-18353796D01*
X48342331Y-18353796D01*
X48457546Y-18267546D01*
X48543796Y-18152331D01*
X48594091Y-18017483D01*
X48600500Y-17957873D01*
X48600499Y-16162128D01*
X48594091Y-16102517D01*
X48576370Y-16055004D01*
X48543797Y-15967670D01*
X48457549Y-15852458D01*
X48457548Y-15852457D01*
X48457546Y-15852454D01*
X48420946Y-15825055D01*
X48342329Y-15766202D01*
X48207488Y-15715910D01*
X48207483Y-15715909D01*
X48207481Y-15715908D01*
X48207477Y-15715908D01*
X48176249Y-15712550D01*
X48147873Y-15709500D01*
X48147870Y-15709500D01*
X48112972Y-15709500D01*
X48054781Y-15690593D01*
X48022212Y-15645766D01*
X47379408Y-15002962D01*
X47442993Y-14985925D01*
X47557007Y-14920099D01*
X47650099Y-14827007D01*
X47715925Y-14712993D01*
X47732962Y-14649408D01*
X48365270Y-15281716D01*
X48404620Y-15227556D01*
X48501095Y-15038215D01*
X48566759Y-14836121D01*
X48600000Y-14626250D01*
X48600000Y-14413749D01*
X48566759Y-14203878D01*
X48501095Y-14001784D01*
X48404623Y-13812446D01*
X48404619Y-13812440D01*
X48365270Y-13758282D01*
X48365269Y-13758282D01*
X47732962Y-14390589D01*
X47715925Y-14327007D01*
X47650099Y-14212993D01*
X47557007Y-14119901D01*
X47442993Y-14054075D01*
X47379407Y-14037037D01*
X48011716Y-13404729D01*
X48011716Y-13404728D01*
X47957559Y-13365380D01*
X47957543Y-13365370D01*
X47904786Y-13338489D01*
X47861521Y-13295225D01*
X47851950Y-13234793D01*
X47879728Y-13180276D01*
X47904784Y-13162071D01*
X47957816Y-13135051D01*
X48129792Y-13010104D01*
X48280104Y-12859792D01*
X48405051Y-12687816D01*
X48501557Y-12498412D01*
X48567246Y-12296243D01*
X48587829Y-12166290D01*
X48600500Y-12086290D01*
X48600500Y-11873709D01*
X48567247Y-11663761D01*
X48557368Y-11633356D01*
X48501557Y-11461588D01*
X48405051Y-11272184D01*
X48405049Y-11272180D01*
X48280108Y-11100213D01*
X48280106Y-11100211D01*
X48280104Y-11100208D01*
X48129792Y-10949896D01*
X48129788Y-10949893D01*
X48129786Y-10949891D01*
X47957819Y-10824950D01*
X47957815Y-10824948D01*
X47926904Y-10809198D01*
X47905336Y-10798209D01*
X47862073Y-10754946D01*
X47852501Y-10694514D01*
X47880278Y-10639997D01*
X47905335Y-10621791D01*
X47957816Y-10595051D01*
X48129792Y-10470104D01*
X48280104Y-10319792D01*
X48396630Y-10159407D01*
X48405049Y-10147819D01*
X48405051Y-10147816D01*
X48501557Y-9958412D01*
X48567246Y-9756243D01*
X48600500Y-9546287D01*
X48600500Y-9333713D01*
X48600500Y-9333709D01*
X48567247Y-9123761D01*
X48557369Y-9093359D01*
X48501557Y-8921588D01*
X48405051Y-8732184D01*
X48405049Y-8732180D01*
X48280108Y-8560213D01*
X48280105Y-8560210D01*
X48280104Y-8560208D01*
X48129792Y-8409896D01*
X48129788Y-8409893D01*
X48129786Y-8409891D01*
X47957819Y-8284950D01*
X47957815Y-8284948D01*
X47768412Y-8188443D01*
X47566238Y-8122752D01*
X47356290Y-8089500D01*
X47356287Y-8089500D01*
X47143713Y-8089500D01*
X47143710Y-8089500D01*
X46933761Y-8122752D01*
X46731587Y-8188443D01*
X46542184Y-8284948D01*
X46542180Y-8284950D01*
X46370213Y-8409891D01*
X46219894Y-8560210D01*
X46119283Y-8698691D01*
X46069783Y-8734655D01*
X46039190Y-8739500D01*
X45449500Y-8739500D01*
X45391309Y-8720593D01*
X45355345Y-8671093D01*
X45350500Y-8640500D01*
X45350500Y-6481008D01*
X45350499Y-6481004D01*
X45333292Y-6394500D01*
X45328521Y-6370512D01*
X45323580Y-6345671D01*
X45282793Y-6247203D01*
X45270775Y-6218189D01*
X45194114Y-6103458D01*
X45096542Y-6005886D01*
X43476524Y-4385867D01*
X43448747Y-4331350D01*
X43448041Y-4325924D01*
X43440000Y-4247210D01*
X43439999Y-4247205D01*
X43439999Y-4247203D01*
X43384814Y-4080666D01*
X43292712Y-3931344D01*
X43168656Y-3807288D01*
X43168653Y-3807286D01*
X43168652Y-3807285D01*
X43019338Y-3715188D01*
X43019327Y-3715183D01*
X43018355Y-3714861D01*
X43017867Y-3714502D01*
X43014111Y-3712751D01*
X43014462Y-3711997D01*
X42969067Y-3678608D01*
X42950500Y-3620888D01*
X42950500Y-3081008D01*
X42950499Y-3081004D01*
X42945395Y-3055346D01*
X42923580Y-2945672D01*
X42911082Y-2915500D01*
X42885815Y-2854500D01*
X42870775Y-2818189D01*
X42870772Y-2818185D01*
X42870771Y-2818182D01*
X42838279Y-2769555D01*
X42794114Y-2703458D01*
X42696542Y-2605886D01*
X41561543Y-1470886D01*
X41446811Y-1394225D01*
X41446810Y-1394224D01*
X41446808Y-1394223D01*
X41319328Y-1341420D01*
X41183996Y-1314500D01*
X41183994Y-1314500D01*
X41183993Y-1314500D01*
X40283210Y-1314500D01*
X40225019Y-1295593D01*
X40195000Y-1260445D01*
X40124383Y-1121851D01*
X40124380Y-1121847D01*
X40124379Y-1121845D01*
X40005261Y-974748D01*
X40005257Y-974743D01*
X40005146Y-974653D01*
X39858154Y-855620D01*
X39858152Y-855619D01*
X39858150Y-855618D01*
X39858149Y-855617D01*
X39689488Y-769680D01*
X39506645Y-720688D01*
X39506641Y-720687D01*
X39506642Y-720687D01*
X39460960Y-717092D01*
X39428021Y-714500D01*
X39428014Y-714500D01*
X37301986Y-714500D01*
X37223356Y-720687D01*
X37223353Y-720688D01*
X37040512Y-769680D01*
X36871847Y-855619D01*
X36871845Y-855620D01*
X36724748Y-974738D01*
X36724738Y-974748D01*
X36605620Y-1121845D01*
X36605619Y-1121847D01*
X36605617Y-1121851D01*
X36519680Y-1290512D01*
X36470703Y-1473301D01*
X36470687Y-1473359D01*
X36467024Y-1519905D01*
X36464505Y-1551926D01*
X36464500Y-1551985D01*
X36464500Y-2478013D01*
X36470687Y-2556643D01*
X36470688Y-2556646D01*
X36488838Y-2624382D01*
X36519680Y-2739488D01*
X36578283Y-2854502D01*
X36605619Y-2908152D01*
X36605620Y-2908154D01*
X36647523Y-2959899D01*
X36724743Y-3055257D01*
X36724748Y-3055261D01*
X36871845Y-3174379D01*
X36871847Y-3174380D01*
X36871851Y-3174383D01*
X36915828Y-3196790D01*
X36959093Y-3240055D01*
X36968664Y-3300487D01*
X36940886Y-3355004D01*
X36915829Y-3373208D01*
X36915282Y-3373488D01*
X36871847Y-3395619D01*
X36871845Y-3395620D01*
X36724748Y-3514738D01*
X36724738Y-3514748D01*
X36605620Y-3661845D01*
X36605619Y-3661847D01*
X36605617Y-3661851D01*
X36519680Y-3830512D01*
X36492663Y-3931344D01*
X36470687Y-4013359D01*
X36468528Y-4040798D01*
X36465391Y-4080666D01*
X36464500Y-4091985D01*
X36464500Y-5018013D01*
X36470687Y-5096643D01*
X36470688Y-5096646D01*
X36495184Y-5188066D01*
X36519680Y-5279488D01*
X36605518Y-5447954D01*
X36605619Y-5448152D01*
X36605620Y-5448154D01*
X36724738Y-5595251D01*
X36724743Y-5595257D01*
X36724748Y-5595261D01*
X36871845Y-5714379D01*
X36871847Y-5714380D01*
X36871851Y-5714383D01*
X36915828Y-5736790D01*
X36959093Y-5780055D01*
X36968664Y-5840487D01*
X36940886Y-5895004D01*
X36915829Y-5913208D01*
X36880237Y-5931344D01*
X36871847Y-5935619D01*
X36871845Y-5935620D01*
X36724748Y-6054738D01*
X36724738Y-6054748D01*
X36605620Y-6201845D01*
X36605619Y-6201847D01*
X36605617Y-6201851D01*
X36519680Y-6370512D01*
X36470703Y-6553301D01*
X36470687Y-6553359D01*
X36468578Y-6580163D01*
X36464505Y-6631926D01*
X36464500Y-6631985D01*
X36464500Y-7558013D01*
X36470687Y-7636643D01*
X36470688Y-7636646D01*
X36471350Y-7639116D01*
X36519680Y-7819488D01*
X36602342Y-7981721D01*
X36605619Y-7988152D01*
X36605620Y-7988154D01*
X36714618Y-8122754D01*
X36724743Y-8135257D01*
X36724848Y-8135342D01*
X36871845Y-8254379D01*
X36871847Y-8254380D01*
X36871851Y-8254383D01*
X36915828Y-8276790D01*
X36959093Y-8320055D01*
X36968664Y-8380487D01*
X36940886Y-8435004D01*
X36915829Y-8453208D01*
X36875836Y-8473586D01*
X36871847Y-8475619D01*
X36871845Y-8475620D01*
X36724748Y-8594738D01*
X36724738Y-8594748D01*
X36605620Y-8741845D01*
X36605619Y-8741847D01*
X36605617Y-8741851D01*
X36519680Y-8910512D01*
X36470703Y-9093301D01*
X36470687Y-9093359D01*
X36468295Y-9123757D01*
X36464505Y-9171926D01*
X36464500Y-9171985D01*
X36464500Y-10098013D01*
X36470687Y-10176643D01*
X36470688Y-10176646D01*
X36472483Y-10183344D01*
X36519680Y-10359488D01*
X36595134Y-10507574D01*
X36605619Y-10528152D01*
X36605620Y-10528154D01*
X36724738Y-10675251D01*
X36724743Y-10675257D01*
X36724748Y-10675261D01*
X36871845Y-10794379D01*
X36871847Y-10794380D01*
X36871851Y-10794383D01*
X36915828Y-10816790D01*
X36959093Y-10860055D01*
X36968664Y-10920487D01*
X36940886Y-10975004D01*
X36915829Y-10993208D01*
X36880596Y-11011161D01*
X36871847Y-11015619D01*
X36871845Y-11015620D01*
X36724748Y-11134738D01*
X36724738Y-11134748D01*
X36605620Y-11281845D01*
X36605619Y-11281847D01*
X36605617Y-11281851D01*
X36519680Y-11450512D01*
X36470703Y-11633301D01*
X36470687Y-11633359D01*
X36468295Y-11663757D01*
X36464505Y-11711926D01*
X36464500Y-11711985D01*
X36464500Y-12638013D01*
X36470687Y-12716643D01*
X36470688Y-12716646D01*
X36484399Y-12767815D01*
X36519680Y-12899488D01*
X36605617Y-13068149D01*
X36605619Y-13068152D01*
X36605620Y-13068154D01*
X36724576Y-13215051D01*
X36724743Y-13215257D01*
X36724748Y-13215261D01*
X36871845Y-13334379D01*
X36871847Y-13334380D01*
X36871851Y-13334383D01*
X36915749Y-13356750D01*
X36959013Y-13400013D01*
X36968585Y-13460445D01*
X36940808Y-13514962D01*
X36915751Y-13533168D01*
X36871870Y-13555527D01*
X36871868Y-13555528D01*
X36724763Y-13674653D01*
X36724753Y-13674663D01*
X36605628Y-13821768D01*
X36605627Y-13821770D01*
X36519683Y-13990445D01*
X36470687Y-14173301D01*
X36464500Y-14251931D01*
X36464500Y-15178068D01*
X36470687Y-15256698D01*
X36470687Y-15256701D01*
X36470688Y-15256703D01*
X36484384Y-15307815D01*
X36519683Y-15439554D01*
X36605627Y-15608229D01*
X36605628Y-15608231D01*
X36692826Y-15715910D01*
X36724758Y-15755342D01*
X36724763Y-15755346D01*
X36871868Y-15874471D01*
X36871877Y-15874477D01*
X36915670Y-15896791D01*
X36958935Y-15940055D01*
X36968506Y-16000487D01*
X36940728Y-16055004D01*
X36915670Y-16073209D01*
X36871877Y-16095522D01*
X36871868Y-16095528D01*
X36724763Y-16214653D01*
X36724753Y-16214663D01*
X36605628Y-16361768D01*
X36605627Y-16361770D01*
X36519683Y-16530445D01*
X36470687Y-16713301D01*
X36464500Y-16791931D01*
X36464500Y-17718068D01*
X36470687Y-17796698D01*
X36513873Y-17957872D01*
X36519684Y-17979556D01*
X36567761Y-18073914D01*
X36605627Y-18148229D01*
X36605628Y-18148231D01*
X36724521Y-18295049D01*
X36724758Y-18295342D01*
X36724763Y-18295346D01*
X36871868Y-18414471D01*
X36871877Y-18414477D01*
X36915670Y-18436791D01*
X36958935Y-18480055D01*
X36968506Y-18540487D01*
X36940728Y-18595004D01*
X36915670Y-18613209D01*
X36871877Y-18635522D01*
X36871868Y-18635528D01*
X36724763Y-18754653D01*
X36724753Y-18754663D01*
X36605628Y-18901768D01*
X36605627Y-18901770D01*
X36519683Y-19070445D01*
X36470687Y-19253301D01*
X36464500Y-19331931D01*
X36464500Y-20258068D01*
X36470687Y-20336698D01*
X36499125Y-20442832D01*
X36519684Y-20519556D01*
X36573369Y-20624920D01*
X36605627Y-20688229D01*
X36605628Y-20688231D01*
X36711929Y-20819500D01*
X36724758Y-20835342D01*
X36724763Y-20835346D01*
X36871868Y-20954471D01*
X36871877Y-20954477D01*
X36915670Y-20976791D01*
X36958935Y-21020055D01*
X36968506Y-21080487D01*
X36940728Y-21135004D01*
X36915670Y-21153209D01*
X36871877Y-21175522D01*
X36871868Y-21175528D01*
X36724763Y-21294653D01*
X36724753Y-21294663D01*
X36605628Y-21441768D01*
X36605624Y-21441774D01*
X36583193Y-21485798D01*
X36539928Y-21529062D01*
X36479496Y-21538633D01*
X36424980Y-21510855D01*
X36406775Y-21485798D01*
X36384383Y-21441851D01*
X36384380Y-21441847D01*
X36384379Y-21441845D01*
X36265261Y-21294748D01*
X36265257Y-21294743D01*
X36265146Y-21294653D01*
X36118154Y-21175620D01*
X36118152Y-21175619D01*
X36118150Y-21175618D01*
X36118149Y-21175617D01*
X35949488Y-21089680D01*
X35766645Y-21040688D01*
X35766641Y-21040687D01*
X35766642Y-21040687D01*
X35720960Y-21037092D01*
X35688021Y-21034500D01*
X35688014Y-21034500D01*
X34761986Y-21034500D01*
X34683356Y-21040687D01*
X34683353Y-21040688D01*
X34500512Y-21089680D01*
X34331847Y-21175619D01*
X34331845Y-21175620D01*
X34184748Y-21294738D01*
X34184738Y-21294748D01*
X34065620Y-21441845D01*
X34065616Y-21441851D01*
X34038128Y-21495799D01*
X33994863Y-21539063D01*
X33934431Y-21548634D01*
X33879914Y-21520856D01*
X33861711Y-21495800D01*
X33832771Y-21439001D01*
X33832768Y-21438997D01*
X33832767Y-21438995D01*
X33714482Y-21292927D01*
X33714478Y-21292922D01*
X33700994Y-21282003D01*
X33568404Y-21174632D01*
X33568402Y-21174631D01*
X33568400Y-21174630D01*
X33568399Y-21174629D01*
X33400918Y-21089294D01*
X33400915Y-21089293D01*
X33400916Y-21089293D01*
X33311644Y-21065373D01*
X33219354Y-21040644D01*
X33219350Y-21040643D01*
X33219351Y-21040643D01*
X33173993Y-21037074D01*
X33141289Y-21034500D01*
X33141282Y-21034500D01*
X32228718Y-21034500D01*
X32150649Y-21040643D01*
X31969083Y-21089293D01*
X31801597Y-21174631D01*
X31801595Y-21174632D01*
X31655527Y-21292917D01*
X31655517Y-21292927D01*
X31537232Y-21438995D01*
X31537231Y-21438997D01*
X31537229Y-21439001D01*
X31513386Y-21485797D01*
X31503210Y-21505768D01*
X31459945Y-21549033D01*
X31399513Y-21558604D01*
X31344996Y-21530827D01*
X31326790Y-21505768D01*
X31292771Y-21439001D01*
X31292768Y-21438997D01*
X31292767Y-21438995D01*
X31174482Y-21292927D01*
X31174478Y-21292922D01*
X31160994Y-21282003D01*
X31028404Y-21174632D01*
X31028402Y-21174631D01*
X31028400Y-21174630D01*
X31028399Y-21174629D01*
X30860918Y-21089294D01*
X30860915Y-21089293D01*
X30860916Y-21089293D01*
X30771644Y-21065373D01*
X30679354Y-21040644D01*
X30679350Y-21040643D01*
X30679351Y-21040643D01*
X30633993Y-21037074D01*
X30601289Y-21034500D01*
X30601282Y-21034500D01*
X29688718Y-21034500D01*
X29610649Y-21040643D01*
X29429083Y-21089293D01*
X29261597Y-21174631D01*
X29261595Y-21174632D01*
X29115527Y-21292917D01*
X29115517Y-21292927D01*
X28997232Y-21438995D01*
X28997231Y-21438997D01*
X28997229Y-21439001D01*
X28973386Y-21485797D01*
X28963210Y-21505768D01*
X28919945Y-21549033D01*
X28859513Y-21558604D01*
X28804996Y-21530827D01*
X28786790Y-21505768D01*
X28752771Y-21439001D01*
X28752768Y-21438997D01*
X28752767Y-21438995D01*
X28634482Y-21292927D01*
X28634478Y-21292922D01*
X28620994Y-21282003D01*
X28488404Y-21174632D01*
X28488402Y-21174631D01*
X28488400Y-21174630D01*
X28488399Y-21174629D01*
X28320918Y-21089294D01*
X28320915Y-21089293D01*
X28320916Y-21089293D01*
X28231644Y-21065373D01*
X28139354Y-21040644D01*
X28139350Y-21040643D01*
X28139351Y-21040643D01*
X28093993Y-21037074D01*
X28061289Y-21034500D01*
X28061282Y-21034500D01*
X27148718Y-21034500D01*
X27070649Y-21040643D01*
X26889083Y-21089293D01*
X26721597Y-21174631D01*
X26721595Y-21174632D01*
X26575527Y-21292917D01*
X26575517Y-21292927D01*
X26457232Y-21438995D01*
X26457231Y-21438997D01*
X26457229Y-21439001D01*
X26433386Y-21485797D01*
X26423210Y-21505768D01*
X26379945Y-21549033D01*
X26319513Y-21558604D01*
X26264996Y-21530827D01*
X26246790Y-21505768D01*
X26212771Y-21439001D01*
X26212768Y-21438997D01*
X26212767Y-21438995D01*
X26094482Y-21292927D01*
X26094478Y-21292922D01*
X26080994Y-21282003D01*
X25948404Y-21174632D01*
X25948402Y-21174631D01*
X25948400Y-21174630D01*
X25948399Y-21174629D01*
X25780918Y-21089294D01*
X25780915Y-21089293D01*
X25780916Y-21089293D01*
X25691644Y-21065373D01*
X25599354Y-21040644D01*
X25599350Y-21040643D01*
X25599351Y-21040643D01*
X25553993Y-21037074D01*
X25521289Y-21034500D01*
X25521282Y-21034500D01*
X24608718Y-21034500D01*
X24530649Y-21040643D01*
X24349083Y-21089293D01*
X24181597Y-21174631D01*
X24181595Y-21174632D01*
X24035527Y-21292917D01*
X24035517Y-21292927D01*
X23917232Y-21438995D01*
X23917228Y-21439001D01*
X23888304Y-21495768D01*
X23845039Y-21539032D01*
X23784607Y-21548603D01*
X23730091Y-21520825D01*
X23711886Y-21495768D01*
X23684375Y-21441774D01*
X23684373Y-21441772D01*
X23684372Y-21441769D01*
X23684371Y-21441768D01*
X23565246Y-21294663D01*
X23565242Y-21294658D01*
X23565236Y-21294653D01*
X23418131Y-21175528D01*
X23418129Y-21175527D01*
X23418127Y-21175526D01*
X23418126Y-21175525D01*
X23374327Y-21153208D01*
X23331065Y-21109945D01*
X23321493Y-21049513D01*
X23349270Y-20994997D01*
X23374326Y-20976791D01*
X23418126Y-20954475D01*
X23565242Y-20835342D01*
X23684375Y-20688226D01*
X23770316Y-20519556D01*
X23819312Y-20336703D01*
X23825500Y-20258075D01*
X23825499Y-19331926D01*
X23819312Y-19253297D01*
X23770316Y-19070444D01*
X23684375Y-18901774D01*
X23684372Y-18901770D01*
X23684371Y-18901768D01*
X23565246Y-18754663D01*
X23565242Y-18754658D01*
X23565236Y-18754653D01*
X23418131Y-18635528D01*
X23418129Y-18635527D01*
X23418127Y-18635526D01*
X23418126Y-18635525D01*
X23374327Y-18613208D01*
X23331065Y-18569945D01*
X23321493Y-18509513D01*
X23349270Y-18454997D01*
X23374326Y-18436791D01*
X23418126Y-18414475D01*
X23565242Y-18295342D01*
X23684375Y-18148226D01*
X23770316Y-17979556D01*
X23819312Y-17796703D01*
X23825500Y-17718075D01*
X23825499Y-16791926D01*
X23819312Y-16713297D01*
X23770316Y-16530444D01*
X23684375Y-16361774D01*
X23684372Y-16361770D01*
X23684371Y-16361768D01*
X23565246Y-16214663D01*
X23565244Y-16214661D01*
X23565242Y-16214658D01*
X23508499Y-16168708D01*
X23418131Y-16095528D01*
X23418129Y-16095527D01*
X23418127Y-16095526D01*
X23418126Y-16095525D01*
X23374327Y-16073208D01*
X23331065Y-16029945D01*
X23321493Y-15969513D01*
X23349270Y-15914997D01*
X23374326Y-15896791D01*
X23418126Y-15874475D01*
X23565242Y-15755342D01*
X23684375Y-15608226D01*
X23770316Y-15439556D01*
X23819312Y-15256703D01*
X23825500Y-15178075D01*
X23825499Y-14251926D01*
X23819312Y-14173297D01*
X23770316Y-13990444D01*
X23684375Y-13821774D01*
X23684372Y-13821770D01*
X23684371Y-13821768D01*
X23565246Y-13674663D01*
X23565242Y-13674658D01*
X23565236Y-13674653D01*
X23418131Y-13555528D01*
X23418129Y-13555527D01*
X23418127Y-13555526D01*
X23418126Y-13555525D01*
X23374327Y-13533208D01*
X23331065Y-13489945D01*
X23321493Y-13429513D01*
X23349270Y-13374997D01*
X23374326Y-13356791D01*
X23418126Y-13334475D01*
X23565242Y-13215342D01*
X23684375Y-13068226D01*
X23770316Y-12899556D01*
X23819312Y-12716703D01*
X23825500Y-12638075D01*
X23825499Y-11711926D01*
X23819312Y-11633297D01*
X23770316Y-11450444D01*
X23684375Y-11281774D01*
X23684372Y-11281770D01*
X23684371Y-11281768D01*
X23565246Y-11134663D01*
X23565242Y-11134658D01*
X23565236Y-11134653D01*
X23418131Y-11015528D01*
X23418129Y-11015527D01*
X23418127Y-11015526D01*
X23418126Y-11015525D01*
X23374327Y-10993208D01*
X23331065Y-10949945D01*
X23321493Y-10889513D01*
X23349270Y-10834997D01*
X23374326Y-10816791D01*
X23418126Y-10794475D01*
X23565242Y-10675342D01*
X23684375Y-10528226D01*
X23770316Y-10359556D01*
X23819312Y-10176703D01*
X23825500Y-10098075D01*
X23825499Y-9171926D01*
X23819312Y-9093297D01*
X23770316Y-8910444D01*
X23684375Y-8741774D01*
X23684372Y-8741770D01*
X23684371Y-8741768D01*
X23565246Y-8594663D01*
X23565242Y-8594658D01*
X23525554Y-8562519D01*
X23418131Y-8475528D01*
X23418129Y-8475527D01*
X23418127Y-8475526D01*
X23418126Y-8475525D01*
X23374327Y-8453208D01*
X23331065Y-8409945D01*
X23321493Y-8349513D01*
X23349270Y-8294997D01*
X23374326Y-8276791D01*
X23418126Y-8254475D01*
X23565242Y-8135342D01*
X23684375Y-7988226D01*
X23770316Y-7819556D01*
X23819312Y-7636703D01*
X23825500Y-7558075D01*
X23825499Y-6631926D01*
X23819312Y-6553297D01*
X23770316Y-6370444D01*
X23684375Y-6201774D01*
X23684372Y-6201770D01*
X23684371Y-6201768D01*
X23565246Y-6054663D01*
X23565242Y-6054658D01*
X23565236Y-6054653D01*
X23418131Y-5935528D01*
X23418126Y-5935525D01*
X23373780Y-5912930D01*
X23330515Y-5869666D01*
X23320943Y-5809234D01*
X23348720Y-5754717D01*
X23373779Y-5736510D01*
X23417854Y-5714052D01*
X23564881Y-5594991D01*
X23564891Y-5594981D01*
X23683952Y-5447954D01*
X23769848Y-5279374D01*
X23818816Y-5096620D01*
X23825000Y-5018041D01*
X23825000Y-4805001D01*
X23824999Y-4805000D01*
X22840686Y-4805000D01*
X22845080Y-4800606D01*
X22897741Y-4709394D01*
X22925000Y-4607661D01*
X22925000Y-4502339D01*
X22897741Y-4400606D01*
X22845080Y-4309394D01*
X22840686Y-4305000D01*
X23824999Y-4305000D01*
X23825000Y-4304999D01*
X23825000Y-4091958D01*
X23818816Y-4013379D01*
X23769848Y-3830625D01*
X23683952Y-3662045D01*
X23564891Y-3515018D01*
X23564881Y-3515008D01*
X23417852Y-3395945D01*
X23373778Y-3373488D01*
X23330514Y-3330223D01*
X23320943Y-3269791D01*
X23348721Y-3215275D01*
X23373773Y-3197073D01*
X23418126Y-3174475D01*
X23565242Y-3055342D01*
X23684375Y-2908226D01*
X23770316Y-2739556D01*
X23819312Y-2556703D01*
X23825500Y-2478075D01*
X23825499Y-1551926D01*
X23819312Y-1473297D01*
X23770316Y-1290444D01*
X23684375Y-1121774D01*
X23684372Y-1121770D01*
X23684371Y-1121768D01*
X23565246Y-974663D01*
X23565242Y-974658D01*
X23565236Y-974653D01*
X23418131Y-855528D01*
X23418129Y-855527D01*
X23418127Y-855526D01*
X23418126Y-855525D01*
X23249456Y-769584D01*
X23249453Y-769583D01*
X23249454Y-769583D01*
X23170276Y-748367D01*
X23066603Y-720588D01*
X23066599Y-720587D01*
X23066600Y-720587D01*
X23020914Y-716992D01*
X22987975Y-714400D01*
X22987968Y-714400D01*
X20862031Y-714400D01*
X20783401Y-720587D01*
X20600545Y-769583D01*
X20431870Y-855527D01*
X20431868Y-855528D01*
X20284763Y-974653D01*
X20284753Y-974663D01*
X20165628Y-1121768D01*
X20165627Y-1121770D01*
X20079683Y-1290445D01*
X20030687Y-1473301D01*
X20024500Y-1551931D01*
X20024500Y-2478068D01*
X20030687Y-2556698D01*
X20030687Y-2556701D01*
X20030688Y-2556703D01*
X20048823Y-2624382D01*
X20079665Y-2739488D01*
X20079684Y-2739556D01*
X20165588Y-2908154D01*
X20165627Y-2908229D01*
X20165628Y-2908231D01*
X20207468Y-2959898D01*
X20284758Y-3055342D01*
X20284763Y-3055346D01*
X20431868Y-3174471D01*
X20431870Y-3174472D01*
X20431874Y-3174475D01*
X20476220Y-3197070D01*
X20519484Y-3240333D01*
X20529056Y-3300765D01*
X20501280Y-3355281D01*
X20476222Y-3373488D01*
X20432146Y-3395946D01*
X20285118Y-3515008D01*
X20285108Y-3515018D01*
X20166047Y-3662045D01*
X20080151Y-3830625D01*
X20031183Y-4013379D01*
X20025000Y-4091958D01*
X20025000Y-4304999D01*
X20025001Y-4305000D01*
X22209314Y-4305000D01*
X22204920Y-4309394D01*
X22152259Y-4400606D01*
X22125000Y-4502339D01*
X22125000Y-4607661D01*
X22152259Y-4709394D01*
X22204920Y-4800606D01*
X22209314Y-4805000D01*
X20025001Y-4805000D01*
X20025000Y-4805001D01*
X20025000Y-5018041D01*
X20031183Y-5096620D01*
X20080151Y-5279374D01*
X20166047Y-5447954D01*
X20285108Y-5594981D01*
X20285118Y-5594991D01*
X20432145Y-5714052D01*
X20476220Y-5736510D01*
X20519485Y-5779775D01*
X20529056Y-5840207D01*
X20501278Y-5894724D01*
X20476220Y-5912930D01*
X20431870Y-5935527D01*
X20431868Y-5935528D01*
X20284763Y-6054653D01*
X20284758Y-6054658D01*
X20282209Y-6057804D01*
X20230896Y-6091127D01*
X20205274Y-6094500D01*
X15796456Y-6094500D01*
X15603165Y-6132949D01*
X15603163Y-6132949D01*
X15421086Y-6208367D01*
X15257218Y-6317861D01*
X15257214Y-6317864D01*
X15209575Y-6365504D01*
X15155058Y-6393281D01*
X15139571Y-6394500D01*
X12336165Y-6394500D01*
X12277974Y-6375593D01*
X12266161Y-6365504D01*
X11439496Y-5538839D01*
X11411719Y-5484322D01*
X11410500Y-5468835D01*
X11410500Y-4805120D01*
X11429407Y-4746929D01*
X11451309Y-4725028D01*
X11472827Y-4709394D01*
X11505102Y-4685945D01*
X11640945Y-4550102D01*
X11753865Y-4394681D01*
X11841082Y-4223509D01*
X11883816Y-4091986D01*
X11885845Y-4085742D01*
X11921809Y-4036241D01*
X11980000Y-4017334D01*
X12038191Y-4036241D01*
X12074155Y-4085741D01*
X12074155Y-4085742D01*
X12118915Y-4223502D01*
X12118917Y-4223505D01*
X12118918Y-4223509D01*
X12160440Y-4305000D01*
X12205997Y-4394412D01*
X12206135Y-4394681D01*
X12319055Y-4550102D01*
X12454898Y-4685945D01*
X12610319Y-4798865D01*
X12781491Y-4886082D01*
X12964199Y-4945447D01*
X13024514Y-4955000D01*
X13153942Y-4975500D01*
X13153945Y-4975500D01*
X13346058Y-4975500D01*
X13440928Y-4960473D01*
X13535801Y-4945447D01*
X13718509Y-4886082D01*
X13889681Y-4798865D01*
X14045102Y-4685945D01*
X14180945Y-4550102D01*
X14293865Y-4394681D01*
X14381082Y-4223509D01*
X14426108Y-4084931D01*
X14462072Y-4035432D01*
X14520263Y-4016524D01*
X14578453Y-4035431D01*
X14614417Y-4084931D01*
X14614418Y-4084931D01*
X14659382Y-4223317D01*
X14746561Y-4394416D01*
X14767797Y-4423646D01*
X15390000Y-3801443D01*
X15390000Y-3807661D01*
X15417259Y-3909394D01*
X15469920Y-4000606D01*
X15544394Y-4075080D01*
X15635606Y-4127741D01*
X15737339Y-4155000D01*
X15743553Y-4155000D01*
X15121352Y-4777201D01*
X15150577Y-4798435D01*
X15150581Y-4798437D01*
X15321682Y-4885617D01*
X15504320Y-4944960D01*
X15693981Y-4975000D01*
X15886019Y-4975000D01*
X16075679Y-4944960D01*
X16258317Y-4885617D01*
X16429412Y-4798440D01*
X16429420Y-4798435D01*
X16458646Y-4777201D01*
X15836445Y-4155000D01*
X15842661Y-4155000D01*
X15944394Y-4127741D01*
X16035606Y-4075080D01*
X16110080Y-4000606D01*
X16162741Y-3909394D01*
X16190000Y-3807661D01*
X16190000Y-3801445D01*
X16812201Y-4423646D01*
X16833435Y-4394420D01*
X16833440Y-4394412D01*
X16920617Y-4223317D01*
X16979960Y-4040679D01*
X17010000Y-3851019D01*
X17010000Y-3658980D01*
X16979960Y-3469320D01*
X16920617Y-3286682D01*
X16833437Y-3115581D01*
X16833435Y-3115577D01*
X16812201Y-3086352D01*
X16190000Y-3708553D01*
X16190000Y-3702339D01*
X16162741Y-3600606D01*
X16110080Y-3509394D01*
X16035606Y-3434920D01*
X15944394Y-3382259D01*
X15842661Y-3355000D01*
X15836443Y-3355000D01*
X16458646Y-2732797D01*
X16429416Y-2711561D01*
X16258317Y-2624382D01*
X16075679Y-2565039D01*
X15886019Y-2535000D01*
X15693981Y-2535000D01*
X15504320Y-2565039D01*
X15321682Y-2624382D01*
X15150580Y-2711563D01*
X15121352Y-2732797D01*
X15743555Y-3355000D01*
X15737339Y-3355000D01*
X15635606Y-3382259D01*
X15544394Y-3434920D01*
X15469920Y-3509394D01*
X15417259Y-3600606D01*
X15390000Y-3702339D01*
X15390000Y-3708555D01*
X14767797Y-3086352D01*
X14746563Y-3115580D01*
X14659382Y-3286682D01*
X14614418Y-3425068D01*
X14578454Y-3474568D01*
X14520263Y-3493475D01*
X14462072Y-3474568D01*
X14426108Y-3425068D01*
X14425427Y-3422973D01*
X14381082Y-3286491D01*
X14293865Y-3115319D01*
X14180945Y-2959898D01*
X14045102Y-2824055D01*
X13889681Y-2711135D01*
X13889680Y-2711134D01*
X13889678Y-2711133D01*
X13811945Y-2671526D01*
X13718509Y-2623918D01*
X13718505Y-2623917D01*
X13718502Y-2623915D01*
X13535798Y-2564552D01*
X13346058Y-2534500D01*
X13346055Y-2534500D01*
X13153945Y-2534500D01*
X13153942Y-2534500D01*
X12964201Y-2564552D01*
X12781497Y-2623915D01*
X12610321Y-2711133D01*
X12454899Y-2824054D01*
X12319054Y-2959899D01*
X12206133Y-3115321D01*
X12118916Y-3286495D01*
X12074155Y-3424258D01*
X12038191Y-3473758D01*
X11980000Y-3492665D01*
X11921809Y-3473758D01*
X11885845Y-3424258D01*
X11869349Y-3373488D01*
X11841082Y-3286491D01*
X11753865Y-3115319D01*
X11640945Y-2959898D01*
X11505102Y-2824055D01*
X11349681Y-2711135D01*
X11349680Y-2711134D01*
X11349678Y-2711133D01*
X11271945Y-2671526D01*
X11178509Y-2623918D01*
X11178505Y-2623917D01*
X11178502Y-2623915D01*
X10995798Y-2564552D01*
X10806058Y-2534500D01*
X10806055Y-2534500D01*
X10613945Y-2534500D01*
X10613942Y-2534500D01*
X10424201Y-2564552D01*
X10241497Y-2623915D01*
X10070321Y-2711133D01*
X9914899Y-2824054D01*
X9779054Y-2959899D01*
X9666133Y-3115321D01*
X9578915Y-3286497D01*
X9519552Y-3469201D01*
X9489500Y-3658941D01*
X9489500Y-3851058D01*
X9519552Y-4040798D01*
X9578915Y-4223502D01*
X9578917Y-4223505D01*
X9578918Y-4223509D01*
X9620440Y-4305000D01*
X9665997Y-4394412D01*
X9666135Y-4394681D01*
X9779055Y-4550102D01*
X9914898Y-4685945D01*
X9914901Y-4685947D01*
X9968691Y-4725028D01*
X10004655Y-4774528D01*
X10009500Y-4805120D01*
X10009500Y-5868996D01*
X10036420Y-6004327D01*
X10036420Y-6004329D01*
X10089223Y-6131808D01*
X10146940Y-6218189D01*
X10165886Y-6246543D01*
X11558457Y-7639114D01*
X11673189Y-7715775D01*
X11800672Y-7768580D01*
X11936006Y-7795500D01*
X11936007Y-7795500D01*
X15139571Y-7795500D01*
X15197762Y-7814407D01*
X15209575Y-7824496D01*
X15257218Y-7872139D01*
X15421086Y-7981632D01*
X15603165Y-8057051D01*
X15796459Y-8095500D01*
X20205274Y-8095500D01*
X20263465Y-8114407D01*
X20282208Y-8132193D01*
X20284758Y-8135342D01*
X20284763Y-8135346D01*
X20431868Y-8254471D01*
X20431877Y-8254477D01*
X20475670Y-8276791D01*
X20518935Y-8320055D01*
X20528506Y-8380487D01*
X20500728Y-8435004D01*
X20475670Y-8453209D01*
X20431877Y-8475522D01*
X20431868Y-8475528D01*
X20284763Y-8594653D01*
X20284753Y-8594663D01*
X20165628Y-8741768D01*
X20165627Y-8741769D01*
X20147154Y-8778026D01*
X20094968Y-8880446D01*
X20051706Y-8923709D01*
X20006760Y-8934500D01*
X16467516Y-8934500D01*
X16412514Y-8917815D01*
X16291554Y-8836990D01*
X16291542Y-8836984D01*
X16127666Y-8769106D01*
X15953693Y-8734500D01*
X15953691Y-8734500D01*
X15776309Y-8734500D01*
X15776306Y-8734500D01*
X15602334Y-8769106D01*
X15602332Y-8769106D01*
X15438455Y-8836985D01*
X15438454Y-8836985D01*
X15290965Y-8935535D01*
X15165535Y-9060965D01*
X15090227Y-9173671D01*
X15042177Y-9211550D01*
X14981039Y-9213952D01*
X14937908Y-9188673D01*
X14900521Y-9151286D01*
X14900520Y-9151284D01*
X14788716Y-9039480D01*
X14788713Y-9039478D01*
X14661595Y-8966086D01*
X14661591Y-8966085D01*
X14651785Y-8960423D01*
X14651781Y-8960422D01*
X14651784Y-8960422D01*
X14539980Y-8930464D01*
X14499057Y-8919499D01*
X14340943Y-8919499D01*
X14334880Y-8919499D01*
X14334864Y-8919500D01*
X4449499Y-8919500D01*
X4391308Y-8900593D01*
X4355344Y-8851093D01*
X4350499Y-8820500D01*
X4350499Y-8622133D01*
X4350499Y-8622128D01*
X4344091Y-8562517D01*
X4311681Y-8475620D01*
X4293797Y-8427670D01*
X4207549Y-8312458D01*
X4207548Y-8312457D01*
X4207546Y-8312454D01*
X4207541Y-8312450D01*
X4092329Y-8226202D01*
X3957488Y-8175910D01*
X3957483Y-8175909D01*
X3957481Y-8175908D01*
X3957477Y-8175908D01*
X3926249Y-8172550D01*
X3897873Y-8169500D01*
X3897870Y-8169500D01*
X2102133Y-8169500D01*
X2102129Y-8169500D01*
X2102128Y-8169501D01*
X2094949Y-8170272D01*
X2042519Y-8175908D01*
X2042514Y-8175909D01*
X1907670Y-8226202D01*
X1792458Y-8312450D01*
X1792450Y-8312458D01*
X1706202Y-8427670D01*
X1655910Y-8562511D01*
X1655908Y-8562522D01*
X1649500Y-8622129D01*
X1649500Y-10417866D01*
X1649500Y-10417869D01*
X1649501Y-10417872D01*
X1651044Y-10432229D01*
X1655908Y-10477480D01*
X1655909Y-10477485D01*
X1706202Y-10612329D01*
X1792450Y-10727541D01*
X1792454Y-10727546D01*
X1792457Y-10727548D01*
X1792458Y-10727549D01*
X1907670Y-10813797D01*
X2042511Y-10864089D01*
X2042512Y-10864089D01*
X2042517Y-10864091D01*
X2056637Y-10865609D01*
X2112473Y-10890629D01*
X2142939Y-10943689D01*
X2136399Y-11004524D01*
X2116058Y-11034045D01*
X1969897Y-11180206D01*
X1969892Y-11180212D01*
X1844950Y-11352180D01*
X1844948Y-11352184D01*
X1748443Y-11541587D01*
X1682752Y-11743761D01*
X1649500Y-11953709D01*
X1649500Y-12166290D01*
X1682752Y-12376238D01*
X1748443Y-12578412D01*
X1844948Y-12767815D01*
X1844950Y-12767819D01*
X1969891Y-12939786D01*
X1969893Y-12939788D01*
X1969896Y-12939792D01*
X2120208Y-13090104D01*
X2120211Y-13090106D01*
X2120213Y-13090108D01*
X2292180Y-13215049D01*
X2292184Y-13215051D01*
X2344662Y-13241790D01*
X2387927Y-13285055D01*
X2397498Y-13345487D01*
X2369720Y-13400004D01*
X2344662Y-13418210D01*
X2292184Y-13444948D01*
X2292180Y-13444950D01*
X2120213Y-13569891D01*
X1969891Y-13720213D01*
X1844950Y-13892180D01*
X1844948Y-13892184D01*
X1748443Y-14081587D01*
X1682752Y-14283761D01*
X1649500Y-14493709D01*
X1649500Y-14706290D01*
X1682752Y-14916238D01*
X1748443Y-15118412D01*
X1844948Y-15307815D01*
X1844950Y-15307819D01*
X1969891Y-15479786D01*
X1969893Y-15479788D01*
X1969896Y-15479792D01*
X2120208Y-15630104D01*
X2120211Y-15630106D01*
X2120213Y-15630108D01*
X2292180Y-15755049D01*
X2292184Y-15755051D01*
X2344662Y-15781790D01*
X2387927Y-15825055D01*
X2397498Y-15885487D01*
X2369720Y-15940004D01*
X2344662Y-15958210D01*
X2292184Y-15984948D01*
X2292180Y-15984950D01*
X2120213Y-16109891D01*
X1969891Y-16260213D01*
X1844950Y-16432180D01*
X1844948Y-16432184D01*
X1748443Y-16621587D01*
X1682752Y-16823761D01*
X1649500Y-17033709D01*
X1649500Y-17246290D01*
X1682752Y-17456238D01*
X1748443Y-17658412D01*
X1844948Y-17847815D01*
X1844950Y-17847819D01*
X1969891Y-18019786D01*
X1969893Y-18019788D01*
X1969896Y-18019792D01*
X2120208Y-18170104D01*
X2120211Y-18170106D01*
X2120213Y-18170108D01*
X2292180Y-18295049D01*
X2292184Y-18295051D01*
X2344662Y-18321790D01*
X2387927Y-18365055D01*
X2397498Y-18425487D01*
X2369720Y-18480004D01*
X2344662Y-18498210D01*
X2292184Y-18524948D01*
X2292180Y-18524950D01*
X2120213Y-18649891D01*
X1969891Y-18800213D01*
X1844950Y-18972180D01*
X1844948Y-18972184D01*
X1748443Y-19161587D01*
X1682752Y-19363761D01*
X1649500Y-19573709D01*
X1649500Y-19786290D01*
X1682752Y-19996238D01*
X1748443Y-20198412D01*
X1844948Y-20387815D01*
X1844950Y-20387819D01*
X1969891Y-20559786D01*
X1969893Y-20559788D01*
X1969896Y-20559792D01*
X2120208Y-20710104D01*
X2120211Y-20710106D01*
X2120213Y-20710108D01*
X2292180Y-20835049D01*
X2292189Y-20835054D01*
X2345212Y-20862070D01*
X2388477Y-20905334D01*
X2398049Y-20965766D01*
X2370272Y-21020283D01*
X2345214Y-21038489D01*
X2292451Y-21065373D01*
X2292442Y-21065378D01*
X2238282Y-21104728D01*
X2870591Y-21737037D01*
X2807007Y-21754075D01*
X2692993Y-21819901D01*
X2599901Y-21912993D01*
X2534075Y-22027007D01*
X2517037Y-22090591D01*
X1884728Y-21458282D01*
X1845378Y-21512442D01*
X1845376Y-21512446D01*
X1748904Y-21701784D01*
X1683240Y-21903878D01*
X1650000Y-22113749D01*
X1650000Y-22326250D01*
X1683240Y-22536121D01*
X1748904Y-22738215D01*
X1845376Y-22927553D01*
X1845380Y-22927559D01*
X1884728Y-22981716D01*
X1884729Y-22981716D01*
X2517037Y-22349407D01*
X2534075Y-22412993D01*
X2599901Y-22527007D01*
X2692993Y-22620099D01*
X2807007Y-22685925D01*
X2870589Y-22702962D01*
X2238282Y-23335269D01*
X2238282Y-23335270D01*
X2292440Y-23374619D01*
X2292446Y-23374623D01*
X2481784Y-23471095D01*
X2683878Y-23536759D01*
X2784643Y-23552719D01*
X2839160Y-23580497D01*
X2866937Y-23635013D01*
X2857366Y-23695445D01*
X2814101Y-23738710D01*
X2769156Y-23749500D01*
X2761306Y-23749500D01*
X2587334Y-23784106D01*
X2587332Y-23784106D01*
X2423455Y-23851985D01*
X2423454Y-23851985D01*
X2275965Y-23950535D01*
X2150535Y-24075965D01*
X2051985Y-24223454D01*
X2051985Y-24223455D01*
X1984106Y-24387332D01*
X1984106Y-24387334D01*
X1949500Y-24561306D01*
X1949500Y-24738693D01*
X1984106Y-24912665D01*
X1984106Y-24912667D01*
X2051985Y-25076544D01*
X2051985Y-25076545D01*
X2126630Y-25188257D01*
X2143239Y-25247145D01*
X2122062Y-25304549D01*
X2082202Y-25334722D01*
X2054268Y-25346293D01*
X2054259Y-25346298D01*
X2054257Y-25346299D01*
X2047116Y-25350422D01*
X1940234Y-25412130D01*
X1835558Y-25492452D01*
X1742452Y-25585558D01*
X1662130Y-25690234D01*
X1596296Y-25804261D01*
X1545799Y-25926171D01*
X1511724Y-26053340D01*
X1511724Y-26053345D01*
X1494873Y-26181344D01*
X1494500Y-26184174D01*
X1494500Y-26750000D01*
X1497214Y-26787949D01*
X1499645Y-26821938D01*
X1499646Y-26821944D01*
X1512135Y-26864478D01*
X1515137Y-26906458D01*
X1494500Y-27049994D01*
X1494500Y-27615826D01*
X1511724Y-27746654D01*
X1511724Y-27746659D01*
X1545799Y-27873828D01*
X1596296Y-27995738D01*
X1596299Y-27995743D01*
X1630338Y-28054701D01*
X1662130Y-28109765D01*
X1742452Y-28214441D01*
X1742455Y-28214444D01*
X1742459Y-28214449D01*
X1835551Y-28307541D01*
X1940243Y-28387875D01*
X2000000Y-28422375D01*
X2040941Y-28467845D01*
X2049500Y-28508112D01*
X2049500Y-29218835D01*
X2030593Y-29277026D01*
X2020504Y-29288838D01*
X1555885Y-29753457D01*
X1479223Y-29868191D01*
X1426420Y-29995670D01*
X1426420Y-29995672D01*
X1406529Y-30095671D01*
X1399500Y-30131006D01*
X500500Y-30131006D01*
X500500Y-599500D01*
X519407Y-541309D01*
X568907Y-505345D01*
X599500Y-500500D01*
X49400500Y-500500D01*
X49458691Y-519407D01*
G37*
%TD.AperFunction*%
%TD*%
M02*
