%TF.GenerationSoftware,KiCad,Pcbnew,9.0.2-rc1*%
%TF.CreationDate,2025-05-18T20:42:10-04:00*%
%TF.ProjectId,moonclock,6d6f6f6e-636c-46f6-936b-2e6b69636164,rev?*%
%TF.SameCoordinates,PX7088980PY3920060*%
%TF.FileFunction,Legend,Top*%
%TF.FilePolarity,Positive*%
%FSLAX46Y46*%
G04 Gerber Fmt 4.6, Leading zero omitted, Abs format (unit mm)*
G04 Created by KiCad (PCBNEW 9.0.2-rc1) date 2025-05-18 20:42:10*
%MOMM*%
%LPD*%
G01*
G04 APERTURE LIST*
%ADD10C,0.200000*%
%ADD11C,0.120000*%
%ADD12C,0.127000*%
%ADD13C,0.250000*%
%ADD14C,0.100000*%
G04 APERTURE END LIST*
D10*
X9500000Y-42100000D02*
X8750000Y-41350000D01*
X10750000Y-42100000D02*
X9500000Y-42100000D01*
X7750000Y-33600000D02*
X7000000Y-33600000D01*
X8750000Y-34600000D02*
X7750000Y-33600000D01*
X15400000Y-34200000D02*
X14900000Y-33900000D01*
X8750000Y-34600000D02*
X9100000Y-34850000D01*
X8750000Y-39100000D02*
X8000000Y-38350000D01*
X8750000Y-41350000D02*
X8750000Y-39100000D01*
X8000000Y-38350000D02*
X7250000Y-38350000D01*
X15400000Y-34700000D02*
X15400000Y-34200000D01*
X9100000Y-34850000D02*
X11000000Y-34900000D01*
X41069673Y-17236266D02*
X41831578Y-17236266D01*
X41450625Y-17617219D02*
X41450625Y-16855314D01*
X42212530Y-16617219D02*
X42831577Y-16617219D01*
X42831577Y-16617219D02*
X42498244Y-16998171D01*
X42498244Y-16998171D02*
X42641101Y-16998171D01*
X42641101Y-16998171D02*
X42736339Y-17045790D01*
X42736339Y-17045790D02*
X42783958Y-17093409D01*
X42783958Y-17093409D02*
X42831577Y-17188647D01*
X42831577Y-17188647D02*
X42831577Y-17426742D01*
X42831577Y-17426742D02*
X42783958Y-17521980D01*
X42783958Y-17521980D02*
X42736339Y-17569600D01*
X42736339Y-17569600D02*
X42641101Y-17617219D01*
X42641101Y-17617219D02*
X42355387Y-17617219D01*
X42355387Y-17617219D02*
X42260149Y-17569600D01*
X42260149Y-17569600D02*
X42212530Y-17521980D01*
X43260149Y-17521980D02*
X43307768Y-17569600D01*
X43307768Y-17569600D02*
X43260149Y-17617219D01*
X43260149Y-17617219D02*
X43212530Y-17569600D01*
X43212530Y-17569600D02*
X43260149Y-17521980D01*
X43260149Y-17521980D02*
X43260149Y-17617219D01*
X43641101Y-16617219D02*
X44260148Y-16617219D01*
X44260148Y-16617219D02*
X43926815Y-16998171D01*
X43926815Y-16998171D02*
X44069672Y-16998171D01*
X44069672Y-16998171D02*
X44164910Y-17045790D01*
X44164910Y-17045790D02*
X44212529Y-17093409D01*
X44212529Y-17093409D02*
X44260148Y-17188647D01*
X44260148Y-17188647D02*
X44260148Y-17426742D01*
X44260148Y-17426742D02*
X44212529Y-17521980D01*
X44212529Y-17521980D02*
X44164910Y-17569600D01*
X44164910Y-17569600D02*
X44069672Y-17617219D01*
X44069672Y-17617219D02*
X43783958Y-17617219D01*
X43783958Y-17617219D02*
X43688720Y-17569600D01*
X43688720Y-17569600D02*
X43641101Y-17521980D01*
X44545863Y-16617219D02*
X44879196Y-17617219D01*
X44879196Y-17617219D02*
X45212529Y-16617219D01*
X11269673Y-49067219D02*
X11269673Y-48067219D01*
X11269673Y-48067219D02*
X11603006Y-48781504D01*
X11603006Y-48781504D02*
X11936339Y-48067219D01*
X11936339Y-48067219D02*
X11936339Y-49067219D01*
X12364911Y-48162457D02*
X12412530Y-48114838D01*
X12412530Y-48114838D02*
X12507768Y-48067219D01*
X12507768Y-48067219D02*
X12745863Y-48067219D01*
X12745863Y-48067219D02*
X12841101Y-48114838D01*
X12841101Y-48114838D02*
X12888720Y-48162457D01*
X12888720Y-48162457D02*
X12936339Y-48257695D01*
X12936339Y-48257695D02*
X12936339Y-48352933D01*
X12936339Y-48352933D02*
X12888720Y-48495790D01*
X12888720Y-48495790D02*
X12317292Y-49067219D01*
X12317292Y-49067219D02*
X12936339Y-49067219D01*
X13364911Y-48686266D02*
X14126816Y-48686266D01*
X43941101Y-25271980D02*
X43893482Y-25319600D01*
X43893482Y-25319600D02*
X43750625Y-25367219D01*
X43750625Y-25367219D02*
X43655387Y-25367219D01*
X43655387Y-25367219D02*
X43512530Y-25319600D01*
X43512530Y-25319600D02*
X43417292Y-25224361D01*
X43417292Y-25224361D02*
X43369673Y-25129123D01*
X43369673Y-25129123D02*
X43322054Y-24938647D01*
X43322054Y-24938647D02*
X43322054Y-24795790D01*
X43322054Y-24795790D02*
X43369673Y-24605314D01*
X43369673Y-24605314D02*
X43417292Y-24510076D01*
X43417292Y-24510076D02*
X43512530Y-24414838D01*
X43512530Y-24414838D02*
X43655387Y-24367219D01*
X43655387Y-24367219D02*
X43750625Y-24367219D01*
X43750625Y-24367219D02*
X43893482Y-24414838D01*
X43893482Y-24414838D02*
X43941101Y-24462457D01*
X44322054Y-25319600D02*
X44464911Y-25367219D01*
X44464911Y-25367219D02*
X44703006Y-25367219D01*
X44703006Y-25367219D02*
X44798244Y-25319600D01*
X44798244Y-25319600D02*
X44845863Y-25271980D01*
X44845863Y-25271980D02*
X44893482Y-25176742D01*
X44893482Y-25176742D02*
X44893482Y-25081504D01*
X44893482Y-25081504D02*
X44845863Y-24986266D01*
X44845863Y-24986266D02*
X44798244Y-24938647D01*
X44798244Y-24938647D02*
X44703006Y-24891028D01*
X44703006Y-24891028D02*
X44512530Y-24843409D01*
X44512530Y-24843409D02*
X44417292Y-24795790D01*
X44417292Y-24795790D02*
X44369673Y-24748171D01*
X44369673Y-24748171D02*
X44322054Y-24652933D01*
X44322054Y-24652933D02*
X44322054Y-24557695D01*
X44322054Y-24557695D02*
X44369673Y-24462457D01*
X44369673Y-24462457D02*
X44417292Y-24414838D01*
X44417292Y-24414838D02*
X44512530Y-24367219D01*
X44512530Y-24367219D02*
X44750625Y-24367219D01*
X44750625Y-24367219D02*
X44893482Y-24414838D01*
X41869673Y-27867219D02*
X41869673Y-26867219D01*
X41869673Y-26867219D02*
X42203006Y-27581504D01*
X42203006Y-27581504D02*
X42536339Y-26867219D01*
X42536339Y-26867219D02*
X42536339Y-27867219D01*
X43203006Y-26867219D02*
X43393482Y-26867219D01*
X43393482Y-26867219D02*
X43488720Y-26914838D01*
X43488720Y-26914838D02*
X43583958Y-27010076D01*
X43583958Y-27010076D02*
X43631577Y-27200552D01*
X43631577Y-27200552D02*
X43631577Y-27533885D01*
X43631577Y-27533885D02*
X43583958Y-27724361D01*
X43583958Y-27724361D02*
X43488720Y-27819600D01*
X43488720Y-27819600D02*
X43393482Y-27867219D01*
X43393482Y-27867219D02*
X43203006Y-27867219D01*
X43203006Y-27867219D02*
X43107768Y-27819600D01*
X43107768Y-27819600D02*
X43012530Y-27724361D01*
X43012530Y-27724361D02*
X42964911Y-27533885D01*
X42964911Y-27533885D02*
X42964911Y-27200552D01*
X42964911Y-27200552D02*
X43012530Y-27010076D01*
X43012530Y-27010076D02*
X43107768Y-26914838D01*
X43107768Y-26914838D02*
X43203006Y-26867219D01*
X44012530Y-27819600D02*
X44155387Y-27867219D01*
X44155387Y-27867219D02*
X44393482Y-27867219D01*
X44393482Y-27867219D02*
X44488720Y-27819600D01*
X44488720Y-27819600D02*
X44536339Y-27771980D01*
X44536339Y-27771980D02*
X44583958Y-27676742D01*
X44583958Y-27676742D02*
X44583958Y-27581504D01*
X44583958Y-27581504D02*
X44536339Y-27486266D01*
X44536339Y-27486266D02*
X44488720Y-27438647D01*
X44488720Y-27438647D02*
X44393482Y-27391028D01*
X44393482Y-27391028D02*
X44203006Y-27343409D01*
X44203006Y-27343409D02*
X44107768Y-27295790D01*
X44107768Y-27295790D02*
X44060149Y-27248171D01*
X44060149Y-27248171D02*
X44012530Y-27152933D01*
X44012530Y-27152933D02*
X44012530Y-27057695D01*
X44012530Y-27057695D02*
X44060149Y-26962457D01*
X44060149Y-26962457D02*
X44107768Y-26914838D01*
X44107768Y-26914838D02*
X44203006Y-26867219D01*
X44203006Y-26867219D02*
X44441101Y-26867219D01*
X44441101Y-26867219D02*
X44583958Y-26914838D01*
X45012530Y-27867219D02*
X45012530Y-26867219D01*
X36143482Y-47514838D02*
X36048244Y-47467219D01*
X36048244Y-47467219D02*
X35905387Y-47467219D01*
X35905387Y-47467219D02*
X35762530Y-47514838D01*
X35762530Y-47514838D02*
X35667292Y-47610076D01*
X35667292Y-47610076D02*
X35619673Y-47705314D01*
X35619673Y-47705314D02*
X35572054Y-47895790D01*
X35572054Y-47895790D02*
X35572054Y-48038647D01*
X35572054Y-48038647D02*
X35619673Y-48229123D01*
X35619673Y-48229123D02*
X35667292Y-48324361D01*
X35667292Y-48324361D02*
X35762530Y-48419600D01*
X35762530Y-48419600D02*
X35905387Y-48467219D01*
X35905387Y-48467219D02*
X36000625Y-48467219D01*
X36000625Y-48467219D02*
X36143482Y-48419600D01*
X36143482Y-48419600D02*
X36191101Y-48371980D01*
X36191101Y-48371980D02*
X36191101Y-48038647D01*
X36191101Y-48038647D02*
X36000625Y-48038647D01*
X36619673Y-48467219D02*
X36619673Y-47467219D01*
X36619673Y-47467219D02*
X37191101Y-48467219D01*
X37191101Y-48467219D02*
X37191101Y-47467219D01*
X37667292Y-48467219D02*
X37667292Y-47467219D01*
X37667292Y-47467219D02*
X37905387Y-47467219D01*
X37905387Y-47467219D02*
X38048244Y-47514838D01*
X38048244Y-47514838D02*
X38143482Y-47610076D01*
X38143482Y-47610076D02*
X38191101Y-47705314D01*
X38191101Y-47705314D02*
X38238720Y-47895790D01*
X38238720Y-47895790D02*
X38238720Y-48038647D01*
X38238720Y-48038647D02*
X38191101Y-48229123D01*
X38191101Y-48229123D02*
X38143482Y-48324361D01*
X38143482Y-48324361D02*
X38048244Y-48419600D01*
X38048244Y-48419600D02*
X37905387Y-48467219D01*
X37905387Y-48467219D02*
X37667292Y-48467219D01*
X12691101Y-7621980D02*
X12643482Y-7669600D01*
X12643482Y-7669600D02*
X12500625Y-7717219D01*
X12500625Y-7717219D02*
X12405387Y-7717219D01*
X12405387Y-7717219D02*
X12262530Y-7669600D01*
X12262530Y-7669600D02*
X12167292Y-7574361D01*
X12167292Y-7574361D02*
X12119673Y-7479123D01*
X12119673Y-7479123D02*
X12072054Y-7288647D01*
X12072054Y-7288647D02*
X12072054Y-7145790D01*
X12072054Y-7145790D02*
X12119673Y-6955314D01*
X12119673Y-6955314D02*
X12167292Y-6860076D01*
X12167292Y-6860076D02*
X12262530Y-6764838D01*
X12262530Y-6764838D02*
X12405387Y-6717219D01*
X12405387Y-6717219D02*
X12500625Y-6717219D01*
X12500625Y-6717219D02*
X12643482Y-6764838D01*
X12643482Y-6764838D02*
X12691101Y-6812457D01*
X13072054Y-7431504D02*
X13548244Y-7431504D01*
X12976816Y-7717219D02*
X13310149Y-6717219D01*
X13310149Y-6717219D02*
X13643482Y-7717219D01*
X14453006Y-7717219D02*
X13976816Y-7717219D01*
X13976816Y-7717219D02*
X13976816Y-6717219D01*
X24719600Y-33277945D02*
X24767219Y-33135088D01*
X24767219Y-33135088D02*
X24767219Y-32896993D01*
X24767219Y-32896993D02*
X24719600Y-32801755D01*
X24719600Y-32801755D02*
X24671980Y-32754136D01*
X24671980Y-32754136D02*
X24576742Y-32706517D01*
X24576742Y-32706517D02*
X24481504Y-32706517D01*
X24481504Y-32706517D02*
X24386266Y-32754136D01*
X24386266Y-32754136D02*
X24338647Y-32801755D01*
X24338647Y-32801755D02*
X24291028Y-32896993D01*
X24291028Y-32896993D02*
X24243409Y-33087469D01*
X24243409Y-33087469D02*
X24195790Y-33182707D01*
X24195790Y-33182707D02*
X24148171Y-33230326D01*
X24148171Y-33230326D02*
X24052933Y-33277945D01*
X24052933Y-33277945D02*
X23957695Y-33277945D01*
X23957695Y-33277945D02*
X23862457Y-33230326D01*
X23862457Y-33230326D02*
X23814838Y-33182707D01*
X23814838Y-33182707D02*
X23767219Y-33087469D01*
X23767219Y-33087469D02*
X23767219Y-32849374D01*
X23767219Y-32849374D02*
X23814838Y-32706517D01*
X24671980Y-31706517D02*
X24719600Y-31754136D01*
X24719600Y-31754136D02*
X24767219Y-31896993D01*
X24767219Y-31896993D02*
X24767219Y-31992231D01*
X24767219Y-31992231D02*
X24719600Y-32135088D01*
X24719600Y-32135088D02*
X24624361Y-32230326D01*
X24624361Y-32230326D02*
X24529123Y-32277945D01*
X24529123Y-32277945D02*
X24338647Y-32325564D01*
X24338647Y-32325564D02*
X24195790Y-32325564D01*
X24195790Y-32325564D02*
X24005314Y-32277945D01*
X24005314Y-32277945D02*
X23910076Y-32230326D01*
X23910076Y-32230326D02*
X23814838Y-32135088D01*
X23814838Y-32135088D02*
X23767219Y-31992231D01*
X23767219Y-31992231D02*
X23767219Y-31896993D01*
X23767219Y-31896993D02*
X23814838Y-31754136D01*
X23814838Y-31754136D02*
X23862457Y-31706517D01*
X24767219Y-30801755D02*
X24767219Y-31277945D01*
X24767219Y-31277945D02*
X23767219Y-31277945D01*
X11269673Y-44067219D02*
X11269673Y-43067219D01*
X11269673Y-43067219D02*
X11603006Y-43781504D01*
X11603006Y-43781504D02*
X11936339Y-43067219D01*
X11936339Y-43067219D02*
X11936339Y-44067219D01*
X12364911Y-43162457D02*
X12412530Y-43114838D01*
X12412530Y-43114838D02*
X12507768Y-43067219D01*
X12507768Y-43067219D02*
X12745863Y-43067219D01*
X12745863Y-43067219D02*
X12841101Y-43114838D01*
X12841101Y-43114838D02*
X12888720Y-43162457D01*
X12888720Y-43162457D02*
X12936339Y-43257695D01*
X12936339Y-43257695D02*
X12936339Y-43352933D01*
X12936339Y-43352933D02*
X12888720Y-43495790D01*
X12888720Y-43495790D02*
X12317292Y-44067219D01*
X12317292Y-44067219D02*
X12936339Y-44067219D01*
X13364911Y-43686266D02*
X14126816Y-43686266D01*
X13745863Y-44067219D02*
X13745863Y-43305314D01*
X11269673Y-42467219D02*
X11269673Y-41467219D01*
X11269673Y-41467219D02*
X11603006Y-42181504D01*
X11603006Y-42181504D02*
X11936339Y-41467219D01*
X11936339Y-41467219D02*
X11936339Y-42467219D01*
X12936339Y-42467219D02*
X12364911Y-42467219D01*
X12650625Y-42467219D02*
X12650625Y-41467219D01*
X12650625Y-41467219D02*
X12555387Y-41610076D01*
X12555387Y-41610076D02*
X12460149Y-41705314D01*
X12460149Y-41705314D02*
X12364911Y-41752933D01*
X13364911Y-42086266D02*
X14126816Y-42086266D01*
X7072054Y-76202513D02*
X7119673Y-76154894D01*
X7119673Y-76154894D02*
X7214911Y-76107275D01*
X7214911Y-76107275D02*
X7453006Y-76107275D01*
X7453006Y-76107275D02*
X7548244Y-76154894D01*
X7548244Y-76154894D02*
X7595863Y-76202513D01*
X7595863Y-76202513D02*
X7643482Y-76297751D01*
X7643482Y-76297751D02*
X7643482Y-76392989D01*
X7643482Y-76392989D02*
X7595863Y-76535846D01*
X7595863Y-76535846D02*
X7024435Y-77107275D01*
X7024435Y-77107275D02*
X7643482Y-77107275D01*
X8262530Y-76107275D02*
X8357768Y-76107275D01*
X8357768Y-76107275D02*
X8453006Y-76154894D01*
X8453006Y-76154894D02*
X8500625Y-76202513D01*
X8500625Y-76202513D02*
X8548244Y-76297751D01*
X8548244Y-76297751D02*
X8595863Y-76488227D01*
X8595863Y-76488227D02*
X8595863Y-76726322D01*
X8595863Y-76726322D02*
X8548244Y-76916798D01*
X8548244Y-76916798D02*
X8500625Y-77012036D01*
X8500625Y-77012036D02*
X8453006Y-77059656D01*
X8453006Y-77059656D02*
X8357768Y-77107275D01*
X8357768Y-77107275D02*
X8262530Y-77107275D01*
X8262530Y-77107275D02*
X8167292Y-77059656D01*
X8167292Y-77059656D02*
X8119673Y-77012036D01*
X8119673Y-77012036D02*
X8072054Y-76916798D01*
X8072054Y-76916798D02*
X8024435Y-76726322D01*
X8024435Y-76726322D02*
X8024435Y-76488227D01*
X8024435Y-76488227D02*
X8072054Y-76297751D01*
X8072054Y-76297751D02*
X8119673Y-76202513D01*
X8119673Y-76202513D02*
X8167292Y-76154894D01*
X8167292Y-76154894D02*
X8262530Y-76107275D01*
X8976816Y-76202513D02*
X9024435Y-76154894D01*
X9024435Y-76154894D02*
X9119673Y-76107275D01*
X9119673Y-76107275D02*
X9357768Y-76107275D01*
X9357768Y-76107275D02*
X9453006Y-76154894D01*
X9453006Y-76154894D02*
X9500625Y-76202513D01*
X9500625Y-76202513D02*
X9548244Y-76297751D01*
X9548244Y-76297751D02*
X9548244Y-76392989D01*
X9548244Y-76392989D02*
X9500625Y-76535846D01*
X9500625Y-76535846D02*
X8929197Y-77107275D01*
X8929197Y-77107275D02*
X9548244Y-77107275D01*
X10453006Y-76107275D02*
X9976816Y-76107275D01*
X9976816Y-76107275D02*
X9929197Y-76583465D01*
X9929197Y-76583465D02*
X9976816Y-76535846D01*
X9976816Y-76535846D02*
X10072054Y-76488227D01*
X10072054Y-76488227D02*
X10310149Y-76488227D01*
X10310149Y-76488227D02*
X10405387Y-76535846D01*
X10405387Y-76535846D02*
X10453006Y-76583465D01*
X10453006Y-76583465D02*
X10500625Y-76678703D01*
X10500625Y-76678703D02*
X10500625Y-76916798D01*
X10500625Y-76916798D02*
X10453006Y-77012036D01*
X10453006Y-77012036D02*
X10405387Y-77059656D01*
X10405387Y-77059656D02*
X10310149Y-77107275D01*
X10310149Y-77107275D02*
X10072054Y-77107275D01*
X10072054Y-77107275D02*
X9976816Y-77059656D01*
X9976816Y-77059656D02*
X9929197Y-77012036D01*
X6976816Y-77717219D02*
X7548244Y-77717219D01*
X7262530Y-78717219D02*
X7262530Y-77717219D01*
X8262530Y-78669600D02*
X8167292Y-78717219D01*
X8167292Y-78717219D02*
X7976816Y-78717219D01*
X7976816Y-78717219D02*
X7881578Y-78669600D01*
X7881578Y-78669600D02*
X7833959Y-78574361D01*
X7833959Y-78574361D02*
X7833959Y-78193409D01*
X7833959Y-78193409D02*
X7881578Y-78098171D01*
X7881578Y-78098171D02*
X7976816Y-78050552D01*
X7976816Y-78050552D02*
X8167292Y-78050552D01*
X8167292Y-78050552D02*
X8262530Y-78098171D01*
X8262530Y-78098171D02*
X8310149Y-78193409D01*
X8310149Y-78193409D02*
X8310149Y-78288647D01*
X8310149Y-78288647D02*
X7833959Y-78383885D01*
X8738721Y-78050552D02*
X8738721Y-78717219D01*
X8738721Y-78145790D02*
X8786340Y-78098171D01*
X8786340Y-78098171D02*
X8881578Y-78050552D01*
X8881578Y-78050552D02*
X9024435Y-78050552D01*
X9024435Y-78050552D02*
X9119673Y-78098171D01*
X9119673Y-78098171D02*
X9167292Y-78193409D01*
X9167292Y-78193409D02*
X9167292Y-78717219D01*
X9643483Y-78050552D02*
X9643483Y-78717219D01*
X9643483Y-78145790D02*
X9691102Y-78098171D01*
X9691102Y-78098171D02*
X9786340Y-78050552D01*
X9786340Y-78050552D02*
X9929197Y-78050552D01*
X9929197Y-78050552D02*
X10024435Y-78098171D01*
X10024435Y-78098171D02*
X10072054Y-78193409D01*
X10072054Y-78193409D02*
X10072054Y-78717219D01*
X10929197Y-78669600D02*
X10833959Y-78717219D01*
X10833959Y-78717219D02*
X10643483Y-78717219D01*
X10643483Y-78717219D02*
X10548245Y-78669600D01*
X10548245Y-78669600D02*
X10500626Y-78574361D01*
X10500626Y-78574361D02*
X10500626Y-78193409D01*
X10500626Y-78193409D02*
X10548245Y-78098171D01*
X10548245Y-78098171D02*
X10643483Y-78050552D01*
X10643483Y-78050552D02*
X10833959Y-78050552D01*
X10833959Y-78050552D02*
X10929197Y-78098171D01*
X10929197Y-78098171D02*
X10976816Y-78193409D01*
X10976816Y-78193409D02*
X10976816Y-78288647D01*
X10976816Y-78288647D02*
X10500626Y-78383885D01*
X11357769Y-78669600D02*
X11453007Y-78717219D01*
X11453007Y-78717219D02*
X11643483Y-78717219D01*
X11643483Y-78717219D02*
X11738721Y-78669600D01*
X11738721Y-78669600D02*
X11786340Y-78574361D01*
X11786340Y-78574361D02*
X11786340Y-78526742D01*
X11786340Y-78526742D02*
X11738721Y-78431504D01*
X11738721Y-78431504D02*
X11643483Y-78383885D01*
X11643483Y-78383885D02*
X11500626Y-78383885D01*
X11500626Y-78383885D02*
X11405388Y-78336266D01*
X11405388Y-78336266D02*
X11357769Y-78241028D01*
X11357769Y-78241028D02*
X11357769Y-78193409D01*
X11357769Y-78193409D02*
X11405388Y-78098171D01*
X11405388Y-78098171D02*
X11500626Y-78050552D01*
X11500626Y-78050552D02*
X11643483Y-78050552D01*
X11643483Y-78050552D02*
X11738721Y-78098171D01*
X12167293Y-78669600D02*
X12262531Y-78717219D01*
X12262531Y-78717219D02*
X12453007Y-78717219D01*
X12453007Y-78717219D02*
X12548245Y-78669600D01*
X12548245Y-78669600D02*
X12595864Y-78574361D01*
X12595864Y-78574361D02*
X12595864Y-78526742D01*
X12595864Y-78526742D02*
X12548245Y-78431504D01*
X12548245Y-78431504D02*
X12453007Y-78383885D01*
X12453007Y-78383885D02*
X12310150Y-78383885D01*
X12310150Y-78383885D02*
X12214912Y-78336266D01*
X12214912Y-78336266D02*
X12167293Y-78241028D01*
X12167293Y-78241028D02*
X12167293Y-78193409D01*
X12167293Y-78193409D02*
X12214912Y-78098171D01*
X12214912Y-78098171D02*
X12310150Y-78050552D01*
X12310150Y-78050552D02*
X12453007Y-78050552D01*
X12453007Y-78050552D02*
X12548245Y-78098171D01*
X13405388Y-78669600D02*
X13310150Y-78717219D01*
X13310150Y-78717219D02*
X13119674Y-78717219D01*
X13119674Y-78717219D02*
X13024436Y-78669600D01*
X13024436Y-78669600D02*
X12976817Y-78574361D01*
X12976817Y-78574361D02*
X12976817Y-78193409D01*
X12976817Y-78193409D02*
X13024436Y-78098171D01*
X13024436Y-78098171D02*
X13119674Y-78050552D01*
X13119674Y-78050552D02*
X13310150Y-78050552D01*
X13310150Y-78050552D02*
X13405388Y-78098171D01*
X13405388Y-78098171D02*
X13453007Y-78193409D01*
X13453007Y-78193409D02*
X13453007Y-78288647D01*
X13453007Y-78288647D02*
X12976817Y-78383885D01*
X14262531Y-78669600D02*
X14167293Y-78717219D01*
X14167293Y-78717219D02*
X13976817Y-78717219D01*
X13976817Y-78717219D02*
X13881579Y-78669600D01*
X13881579Y-78669600D02*
X13833960Y-78574361D01*
X13833960Y-78574361D02*
X13833960Y-78193409D01*
X13833960Y-78193409D02*
X13881579Y-78098171D01*
X13881579Y-78098171D02*
X13976817Y-78050552D01*
X13976817Y-78050552D02*
X14167293Y-78050552D01*
X14167293Y-78050552D02*
X14262531Y-78098171D01*
X14262531Y-78098171D02*
X14310150Y-78193409D01*
X14310150Y-78193409D02*
X14310150Y-78288647D01*
X14310150Y-78288647D02*
X13833960Y-78383885D01*
X16072055Y-78621980D02*
X16024436Y-78669600D01*
X16024436Y-78669600D02*
X15881579Y-78717219D01*
X15881579Y-78717219D02*
X15786341Y-78717219D01*
X15786341Y-78717219D02*
X15643484Y-78669600D01*
X15643484Y-78669600D02*
X15548246Y-78574361D01*
X15548246Y-78574361D02*
X15500627Y-78479123D01*
X15500627Y-78479123D02*
X15453008Y-78288647D01*
X15453008Y-78288647D02*
X15453008Y-78145790D01*
X15453008Y-78145790D02*
X15500627Y-77955314D01*
X15500627Y-77955314D02*
X15548246Y-77860076D01*
X15548246Y-77860076D02*
X15643484Y-77764838D01*
X15643484Y-77764838D02*
X15786341Y-77717219D01*
X15786341Y-77717219D02*
X15881579Y-77717219D01*
X15881579Y-77717219D02*
X16024436Y-77764838D01*
X16024436Y-77764838D02*
X16072055Y-77812457D01*
X16929198Y-78717219D02*
X16929198Y-78193409D01*
X16929198Y-78193409D02*
X16881579Y-78098171D01*
X16881579Y-78098171D02*
X16786341Y-78050552D01*
X16786341Y-78050552D02*
X16595865Y-78050552D01*
X16595865Y-78050552D02*
X16500627Y-78098171D01*
X16929198Y-78669600D02*
X16833960Y-78717219D01*
X16833960Y-78717219D02*
X16595865Y-78717219D01*
X16595865Y-78717219D02*
X16500627Y-78669600D01*
X16500627Y-78669600D02*
X16453008Y-78574361D01*
X16453008Y-78574361D02*
X16453008Y-78479123D01*
X16453008Y-78479123D02*
X16500627Y-78383885D01*
X16500627Y-78383885D02*
X16595865Y-78336266D01*
X16595865Y-78336266D02*
X16833960Y-78336266D01*
X16833960Y-78336266D02*
X16929198Y-78288647D01*
X17405389Y-78717219D02*
X17405389Y-78050552D01*
X17405389Y-78241028D02*
X17453008Y-78145790D01*
X17453008Y-78145790D02*
X17500627Y-78098171D01*
X17500627Y-78098171D02*
X17595865Y-78050552D01*
X17595865Y-78050552D02*
X17691103Y-78050552D01*
X18024437Y-78717219D02*
X18024437Y-78050552D01*
X18024437Y-78145790D02*
X18072056Y-78098171D01*
X18072056Y-78098171D02*
X18167294Y-78050552D01*
X18167294Y-78050552D02*
X18310151Y-78050552D01*
X18310151Y-78050552D02*
X18405389Y-78098171D01*
X18405389Y-78098171D02*
X18453008Y-78193409D01*
X18453008Y-78193409D02*
X18453008Y-78717219D01*
X18453008Y-78193409D02*
X18500627Y-78098171D01*
X18500627Y-78098171D02*
X18595865Y-78050552D01*
X18595865Y-78050552D02*
X18738722Y-78050552D01*
X18738722Y-78050552D02*
X18833961Y-78098171D01*
X18833961Y-78098171D02*
X18881580Y-78193409D01*
X18881580Y-78193409D02*
X18881580Y-78717219D01*
X19738722Y-78669600D02*
X19643484Y-78717219D01*
X19643484Y-78717219D02*
X19453008Y-78717219D01*
X19453008Y-78717219D02*
X19357770Y-78669600D01*
X19357770Y-78669600D02*
X19310151Y-78574361D01*
X19310151Y-78574361D02*
X19310151Y-78193409D01*
X19310151Y-78193409D02*
X19357770Y-78098171D01*
X19357770Y-78098171D02*
X19453008Y-78050552D01*
X19453008Y-78050552D02*
X19643484Y-78050552D01*
X19643484Y-78050552D02*
X19738722Y-78098171D01*
X19738722Y-78098171D02*
X19786341Y-78193409D01*
X19786341Y-78193409D02*
X19786341Y-78288647D01*
X19786341Y-78288647D02*
X19310151Y-78383885D01*
X20357770Y-78717219D02*
X20262532Y-78669600D01*
X20262532Y-78669600D02*
X20214913Y-78574361D01*
X20214913Y-78574361D02*
X20214913Y-77717219D01*
X20738723Y-78336266D02*
X21500628Y-78336266D01*
X21833961Y-77717219D02*
X22167294Y-78717219D01*
X22167294Y-78717219D02*
X22500627Y-77717219D01*
X23214913Y-78669600D02*
X23119675Y-78717219D01*
X23119675Y-78717219D02*
X22929199Y-78717219D01*
X22929199Y-78717219D02*
X22833961Y-78669600D01*
X22833961Y-78669600D02*
X22786342Y-78574361D01*
X22786342Y-78574361D02*
X22786342Y-78193409D01*
X22786342Y-78193409D02*
X22833961Y-78098171D01*
X22833961Y-78098171D02*
X22929199Y-78050552D01*
X22929199Y-78050552D02*
X23119675Y-78050552D01*
X23119675Y-78050552D02*
X23214913Y-78098171D01*
X23214913Y-78098171D02*
X23262532Y-78193409D01*
X23262532Y-78193409D02*
X23262532Y-78288647D01*
X23262532Y-78288647D02*
X22786342Y-78383885D01*
X23691104Y-78717219D02*
X23691104Y-78050552D01*
X23691104Y-77717219D02*
X23643485Y-77764838D01*
X23643485Y-77764838D02*
X23691104Y-77812457D01*
X23691104Y-77812457D02*
X23738723Y-77764838D01*
X23738723Y-77764838D02*
X23691104Y-77717219D01*
X23691104Y-77717219D02*
X23691104Y-77812457D01*
X24310151Y-78717219D02*
X24214913Y-78669600D01*
X24214913Y-78669600D02*
X24167294Y-78574361D01*
X24167294Y-78574361D02*
X24167294Y-77717219D01*
X24833961Y-78717219D02*
X24738723Y-78669600D01*
X24738723Y-78669600D02*
X24691104Y-78574361D01*
X24691104Y-78574361D02*
X24691104Y-77717219D01*
X25595866Y-78669600D02*
X25500628Y-78717219D01*
X25500628Y-78717219D02*
X25310152Y-78717219D01*
X25310152Y-78717219D02*
X25214914Y-78669600D01*
X25214914Y-78669600D02*
X25167295Y-78574361D01*
X25167295Y-78574361D02*
X25167295Y-78193409D01*
X25167295Y-78193409D02*
X25214914Y-78098171D01*
X25214914Y-78098171D02*
X25310152Y-78050552D01*
X25310152Y-78050552D02*
X25500628Y-78050552D01*
X25500628Y-78050552D02*
X25595866Y-78098171D01*
X25595866Y-78098171D02*
X25643485Y-78193409D01*
X25643485Y-78193409D02*
X25643485Y-78288647D01*
X25643485Y-78288647D02*
X25167295Y-78383885D01*
X26500628Y-78050552D02*
X26500628Y-78717219D01*
X26072057Y-78050552D02*
X26072057Y-78574361D01*
X26072057Y-78574361D02*
X26119676Y-78669600D01*
X26119676Y-78669600D02*
X26214914Y-78717219D01*
X26214914Y-78717219D02*
X26357771Y-78717219D01*
X26357771Y-78717219D02*
X26453009Y-78669600D01*
X26453009Y-78669600D02*
X26500628Y-78621980D01*
X26881581Y-78717219D02*
X27405390Y-78050552D01*
X26881581Y-78050552D02*
X27405390Y-78717219D01*
X5619673Y-11943409D02*
X5953006Y-11943409D01*
X6095863Y-12467219D02*
X5619673Y-12467219D01*
X5619673Y-12467219D02*
X5619673Y-11467219D01*
X5619673Y-11467219D02*
X6095863Y-11467219D01*
X6429197Y-11467219D02*
X7095863Y-12467219D01*
X7095863Y-11467219D02*
X6429197Y-12467219D01*
X7476816Y-12467219D02*
X7476816Y-11467219D01*
X7476816Y-11467219D02*
X7857768Y-11467219D01*
X7857768Y-11467219D02*
X7953006Y-11514838D01*
X7953006Y-11514838D02*
X8000625Y-11562457D01*
X8000625Y-11562457D02*
X8048244Y-11657695D01*
X8048244Y-11657695D02*
X8048244Y-11800552D01*
X8048244Y-11800552D02*
X8000625Y-11895790D01*
X8000625Y-11895790D02*
X7953006Y-11943409D01*
X7953006Y-11943409D02*
X7857768Y-11991028D01*
X7857768Y-11991028D02*
X7476816Y-11991028D01*
X8429197Y-11562457D02*
X8476816Y-11514838D01*
X8476816Y-11514838D02*
X8572054Y-11467219D01*
X8572054Y-11467219D02*
X8810149Y-11467219D01*
X8810149Y-11467219D02*
X8905387Y-11514838D01*
X8905387Y-11514838D02*
X8953006Y-11562457D01*
X8953006Y-11562457D02*
X9000625Y-11657695D01*
X9000625Y-11657695D02*
X9000625Y-11752933D01*
X9000625Y-11752933D02*
X8953006Y-11895790D01*
X8953006Y-11895790D02*
X8381578Y-12467219D01*
X8381578Y-12467219D02*
X9000625Y-12467219D01*
X5893482Y-21764838D02*
X5798244Y-21717219D01*
X5798244Y-21717219D02*
X5655387Y-21717219D01*
X5655387Y-21717219D02*
X5512530Y-21764838D01*
X5512530Y-21764838D02*
X5417292Y-21860076D01*
X5417292Y-21860076D02*
X5369673Y-21955314D01*
X5369673Y-21955314D02*
X5322054Y-22145790D01*
X5322054Y-22145790D02*
X5322054Y-22288647D01*
X5322054Y-22288647D02*
X5369673Y-22479123D01*
X5369673Y-22479123D02*
X5417292Y-22574361D01*
X5417292Y-22574361D02*
X5512530Y-22669600D01*
X5512530Y-22669600D02*
X5655387Y-22717219D01*
X5655387Y-22717219D02*
X5750625Y-22717219D01*
X5750625Y-22717219D02*
X5893482Y-22669600D01*
X5893482Y-22669600D02*
X5941101Y-22621980D01*
X5941101Y-22621980D02*
X5941101Y-22288647D01*
X5941101Y-22288647D02*
X5750625Y-22288647D01*
X6369673Y-22717219D02*
X6369673Y-21717219D01*
X6369673Y-21717219D02*
X6941101Y-22717219D01*
X6941101Y-22717219D02*
X6941101Y-21717219D01*
X7417292Y-22717219D02*
X7417292Y-21717219D01*
X7417292Y-21717219D02*
X7655387Y-21717219D01*
X7655387Y-21717219D02*
X7798244Y-21764838D01*
X7798244Y-21764838D02*
X7893482Y-21860076D01*
X7893482Y-21860076D02*
X7941101Y-21955314D01*
X7941101Y-21955314D02*
X7988720Y-22145790D01*
X7988720Y-22145790D02*
X7988720Y-22288647D01*
X7988720Y-22288647D02*
X7941101Y-22479123D01*
X7941101Y-22479123D02*
X7893482Y-22574361D01*
X7893482Y-22574361D02*
X7798244Y-22669600D01*
X7798244Y-22669600D02*
X7655387Y-22717219D01*
X7655387Y-22717219D02*
X7417292Y-22717219D01*
X42893482Y-29414838D02*
X42798244Y-29367219D01*
X42798244Y-29367219D02*
X42655387Y-29367219D01*
X42655387Y-29367219D02*
X42512530Y-29414838D01*
X42512530Y-29414838D02*
X42417292Y-29510076D01*
X42417292Y-29510076D02*
X42369673Y-29605314D01*
X42369673Y-29605314D02*
X42322054Y-29795790D01*
X42322054Y-29795790D02*
X42322054Y-29938647D01*
X42322054Y-29938647D02*
X42369673Y-30129123D01*
X42369673Y-30129123D02*
X42417292Y-30224361D01*
X42417292Y-30224361D02*
X42512530Y-30319600D01*
X42512530Y-30319600D02*
X42655387Y-30367219D01*
X42655387Y-30367219D02*
X42750625Y-30367219D01*
X42750625Y-30367219D02*
X42893482Y-30319600D01*
X42893482Y-30319600D02*
X42941101Y-30271980D01*
X42941101Y-30271980D02*
X42941101Y-29938647D01*
X42941101Y-29938647D02*
X42750625Y-29938647D01*
X43369673Y-30367219D02*
X43369673Y-29367219D01*
X43369673Y-29367219D02*
X43941101Y-30367219D01*
X43941101Y-30367219D02*
X43941101Y-29367219D01*
X44417292Y-30367219D02*
X44417292Y-29367219D01*
X44417292Y-29367219D02*
X44655387Y-29367219D01*
X44655387Y-29367219D02*
X44798244Y-29414838D01*
X44798244Y-29414838D02*
X44893482Y-29510076D01*
X44893482Y-29510076D02*
X44941101Y-29605314D01*
X44941101Y-29605314D02*
X44988720Y-29795790D01*
X44988720Y-29795790D02*
X44988720Y-29938647D01*
X44988720Y-29938647D02*
X44941101Y-30129123D01*
X44941101Y-30129123D02*
X44893482Y-30224361D01*
X44893482Y-30224361D02*
X44798244Y-30319600D01*
X44798244Y-30319600D02*
X44655387Y-30367219D01*
X44655387Y-30367219D02*
X44417292Y-30367219D01*
X11369673Y-35967219D02*
X11369673Y-34967219D01*
X11369673Y-34967219D02*
X11703006Y-35681504D01*
X11703006Y-35681504D02*
X12036339Y-34967219D01*
X12036339Y-34967219D02*
X12036339Y-35967219D01*
X13036339Y-35967219D02*
X12464911Y-35967219D01*
X12750625Y-35967219D02*
X12750625Y-34967219D01*
X12750625Y-34967219D02*
X12655387Y-35110076D01*
X12655387Y-35110076D02*
X12560149Y-35205314D01*
X12560149Y-35205314D02*
X12464911Y-35252933D01*
X13464911Y-35586266D02*
X14226816Y-35586266D01*
X13845863Y-35967219D02*
X13845863Y-35205314D01*
X34869673Y-42943409D02*
X35203006Y-42943409D01*
X35345863Y-43467219D02*
X34869673Y-43467219D01*
X34869673Y-43467219D02*
X34869673Y-42467219D01*
X34869673Y-42467219D02*
X35345863Y-42467219D01*
X35679197Y-42467219D02*
X36345863Y-43467219D01*
X36345863Y-42467219D02*
X35679197Y-43467219D01*
X36726816Y-43467219D02*
X36726816Y-42467219D01*
X36726816Y-42467219D02*
X37107768Y-42467219D01*
X37107768Y-42467219D02*
X37203006Y-42514838D01*
X37203006Y-42514838D02*
X37250625Y-42562457D01*
X37250625Y-42562457D02*
X37298244Y-42657695D01*
X37298244Y-42657695D02*
X37298244Y-42800552D01*
X37298244Y-42800552D02*
X37250625Y-42895790D01*
X37250625Y-42895790D02*
X37203006Y-42943409D01*
X37203006Y-42943409D02*
X37107768Y-42991028D01*
X37107768Y-42991028D02*
X36726816Y-42991028D01*
X37679197Y-42562457D02*
X37726816Y-42514838D01*
X37726816Y-42514838D02*
X37822054Y-42467219D01*
X37822054Y-42467219D02*
X38060149Y-42467219D01*
X38060149Y-42467219D02*
X38155387Y-42514838D01*
X38155387Y-42514838D02*
X38203006Y-42562457D01*
X38203006Y-42562457D02*
X38250625Y-42657695D01*
X38250625Y-42657695D02*
X38250625Y-42752933D01*
X38250625Y-42752933D02*
X38203006Y-42895790D01*
X38203006Y-42895790D02*
X37631578Y-43467219D01*
X37631578Y-43467219D02*
X38250625Y-43467219D01*
X12143482Y-58514838D02*
X12048244Y-58467219D01*
X12048244Y-58467219D02*
X11905387Y-58467219D01*
X11905387Y-58467219D02*
X11762530Y-58514838D01*
X11762530Y-58514838D02*
X11667292Y-58610076D01*
X11667292Y-58610076D02*
X11619673Y-58705314D01*
X11619673Y-58705314D02*
X11572054Y-58895790D01*
X11572054Y-58895790D02*
X11572054Y-59038647D01*
X11572054Y-59038647D02*
X11619673Y-59229123D01*
X11619673Y-59229123D02*
X11667292Y-59324361D01*
X11667292Y-59324361D02*
X11762530Y-59419600D01*
X11762530Y-59419600D02*
X11905387Y-59467219D01*
X11905387Y-59467219D02*
X12000625Y-59467219D01*
X12000625Y-59467219D02*
X12143482Y-59419600D01*
X12143482Y-59419600D02*
X12191101Y-59371980D01*
X12191101Y-59371980D02*
X12191101Y-59038647D01*
X12191101Y-59038647D02*
X12000625Y-59038647D01*
X12619673Y-59467219D02*
X12619673Y-58467219D01*
X12619673Y-58467219D02*
X13191101Y-59467219D01*
X13191101Y-59467219D02*
X13191101Y-58467219D01*
X13667292Y-59467219D02*
X13667292Y-58467219D01*
X13667292Y-58467219D02*
X13905387Y-58467219D01*
X13905387Y-58467219D02*
X14048244Y-58514838D01*
X14048244Y-58514838D02*
X14143482Y-58610076D01*
X14143482Y-58610076D02*
X14191101Y-58705314D01*
X14191101Y-58705314D02*
X14238720Y-58895790D01*
X14238720Y-58895790D02*
X14238720Y-59038647D01*
X14238720Y-59038647D02*
X14191101Y-59229123D01*
X14191101Y-59229123D02*
X14143482Y-59324361D01*
X14143482Y-59324361D02*
X14048244Y-59419600D01*
X14048244Y-59419600D02*
X13905387Y-59467219D01*
X13905387Y-59467219D02*
X13667292Y-59467219D01*
X5369673Y-19836266D02*
X6131578Y-19836266D01*
X5750625Y-20217219D02*
X5750625Y-19455314D01*
X6512530Y-19217219D02*
X7131577Y-19217219D01*
X7131577Y-19217219D02*
X6798244Y-19598171D01*
X6798244Y-19598171D02*
X6941101Y-19598171D01*
X6941101Y-19598171D02*
X7036339Y-19645790D01*
X7036339Y-19645790D02*
X7083958Y-19693409D01*
X7083958Y-19693409D02*
X7131577Y-19788647D01*
X7131577Y-19788647D02*
X7131577Y-20026742D01*
X7131577Y-20026742D02*
X7083958Y-20121980D01*
X7083958Y-20121980D02*
X7036339Y-20169600D01*
X7036339Y-20169600D02*
X6941101Y-20217219D01*
X6941101Y-20217219D02*
X6655387Y-20217219D01*
X6655387Y-20217219D02*
X6560149Y-20169600D01*
X6560149Y-20169600D02*
X6512530Y-20121980D01*
X7560149Y-20121980D02*
X7607768Y-20169600D01*
X7607768Y-20169600D02*
X7560149Y-20217219D01*
X7560149Y-20217219D02*
X7512530Y-20169600D01*
X7512530Y-20169600D02*
X7560149Y-20121980D01*
X7560149Y-20121980D02*
X7560149Y-20217219D01*
X7941101Y-19217219D02*
X8560148Y-19217219D01*
X8560148Y-19217219D02*
X8226815Y-19598171D01*
X8226815Y-19598171D02*
X8369672Y-19598171D01*
X8369672Y-19598171D02*
X8464910Y-19645790D01*
X8464910Y-19645790D02*
X8512529Y-19693409D01*
X8512529Y-19693409D02*
X8560148Y-19788647D01*
X8560148Y-19788647D02*
X8560148Y-20026742D01*
X8560148Y-20026742D02*
X8512529Y-20121980D01*
X8512529Y-20121980D02*
X8464910Y-20169600D01*
X8464910Y-20169600D02*
X8369672Y-20217219D01*
X8369672Y-20217219D02*
X8083958Y-20217219D01*
X8083958Y-20217219D02*
X7988720Y-20169600D01*
X7988720Y-20169600D02*
X7941101Y-20121980D01*
X8845863Y-19217219D02*
X9179196Y-20217219D01*
X9179196Y-20217219D02*
X9512529Y-19217219D01*
X41643482Y-11664838D02*
X41548244Y-11617219D01*
X41548244Y-11617219D02*
X41405387Y-11617219D01*
X41405387Y-11617219D02*
X41262530Y-11664838D01*
X41262530Y-11664838D02*
X41167292Y-11760076D01*
X41167292Y-11760076D02*
X41119673Y-11855314D01*
X41119673Y-11855314D02*
X41072054Y-12045790D01*
X41072054Y-12045790D02*
X41072054Y-12188647D01*
X41072054Y-12188647D02*
X41119673Y-12379123D01*
X41119673Y-12379123D02*
X41167292Y-12474361D01*
X41167292Y-12474361D02*
X41262530Y-12569600D01*
X41262530Y-12569600D02*
X41405387Y-12617219D01*
X41405387Y-12617219D02*
X41500625Y-12617219D01*
X41500625Y-12617219D02*
X41643482Y-12569600D01*
X41643482Y-12569600D02*
X41691101Y-12521980D01*
X41691101Y-12521980D02*
X41691101Y-12188647D01*
X41691101Y-12188647D02*
X41500625Y-12188647D01*
X42119673Y-12617219D02*
X42119673Y-11617219D01*
X42119673Y-11617219D02*
X42500625Y-11617219D01*
X42500625Y-11617219D02*
X42595863Y-11664838D01*
X42595863Y-11664838D02*
X42643482Y-11712457D01*
X42643482Y-11712457D02*
X42691101Y-11807695D01*
X42691101Y-11807695D02*
X42691101Y-11950552D01*
X42691101Y-11950552D02*
X42643482Y-12045790D01*
X42643482Y-12045790D02*
X42595863Y-12093409D01*
X42595863Y-12093409D02*
X42500625Y-12141028D01*
X42500625Y-12141028D02*
X42119673Y-12141028D01*
X43072054Y-12569600D02*
X43214911Y-12617219D01*
X43214911Y-12617219D02*
X43453006Y-12617219D01*
X43453006Y-12617219D02*
X43548244Y-12569600D01*
X43548244Y-12569600D02*
X43595863Y-12521980D01*
X43595863Y-12521980D02*
X43643482Y-12426742D01*
X43643482Y-12426742D02*
X43643482Y-12331504D01*
X43643482Y-12331504D02*
X43595863Y-12236266D01*
X43595863Y-12236266D02*
X43548244Y-12188647D01*
X43548244Y-12188647D02*
X43453006Y-12141028D01*
X43453006Y-12141028D02*
X43262530Y-12093409D01*
X43262530Y-12093409D02*
X43167292Y-12045790D01*
X43167292Y-12045790D02*
X43119673Y-11998171D01*
X43119673Y-11998171D02*
X43072054Y-11902933D01*
X43072054Y-11902933D02*
X43072054Y-11807695D01*
X43072054Y-11807695D02*
X43119673Y-11712457D01*
X43119673Y-11712457D02*
X43167292Y-11664838D01*
X43167292Y-11664838D02*
X43262530Y-11617219D01*
X43262530Y-11617219D02*
X43500625Y-11617219D01*
X43500625Y-11617219D02*
X43643482Y-11664838D01*
X43929197Y-11617219D02*
X44500625Y-11617219D01*
X44214911Y-12617219D02*
X44214911Y-11617219D01*
X44738721Y-11617219D02*
X45405387Y-12617219D01*
X45405387Y-11617219D02*
X44738721Y-12617219D01*
X42369673Y-32486266D02*
X43131578Y-32486266D01*
X42750625Y-32867219D02*
X42750625Y-32105314D01*
X44083958Y-31867219D02*
X43607768Y-31867219D01*
X43607768Y-31867219D02*
X43560149Y-32343409D01*
X43560149Y-32343409D02*
X43607768Y-32295790D01*
X43607768Y-32295790D02*
X43703006Y-32248171D01*
X43703006Y-32248171D02*
X43941101Y-32248171D01*
X43941101Y-32248171D02*
X44036339Y-32295790D01*
X44036339Y-32295790D02*
X44083958Y-32343409D01*
X44083958Y-32343409D02*
X44131577Y-32438647D01*
X44131577Y-32438647D02*
X44131577Y-32676742D01*
X44131577Y-32676742D02*
X44083958Y-32771980D01*
X44083958Y-32771980D02*
X44036339Y-32819600D01*
X44036339Y-32819600D02*
X43941101Y-32867219D01*
X43941101Y-32867219D02*
X43703006Y-32867219D01*
X43703006Y-32867219D02*
X43607768Y-32819600D01*
X43607768Y-32819600D02*
X43560149Y-32771980D01*
X44417292Y-31867219D02*
X44750625Y-32867219D01*
X44750625Y-32867219D02*
X45083958Y-31867219D01*
X12095863Y-54217219D02*
X11619673Y-54217219D01*
X11619673Y-54217219D02*
X11619673Y-53217219D01*
X12429197Y-53693409D02*
X12762530Y-53693409D01*
X12905387Y-54217219D02*
X12429197Y-54217219D01*
X12429197Y-54217219D02*
X12429197Y-53217219D01*
X12429197Y-53217219D02*
X12905387Y-53217219D01*
X13667292Y-53693409D02*
X13333959Y-53693409D01*
X13333959Y-54217219D02*
X13333959Y-53217219D01*
X13333959Y-53217219D02*
X13810149Y-53217219D01*
X14048245Y-53217219D02*
X14619673Y-53217219D01*
X14333959Y-54217219D02*
X14333959Y-53217219D01*
X16048245Y-53693409D02*
X16191102Y-53741028D01*
X16191102Y-53741028D02*
X16238721Y-53788647D01*
X16238721Y-53788647D02*
X16286340Y-53883885D01*
X16286340Y-53883885D02*
X16286340Y-54026742D01*
X16286340Y-54026742D02*
X16238721Y-54121980D01*
X16238721Y-54121980D02*
X16191102Y-54169600D01*
X16191102Y-54169600D02*
X16095864Y-54217219D01*
X16095864Y-54217219D02*
X15714912Y-54217219D01*
X15714912Y-54217219D02*
X15714912Y-53217219D01*
X15714912Y-53217219D02*
X16048245Y-53217219D01*
X16048245Y-53217219D02*
X16143483Y-53264838D01*
X16143483Y-53264838D02*
X16191102Y-53312457D01*
X16191102Y-53312457D02*
X16238721Y-53407695D01*
X16238721Y-53407695D02*
X16238721Y-53502933D01*
X16238721Y-53502933D02*
X16191102Y-53598171D01*
X16191102Y-53598171D02*
X16143483Y-53645790D01*
X16143483Y-53645790D02*
X16048245Y-53693409D01*
X16048245Y-53693409D02*
X15714912Y-53693409D01*
X16714912Y-53217219D02*
X16714912Y-54026742D01*
X16714912Y-54026742D02*
X16762531Y-54121980D01*
X16762531Y-54121980D02*
X16810150Y-54169600D01*
X16810150Y-54169600D02*
X16905388Y-54217219D01*
X16905388Y-54217219D02*
X17095864Y-54217219D01*
X17095864Y-54217219D02*
X17191102Y-54169600D01*
X17191102Y-54169600D02*
X17238721Y-54121980D01*
X17238721Y-54121980D02*
X17286340Y-54026742D01*
X17286340Y-54026742D02*
X17286340Y-53217219D01*
X17619674Y-53217219D02*
X18191102Y-53217219D01*
X17905388Y-54217219D02*
X17905388Y-53217219D01*
X42322054Y-22819600D02*
X42464911Y-22867219D01*
X42464911Y-22867219D02*
X42703006Y-22867219D01*
X42703006Y-22867219D02*
X42798244Y-22819600D01*
X42798244Y-22819600D02*
X42845863Y-22771980D01*
X42845863Y-22771980D02*
X42893482Y-22676742D01*
X42893482Y-22676742D02*
X42893482Y-22581504D01*
X42893482Y-22581504D02*
X42845863Y-22486266D01*
X42845863Y-22486266D02*
X42798244Y-22438647D01*
X42798244Y-22438647D02*
X42703006Y-22391028D01*
X42703006Y-22391028D02*
X42512530Y-22343409D01*
X42512530Y-22343409D02*
X42417292Y-22295790D01*
X42417292Y-22295790D02*
X42369673Y-22248171D01*
X42369673Y-22248171D02*
X42322054Y-22152933D01*
X42322054Y-22152933D02*
X42322054Y-22057695D01*
X42322054Y-22057695D02*
X42369673Y-21962457D01*
X42369673Y-21962457D02*
X42417292Y-21914838D01*
X42417292Y-21914838D02*
X42512530Y-21867219D01*
X42512530Y-21867219D02*
X42750625Y-21867219D01*
X42750625Y-21867219D02*
X42893482Y-21914838D01*
X43893482Y-22771980D02*
X43845863Y-22819600D01*
X43845863Y-22819600D02*
X43703006Y-22867219D01*
X43703006Y-22867219D02*
X43607768Y-22867219D01*
X43607768Y-22867219D02*
X43464911Y-22819600D01*
X43464911Y-22819600D02*
X43369673Y-22724361D01*
X43369673Y-22724361D02*
X43322054Y-22629123D01*
X43322054Y-22629123D02*
X43274435Y-22438647D01*
X43274435Y-22438647D02*
X43274435Y-22295790D01*
X43274435Y-22295790D02*
X43322054Y-22105314D01*
X43322054Y-22105314D02*
X43369673Y-22010076D01*
X43369673Y-22010076D02*
X43464911Y-21914838D01*
X43464911Y-21914838D02*
X43607768Y-21867219D01*
X43607768Y-21867219D02*
X43703006Y-21867219D01*
X43703006Y-21867219D02*
X43845863Y-21914838D01*
X43845863Y-21914838D02*
X43893482Y-21962457D01*
X44322054Y-22867219D02*
X44322054Y-21867219D01*
X44893482Y-22867219D02*
X44464911Y-22295790D01*
X44893482Y-21867219D02*
X44322054Y-22438647D01*
X43143482Y-14164838D02*
X43048244Y-14117219D01*
X43048244Y-14117219D02*
X42905387Y-14117219D01*
X42905387Y-14117219D02*
X42762530Y-14164838D01*
X42762530Y-14164838D02*
X42667292Y-14260076D01*
X42667292Y-14260076D02*
X42619673Y-14355314D01*
X42619673Y-14355314D02*
X42572054Y-14545790D01*
X42572054Y-14545790D02*
X42572054Y-14688647D01*
X42572054Y-14688647D02*
X42619673Y-14879123D01*
X42619673Y-14879123D02*
X42667292Y-14974361D01*
X42667292Y-14974361D02*
X42762530Y-15069600D01*
X42762530Y-15069600D02*
X42905387Y-15117219D01*
X42905387Y-15117219D02*
X43000625Y-15117219D01*
X43000625Y-15117219D02*
X43143482Y-15069600D01*
X43143482Y-15069600D02*
X43191101Y-15021980D01*
X43191101Y-15021980D02*
X43191101Y-14688647D01*
X43191101Y-14688647D02*
X43000625Y-14688647D01*
X43619673Y-15117219D02*
X43619673Y-14117219D01*
X43619673Y-14117219D02*
X44191101Y-15117219D01*
X44191101Y-15117219D02*
X44191101Y-14117219D01*
X44667292Y-15117219D02*
X44667292Y-14117219D01*
X44667292Y-14117219D02*
X44905387Y-14117219D01*
X44905387Y-14117219D02*
X45048244Y-14164838D01*
X45048244Y-14164838D02*
X45143482Y-14260076D01*
X45143482Y-14260076D02*
X45191101Y-14355314D01*
X45191101Y-14355314D02*
X45238720Y-14545790D01*
X45238720Y-14545790D02*
X45238720Y-14688647D01*
X45238720Y-14688647D02*
X45191101Y-14879123D01*
X45191101Y-14879123D02*
X45143482Y-14974361D01*
X45143482Y-14974361D02*
X45048244Y-15069600D01*
X45048244Y-15069600D02*
X44905387Y-15117219D01*
X44905387Y-15117219D02*
X44667292Y-15117219D01*
X36143482Y-37514838D02*
X36048244Y-37467219D01*
X36048244Y-37467219D02*
X35905387Y-37467219D01*
X35905387Y-37467219D02*
X35762530Y-37514838D01*
X35762530Y-37514838D02*
X35667292Y-37610076D01*
X35667292Y-37610076D02*
X35619673Y-37705314D01*
X35619673Y-37705314D02*
X35572054Y-37895790D01*
X35572054Y-37895790D02*
X35572054Y-38038647D01*
X35572054Y-38038647D02*
X35619673Y-38229123D01*
X35619673Y-38229123D02*
X35667292Y-38324361D01*
X35667292Y-38324361D02*
X35762530Y-38419600D01*
X35762530Y-38419600D02*
X35905387Y-38467219D01*
X35905387Y-38467219D02*
X36000625Y-38467219D01*
X36000625Y-38467219D02*
X36143482Y-38419600D01*
X36143482Y-38419600D02*
X36191101Y-38371980D01*
X36191101Y-38371980D02*
X36191101Y-38038647D01*
X36191101Y-38038647D02*
X36000625Y-38038647D01*
X36619673Y-38467219D02*
X36619673Y-37467219D01*
X36619673Y-37467219D02*
X37191101Y-38467219D01*
X37191101Y-38467219D02*
X37191101Y-37467219D01*
X37667292Y-38467219D02*
X37667292Y-37467219D01*
X37667292Y-37467219D02*
X37905387Y-37467219D01*
X37905387Y-37467219D02*
X38048244Y-37514838D01*
X38048244Y-37514838D02*
X38143482Y-37610076D01*
X38143482Y-37610076D02*
X38191101Y-37705314D01*
X38191101Y-37705314D02*
X38238720Y-37895790D01*
X38238720Y-37895790D02*
X38238720Y-38038647D01*
X38238720Y-38038647D02*
X38191101Y-38229123D01*
X38191101Y-38229123D02*
X38143482Y-38324361D01*
X38143482Y-38324361D02*
X38048244Y-38419600D01*
X38048244Y-38419600D02*
X37905387Y-38467219D01*
X37905387Y-38467219D02*
X37667292Y-38467219D01*
X12041101Y-64767219D02*
X11707768Y-64291028D01*
X11469673Y-64767219D02*
X11469673Y-63767219D01*
X11469673Y-63767219D02*
X11850625Y-63767219D01*
X11850625Y-63767219D02*
X11945863Y-63814838D01*
X11945863Y-63814838D02*
X11993482Y-63862457D01*
X11993482Y-63862457D02*
X12041101Y-63957695D01*
X12041101Y-63957695D02*
X12041101Y-64100552D01*
X12041101Y-64100552D02*
X11993482Y-64195790D01*
X11993482Y-64195790D02*
X11945863Y-64243409D01*
X11945863Y-64243409D02*
X11850625Y-64291028D01*
X11850625Y-64291028D02*
X11469673Y-64291028D01*
X12469673Y-64767219D02*
X12469673Y-63767219D01*
X13469672Y-63814838D02*
X13374434Y-63767219D01*
X13374434Y-63767219D02*
X13231577Y-63767219D01*
X13231577Y-63767219D02*
X13088720Y-63814838D01*
X13088720Y-63814838D02*
X12993482Y-63910076D01*
X12993482Y-63910076D02*
X12945863Y-64005314D01*
X12945863Y-64005314D02*
X12898244Y-64195790D01*
X12898244Y-64195790D02*
X12898244Y-64338647D01*
X12898244Y-64338647D02*
X12945863Y-64529123D01*
X12945863Y-64529123D02*
X12993482Y-64624361D01*
X12993482Y-64624361D02*
X13088720Y-64719600D01*
X13088720Y-64719600D02*
X13231577Y-64767219D01*
X13231577Y-64767219D02*
X13326815Y-64767219D01*
X13326815Y-64767219D02*
X13469672Y-64719600D01*
X13469672Y-64719600D02*
X13517291Y-64671980D01*
X13517291Y-64671980D02*
X13517291Y-64338647D01*
X13517291Y-64338647D02*
X13326815Y-64338647D01*
X13945863Y-64767219D02*
X13945863Y-63767219D01*
X13945863Y-64243409D02*
X14517291Y-64243409D01*
X14517291Y-64767219D02*
X14517291Y-63767219D01*
X14850625Y-63767219D02*
X15422053Y-63767219D01*
X15136339Y-64767219D02*
X15136339Y-63767219D01*
X16850625Y-64243409D02*
X16993482Y-64291028D01*
X16993482Y-64291028D02*
X17041101Y-64338647D01*
X17041101Y-64338647D02*
X17088720Y-64433885D01*
X17088720Y-64433885D02*
X17088720Y-64576742D01*
X17088720Y-64576742D02*
X17041101Y-64671980D01*
X17041101Y-64671980D02*
X16993482Y-64719600D01*
X16993482Y-64719600D02*
X16898244Y-64767219D01*
X16898244Y-64767219D02*
X16517292Y-64767219D01*
X16517292Y-64767219D02*
X16517292Y-63767219D01*
X16517292Y-63767219D02*
X16850625Y-63767219D01*
X16850625Y-63767219D02*
X16945863Y-63814838D01*
X16945863Y-63814838D02*
X16993482Y-63862457D01*
X16993482Y-63862457D02*
X17041101Y-63957695D01*
X17041101Y-63957695D02*
X17041101Y-64052933D01*
X17041101Y-64052933D02*
X16993482Y-64148171D01*
X16993482Y-64148171D02*
X16945863Y-64195790D01*
X16945863Y-64195790D02*
X16850625Y-64243409D01*
X16850625Y-64243409D02*
X16517292Y-64243409D01*
X17517292Y-63767219D02*
X17517292Y-64576742D01*
X17517292Y-64576742D02*
X17564911Y-64671980D01*
X17564911Y-64671980D02*
X17612530Y-64719600D01*
X17612530Y-64719600D02*
X17707768Y-64767219D01*
X17707768Y-64767219D02*
X17898244Y-64767219D01*
X17898244Y-64767219D02*
X17993482Y-64719600D01*
X17993482Y-64719600D02*
X18041101Y-64671980D01*
X18041101Y-64671980D02*
X18088720Y-64576742D01*
X18088720Y-64576742D02*
X18088720Y-63767219D01*
X18422054Y-63767219D02*
X18993482Y-63767219D01*
X18707768Y-64767219D02*
X18707768Y-63767219D01*
X28367219Y-33325564D02*
X28367219Y-32706517D01*
X28367219Y-32706517D02*
X28748171Y-33039850D01*
X28748171Y-33039850D02*
X28748171Y-32896993D01*
X28748171Y-32896993D02*
X28795790Y-32801755D01*
X28795790Y-32801755D02*
X28843409Y-32754136D01*
X28843409Y-32754136D02*
X28938647Y-32706517D01*
X28938647Y-32706517D02*
X29176742Y-32706517D01*
X29176742Y-32706517D02*
X29271980Y-32754136D01*
X29271980Y-32754136D02*
X29319600Y-32801755D01*
X29319600Y-32801755D02*
X29367219Y-32896993D01*
X29367219Y-32896993D02*
X29367219Y-33182707D01*
X29367219Y-33182707D02*
X29319600Y-33277945D01*
X29319600Y-33277945D02*
X29271980Y-33325564D01*
X28367219Y-32420802D02*
X29367219Y-32087469D01*
X29367219Y-32087469D02*
X28367219Y-31754136D01*
X28367219Y-31516040D02*
X28367219Y-30896993D01*
X28367219Y-30896993D02*
X28748171Y-31230326D01*
X28748171Y-31230326D02*
X28748171Y-31087469D01*
X28748171Y-31087469D02*
X28795790Y-30992231D01*
X28795790Y-30992231D02*
X28843409Y-30944612D01*
X28843409Y-30944612D02*
X28938647Y-30896993D01*
X28938647Y-30896993D02*
X29176742Y-30896993D01*
X29176742Y-30896993D02*
X29271980Y-30944612D01*
X29271980Y-30944612D02*
X29319600Y-30992231D01*
X29319600Y-30992231D02*
X29367219Y-31087469D01*
X29367219Y-31087469D02*
X29367219Y-31373183D01*
X29367219Y-31373183D02*
X29319600Y-31468421D01*
X29319600Y-31468421D02*
X29271980Y-31516040D01*
X5619673Y-16943409D02*
X5953006Y-16943409D01*
X6095863Y-17467219D02*
X5619673Y-17467219D01*
X5619673Y-17467219D02*
X5619673Y-16467219D01*
X5619673Y-16467219D02*
X6095863Y-16467219D01*
X6429197Y-16467219D02*
X7095863Y-17467219D01*
X7095863Y-16467219D02*
X6429197Y-17467219D01*
X7476816Y-17467219D02*
X7476816Y-16467219D01*
X7476816Y-16467219D02*
X7857768Y-16467219D01*
X7857768Y-16467219D02*
X7953006Y-16514838D01*
X7953006Y-16514838D02*
X8000625Y-16562457D01*
X8000625Y-16562457D02*
X8048244Y-16657695D01*
X8048244Y-16657695D02*
X8048244Y-16800552D01*
X8048244Y-16800552D02*
X8000625Y-16895790D01*
X8000625Y-16895790D02*
X7953006Y-16943409D01*
X7953006Y-16943409D02*
X7857768Y-16991028D01*
X7857768Y-16991028D02*
X7476816Y-16991028D01*
X8905387Y-16800552D02*
X8905387Y-17467219D01*
X8667292Y-16419600D02*
X8429197Y-17133885D01*
X8429197Y-17133885D02*
X9048244Y-17133885D01*
X5619673Y-14443409D02*
X5953006Y-14443409D01*
X6095863Y-14967219D02*
X5619673Y-14967219D01*
X5619673Y-14967219D02*
X5619673Y-13967219D01*
X5619673Y-13967219D02*
X6095863Y-13967219D01*
X6429197Y-13967219D02*
X7095863Y-14967219D01*
X7095863Y-13967219D02*
X6429197Y-14967219D01*
X7476816Y-14967219D02*
X7476816Y-13967219D01*
X7476816Y-13967219D02*
X7857768Y-13967219D01*
X7857768Y-13967219D02*
X7953006Y-14014838D01*
X7953006Y-14014838D02*
X8000625Y-14062457D01*
X8000625Y-14062457D02*
X8048244Y-14157695D01*
X8048244Y-14157695D02*
X8048244Y-14300552D01*
X8048244Y-14300552D02*
X8000625Y-14395790D01*
X8000625Y-14395790D02*
X7953006Y-14443409D01*
X7953006Y-14443409D02*
X7857768Y-14491028D01*
X7857768Y-14491028D02*
X7476816Y-14491028D01*
X8381578Y-13967219D02*
X9000625Y-13967219D01*
X9000625Y-13967219D02*
X8667292Y-14348171D01*
X8667292Y-14348171D02*
X8810149Y-14348171D01*
X8810149Y-14348171D02*
X8905387Y-14395790D01*
X8905387Y-14395790D02*
X8953006Y-14443409D01*
X8953006Y-14443409D02*
X9000625Y-14538647D01*
X9000625Y-14538647D02*
X9000625Y-14776742D01*
X9000625Y-14776742D02*
X8953006Y-14871980D01*
X8953006Y-14871980D02*
X8905387Y-14919600D01*
X8905387Y-14919600D02*
X8810149Y-14967219D01*
X8810149Y-14967219D02*
X8524435Y-14967219D01*
X8524435Y-14967219D02*
X8429197Y-14919600D01*
X8429197Y-14919600D02*
X8381578Y-14871980D01*
X11893482Y-68514838D02*
X11798244Y-68467219D01*
X11798244Y-68467219D02*
X11655387Y-68467219D01*
X11655387Y-68467219D02*
X11512530Y-68514838D01*
X11512530Y-68514838D02*
X11417292Y-68610076D01*
X11417292Y-68610076D02*
X11369673Y-68705314D01*
X11369673Y-68705314D02*
X11322054Y-68895790D01*
X11322054Y-68895790D02*
X11322054Y-69038647D01*
X11322054Y-69038647D02*
X11369673Y-69229123D01*
X11369673Y-69229123D02*
X11417292Y-69324361D01*
X11417292Y-69324361D02*
X11512530Y-69419600D01*
X11512530Y-69419600D02*
X11655387Y-69467219D01*
X11655387Y-69467219D02*
X11750625Y-69467219D01*
X11750625Y-69467219D02*
X11893482Y-69419600D01*
X11893482Y-69419600D02*
X11941101Y-69371980D01*
X11941101Y-69371980D02*
X11941101Y-69038647D01*
X11941101Y-69038647D02*
X11750625Y-69038647D01*
X12369673Y-69467219D02*
X12369673Y-68467219D01*
X12369673Y-68467219D02*
X12941101Y-69467219D01*
X12941101Y-69467219D02*
X12941101Y-68467219D01*
X13417292Y-69467219D02*
X13417292Y-68467219D01*
X13417292Y-68467219D02*
X13655387Y-68467219D01*
X13655387Y-68467219D02*
X13798244Y-68514838D01*
X13798244Y-68514838D02*
X13893482Y-68610076D01*
X13893482Y-68610076D02*
X13941101Y-68705314D01*
X13941101Y-68705314D02*
X13988720Y-68895790D01*
X13988720Y-68895790D02*
X13988720Y-69038647D01*
X13988720Y-69038647D02*
X13941101Y-69229123D01*
X13941101Y-69229123D02*
X13893482Y-69324361D01*
X13893482Y-69324361D02*
X13798244Y-69419600D01*
X13798244Y-69419600D02*
X13655387Y-69467219D01*
X13655387Y-69467219D02*
X13417292Y-69467219D01*
X41393482Y-9164838D02*
X41298244Y-9117219D01*
X41298244Y-9117219D02*
X41155387Y-9117219D01*
X41155387Y-9117219D02*
X41012530Y-9164838D01*
X41012530Y-9164838D02*
X40917292Y-9260076D01*
X40917292Y-9260076D02*
X40869673Y-9355314D01*
X40869673Y-9355314D02*
X40822054Y-9545790D01*
X40822054Y-9545790D02*
X40822054Y-9688647D01*
X40822054Y-9688647D02*
X40869673Y-9879123D01*
X40869673Y-9879123D02*
X40917292Y-9974361D01*
X40917292Y-9974361D02*
X41012530Y-10069600D01*
X41012530Y-10069600D02*
X41155387Y-10117219D01*
X41155387Y-10117219D02*
X41250625Y-10117219D01*
X41250625Y-10117219D02*
X41393482Y-10069600D01*
X41393482Y-10069600D02*
X41441101Y-10021980D01*
X41441101Y-10021980D02*
X41441101Y-9688647D01*
X41441101Y-9688647D02*
X41250625Y-9688647D01*
X41869673Y-10117219D02*
X41869673Y-9117219D01*
X41869673Y-9117219D02*
X42250625Y-9117219D01*
X42250625Y-9117219D02*
X42345863Y-9164838D01*
X42345863Y-9164838D02*
X42393482Y-9212457D01*
X42393482Y-9212457D02*
X42441101Y-9307695D01*
X42441101Y-9307695D02*
X42441101Y-9450552D01*
X42441101Y-9450552D02*
X42393482Y-9545790D01*
X42393482Y-9545790D02*
X42345863Y-9593409D01*
X42345863Y-9593409D02*
X42250625Y-9641028D01*
X42250625Y-9641028D02*
X41869673Y-9641028D01*
X42822054Y-10069600D02*
X42964911Y-10117219D01*
X42964911Y-10117219D02*
X43203006Y-10117219D01*
X43203006Y-10117219D02*
X43298244Y-10069600D01*
X43298244Y-10069600D02*
X43345863Y-10021980D01*
X43345863Y-10021980D02*
X43393482Y-9926742D01*
X43393482Y-9926742D02*
X43393482Y-9831504D01*
X43393482Y-9831504D02*
X43345863Y-9736266D01*
X43345863Y-9736266D02*
X43298244Y-9688647D01*
X43298244Y-9688647D02*
X43203006Y-9641028D01*
X43203006Y-9641028D02*
X43012530Y-9593409D01*
X43012530Y-9593409D02*
X42917292Y-9545790D01*
X42917292Y-9545790D02*
X42869673Y-9498171D01*
X42869673Y-9498171D02*
X42822054Y-9402933D01*
X42822054Y-9402933D02*
X42822054Y-9307695D01*
X42822054Y-9307695D02*
X42869673Y-9212457D01*
X42869673Y-9212457D02*
X42917292Y-9164838D01*
X42917292Y-9164838D02*
X43012530Y-9117219D01*
X43012530Y-9117219D02*
X43250625Y-9117219D01*
X43250625Y-9117219D02*
X43393482Y-9164838D01*
X44393482Y-10117219D02*
X44060149Y-9641028D01*
X43822054Y-10117219D02*
X43822054Y-9117219D01*
X43822054Y-9117219D02*
X44203006Y-9117219D01*
X44203006Y-9117219D02*
X44298244Y-9164838D01*
X44298244Y-9164838D02*
X44345863Y-9212457D01*
X44345863Y-9212457D02*
X44393482Y-9307695D01*
X44393482Y-9307695D02*
X44393482Y-9450552D01*
X44393482Y-9450552D02*
X44345863Y-9545790D01*
X44345863Y-9545790D02*
X44298244Y-9593409D01*
X44298244Y-9593409D02*
X44203006Y-9641028D01*
X44203006Y-9641028D02*
X43822054Y-9641028D01*
X44726816Y-9117219D02*
X45393482Y-10117219D01*
X45393482Y-9117219D02*
X44726816Y-10117219D01*
X7095863Y-75418266D02*
X7095863Y-74018266D01*
X7095863Y-74018266D02*
X7395863Y-75018266D01*
X7395863Y-75018266D02*
X7695863Y-74018266D01*
X7695863Y-74018266D02*
X7695863Y-75418266D01*
X8253006Y-75418266D02*
X8167291Y-75351600D01*
X8167291Y-75351600D02*
X8124434Y-75284933D01*
X8124434Y-75284933D02*
X8081577Y-75151600D01*
X8081577Y-75151600D02*
X8081577Y-74751600D01*
X8081577Y-74751600D02*
X8124434Y-74618266D01*
X8124434Y-74618266D02*
X8167291Y-74551600D01*
X8167291Y-74551600D02*
X8253006Y-74484933D01*
X8253006Y-74484933D02*
X8381577Y-74484933D01*
X8381577Y-74484933D02*
X8467291Y-74551600D01*
X8467291Y-74551600D02*
X8510149Y-74618266D01*
X8510149Y-74618266D02*
X8553006Y-74751600D01*
X8553006Y-74751600D02*
X8553006Y-75151600D01*
X8553006Y-75151600D02*
X8510149Y-75284933D01*
X8510149Y-75284933D02*
X8467291Y-75351600D01*
X8467291Y-75351600D02*
X8381577Y-75418266D01*
X8381577Y-75418266D02*
X8253006Y-75418266D01*
X9067292Y-75418266D02*
X8981577Y-75351600D01*
X8981577Y-75351600D02*
X8938720Y-75284933D01*
X8938720Y-75284933D02*
X8895863Y-75151600D01*
X8895863Y-75151600D02*
X8895863Y-74751600D01*
X8895863Y-74751600D02*
X8938720Y-74618266D01*
X8938720Y-74618266D02*
X8981577Y-74551600D01*
X8981577Y-74551600D02*
X9067292Y-74484933D01*
X9067292Y-74484933D02*
X9195863Y-74484933D01*
X9195863Y-74484933D02*
X9281577Y-74551600D01*
X9281577Y-74551600D02*
X9324435Y-74618266D01*
X9324435Y-74618266D02*
X9367292Y-74751600D01*
X9367292Y-74751600D02*
X9367292Y-75151600D01*
X9367292Y-75151600D02*
X9324435Y-75284933D01*
X9324435Y-75284933D02*
X9281577Y-75351600D01*
X9281577Y-75351600D02*
X9195863Y-75418266D01*
X9195863Y-75418266D02*
X9067292Y-75418266D01*
X9753006Y-74484933D02*
X9753006Y-75418266D01*
X9753006Y-74618266D02*
X9795863Y-74551600D01*
X9795863Y-74551600D02*
X9881578Y-74484933D01*
X9881578Y-74484933D02*
X10010149Y-74484933D01*
X10010149Y-74484933D02*
X10095863Y-74551600D01*
X10095863Y-74551600D02*
X10138721Y-74684933D01*
X10138721Y-74684933D02*
X10138721Y-75418266D01*
X11081578Y-75284933D02*
X11038721Y-75351600D01*
X11038721Y-75351600D02*
X10910149Y-75418266D01*
X10910149Y-75418266D02*
X10824435Y-75418266D01*
X10824435Y-75418266D02*
X10695864Y-75351600D01*
X10695864Y-75351600D02*
X10610149Y-75218266D01*
X10610149Y-75218266D02*
X10567292Y-75084933D01*
X10567292Y-75084933D02*
X10524435Y-74818266D01*
X10524435Y-74818266D02*
X10524435Y-74618266D01*
X10524435Y-74618266D02*
X10567292Y-74351600D01*
X10567292Y-74351600D02*
X10610149Y-74218266D01*
X10610149Y-74218266D02*
X10695864Y-74084933D01*
X10695864Y-74084933D02*
X10824435Y-74018266D01*
X10824435Y-74018266D02*
X10910149Y-74018266D01*
X10910149Y-74018266D02*
X11038721Y-74084933D01*
X11038721Y-74084933D02*
X11081578Y-74151600D01*
X11595864Y-75418266D02*
X11510149Y-75351600D01*
X11510149Y-75351600D02*
X11467292Y-75218266D01*
X11467292Y-75218266D02*
X11467292Y-74018266D01*
X12067293Y-75418266D02*
X11981578Y-75351600D01*
X11981578Y-75351600D02*
X11938721Y-75284933D01*
X11938721Y-75284933D02*
X11895864Y-75151600D01*
X11895864Y-75151600D02*
X11895864Y-74751600D01*
X11895864Y-74751600D02*
X11938721Y-74618266D01*
X11938721Y-74618266D02*
X11981578Y-74551600D01*
X11981578Y-74551600D02*
X12067293Y-74484933D01*
X12067293Y-74484933D02*
X12195864Y-74484933D01*
X12195864Y-74484933D02*
X12281578Y-74551600D01*
X12281578Y-74551600D02*
X12324436Y-74618266D01*
X12324436Y-74618266D02*
X12367293Y-74751600D01*
X12367293Y-74751600D02*
X12367293Y-75151600D01*
X12367293Y-75151600D02*
X12324436Y-75284933D01*
X12324436Y-75284933D02*
X12281578Y-75351600D01*
X12281578Y-75351600D02*
X12195864Y-75418266D01*
X12195864Y-75418266D02*
X12067293Y-75418266D01*
X13138722Y-75351600D02*
X13053007Y-75418266D01*
X13053007Y-75418266D02*
X12881579Y-75418266D01*
X12881579Y-75418266D02*
X12795864Y-75351600D01*
X12795864Y-75351600D02*
X12753007Y-75284933D01*
X12753007Y-75284933D02*
X12710150Y-75151600D01*
X12710150Y-75151600D02*
X12710150Y-74751600D01*
X12710150Y-74751600D02*
X12753007Y-74618266D01*
X12753007Y-74618266D02*
X12795864Y-74551600D01*
X12795864Y-74551600D02*
X12881579Y-74484933D01*
X12881579Y-74484933D02*
X13053007Y-74484933D01*
X13053007Y-74484933D02*
X13138722Y-74551600D01*
X13524436Y-75418266D02*
X13524436Y-74018266D01*
X13610151Y-74884933D02*
X13867293Y-75418266D01*
X13867293Y-74484933D02*
X13524436Y-75018266D01*
X14810150Y-74018266D02*
X15110150Y-75418266D01*
X15110150Y-75418266D02*
X15410150Y-74018266D01*
X16181579Y-75418266D02*
X15667293Y-75418266D01*
X15924436Y-75418266D02*
X15924436Y-74018266D01*
X15924436Y-74018266D02*
X15838722Y-74218266D01*
X15838722Y-74218266D02*
X15753007Y-74351600D01*
X15753007Y-74351600D02*
X15667293Y-74418266D01*
X16567293Y-75284933D02*
X16610150Y-75351600D01*
X16610150Y-75351600D02*
X16567293Y-75418266D01*
X16567293Y-75418266D02*
X16524436Y-75351600D01*
X16524436Y-75351600D02*
X16567293Y-75284933D01*
X16567293Y-75284933D02*
X16567293Y-75418266D01*
X17167293Y-74018266D02*
X17253007Y-74018266D01*
X17253007Y-74018266D02*
X17338721Y-74084933D01*
X17338721Y-74084933D02*
X17381579Y-74151600D01*
X17381579Y-74151600D02*
X17424436Y-74284933D01*
X17424436Y-74284933D02*
X17467293Y-74551600D01*
X17467293Y-74551600D02*
X17467293Y-74884933D01*
X17467293Y-74884933D02*
X17424436Y-75151600D01*
X17424436Y-75151600D02*
X17381579Y-75284933D01*
X17381579Y-75284933D02*
X17338721Y-75351600D01*
X17338721Y-75351600D02*
X17253007Y-75418266D01*
X17253007Y-75418266D02*
X17167293Y-75418266D01*
X17167293Y-75418266D02*
X17081579Y-75351600D01*
X17081579Y-75351600D02*
X17038721Y-75284933D01*
X17038721Y-75284933D02*
X16995864Y-75151600D01*
X16995864Y-75151600D02*
X16953007Y-74884933D01*
X16953007Y-74884933D02*
X16953007Y-74551600D01*
X16953007Y-74551600D02*
X16995864Y-74284933D01*
X16995864Y-74284933D02*
X17038721Y-74151600D01*
X17038721Y-74151600D02*
X17081579Y-74084933D01*
X17081579Y-74084933D02*
X17167293Y-74018266D01*
X19053007Y-75418266D02*
X18753007Y-74751600D01*
X18538721Y-75418266D02*
X18538721Y-74018266D01*
X18538721Y-74018266D02*
X18881578Y-74018266D01*
X18881578Y-74018266D02*
X18967293Y-74084933D01*
X18967293Y-74084933D02*
X19010150Y-74151600D01*
X19010150Y-74151600D02*
X19053007Y-74284933D01*
X19053007Y-74284933D02*
X19053007Y-74484933D01*
X19053007Y-74484933D02*
X19010150Y-74618266D01*
X19010150Y-74618266D02*
X18967293Y-74684933D01*
X18967293Y-74684933D02*
X18881578Y-74751600D01*
X18881578Y-74751600D02*
X18538721Y-74751600D01*
X19781578Y-75351600D02*
X19695864Y-75418266D01*
X19695864Y-75418266D02*
X19524436Y-75418266D01*
X19524436Y-75418266D02*
X19438721Y-75351600D01*
X19438721Y-75351600D02*
X19395864Y-75218266D01*
X19395864Y-75218266D02*
X19395864Y-74684933D01*
X19395864Y-74684933D02*
X19438721Y-74551600D01*
X19438721Y-74551600D02*
X19524436Y-74484933D01*
X19524436Y-74484933D02*
X19695864Y-74484933D01*
X19695864Y-74484933D02*
X19781578Y-74551600D01*
X19781578Y-74551600D02*
X19824436Y-74684933D01*
X19824436Y-74684933D02*
X19824436Y-74818266D01*
X19824436Y-74818266D02*
X19395864Y-74951600D01*
X20124436Y-74484933D02*
X20338722Y-75418266D01*
X20338722Y-75418266D02*
X20553007Y-74484933D01*
X21538721Y-74151600D02*
X21581578Y-74084933D01*
X21581578Y-74084933D02*
X21667293Y-74018266D01*
X21667293Y-74018266D02*
X21881578Y-74018266D01*
X21881578Y-74018266D02*
X21967293Y-74084933D01*
X21967293Y-74084933D02*
X22010150Y-74151600D01*
X22010150Y-74151600D02*
X22053007Y-74284933D01*
X22053007Y-74284933D02*
X22053007Y-74418266D01*
X22053007Y-74418266D02*
X22010150Y-74618266D01*
X22010150Y-74618266D02*
X21495864Y-75418266D01*
X21495864Y-75418266D02*
X22053007Y-75418266D01*
X5619673Y-9443409D02*
X5953006Y-9443409D01*
X6095863Y-9967219D02*
X5619673Y-9967219D01*
X5619673Y-9967219D02*
X5619673Y-8967219D01*
X5619673Y-8967219D02*
X6095863Y-8967219D01*
X6429197Y-8967219D02*
X7095863Y-9967219D01*
X7095863Y-8967219D02*
X6429197Y-9967219D01*
X7476816Y-9967219D02*
X7476816Y-8967219D01*
X7476816Y-8967219D02*
X7857768Y-8967219D01*
X7857768Y-8967219D02*
X7953006Y-9014838D01*
X7953006Y-9014838D02*
X8000625Y-9062457D01*
X8000625Y-9062457D02*
X8048244Y-9157695D01*
X8048244Y-9157695D02*
X8048244Y-9300552D01*
X8048244Y-9300552D02*
X8000625Y-9395790D01*
X8000625Y-9395790D02*
X7953006Y-9443409D01*
X7953006Y-9443409D02*
X7857768Y-9491028D01*
X7857768Y-9491028D02*
X7476816Y-9491028D01*
X9000625Y-9967219D02*
X8429197Y-9967219D01*
X8714911Y-9967219D02*
X8714911Y-8967219D01*
X8714911Y-8967219D02*
X8619673Y-9110076D01*
X8619673Y-9110076D02*
X8524435Y-9205314D01*
X8524435Y-9205314D02*
X8429197Y-9252933D01*
X34869673Y-53193409D02*
X35203006Y-53193409D01*
X35345863Y-53717219D02*
X34869673Y-53717219D01*
X34869673Y-53717219D02*
X34869673Y-52717219D01*
X34869673Y-52717219D02*
X35345863Y-52717219D01*
X35679197Y-52717219D02*
X36345863Y-53717219D01*
X36345863Y-52717219D02*
X35679197Y-53717219D01*
X36726816Y-53717219D02*
X36726816Y-52717219D01*
X36726816Y-52717219D02*
X37107768Y-52717219D01*
X37107768Y-52717219D02*
X37203006Y-52764838D01*
X37203006Y-52764838D02*
X37250625Y-52812457D01*
X37250625Y-52812457D02*
X37298244Y-52907695D01*
X37298244Y-52907695D02*
X37298244Y-53050552D01*
X37298244Y-53050552D02*
X37250625Y-53145790D01*
X37250625Y-53145790D02*
X37203006Y-53193409D01*
X37203006Y-53193409D02*
X37107768Y-53241028D01*
X37107768Y-53241028D02*
X36726816Y-53241028D01*
X38250625Y-53717219D02*
X37679197Y-53717219D01*
X37964911Y-53717219D02*
X37964911Y-52717219D01*
X37964911Y-52717219D02*
X37869673Y-52860076D01*
X37869673Y-52860076D02*
X37774435Y-52955314D01*
X37774435Y-52955314D02*
X37679197Y-53002933D01*
X26569600Y-33277945D02*
X26617219Y-33135088D01*
X26617219Y-33135088D02*
X26617219Y-32896993D01*
X26617219Y-32896993D02*
X26569600Y-32801755D01*
X26569600Y-32801755D02*
X26521980Y-32754136D01*
X26521980Y-32754136D02*
X26426742Y-32706517D01*
X26426742Y-32706517D02*
X26331504Y-32706517D01*
X26331504Y-32706517D02*
X26236266Y-32754136D01*
X26236266Y-32754136D02*
X26188647Y-32801755D01*
X26188647Y-32801755D02*
X26141028Y-32896993D01*
X26141028Y-32896993D02*
X26093409Y-33087469D01*
X26093409Y-33087469D02*
X26045790Y-33182707D01*
X26045790Y-33182707D02*
X25998171Y-33230326D01*
X25998171Y-33230326D02*
X25902933Y-33277945D01*
X25902933Y-33277945D02*
X25807695Y-33277945D01*
X25807695Y-33277945D02*
X25712457Y-33230326D01*
X25712457Y-33230326D02*
X25664838Y-33182707D01*
X25664838Y-33182707D02*
X25617219Y-33087469D01*
X25617219Y-33087469D02*
X25617219Y-32849374D01*
X25617219Y-32849374D02*
X25664838Y-32706517D01*
X26617219Y-32277945D02*
X25617219Y-32277945D01*
X25617219Y-32277945D02*
X25617219Y-32039850D01*
X25617219Y-32039850D02*
X25664838Y-31896993D01*
X25664838Y-31896993D02*
X25760076Y-31801755D01*
X25760076Y-31801755D02*
X25855314Y-31754136D01*
X25855314Y-31754136D02*
X26045790Y-31706517D01*
X26045790Y-31706517D02*
X26188647Y-31706517D01*
X26188647Y-31706517D02*
X26379123Y-31754136D01*
X26379123Y-31754136D02*
X26474361Y-31801755D01*
X26474361Y-31801755D02*
X26569600Y-31896993D01*
X26569600Y-31896993D02*
X26617219Y-32039850D01*
X26617219Y-32039850D02*
X26617219Y-32277945D01*
X26331504Y-31325564D02*
X26331504Y-30849374D01*
X26617219Y-31420802D02*
X25617219Y-31087469D01*
X25617219Y-31087469D02*
X26617219Y-30754136D01*
X30914838Y-32706517D02*
X30867219Y-32801755D01*
X30867219Y-32801755D02*
X30867219Y-32944612D01*
X30867219Y-32944612D02*
X30914838Y-33087469D01*
X30914838Y-33087469D02*
X31010076Y-33182707D01*
X31010076Y-33182707D02*
X31105314Y-33230326D01*
X31105314Y-33230326D02*
X31295790Y-33277945D01*
X31295790Y-33277945D02*
X31438647Y-33277945D01*
X31438647Y-33277945D02*
X31629123Y-33230326D01*
X31629123Y-33230326D02*
X31724361Y-33182707D01*
X31724361Y-33182707D02*
X31819600Y-33087469D01*
X31819600Y-33087469D02*
X31867219Y-32944612D01*
X31867219Y-32944612D02*
X31867219Y-32849374D01*
X31867219Y-32849374D02*
X31819600Y-32706517D01*
X31819600Y-32706517D02*
X31771980Y-32658898D01*
X31771980Y-32658898D02*
X31438647Y-32658898D01*
X31438647Y-32658898D02*
X31438647Y-32849374D01*
X31867219Y-32230326D02*
X30867219Y-32230326D01*
X30867219Y-32230326D02*
X31867219Y-31658898D01*
X31867219Y-31658898D02*
X30867219Y-31658898D01*
X31867219Y-31182707D02*
X30867219Y-31182707D01*
X30867219Y-31182707D02*
X30867219Y-30944612D01*
X30867219Y-30944612D02*
X30914838Y-30801755D01*
X30914838Y-30801755D02*
X31010076Y-30706517D01*
X31010076Y-30706517D02*
X31105314Y-30658898D01*
X31105314Y-30658898D02*
X31295790Y-30611279D01*
X31295790Y-30611279D02*
X31438647Y-30611279D01*
X31438647Y-30611279D02*
X31629123Y-30658898D01*
X31629123Y-30658898D02*
X31724361Y-30706517D01*
X31724361Y-30706517D02*
X31819600Y-30801755D01*
X31819600Y-30801755D02*
X31867219Y-30944612D01*
X31867219Y-30944612D02*
X31867219Y-31182707D01*
X21583333Y-29552219D02*
X21250000Y-29076028D01*
X21011905Y-29552219D02*
X21011905Y-28552219D01*
X21011905Y-28552219D02*
X21392857Y-28552219D01*
X21392857Y-28552219D02*
X21488095Y-28599838D01*
X21488095Y-28599838D02*
X21535714Y-28647457D01*
X21535714Y-28647457D02*
X21583333Y-28742695D01*
X21583333Y-28742695D02*
X21583333Y-28885552D01*
X21583333Y-28885552D02*
X21535714Y-28980790D01*
X21535714Y-28980790D02*
X21488095Y-29028409D01*
X21488095Y-29028409D02*
X21392857Y-29076028D01*
X21392857Y-29076028D02*
X21011905Y-29076028D01*
X22154762Y-28980790D02*
X22059524Y-28933171D01*
X22059524Y-28933171D02*
X22011905Y-28885552D01*
X22011905Y-28885552D02*
X21964286Y-28790314D01*
X21964286Y-28790314D02*
X21964286Y-28742695D01*
X21964286Y-28742695D02*
X22011905Y-28647457D01*
X22011905Y-28647457D02*
X22059524Y-28599838D01*
X22059524Y-28599838D02*
X22154762Y-28552219D01*
X22154762Y-28552219D02*
X22345238Y-28552219D01*
X22345238Y-28552219D02*
X22440476Y-28599838D01*
X22440476Y-28599838D02*
X22488095Y-28647457D01*
X22488095Y-28647457D02*
X22535714Y-28742695D01*
X22535714Y-28742695D02*
X22535714Y-28790314D01*
X22535714Y-28790314D02*
X22488095Y-28885552D01*
X22488095Y-28885552D02*
X22440476Y-28933171D01*
X22440476Y-28933171D02*
X22345238Y-28980790D01*
X22345238Y-28980790D02*
X22154762Y-28980790D01*
X22154762Y-28980790D02*
X22059524Y-29028409D01*
X22059524Y-29028409D02*
X22011905Y-29076028D01*
X22011905Y-29076028D02*
X21964286Y-29171266D01*
X21964286Y-29171266D02*
X21964286Y-29361742D01*
X21964286Y-29361742D02*
X22011905Y-29456980D01*
X22011905Y-29456980D02*
X22059524Y-29504600D01*
X22059524Y-29504600D02*
X22154762Y-29552219D01*
X22154762Y-29552219D02*
X22345238Y-29552219D01*
X22345238Y-29552219D02*
X22440476Y-29504600D01*
X22440476Y-29504600D02*
X22488095Y-29456980D01*
X22488095Y-29456980D02*
X22535714Y-29361742D01*
X22535714Y-29361742D02*
X22535714Y-29171266D01*
X22535714Y-29171266D02*
X22488095Y-29076028D01*
X22488095Y-29076028D02*
X22440476Y-29028409D01*
X22440476Y-29028409D02*
X22345238Y-28980790D01*
X1416666Y-29302219D02*
X1416666Y-30016504D01*
X1416666Y-30016504D02*
X1369047Y-30159361D01*
X1369047Y-30159361D02*
X1273809Y-30254600D01*
X1273809Y-30254600D02*
X1130952Y-30302219D01*
X1130952Y-30302219D02*
X1035714Y-30302219D01*
X2321428Y-29635552D02*
X2321428Y-30302219D01*
X2083333Y-29254600D02*
X1845238Y-29968885D01*
X1845238Y-29968885D02*
X2464285Y-29968885D01*
X47166666Y-56802219D02*
X47166666Y-57516504D01*
X47166666Y-57516504D02*
X47119047Y-57659361D01*
X47119047Y-57659361D02*
X47023809Y-57754600D01*
X47023809Y-57754600D02*
X46880952Y-57802219D01*
X46880952Y-57802219D02*
X46785714Y-57802219D01*
X48119047Y-56802219D02*
X47642857Y-56802219D01*
X47642857Y-56802219D02*
X47595238Y-57278409D01*
X47595238Y-57278409D02*
X47642857Y-57230790D01*
X47642857Y-57230790D02*
X47738095Y-57183171D01*
X47738095Y-57183171D02*
X47976190Y-57183171D01*
X47976190Y-57183171D02*
X48071428Y-57230790D01*
X48071428Y-57230790D02*
X48119047Y-57278409D01*
X48119047Y-57278409D02*
X48166666Y-57373647D01*
X48166666Y-57373647D02*
X48166666Y-57611742D01*
X48166666Y-57611742D02*
X48119047Y-57706980D01*
X48119047Y-57706980D02*
X48071428Y-57754600D01*
X48071428Y-57754600D02*
X47976190Y-57802219D01*
X47976190Y-57802219D02*
X47738095Y-57802219D01*
X47738095Y-57802219D02*
X47642857Y-57754600D01*
X47642857Y-57754600D02*
X47595238Y-57706980D01*
X42800000Y-59253933D02*
X43000000Y-59320600D01*
X43000000Y-59320600D02*
X43066666Y-59387266D01*
X43066666Y-59387266D02*
X43133333Y-59520600D01*
X43133333Y-59520600D02*
X43133333Y-59720600D01*
X43133333Y-59720600D02*
X43066666Y-59853933D01*
X43066666Y-59853933D02*
X43000000Y-59920600D01*
X43000000Y-59920600D02*
X42866666Y-59987266D01*
X42866666Y-59987266D02*
X42333333Y-59987266D01*
X42333333Y-59987266D02*
X42333333Y-58587266D01*
X42333333Y-58587266D02*
X42800000Y-58587266D01*
X42800000Y-58587266D02*
X42933333Y-58653933D01*
X42933333Y-58653933D02*
X43000000Y-58720600D01*
X43000000Y-58720600D02*
X43066666Y-58853933D01*
X43066666Y-58853933D02*
X43066666Y-58987266D01*
X43066666Y-58987266D02*
X43000000Y-59120600D01*
X43000000Y-59120600D02*
X42933333Y-59187266D01*
X42933333Y-59187266D02*
X42800000Y-59253933D01*
X42800000Y-59253933D02*
X42333333Y-59253933D01*
X43533333Y-58587266D02*
X44333333Y-58587266D01*
X43933333Y-59987266D02*
X43933333Y-58587266D01*
X45533333Y-59987266D02*
X44733333Y-59987266D01*
X45133333Y-59987266D02*
X45133333Y-58587266D01*
X45133333Y-58587266D02*
X45000000Y-58787266D01*
X45000000Y-58787266D02*
X44866667Y-58920600D01*
X44866667Y-58920600D02*
X44733333Y-58987266D01*
X31916666Y-37302219D02*
X31916666Y-38016504D01*
X31916666Y-38016504D02*
X31869047Y-38159361D01*
X31869047Y-38159361D02*
X31773809Y-38254600D01*
X31773809Y-38254600D02*
X31630952Y-38302219D01*
X31630952Y-38302219D02*
X31535714Y-38302219D01*
X32821428Y-37302219D02*
X32630952Y-37302219D01*
X32630952Y-37302219D02*
X32535714Y-37349838D01*
X32535714Y-37349838D02*
X32488095Y-37397457D01*
X32488095Y-37397457D02*
X32392857Y-37540314D01*
X32392857Y-37540314D02*
X32345238Y-37730790D01*
X32345238Y-37730790D02*
X32345238Y-38111742D01*
X32345238Y-38111742D02*
X32392857Y-38206980D01*
X32392857Y-38206980D02*
X32440476Y-38254600D01*
X32440476Y-38254600D02*
X32535714Y-38302219D01*
X32535714Y-38302219D02*
X32726190Y-38302219D01*
X32726190Y-38302219D02*
X32821428Y-38254600D01*
X32821428Y-38254600D02*
X32869047Y-38206980D01*
X32869047Y-38206980D02*
X32916666Y-38111742D01*
X32916666Y-38111742D02*
X32916666Y-37873647D01*
X32916666Y-37873647D02*
X32869047Y-37778409D01*
X32869047Y-37778409D02*
X32821428Y-37730790D01*
X32821428Y-37730790D02*
X32726190Y-37683171D01*
X32726190Y-37683171D02*
X32535714Y-37683171D01*
X32535714Y-37683171D02*
X32440476Y-37730790D01*
X32440476Y-37730790D02*
X32392857Y-37778409D01*
X32392857Y-37778409D02*
X32345238Y-37873647D01*
X9583333Y-7802219D02*
X9250000Y-7326028D01*
X9011905Y-7802219D02*
X9011905Y-6802219D01*
X9011905Y-6802219D02*
X9392857Y-6802219D01*
X9392857Y-6802219D02*
X9488095Y-6849838D01*
X9488095Y-6849838D02*
X9535714Y-6897457D01*
X9535714Y-6897457D02*
X9583333Y-6992695D01*
X9583333Y-6992695D02*
X9583333Y-7135552D01*
X9583333Y-7135552D02*
X9535714Y-7230790D01*
X9535714Y-7230790D02*
X9488095Y-7278409D01*
X9488095Y-7278409D02*
X9392857Y-7326028D01*
X9392857Y-7326028D02*
X9011905Y-7326028D01*
X10535714Y-7802219D02*
X9964286Y-7802219D01*
X10250000Y-7802219D02*
X10250000Y-6802219D01*
X10250000Y-6802219D02*
X10154762Y-6945076D01*
X10154762Y-6945076D02*
X10059524Y-7040314D01*
X10059524Y-7040314D02*
X9964286Y-7087933D01*
X21633333Y-33652219D02*
X21300000Y-33176028D01*
X21061905Y-33652219D02*
X21061905Y-32652219D01*
X21061905Y-32652219D02*
X21442857Y-32652219D01*
X21442857Y-32652219D02*
X21538095Y-32699838D01*
X21538095Y-32699838D02*
X21585714Y-32747457D01*
X21585714Y-32747457D02*
X21633333Y-32842695D01*
X21633333Y-32842695D02*
X21633333Y-32985552D01*
X21633333Y-32985552D02*
X21585714Y-33080790D01*
X21585714Y-33080790D02*
X21538095Y-33128409D01*
X21538095Y-33128409D02*
X21442857Y-33176028D01*
X21442857Y-33176028D02*
X21061905Y-33176028D01*
X22109524Y-33652219D02*
X22300000Y-33652219D01*
X22300000Y-33652219D02*
X22395238Y-33604600D01*
X22395238Y-33604600D02*
X22442857Y-33556980D01*
X22442857Y-33556980D02*
X22538095Y-33414123D01*
X22538095Y-33414123D02*
X22585714Y-33223647D01*
X22585714Y-33223647D02*
X22585714Y-32842695D01*
X22585714Y-32842695D02*
X22538095Y-32747457D01*
X22538095Y-32747457D02*
X22490476Y-32699838D01*
X22490476Y-32699838D02*
X22395238Y-32652219D01*
X22395238Y-32652219D02*
X22204762Y-32652219D01*
X22204762Y-32652219D02*
X22109524Y-32699838D01*
X22109524Y-32699838D02*
X22061905Y-32747457D01*
X22061905Y-32747457D02*
X22014286Y-32842695D01*
X22014286Y-32842695D02*
X22014286Y-33080790D01*
X22014286Y-33080790D02*
X22061905Y-33176028D01*
X22061905Y-33176028D02*
X22109524Y-33223647D01*
X22109524Y-33223647D02*
X22204762Y-33271266D01*
X22204762Y-33271266D02*
X22395238Y-33271266D01*
X22395238Y-33271266D02*
X22490476Y-33223647D01*
X22490476Y-33223647D02*
X22538095Y-33176028D01*
X22538095Y-33176028D02*
X22585714Y-33080790D01*
X12083333Y-21952219D02*
X11750000Y-21476028D01*
X11511905Y-21952219D02*
X11511905Y-20952219D01*
X11511905Y-20952219D02*
X11892857Y-20952219D01*
X11892857Y-20952219D02*
X11988095Y-20999838D01*
X11988095Y-20999838D02*
X12035714Y-21047457D01*
X12035714Y-21047457D02*
X12083333Y-21142695D01*
X12083333Y-21142695D02*
X12083333Y-21285552D01*
X12083333Y-21285552D02*
X12035714Y-21380790D01*
X12035714Y-21380790D02*
X11988095Y-21428409D01*
X11988095Y-21428409D02*
X11892857Y-21476028D01*
X11892857Y-21476028D02*
X11511905Y-21476028D01*
X12464286Y-21047457D02*
X12511905Y-20999838D01*
X12511905Y-20999838D02*
X12607143Y-20952219D01*
X12607143Y-20952219D02*
X12845238Y-20952219D01*
X12845238Y-20952219D02*
X12940476Y-20999838D01*
X12940476Y-20999838D02*
X12988095Y-21047457D01*
X12988095Y-21047457D02*
X13035714Y-21142695D01*
X13035714Y-21142695D02*
X13035714Y-21237933D01*
X13035714Y-21237933D02*
X12988095Y-21380790D01*
X12988095Y-21380790D02*
X12416667Y-21952219D01*
X12416667Y-21952219D02*
X13035714Y-21952219D01*
X15752219Y-43542857D02*
X15276028Y-43876190D01*
X15752219Y-44114285D02*
X14752219Y-44114285D01*
X14752219Y-44114285D02*
X14752219Y-43733333D01*
X14752219Y-43733333D02*
X14799838Y-43638095D01*
X14799838Y-43638095D02*
X14847457Y-43590476D01*
X14847457Y-43590476D02*
X14942695Y-43542857D01*
X14942695Y-43542857D02*
X15085552Y-43542857D01*
X15085552Y-43542857D02*
X15180790Y-43590476D01*
X15180790Y-43590476D02*
X15228409Y-43638095D01*
X15228409Y-43638095D02*
X15276028Y-43733333D01*
X15276028Y-43733333D02*
X15276028Y-44114285D01*
X15752219Y-42590476D02*
X15752219Y-43161904D01*
X15752219Y-42876190D02*
X14752219Y-42876190D01*
X14752219Y-42876190D02*
X14895076Y-42971428D01*
X14895076Y-42971428D02*
X14990314Y-43066666D01*
X14990314Y-43066666D02*
X15037933Y-43161904D01*
X14752219Y-41971428D02*
X14752219Y-41876190D01*
X14752219Y-41876190D02*
X14799838Y-41780952D01*
X14799838Y-41780952D02*
X14847457Y-41733333D01*
X14847457Y-41733333D02*
X14942695Y-41685714D01*
X14942695Y-41685714D02*
X15133171Y-41638095D01*
X15133171Y-41638095D02*
X15371266Y-41638095D01*
X15371266Y-41638095D02*
X15561742Y-41685714D01*
X15561742Y-41685714D02*
X15656980Y-41733333D01*
X15656980Y-41733333D02*
X15704600Y-41780952D01*
X15704600Y-41780952D02*
X15752219Y-41876190D01*
X15752219Y-41876190D02*
X15752219Y-41971428D01*
X15752219Y-41971428D02*
X15704600Y-42066666D01*
X15704600Y-42066666D02*
X15656980Y-42114285D01*
X15656980Y-42114285D02*
X15561742Y-42161904D01*
X15561742Y-42161904D02*
X15371266Y-42209523D01*
X15371266Y-42209523D02*
X15133171Y-42209523D01*
X15133171Y-42209523D02*
X14942695Y-42161904D01*
X14942695Y-42161904D02*
X14847457Y-42114285D01*
X14847457Y-42114285D02*
X14799838Y-42066666D01*
X14799838Y-42066666D02*
X14752219Y-41971428D01*
X31652219Y-42561904D02*
X32461742Y-42561904D01*
X32461742Y-42561904D02*
X32556980Y-42514285D01*
X32556980Y-42514285D02*
X32604600Y-42466666D01*
X32604600Y-42466666D02*
X32652219Y-42371428D01*
X32652219Y-42371428D02*
X32652219Y-42180952D01*
X32652219Y-42180952D02*
X32604600Y-42085714D01*
X32604600Y-42085714D02*
X32556980Y-42038095D01*
X32556980Y-42038095D02*
X32461742Y-41990476D01*
X32461742Y-41990476D02*
X31652219Y-41990476D01*
X31985552Y-41085714D02*
X32652219Y-41085714D01*
X31604600Y-41323809D02*
X32318885Y-41561904D01*
X32318885Y-41561904D02*
X32318885Y-40942857D01*
X9606980Y-23766666D02*
X9654600Y-23814285D01*
X9654600Y-23814285D02*
X9702219Y-23957142D01*
X9702219Y-23957142D02*
X9702219Y-24052380D01*
X9702219Y-24052380D02*
X9654600Y-24195237D01*
X9654600Y-24195237D02*
X9559361Y-24290475D01*
X9559361Y-24290475D02*
X9464123Y-24338094D01*
X9464123Y-24338094D02*
X9273647Y-24385713D01*
X9273647Y-24385713D02*
X9130790Y-24385713D01*
X9130790Y-24385713D02*
X8940314Y-24338094D01*
X8940314Y-24338094D02*
X8845076Y-24290475D01*
X8845076Y-24290475D02*
X8749838Y-24195237D01*
X8749838Y-24195237D02*
X8702219Y-24052380D01*
X8702219Y-24052380D02*
X8702219Y-23957142D01*
X8702219Y-23957142D02*
X8749838Y-23814285D01*
X8749838Y-23814285D02*
X8797457Y-23766666D01*
X9702219Y-22814285D02*
X9702219Y-23385713D01*
X9702219Y-23099999D02*
X8702219Y-23099999D01*
X8702219Y-23099999D02*
X8845076Y-23195237D01*
X8845076Y-23195237D02*
X8940314Y-23290475D01*
X8940314Y-23290475D02*
X8987933Y-23385713D01*
X33456980Y-48929166D02*
X33504600Y-48976785D01*
X33504600Y-48976785D02*
X33552219Y-49119642D01*
X33552219Y-49119642D02*
X33552219Y-49214880D01*
X33552219Y-49214880D02*
X33504600Y-49357737D01*
X33504600Y-49357737D02*
X33409361Y-49452975D01*
X33409361Y-49452975D02*
X33314123Y-49500594D01*
X33314123Y-49500594D02*
X33123647Y-49548213D01*
X33123647Y-49548213D02*
X32980790Y-49548213D01*
X32980790Y-49548213D02*
X32790314Y-49500594D01*
X32790314Y-49500594D02*
X32695076Y-49452975D01*
X32695076Y-49452975D02*
X32599838Y-49357737D01*
X32599838Y-49357737D02*
X32552219Y-49214880D01*
X32552219Y-49214880D02*
X32552219Y-49119642D01*
X32552219Y-49119642D02*
X32599838Y-48976785D01*
X32599838Y-48976785D02*
X32647457Y-48929166D01*
X32552219Y-48595832D02*
X32552219Y-47976785D01*
X32552219Y-47976785D02*
X32933171Y-48310118D01*
X32933171Y-48310118D02*
X32933171Y-48167261D01*
X32933171Y-48167261D02*
X32980790Y-48072023D01*
X32980790Y-48072023D02*
X33028409Y-48024404D01*
X33028409Y-48024404D02*
X33123647Y-47976785D01*
X33123647Y-47976785D02*
X33361742Y-47976785D01*
X33361742Y-47976785D02*
X33456980Y-48024404D01*
X33456980Y-48024404D02*
X33504600Y-48072023D01*
X33504600Y-48072023D02*
X33552219Y-48167261D01*
X33552219Y-48167261D02*
X33552219Y-48452975D01*
X33552219Y-48452975D02*
X33504600Y-48548213D01*
X33504600Y-48548213D02*
X33456980Y-48595832D01*
X11666666Y-36552219D02*
X11666666Y-37266504D01*
X11666666Y-37266504D02*
X11619047Y-37409361D01*
X11619047Y-37409361D02*
X11523809Y-37504600D01*
X11523809Y-37504600D02*
X11380952Y-37552219D01*
X11380952Y-37552219D02*
X11285714Y-37552219D01*
X12142857Y-37552219D02*
X12142857Y-36552219D01*
X12142857Y-36552219D02*
X12523809Y-36552219D01*
X12523809Y-36552219D02*
X12619047Y-36599838D01*
X12619047Y-36599838D02*
X12666666Y-36647457D01*
X12666666Y-36647457D02*
X12714285Y-36742695D01*
X12714285Y-36742695D02*
X12714285Y-36885552D01*
X12714285Y-36885552D02*
X12666666Y-36980790D01*
X12666666Y-36980790D02*
X12619047Y-37028409D01*
X12619047Y-37028409D02*
X12523809Y-37076028D01*
X12523809Y-37076028D02*
X12142857Y-37076028D01*
X13095238Y-36647457D02*
X13142857Y-36599838D01*
X13142857Y-36599838D02*
X13238095Y-36552219D01*
X13238095Y-36552219D02*
X13476190Y-36552219D01*
X13476190Y-36552219D02*
X13571428Y-36599838D01*
X13571428Y-36599838D02*
X13619047Y-36647457D01*
X13619047Y-36647457D02*
X13666666Y-36742695D01*
X13666666Y-36742695D02*
X13666666Y-36837933D01*
X13666666Y-36837933D02*
X13619047Y-36980790D01*
X13619047Y-36980790D02*
X13047619Y-37552219D01*
X13047619Y-37552219D02*
X13666666Y-37552219D01*
X15057142Y-35952219D02*
X14723809Y-35476028D01*
X14485714Y-35952219D02*
X14485714Y-34952219D01*
X14485714Y-34952219D02*
X14866666Y-34952219D01*
X14866666Y-34952219D02*
X14961904Y-34999838D01*
X14961904Y-34999838D02*
X15009523Y-35047457D01*
X15009523Y-35047457D02*
X15057142Y-35142695D01*
X15057142Y-35142695D02*
X15057142Y-35285552D01*
X15057142Y-35285552D02*
X15009523Y-35380790D01*
X15009523Y-35380790D02*
X14961904Y-35428409D01*
X14961904Y-35428409D02*
X14866666Y-35476028D01*
X14866666Y-35476028D02*
X14485714Y-35476028D01*
X16009523Y-35952219D02*
X15438095Y-35952219D01*
X15723809Y-35952219D02*
X15723809Y-34952219D01*
X15723809Y-34952219D02*
X15628571Y-35095076D01*
X15628571Y-35095076D02*
X15533333Y-35190314D01*
X15533333Y-35190314D02*
X15438095Y-35237933D01*
X16961904Y-35952219D02*
X16390476Y-35952219D01*
X16676190Y-35952219D02*
X16676190Y-34952219D01*
X16676190Y-34952219D02*
X16580952Y-35095076D01*
X16580952Y-35095076D02*
X16485714Y-35190314D01*
X16485714Y-35190314D02*
X16390476Y-35237933D01*
X33702219Y-28166666D02*
X33226028Y-28499999D01*
X33702219Y-28738094D02*
X32702219Y-28738094D01*
X32702219Y-28738094D02*
X32702219Y-28357142D01*
X32702219Y-28357142D02*
X32749838Y-28261904D01*
X32749838Y-28261904D02*
X32797457Y-28214285D01*
X32797457Y-28214285D02*
X32892695Y-28166666D01*
X32892695Y-28166666D02*
X33035552Y-28166666D01*
X33035552Y-28166666D02*
X33130790Y-28214285D01*
X33130790Y-28214285D02*
X33178409Y-28261904D01*
X33178409Y-28261904D02*
X33226028Y-28357142D01*
X33226028Y-28357142D02*
X33226028Y-28738094D01*
X32702219Y-27261904D02*
X32702219Y-27738094D01*
X32702219Y-27738094D02*
X33178409Y-27785713D01*
X33178409Y-27785713D02*
X33130790Y-27738094D01*
X33130790Y-27738094D02*
X33083171Y-27642856D01*
X33083171Y-27642856D02*
X33083171Y-27404761D01*
X33083171Y-27404761D02*
X33130790Y-27309523D01*
X33130790Y-27309523D02*
X33178409Y-27261904D01*
X33178409Y-27261904D02*
X33273647Y-27214285D01*
X33273647Y-27214285D02*
X33511742Y-27214285D01*
X33511742Y-27214285D02*
X33606980Y-27261904D01*
X33606980Y-27261904D02*
X33654600Y-27309523D01*
X33654600Y-27309523D02*
X33702219Y-27404761D01*
X33702219Y-27404761D02*
X33702219Y-27642856D01*
X33702219Y-27642856D02*
X33654600Y-27738094D01*
X33654600Y-27738094D02*
X33606980Y-27785713D01*
X17438095Y-44152219D02*
X17438095Y-44961742D01*
X17438095Y-44961742D02*
X17485714Y-45056980D01*
X17485714Y-45056980D02*
X17533333Y-45104600D01*
X17533333Y-45104600D02*
X17628571Y-45152219D01*
X17628571Y-45152219D02*
X17819047Y-45152219D01*
X17819047Y-45152219D02*
X17914285Y-45104600D01*
X17914285Y-45104600D02*
X17961904Y-45056980D01*
X17961904Y-45056980D02*
X18009523Y-44961742D01*
X18009523Y-44961742D02*
X18009523Y-44152219D01*
X18390476Y-44152219D02*
X19009523Y-44152219D01*
X19009523Y-44152219D02*
X18676190Y-44533171D01*
X18676190Y-44533171D02*
X18819047Y-44533171D01*
X18819047Y-44533171D02*
X18914285Y-44580790D01*
X18914285Y-44580790D02*
X18961904Y-44628409D01*
X18961904Y-44628409D02*
X19009523Y-44723647D01*
X19009523Y-44723647D02*
X19009523Y-44961742D01*
X19009523Y-44961742D02*
X18961904Y-45056980D01*
X18961904Y-45056980D02*
X18914285Y-45104600D01*
X18914285Y-45104600D02*
X18819047Y-45152219D01*
X18819047Y-45152219D02*
X18533333Y-45152219D01*
X18533333Y-45152219D02*
X18438095Y-45104600D01*
X18438095Y-45104600D02*
X18390476Y-45056980D01*
X46916666Y-33952219D02*
X46916666Y-34666504D01*
X46916666Y-34666504D02*
X46869047Y-34809361D01*
X46869047Y-34809361D02*
X46773809Y-34904600D01*
X46773809Y-34904600D02*
X46630952Y-34952219D01*
X46630952Y-34952219D02*
X46535714Y-34952219D01*
X47297619Y-33952219D02*
X47964285Y-33952219D01*
X47964285Y-33952219D02*
X47535714Y-34952219D01*
X21583333Y-27802219D02*
X21250000Y-27326028D01*
X21011905Y-27802219D02*
X21011905Y-26802219D01*
X21011905Y-26802219D02*
X21392857Y-26802219D01*
X21392857Y-26802219D02*
X21488095Y-26849838D01*
X21488095Y-26849838D02*
X21535714Y-26897457D01*
X21535714Y-26897457D02*
X21583333Y-26992695D01*
X21583333Y-26992695D02*
X21583333Y-27135552D01*
X21583333Y-27135552D02*
X21535714Y-27230790D01*
X21535714Y-27230790D02*
X21488095Y-27278409D01*
X21488095Y-27278409D02*
X21392857Y-27326028D01*
X21392857Y-27326028D02*
X21011905Y-27326028D01*
X21916667Y-26802219D02*
X22535714Y-26802219D01*
X22535714Y-26802219D02*
X22202381Y-27183171D01*
X22202381Y-27183171D02*
X22345238Y-27183171D01*
X22345238Y-27183171D02*
X22440476Y-27230790D01*
X22440476Y-27230790D02*
X22488095Y-27278409D01*
X22488095Y-27278409D02*
X22535714Y-27373647D01*
X22535714Y-27373647D02*
X22535714Y-27611742D01*
X22535714Y-27611742D02*
X22488095Y-27706980D01*
X22488095Y-27706980D02*
X22440476Y-27754600D01*
X22440476Y-27754600D02*
X22345238Y-27802219D01*
X22345238Y-27802219D02*
X22059524Y-27802219D01*
X22059524Y-27802219D02*
X21964286Y-27754600D01*
X21964286Y-27754600D02*
X21916667Y-27706980D01*
X15238095Y-23052219D02*
X15238095Y-23861742D01*
X15238095Y-23861742D02*
X15285714Y-23956980D01*
X15285714Y-23956980D02*
X15333333Y-24004600D01*
X15333333Y-24004600D02*
X15428571Y-24052219D01*
X15428571Y-24052219D02*
X15619047Y-24052219D01*
X15619047Y-24052219D02*
X15714285Y-24004600D01*
X15714285Y-24004600D02*
X15761904Y-23956980D01*
X15761904Y-23956980D02*
X15809523Y-23861742D01*
X15809523Y-23861742D02*
X15809523Y-23052219D01*
X16238095Y-23147457D02*
X16285714Y-23099838D01*
X16285714Y-23099838D02*
X16380952Y-23052219D01*
X16380952Y-23052219D02*
X16619047Y-23052219D01*
X16619047Y-23052219D02*
X16714285Y-23099838D01*
X16714285Y-23099838D02*
X16761904Y-23147457D01*
X16761904Y-23147457D02*
X16809523Y-23242695D01*
X16809523Y-23242695D02*
X16809523Y-23337933D01*
X16809523Y-23337933D02*
X16761904Y-23480790D01*
X16761904Y-23480790D02*
X16190476Y-24052219D01*
X16190476Y-24052219D02*
X16809523Y-24052219D01*
X2666666Y-6592219D02*
X2666666Y-7306504D01*
X2666666Y-7306504D02*
X2619047Y-7449361D01*
X2619047Y-7449361D02*
X2523809Y-7544600D01*
X2523809Y-7544600D02*
X2380952Y-7592219D01*
X2380952Y-7592219D02*
X2285714Y-7592219D01*
X3666666Y-7592219D02*
X3095238Y-7592219D01*
X3380952Y-7592219D02*
X3380952Y-6592219D01*
X3380952Y-6592219D02*
X3285714Y-6735076D01*
X3285714Y-6735076D02*
X3190476Y-6830314D01*
X3190476Y-6830314D02*
X3095238Y-6877933D01*
X21556980Y-48929166D02*
X21604600Y-48976785D01*
X21604600Y-48976785D02*
X21652219Y-49119642D01*
X21652219Y-49119642D02*
X21652219Y-49214880D01*
X21652219Y-49214880D02*
X21604600Y-49357737D01*
X21604600Y-49357737D02*
X21509361Y-49452975D01*
X21509361Y-49452975D02*
X21414123Y-49500594D01*
X21414123Y-49500594D02*
X21223647Y-49548213D01*
X21223647Y-49548213D02*
X21080790Y-49548213D01*
X21080790Y-49548213D02*
X20890314Y-49500594D01*
X20890314Y-49500594D02*
X20795076Y-49452975D01*
X20795076Y-49452975D02*
X20699838Y-49357737D01*
X20699838Y-49357737D02*
X20652219Y-49214880D01*
X20652219Y-49214880D02*
X20652219Y-49119642D01*
X20652219Y-49119642D02*
X20699838Y-48976785D01*
X20699838Y-48976785D02*
X20747457Y-48929166D01*
X20747457Y-48548213D02*
X20699838Y-48500594D01*
X20699838Y-48500594D02*
X20652219Y-48405356D01*
X20652219Y-48405356D02*
X20652219Y-48167261D01*
X20652219Y-48167261D02*
X20699838Y-48072023D01*
X20699838Y-48072023D02*
X20747457Y-48024404D01*
X20747457Y-48024404D02*
X20842695Y-47976785D01*
X20842695Y-47976785D02*
X20937933Y-47976785D01*
X20937933Y-47976785D02*
X21080790Y-48024404D01*
X21080790Y-48024404D02*
X21652219Y-48595832D01*
X21652219Y-48595832D02*
X21652219Y-47976785D01*
X35202219Y-28166666D02*
X34726028Y-28499999D01*
X35202219Y-28738094D02*
X34202219Y-28738094D01*
X34202219Y-28738094D02*
X34202219Y-28357142D01*
X34202219Y-28357142D02*
X34249838Y-28261904D01*
X34249838Y-28261904D02*
X34297457Y-28214285D01*
X34297457Y-28214285D02*
X34392695Y-28166666D01*
X34392695Y-28166666D02*
X34535552Y-28166666D01*
X34535552Y-28166666D02*
X34630790Y-28214285D01*
X34630790Y-28214285D02*
X34678409Y-28261904D01*
X34678409Y-28261904D02*
X34726028Y-28357142D01*
X34726028Y-28357142D02*
X34726028Y-28738094D01*
X34202219Y-27309523D02*
X34202219Y-27499999D01*
X34202219Y-27499999D02*
X34249838Y-27595237D01*
X34249838Y-27595237D02*
X34297457Y-27642856D01*
X34297457Y-27642856D02*
X34440314Y-27738094D01*
X34440314Y-27738094D02*
X34630790Y-27785713D01*
X34630790Y-27785713D02*
X35011742Y-27785713D01*
X35011742Y-27785713D02*
X35106980Y-27738094D01*
X35106980Y-27738094D02*
X35154600Y-27690475D01*
X35154600Y-27690475D02*
X35202219Y-27595237D01*
X35202219Y-27595237D02*
X35202219Y-27404761D01*
X35202219Y-27404761D02*
X35154600Y-27309523D01*
X35154600Y-27309523D02*
X35106980Y-27261904D01*
X35106980Y-27261904D02*
X35011742Y-27214285D01*
X35011742Y-27214285D02*
X34773647Y-27214285D01*
X34773647Y-27214285D02*
X34678409Y-27261904D01*
X34678409Y-27261904D02*
X34630790Y-27309523D01*
X34630790Y-27309523D02*
X34583171Y-27404761D01*
X34583171Y-27404761D02*
X34583171Y-27595237D01*
X34583171Y-27595237D02*
X34630790Y-27690475D01*
X34630790Y-27690475D02*
X34678409Y-27738094D01*
X34678409Y-27738094D02*
X34773647Y-27785713D01*
X4416666Y-25552219D02*
X4416666Y-26266504D01*
X4416666Y-26266504D02*
X4369047Y-26409361D01*
X4369047Y-26409361D02*
X4273809Y-26504600D01*
X4273809Y-26504600D02*
X4130952Y-26552219D01*
X4130952Y-26552219D02*
X4035714Y-26552219D01*
X4892857Y-26552219D02*
X4892857Y-25552219D01*
X4892857Y-25552219D02*
X5273809Y-25552219D01*
X5273809Y-25552219D02*
X5369047Y-25599838D01*
X5369047Y-25599838D02*
X5416666Y-25647457D01*
X5416666Y-25647457D02*
X5464285Y-25742695D01*
X5464285Y-25742695D02*
X5464285Y-25885552D01*
X5464285Y-25885552D02*
X5416666Y-25980790D01*
X5416666Y-25980790D02*
X5369047Y-26028409D01*
X5369047Y-26028409D02*
X5273809Y-26076028D01*
X5273809Y-26076028D02*
X4892857Y-26076028D01*
X6416666Y-26552219D02*
X5845238Y-26552219D01*
X6130952Y-26552219D02*
X6130952Y-25552219D01*
X6130952Y-25552219D02*
X6035714Y-25695076D01*
X6035714Y-25695076D02*
X5940476Y-25790314D01*
X5940476Y-25790314D02*
X5845238Y-25837933D01*
X1666666Y-72302219D02*
X1666666Y-73016504D01*
X1666666Y-73016504D02*
X1619047Y-73159361D01*
X1619047Y-73159361D02*
X1523809Y-73254600D01*
X1523809Y-73254600D02*
X1380952Y-73302219D01*
X1380952Y-73302219D02*
X1285714Y-73302219D01*
X2047619Y-72302219D02*
X2666666Y-72302219D01*
X2666666Y-72302219D02*
X2333333Y-72683171D01*
X2333333Y-72683171D02*
X2476190Y-72683171D01*
X2476190Y-72683171D02*
X2571428Y-72730790D01*
X2571428Y-72730790D02*
X2619047Y-72778409D01*
X2619047Y-72778409D02*
X2666666Y-72873647D01*
X2666666Y-72873647D02*
X2666666Y-73111742D01*
X2666666Y-73111742D02*
X2619047Y-73206980D01*
X2619047Y-73206980D02*
X2571428Y-73254600D01*
X2571428Y-73254600D02*
X2476190Y-73302219D01*
X2476190Y-73302219D02*
X2190476Y-73302219D01*
X2190476Y-73302219D02*
X2095238Y-73254600D01*
X2095238Y-73254600D02*
X2047619Y-73206980D01*
X21557142Y-31702219D02*
X21223809Y-31226028D01*
X20985714Y-31702219D02*
X20985714Y-30702219D01*
X20985714Y-30702219D02*
X21366666Y-30702219D01*
X21366666Y-30702219D02*
X21461904Y-30749838D01*
X21461904Y-30749838D02*
X21509523Y-30797457D01*
X21509523Y-30797457D02*
X21557142Y-30892695D01*
X21557142Y-30892695D02*
X21557142Y-31035552D01*
X21557142Y-31035552D02*
X21509523Y-31130790D01*
X21509523Y-31130790D02*
X21461904Y-31178409D01*
X21461904Y-31178409D02*
X21366666Y-31226028D01*
X21366666Y-31226028D02*
X20985714Y-31226028D01*
X22509523Y-31702219D02*
X21938095Y-31702219D01*
X22223809Y-31702219D02*
X22223809Y-30702219D01*
X22223809Y-30702219D02*
X22128571Y-30845076D01*
X22128571Y-30845076D02*
X22033333Y-30940314D01*
X22033333Y-30940314D02*
X21938095Y-30987933D01*
X22890476Y-30797457D02*
X22938095Y-30749838D01*
X22938095Y-30749838D02*
X23033333Y-30702219D01*
X23033333Y-30702219D02*
X23271428Y-30702219D01*
X23271428Y-30702219D02*
X23366666Y-30749838D01*
X23366666Y-30749838D02*
X23414285Y-30797457D01*
X23414285Y-30797457D02*
X23461904Y-30892695D01*
X23461904Y-30892695D02*
X23461904Y-30987933D01*
X23461904Y-30987933D02*
X23414285Y-31130790D01*
X23414285Y-31130790D02*
X22842857Y-31702219D01*
X22842857Y-31702219D02*
X23461904Y-31702219D01*
X24456980Y-43266666D02*
X24504600Y-43314285D01*
X24504600Y-43314285D02*
X24552219Y-43457142D01*
X24552219Y-43457142D02*
X24552219Y-43552380D01*
X24552219Y-43552380D02*
X24504600Y-43695237D01*
X24504600Y-43695237D02*
X24409361Y-43790475D01*
X24409361Y-43790475D02*
X24314123Y-43838094D01*
X24314123Y-43838094D02*
X24123647Y-43885713D01*
X24123647Y-43885713D02*
X23980790Y-43885713D01*
X23980790Y-43885713D02*
X23790314Y-43838094D01*
X23790314Y-43838094D02*
X23695076Y-43790475D01*
X23695076Y-43790475D02*
X23599838Y-43695237D01*
X23599838Y-43695237D02*
X23552219Y-43552380D01*
X23552219Y-43552380D02*
X23552219Y-43457142D01*
X23552219Y-43457142D02*
X23599838Y-43314285D01*
X23599838Y-43314285D02*
X23647457Y-43266666D01*
X23885552Y-42409523D02*
X24552219Y-42409523D01*
X23504600Y-42647618D02*
X24218885Y-42885713D01*
X24218885Y-42885713D02*
X24218885Y-42266666D01*
X22456980Y-43866666D02*
X22504600Y-43914285D01*
X22504600Y-43914285D02*
X22552219Y-44057142D01*
X22552219Y-44057142D02*
X22552219Y-44152380D01*
X22552219Y-44152380D02*
X22504600Y-44295237D01*
X22504600Y-44295237D02*
X22409361Y-44390475D01*
X22409361Y-44390475D02*
X22314123Y-44438094D01*
X22314123Y-44438094D02*
X22123647Y-44485713D01*
X22123647Y-44485713D02*
X21980790Y-44485713D01*
X21980790Y-44485713D02*
X21790314Y-44438094D01*
X21790314Y-44438094D02*
X21695076Y-44390475D01*
X21695076Y-44390475D02*
X21599838Y-44295237D01*
X21599838Y-44295237D02*
X21552219Y-44152380D01*
X21552219Y-44152380D02*
X21552219Y-44057142D01*
X21552219Y-44057142D02*
X21599838Y-43914285D01*
X21599838Y-43914285D02*
X21647457Y-43866666D01*
X21552219Y-42961904D02*
X21552219Y-43438094D01*
X21552219Y-43438094D02*
X22028409Y-43485713D01*
X22028409Y-43485713D02*
X21980790Y-43438094D01*
X21980790Y-43438094D02*
X21933171Y-43342856D01*
X21933171Y-43342856D02*
X21933171Y-43104761D01*
X21933171Y-43104761D02*
X21980790Y-43009523D01*
X21980790Y-43009523D02*
X22028409Y-42961904D01*
X22028409Y-42961904D02*
X22123647Y-42914285D01*
X22123647Y-42914285D02*
X22361742Y-42914285D01*
X22361742Y-42914285D02*
X22456980Y-42961904D01*
X22456980Y-42961904D02*
X22504600Y-43009523D01*
X22504600Y-43009523D02*
X22552219Y-43104761D01*
X22552219Y-43104761D02*
X22552219Y-43342856D01*
X22552219Y-43342856D02*
X22504600Y-43438094D01*
X22504600Y-43438094D02*
X22456980Y-43485713D01*
X44702219Y-5916666D02*
X44226028Y-6249999D01*
X44702219Y-6488094D02*
X43702219Y-6488094D01*
X43702219Y-6488094D02*
X43702219Y-6107142D01*
X43702219Y-6107142D02*
X43749838Y-6011904D01*
X43749838Y-6011904D02*
X43797457Y-5964285D01*
X43797457Y-5964285D02*
X43892695Y-5916666D01*
X43892695Y-5916666D02*
X44035552Y-5916666D01*
X44035552Y-5916666D02*
X44130790Y-5964285D01*
X44130790Y-5964285D02*
X44178409Y-6011904D01*
X44178409Y-6011904D02*
X44226028Y-6107142D01*
X44226028Y-6107142D02*
X44226028Y-6488094D01*
X43702219Y-5583332D02*
X43702219Y-4916666D01*
X43702219Y-4916666D02*
X44702219Y-5345237D01*
X23176028Y-53376190D02*
X23652219Y-53376190D01*
X22652219Y-53709523D02*
X23176028Y-53376190D01*
X23176028Y-53376190D02*
X22652219Y-53042857D01*
X23652219Y-52185714D02*
X23652219Y-52757142D01*
X23652219Y-52471428D02*
X22652219Y-52471428D01*
X22652219Y-52471428D02*
X22795076Y-52566666D01*
X22795076Y-52566666D02*
X22890314Y-52661904D01*
X22890314Y-52661904D02*
X22937933Y-52757142D01*
X6133333Y-30352219D02*
X5800000Y-29876028D01*
X5561905Y-30352219D02*
X5561905Y-29352219D01*
X5561905Y-29352219D02*
X5942857Y-29352219D01*
X5942857Y-29352219D02*
X6038095Y-29399838D01*
X6038095Y-29399838D02*
X6085714Y-29447457D01*
X6085714Y-29447457D02*
X6133333Y-29542695D01*
X6133333Y-29542695D02*
X6133333Y-29685552D01*
X6133333Y-29685552D02*
X6085714Y-29780790D01*
X6085714Y-29780790D02*
X6038095Y-29828409D01*
X6038095Y-29828409D02*
X5942857Y-29876028D01*
X5942857Y-29876028D02*
X5561905Y-29876028D01*
X6990476Y-29685552D02*
X6990476Y-30352219D01*
X6752381Y-29304600D02*
X6514286Y-30018885D01*
X6514286Y-30018885D02*
X7133333Y-30018885D01*
X46916666Y-6452219D02*
X46916666Y-7166504D01*
X46916666Y-7166504D02*
X46869047Y-7309361D01*
X46869047Y-7309361D02*
X46773809Y-7404600D01*
X46773809Y-7404600D02*
X46630952Y-7452219D01*
X46630952Y-7452219D02*
X46535714Y-7452219D01*
X47345238Y-6547457D02*
X47392857Y-6499838D01*
X47392857Y-6499838D02*
X47488095Y-6452219D01*
X47488095Y-6452219D02*
X47726190Y-6452219D01*
X47726190Y-6452219D02*
X47821428Y-6499838D01*
X47821428Y-6499838D02*
X47869047Y-6547457D01*
X47869047Y-6547457D02*
X47916666Y-6642695D01*
X47916666Y-6642695D02*
X47916666Y-6737933D01*
X47916666Y-6737933D02*
X47869047Y-6880790D01*
X47869047Y-6880790D02*
X47297619Y-7452219D01*
X47297619Y-7452219D02*
X47916666Y-7452219D01*
X21238095Y-24252219D02*
X21238095Y-25061742D01*
X21238095Y-25061742D02*
X21285714Y-25156980D01*
X21285714Y-25156980D02*
X21333333Y-25204600D01*
X21333333Y-25204600D02*
X21428571Y-25252219D01*
X21428571Y-25252219D02*
X21619047Y-25252219D01*
X21619047Y-25252219D02*
X21714285Y-25204600D01*
X21714285Y-25204600D02*
X21761904Y-25156980D01*
X21761904Y-25156980D02*
X21809523Y-25061742D01*
X21809523Y-25061742D02*
X21809523Y-24252219D01*
X22809523Y-25252219D02*
X22238095Y-25252219D01*
X22523809Y-25252219D02*
X22523809Y-24252219D01*
X22523809Y-24252219D02*
X22428571Y-24395076D01*
X22428571Y-24395076D02*
X22333333Y-24490314D01*
X22333333Y-24490314D02*
X22238095Y-24537933D01*
D11*
%TO.C,R8*%
X18977064Y-28365000D02*
X18522936Y-28365000D01*
X18977064Y-29835000D02*
X18522936Y-29835000D01*
%TO.C,J4*%
X357500Y-30820000D02*
X357500Y-33180000D01*
X357500Y-33780000D02*
X357500Y-51380000D01*
X977500Y-30820000D02*
X977500Y-51380000D01*
X2477500Y-30820000D02*
X2477500Y-51380000D01*
X7377500Y-30820000D02*
X7377500Y-51380000D01*
X10397500Y-30820000D02*
X357500Y-30820000D01*
X10397500Y-30820000D02*
X10397500Y-51380000D01*
X10397500Y-51380000D02*
X357500Y-51380000D01*
X977500Y-33480000D02*
X367500Y-33920000D01*
X367500Y-33040000D01*
X977500Y-33480000D01*
G36*
X977500Y-33480000D02*
G01*
X367500Y-33920000D01*
X367500Y-33040000D01*
X977500Y-33480000D01*
G37*
%TO.C,J5*%
X39180000Y-35280000D02*
X49220000Y-35280000D01*
X39180000Y-55840000D02*
X39180000Y-35280000D01*
X39180000Y-55840000D02*
X49220000Y-55840000D01*
X42200000Y-55840000D02*
X42200000Y-35280000D01*
X47100000Y-55840000D02*
X47100000Y-35280000D01*
X48600000Y-55840000D02*
X48600000Y-35280000D01*
X49220000Y-52880000D02*
X49220000Y-35280000D01*
X49220000Y-55840000D02*
X49220000Y-53480000D01*
X49210000Y-53620000D02*
X48600000Y-53180000D01*
X49210000Y-52740000D01*
X49210000Y-53620000D01*
G36*
X49210000Y-53620000D02*
G01*
X48600000Y-53180000D01*
X49210000Y-52740000D01*
X49210000Y-53620000D01*
G37*
D12*
%TO.C,BT1*%
X18750000Y-67475000D02*
X19750000Y-67475000D01*
X44940000Y-63725000D02*
X42245000Y-63725000D01*
X44940000Y-63725000D02*
X44940000Y-66005000D01*
X44940000Y-71225000D02*
X42245000Y-71225000D01*
X44940000Y-71225000D02*
X44940000Y-68945000D01*
X46250000Y-67475000D02*
X47250000Y-67475000D01*
X46750000Y-66975000D02*
X46750000Y-67975000D01*
X42245000Y-71225000D02*
G75*
G02*
X42245000Y-63725000I-10530060J3750000D01*
G01*
D11*
%TO.C,J6*%
X22560000Y-36630000D02*
X22560000Y-35250000D01*
X23940000Y-36630000D02*
X22560000Y-36630000D01*
X25210000Y-33870000D02*
X32940000Y-33870000D01*
X25210000Y-36630000D02*
X25210000Y-33870000D01*
X25210000Y-36630000D02*
X32940000Y-36630000D01*
X32940000Y-36630000D02*
X32940000Y-33870000D01*
%TO.C,R1*%
X8375000Y-6275000D02*
X8375000Y-1225000D01*
X18125000Y-1225000D02*
X8375000Y-1225000D01*
X18125000Y-6275000D02*
X8375000Y-6275000D01*
X18125000Y-6275000D02*
X18125000Y-1225000D01*
%TO.C,R9*%
X18977064Y-32565000D02*
X18522936Y-32565000D01*
X18977064Y-34035000D02*
X18522936Y-34035000D01*
%TO.C,R2*%
X12977064Y-22415000D02*
X12522936Y-22415000D01*
X12977064Y-23885000D02*
X12522936Y-23885000D01*
%TO.C,R10*%
X14015000Y-39677064D02*
X14015000Y-39222936D01*
X15485000Y-39677064D02*
X15485000Y-39222936D01*
%TO.C,U4*%
X26075000Y-41625000D02*
X26075000Y-39675000D01*
X26075000Y-41625000D02*
X26075000Y-43575000D01*
X31195000Y-41625000D02*
X31195000Y-39675000D01*
X31195000Y-41625000D02*
X31195000Y-43575000D01*
X26170000Y-44325000D02*
X25840000Y-44565000D01*
X25840000Y-44085000D01*
X26170000Y-44325000D01*
G36*
X26170000Y-44325000D02*
G01*
X25840000Y-44565000D01*
X25840000Y-44085000D01*
X26170000Y-44325000D01*
G37*
%TO.C,C1*%
X8515000Y-26988748D02*
X8515000Y-27511252D01*
X9985000Y-26988748D02*
X9985000Y-27511252D01*
%TO.C,C3*%
X31125000Y-48616233D02*
X31125000Y-48908767D01*
X32145000Y-48616233D02*
X32145000Y-48908767D01*
%TO.C,JP2*%
X11250000Y-40150000D02*
X11250000Y-38750000D01*
X11950000Y-38050000D02*
X12550000Y-38050000D01*
X12550000Y-40850000D02*
X11950000Y-40850000D01*
X13250000Y-38750000D02*
X13250000Y-40150000D01*
X11250000Y-38750000D02*
G75*
G02*
X11950000Y-38050000I700000J0D01*
G01*
X11950000Y-40850000D02*
G75*
G02*
X11250000Y-40150000I-1J699999D01*
G01*
X12550000Y-38050000D02*
G75*
G02*
X13250000Y-38750000I0J-700000D01*
G01*
X13250000Y-40150000D02*
G75*
G02*
X12550000Y-40850000I-699999J-1D01*
G01*
%TO.C,R11*%
X13227064Y-33015000D02*
X12772936Y-33015000D01*
X13227064Y-34485000D02*
X12772936Y-34485000D01*
%TO.C,R5*%
X28015000Y-27772936D02*
X28015000Y-28227064D01*
X29485000Y-27772936D02*
X29485000Y-28227064D01*
%TO.C,U3*%
X16890000Y-39600000D02*
X16890000Y-37400000D01*
X16890000Y-39600000D02*
X16890000Y-41800000D01*
X20110000Y-39600000D02*
X20110000Y-37400000D01*
X20110000Y-39600000D02*
X20110000Y-41800000D01*
X20265000Y-36940000D02*
X19935000Y-36700000D01*
X20265000Y-36460000D01*
X20265000Y-36940000D01*
G36*
X20265000Y-36940000D02*
G01*
X19935000Y-36700000D01*
X20265000Y-36460000D01*
X20265000Y-36940000D01*
G37*
%TO.C,J7*%
X45870000Y-31060000D02*
X45870000Y-20790000D01*
X48630000Y-20790000D02*
X45870000Y-20790000D01*
X48630000Y-31060000D02*
X45870000Y-31060000D01*
X48630000Y-31060000D02*
X48630000Y-20790000D01*
X48630000Y-32330000D02*
X48630000Y-33710000D01*
X48630000Y-33710000D02*
X47250000Y-33710000D01*
%TO.C,R3*%
X18522936Y-26365000D02*
X18977064Y-26365000D01*
X18522936Y-27835000D02*
X18977064Y-27835000D01*
%TO.C,U2*%
X11190000Y-28250000D02*
X11190000Y-26300000D01*
X11190000Y-28250000D02*
X11190000Y-30200000D01*
X16310000Y-28250000D02*
X16310000Y-26300000D01*
X16310000Y-28250000D02*
X16310000Y-30200000D01*
X11285000Y-30950000D02*
X10955000Y-31190000D01*
X10955000Y-30710000D01*
X11285000Y-30950000D01*
G36*
X11285000Y-30950000D02*
G01*
X10955000Y-31190000D01*
X10955000Y-30710000D01*
X11285000Y-30950000D01*
G37*
%TO.C,J1*%
X1620000Y-8140000D02*
X3000000Y-8140000D01*
X1620000Y-9520000D02*
X1620000Y-8140000D01*
X1620000Y-10790000D02*
X1620000Y-23600000D01*
X1620000Y-10790000D02*
X4380000Y-10790000D01*
X1620000Y-23600000D02*
X4380000Y-23600000D01*
X4380000Y-10790000D02*
X4380000Y-23600000D01*
%TO.C,C2*%
X22125000Y-48616233D02*
X22125000Y-48908767D01*
X23145000Y-48616233D02*
X23145000Y-48908767D01*
%TO.C,R6*%
X30515000Y-27772936D02*
X30515000Y-28227064D01*
X31985000Y-27772936D02*
X31985000Y-28227064D01*
%TO.C,JP1*%
X1750000Y-27600000D02*
X1750000Y-26200000D01*
X2450000Y-25500000D02*
X3050000Y-25500000D01*
X3050000Y-28300000D02*
X2450000Y-28300000D01*
X3750000Y-26200000D02*
X3750000Y-27600000D01*
X1750000Y-26200000D02*
G75*
G02*
X2450000Y-25500000I700000J0D01*
G01*
X2450000Y-28300000D02*
G75*
G02*
X1750000Y-27600000I-1J699999D01*
G01*
X3050000Y-25500000D02*
G75*
G02*
X3750000Y-26200000I0J-700000D01*
G01*
X3750000Y-27600000D02*
G75*
G02*
X3050000Y-28300000I-699999J-1D01*
G01*
%TO.C,J3*%
X357500Y-51140000D02*
X357500Y-53500000D01*
X357500Y-54100000D02*
X357500Y-71700000D01*
X977500Y-51140000D02*
X977500Y-71700000D01*
X2477500Y-51140000D02*
X2477500Y-71700000D01*
X7377500Y-51140000D02*
X7377500Y-71700000D01*
X10397500Y-51140000D02*
X357500Y-51140000D01*
X10397500Y-51140000D02*
X10397500Y-71700000D01*
X10397500Y-71700000D02*
X357500Y-71700000D01*
X927500Y-53800000D02*
X317500Y-54240000D01*
X317500Y-53360000D01*
X927500Y-53800000D01*
G36*
X927500Y-53800000D02*
G01*
X317500Y-54240000D01*
X317500Y-53360000D01*
X927500Y-53800000D01*
G37*
%TO.C,R12*%
X18522936Y-30515000D02*
X18977064Y-30515000D01*
X18522936Y-31985000D02*
X18977064Y-31985000D01*
%TO.C,C4*%
X23365000Y-39638748D02*
X23365000Y-40161252D01*
X24835000Y-39638748D02*
X24835000Y-40161252D01*
%TO.C,C5*%
X21165000Y-39638748D02*
X21165000Y-40161252D01*
X22635000Y-39638748D02*
X22635000Y-40161252D01*
%TO.C,R7*%
X41515000Y-5977064D02*
X41515000Y-5522936D01*
X42985000Y-5977064D02*
X42985000Y-5522936D01*
D12*
%TO.C,Y1*%
X25235000Y-46625000D02*
X29035000Y-46625000D01*
X25235000Y-46635000D02*
X25235000Y-46971000D01*
X25235000Y-54605000D02*
X25235000Y-54279000D01*
X25245000Y-54605000D02*
X25235000Y-54605000D01*
X29035000Y-46635000D02*
X29035000Y-46971000D01*
X29035000Y-54595000D02*
X29035000Y-54279000D01*
X29035000Y-54625000D02*
X25235000Y-54625000D01*
D13*
X25589000Y-46175000D02*
G75*
G02*
X25489000Y-46175000I-50000J0D01*
G01*
X25489000Y-46175000D02*
G75*
G02*
X25589000Y-46175000I50000J0D01*
G01*
D11*
%TO.C,R4*%
X6022936Y-27515000D02*
X6477064Y-27515000D01*
X6022936Y-28985000D02*
X6477064Y-28985000D01*
%TO.C,J2*%
X45870000Y-15790000D02*
X45870000Y-8060000D01*
X48630000Y-8060000D02*
X45870000Y-8060000D01*
X48630000Y-15790000D02*
X45870000Y-15790000D01*
X48630000Y-15790000D02*
X48630000Y-8060000D01*
X48630000Y-17060000D02*
X48630000Y-18440000D01*
X48630000Y-18440000D02*
X47250000Y-18440000D01*
D14*
%TO.C,U1*%
X21485000Y-375000D02*
X22985000Y-375000D01*
X21485000Y-875000D02*
X21485000Y-375000D01*
X21485000Y-23375000D02*
X21485000Y-23875000D01*
X21485000Y-23875000D02*
X23485000Y-23875000D01*
X36985000Y-23875000D02*
X38985000Y-23875000D01*
X37485000Y-375000D02*
X38985000Y-375000D01*
X38985000Y-375000D02*
X38985000Y-875000D01*
X38985000Y-23875000D02*
X38985000Y-23375000D01*
%TD*%
M02*
