M48
; DRILL file {KiCad 9.0.2-rc1} date 2025-05-18T20:42:45-0400
; FORMAT={3:3/ absolute / metric / suppress leading zeros}
; #@! TF.CreationDate,2025-05-18T20:42:45-04:00
; #@! TF.GenerationSoftware,Kicad,Pcbnew,9.0.2-rc1
; #@! TF.FileFunction,MixedPlating,1,2
FMAT,2
METRIC,TZ
; #@! TA.AperFunction,Plated,PTH,ViaDrill
T1C0.400
; #@! TA.AperFunction,Plated,PTH,ComponentDrill
T2C0.800
; #@! TA.AperFunction,Plated,PTH,ComponentDrill
T3C1.000
; #@! TA.AperFunction,Plated,PTH,ComponentDrill
T4C1.170
; #@! TA.AperFunction,Plated,PTH,ComponentDrill
T5C1.300
; #@! TA.AperFunction,Plated,PTH,ComponentDrill
T6C1.500
; #@! TA.AperFunction,Plated,PTH,ViaDrill
T7C3.400
%
G90
G05
T1
X1500Y-7250
X2850Y-24650
X6500Y-6000
X7000Y-1250
X7300Y-10800
X8000Y-34800
X8300Y-30900
X8800Y-43900
X9000Y-40400
X9250Y-24850
X10300Y-35500
X10900Y-37000
X10900Y-72100
X11800Y-54200
X12600Y-13500
X13050Y-27350
X13800Y-65200
X14500Y-18900
X14988Y-28288
X15750Y-33850
X15865Y-9635
X15895Y-7095
X17200Y-39600
X17249Y-17600
X17249Y-20151
X17900Y-34700
X18400Y-44300
X18450Y-11650
X18450Y-18900
X19300Y-56200
X19500Y-44200
X20200Y-34724
X21300Y-30300
X21300Y-32200
X21650Y-26550
X21900Y-42400
X23700Y-37600
X23850Y-26550
X24100Y-45500
X24800Y-76400
X25250Y-19750
X26400Y-1900
X26450Y-27750
X27000Y-56900
X27100Y-31700
X27100Y-51000
X27400Y-33600
X28750Y-7750
X28800Y-31600
X29100Y-32900
X29400Y-41200
X29600Y-46000
X30900Y-62400
X31900Y-45400
X33000Y-70900
X33750Y-3250
X33750Y-10750
X34250Y-17250
X36000Y-27750
X36000Y-33500
X36000Y-58600
X36100Y-46100
X36600Y-59400
X36800Y-36400
X37150Y-26550
X37200Y-30200
X38200Y-25300
X38500Y-65300
X39100Y-42900
X39100Y-52900
X39200Y-24900
X42900Y-73200
X43050Y-27750
X43051Y-23250
X44250Y-22450
X45800Y-57700
X47300Y-64800
X47400Y-19400
X48600Y-49900
T2
X10710Y-3755
X13250Y-3755
X15790Y-3755
X22525Y-2015
X22525Y-4555
X22525Y-7095
X22525Y-9635
X22525Y-12175
X22525Y-14715
X22525Y-17255
X22525Y-19795
X22525Y-22335
X25065Y-22335
X27605Y-22335
X30145Y-22335
X32685Y-22335
X35225Y-22335
X37765Y-2015
X37765Y-4555
X37765Y-7095
X37765Y-9635
X37765Y-12175
X37765Y-14715
X37765Y-17255
X37765Y-19795
X37765Y-22335
T3
X3000Y-9520
X3000Y-12060
X3000Y-14600
X3000Y-17140
X3000Y-19680
X3000Y-22220
X23940Y-35250
X26480Y-35250
X29020Y-35250
X31560Y-35250
X47250Y-9440
X47250Y-11980
X47250Y-14520
X47250Y-17060
X47250Y-22170
X47250Y-24710
X47250Y-27250
X47250Y-29790
X47250Y-32330
T4
X24250Y-67475
T5
X5078Y-33480
X5078Y-38560
X5078Y-43640
X5078Y-48720
X5078Y-53800
X5078Y-58880
X5078Y-63960
X5078Y-69040
X44500Y-37940
X44500Y-43020
X44500Y-48100
X44500Y-53180
T6
X44250Y-67475
T7
X3250Y-3250
X3250Y-76750
X46750Y-3250
X46750Y-76750
M30
